<svg width="206" height="42" viewBox="0 0 206 42" xmlns="http://www.w3.org/2000/svg">
<path d="M14.4253 20.7822H6.12919L4.64333 25.2398H0L7.8627 3.07565H12.9084L20.5854 25.2398H15.8802L14.4253 20.7822ZM13.187 16.9747L10.3082 8.30713L7.39837 16.9747H13.187Z" />
<path d="M27.5499 16.4484V25.2398H22.9995V3.07565H34.8864C36.7643 3.07565 38.1986 3.58126 39.1892 4.59247C40.3036 5.72751 40.8608 7.22369 40.8608 9.08102C40.8608 11.7638 39.6019 13.5902 37.0842 14.5601C38.5082 15.1173 39.3749 15.8087 39.6845 16.6342C39.9115 17.2326 40.0766 19.2241 40.1798 22.6086C40.2004 23.4547 40.5203 24.0532 41.1394 24.404V25.2398H36.2484C35.7944 24.3937 35.5674 23.1451 35.5674 21.4942C35.5674 21.0814 35.5777 20.5758 35.5984 19.9774C35.5984 19.5646 35.5984 19.2654 35.5984 19.0796C35.5984 17.3255 34.6594 16.4484 32.7814 16.4484H27.5499ZM27.5499 12.6409H33.06C34.2157 12.6409 35.0205 12.4552 35.4745 12.0837C36.0317 11.6091 36.3103 10.8248 36.3103 9.73108C36.3103 8.6786 36.0317 7.92535 35.4745 7.47133C34.9999 7.07923 34.195 6.88318 33.06 6.88318H27.5499V12.6409Z"/>
<path d="M48.9419 3.07565V25.2398H44.3914V3.07565H48.9419Z"/>
<path d="M69.1541 9.76204H64.8823C64.7378 7.51261 63.19 6.38789 60.2389 6.38789C59.0626 6.38789 58.1236 6.62522 57.422 7.09987C56.741 7.57452 56.4005 8.21427 56.4005 9.01911C56.4005 9.80331 56.6894 10.3915 57.2672 10.7836C57.845 11.1757 58.9594 11.5265 60.6104 11.8361L64.0774 12.4861C66.1205 12.8782 67.6063 13.5489 68.535 14.4982C69.4637 15.4475 69.928 16.7889 69.928 18.5224C69.928 20.8957 69.02 22.7014 67.2039 23.9397C65.6355 25.0334 63.5202 25.5803 60.858 25.5803C57.8244 25.5803 55.5131 24.8786 53.924 23.4753C52.5413 22.2577 51.7881 20.5655 51.6643 18.3986H56.0909C56.256 20.7512 57.9173 21.9276 61.0747 21.9276C62.4781 21.9276 63.5718 21.6799 64.356 21.1846C65.1609 20.6687 65.5633 19.967 65.5633 19.0796C65.5633 18.2129 65.2434 17.5422 64.6037 17.0675C63.9846 16.5929 62.9114 16.2111 61.3843 15.9222L58.2887 15.334C56.0393 14.9213 54.4296 14.2712 53.4597 13.3838C52.5104 12.4758 52.0357 11.1757 52.0357 9.48344C52.0357 7.19273 52.8715 5.45923 54.5431 4.28292C55.9877 3.25107 57.9482 2.73514 60.4247 2.73514C63.417 2.73514 65.6665 3.41616 67.173 4.7782C68.4731 5.97515 69.1335 7.63643 69.1541 9.76204Z"/>
<path d="M82.3496 6.88318V25.2398H77.7992V6.88318H71.0509V3.07565H88.7884V6.88318H82.3496Z" />
<path d="M100.691 2.73514C103.828 2.73514 106.346 3.73604 108.244 5.73782C110.308 7.90471 111.34 10.7113 111.34 14.1577C111.34 17.5628 110.308 20.3695 108.244 22.5776C106.366 24.5794 103.849 25.5803 100.691 25.5803C97.5132 25.5803 94.9851 24.5794 93.1072 22.5776C91.0435 20.3695 90.0116 17.5628 90.0116 14.1577C90.0116 10.7526 91.0435 7.94598 93.1072 5.73782C95.0058 3.73604 97.5338 2.73514 100.691 2.73514ZM100.691 6.63554C98.7101 6.63554 97.152 7.40942 96.017 8.9572C95.047 10.2986 94.5621 12.0321 94.5621 14.1577C94.5621 16.5929 95.1915 18.5018 96.4504 19.8845C97.5441 21.0814 98.9577 21.6799 100.691 21.6799C102.672 21.6799 104.22 20.906 105.335 19.3582C106.305 18.0168 106.789 16.2833 106.789 14.1577C106.789 11.7226 106.16 9.81363 104.901 8.43095C103.807 7.23401 102.404 6.63554 100.691 6.63554Z"/>
<path d="M132.748 10.474H128.414C127.816 7.91503 126.237 6.63554 123.678 6.63554C121.759 6.63554 120.283 7.3991 119.252 8.92624C118.364 10.2676 117.92 12.0527 117.92 14.2815C117.92 16.7993 118.478 18.7185 119.592 20.0393C120.562 21.1743 121.872 21.7418 123.523 21.7418C124.947 21.7418 126.082 21.3704 126.928 20.6274C127.775 19.8845 128.27 18.8217 128.414 17.439H132.841C132.697 20.1218 131.665 22.1958 129.745 23.6611C128.094 24.9406 125.979 25.5803 123.4 25.5803C120.098 25.5803 117.539 24.4246 115.723 22.1133C114.154 20.1115 113.37 17.47 113.37 14.1887C113.37 10.4327 114.402 7.52292 116.466 5.45922C118.261 3.64317 120.603 2.73514 123.492 2.73514C126.918 2.73514 129.508 3.88049 131.262 6.1712C132.129 7.30624 132.624 8.74051 132.748 10.474Z" />
<path d="M140.394 16.4484V25.2398H135.843V3.07565H147.73C149.608 3.07565 151.042 3.58126 152.033 4.59247C153.147 5.72751 153.704 7.22369 153.704 9.08102C153.704 11.7638 152.446 13.5902 149.928 14.5601C151.352 15.1173 152.219 15.8087 152.528 16.6342C152.755 17.2326 152.92 19.2241 153.023 22.6086C153.044 23.4547 153.364 24.0532 153.983 24.404V25.2398H149.092C148.638 24.3937 148.411 23.1451 148.411 21.4942C148.411 21.0814 148.421 20.5758 148.442 19.9774C148.442 19.5646 148.442 19.2654 148.442 19.0796C148.442 17.3255 147.503 16.4484 145.625 16.4484H140.394ZM140.394 12.6409H145.904C147.059 12.6409 147.864 12.4552 148.318 12.0837C148.875 11.6091 149.154 10.8248 149.154 9.73108C149.154 8.6786 148.875 7.92535 148.318 7.47133C147.844 7.07923 147.039 6.88318 145.904 6.88318H140.394V12.6409Z" />
<path d="M170.144 20.7822H161.847L160.362 25.2398H155.718L163.581 3.07565H168.627L176.304 25.2398H171.598L170.144 20.7822ZM168.905 16.9747L166.026 8.30713L163.117 16.9747H168.905Z" />
<path d="M188.221 6.88318V25.2398H183.671V6.88318H176.922V3.07565H194.66V6.88318H188.221Z" />
<path d="M0.930573 38.3627V41.8231H0.14563V33.9074H3.17485C4.00033 33.9074 4.61207 34.0806 5.01007 34.427C5.44492 34.8029 5.66234 35.3741 5.66234 36.1406C5.66234 36.9071 5.44492 37.4746 5.01007 37.8431C4.6047 38.1895 3.99296 38.3627 3.17485 38.3627H0.930573ZM0.930573 37.6994H2.84318C3.55811 37.6994 4.07035 37.5741 4.3799 37.3235C4.7042 37.0656 4.86634 36.6712 4.86634 36.1406C4.86634 35.6099 4.7042 35.2156 4.3799 34.9576C4.07035 34.707 3.55811 34.5817 2.84318 34.5817H0.930573V37.6994Z" />
<path d="M18.5655 38.2301V41.8231H17.7805V33.9074H21.0972C21.9227 33.9074 22.5381 34.0732 22.9434 34.4049C23.3709 34.7513 23.5847 35.2782 23.5847 35.9858C23.5847 36.8776 23.1719 37.5151 22.3464 37.8984C22.6855 38.0532 22.9287 38.2632 23.0761 38.5286C23.2309 38.7939 23.323 39.1735 23.3525 39.6673L23.4188 40.6955C23.4409 40.9755 23.4852 41.193 23.5515 41.3477C23.6178 41.5025 23.7394 41.661 23.9163 41.8231H22.8661C22.7555 41.5504 22.6855 41.2519 22.656 40.9276L22.5786 40.0211C22.527 39.3356 22.3907 38.8676 22.1696 38.617C21.9484 38.3591 21.5689 38.2301 21.0308 38.2301H18.5655ZM18.5655 37.5999H20.9534C21.6168 37.5999 22.0885 37.4746 22.3686 37.224C22.6634 36.9587 22.8108 36.5828 22.8108 36.0964C22.8108 35.6099 22.6634 35.2303 22.3686 34.9576C22.0885 34.707 21.6168 34.5817 20.9534 34.5817H18.5655V37.5999Z" />
<path d="M36.9777 33.9074V41.8231H36.1927V33.9074H36.9777Z" />
<path d="M52.5678 41.8231H51.7718L48.8642 33.9074H49.7265L51.617 39.3577C51.7055 39.601 51.8197 39.9289 51.9597 40.3417L52.1809 40.9608L52.3909 40.3085C52.4867 40.0284 52.5936 39.7115 52.7115 39.3577L54.5688 33.9074H55.4091L52.5678 41.8231Z" />
<path d="M71.7391 39.3246H68.2566L67.3169 41.8231H66.5099L69.5723 33.9074H70.4014L73.5191 41.8231H72.701L71.7391 39.3246ZM71.4849 38.6944L69.9592 34.7255L68.4888 38.6944H71.4849Z" />
<path d="M87.848 34.5817V41.8231H87.0631V34.5817H84.5424V33.9074H90.3687V34.5817H87.848Z" />
<path d="M107.461 33.9074V34.5817H102.961V37.4451H107.096V38.0753H102.961V41.1487H107.571V41.8231H102.176V33.9074H107.461Z" />
<path d="M141.425 36.1516H140.596C140.463 35.6062 140.187 35.1787 139.767 34.8692C139.347 34.5596 138.838 34.4048 138.241 34.4048C137.327 34.4048 136.623 34.7586 136.129 35.4662C135.695 36.0853 135.477 36.896 135.477 37.8984C135.477 39.0187 135.757 39.8921 136.317 40.5186C136.804 41.0566 137.438 41.3256 138.219 41.3256C138.941 41.3256 139.534 41.0898 139.999 40.6181C140.404 40.2053 140.655 39.6599 140.751 38.9818H141.524C141.429 39.6599 141.226 40.2164 140.916 40.6512C140.297 41.5504 139.391 42 138.197 42C137.047 42 136.155 41.5799 135.521 40.7397C134.969 40.01 134.692 39.0518 134.692 37.8652C134.692 36.5017 135.057 35.4477 135.787 34.7033C136.413 34.0547 137.242 33.7304 138.274 33.7304C139.144 33.7304 139.866 33.9737 140.441 34.4601C140.942 34.8876 141.27 35.4514 141.425 36.1516Z" />
<path d="M154.491 33.9073V41.1487H158.316V41.8231H153.706V33.9073H154.491Z"/>
<path d="M175.281 33.9073H176.077V39.0261C176.077 39.9695 175.849 40.6696 175.392 41.1266C174.854 41.672 174.106 41.9447 173.147 41.9447C172.189 41.9447 171.445 41.672 170.914 41.1266C170.457 40.6696 170.229 39.9695 170.229 39.0261V33.9073H171.014V39.0813C171.014 39.752 171.157 40.2532 171.445 40.5849C171.828 41.0418 172.396 41.2703 173.147 41.2703C173.907 41.2703 174.478 41.0418 174.861 40.5849C175.141 40.2532 175.281 39.752 175.281 39.0813V33.9073Z" />
<path d="M188.749 41.8231V33.9073H191.955C192.744 33.9073 193.33 34.0732 193.713 34.4048C194.118 34.7586 194.321 35.2524 194.321 35.8863C194.321 36.7118 193.949 37.2903 193.204 37.622C194.185 37.9242 194.675 38.5765 194.675 39.5788C194.675 40.3011 194.443 40.865 193.978 41.2703C193.558 41.6388 192.898 41.8231 191.999 41.8231H188.749ZM189.501 37.4009H191.867C192.493 37.4009 192.943 37.2535 193.215 36.9587C193.451 36.7081 193.569 36.3838 193.569 35.9858C193.569 35.5952 193.451 35.2745 193.215 35.0239C192.943 34.7291 192.493 34.5817 191.867 34.5817H189.501V37.4009ZM189.501 41.1487H192.088C193.296 41.1487 193.901 40.6291 193.901 39.5899C193.901 38.5507 193.296 38.0311 192.088 38.0311H189.501V41.1487Z" />
<path d="M201.423 0C202.108 0 202.753 0.173204 203.357 0.51961C203.932 0.858647 204.389 1.31929 204.728 1.90155C205.075 2.50592 205.248 3.15083 205.248 3.83627C205.248 4.51435 205.075 5.15557 204.728 5.75994C204.397 6.33482 203.94 6.79179 203.357 7.13082C202.76 7.47723 202.116 7.65043 201.423 7.65043C200.73 7.65043 200.089 7.47723 199.499 7.13082C198.909 6.79179 198.449 6.33482 198.117 5.75994C197.771 5.16294 197.598 4.52172 197.598 3.83627C197.598 3.14346 197.771 2.49855 198.117 1.90155C198.456 1.31929 198.917 0.858647 199.499 0.51961C200.096 0.173204 200.737 0 201.423 0ZM201.423 0.475388C200.501 0.475388 199.713 0.803369 199.057 1.45933C198.401 2.11529 198.073 2.90761 198.073 3.83627C198.073 4.76494 198.401 5.55357 199.057 6.20216C199.705 6.85812 200.494 7.1861 201.423 7.1861C202.351 7.1861 203.144 6.85812 203.8 6.20216C204.456 5.5462 204.784 4.75757 204.784 3.83627C204.784 2.91498 204.456 2.12266 203.8 1.45933C203.136 0.803369 202.344 0.475388 201.423 0.475388ZM199.775 1.592H201.379C201.865 1.592 202.248 1.72835 202.528 2.00105C202.808 2.26639 202.948 2.63859 202.948 3.11766C202.948 3.63359 202.709 4.00948 202.23 4.24533L203.092 5.84838L202.794 6.08055H202.429L201.6 4.45538H200.428V6.08055H199.775V1.592ZM201.356 2.27744H200.428V3.75888H201.434C201.692 3.75888 201.891 3.68886 202.031 3.54883C202.186 3.40142 202.263 3.20611 202.263 2.96288C202.263 2.80811 202.23 2.67544 202.163 2.56489C202.031 2.37326 201.762 2.27744 201.356 2.27744Z" />
</svg>
