<svg width="10" height="6" viewBox="0 0 10 6" fill="none" xmlns="http://www.w3.org/2000/svg">
<path d="M0.191657 4.81409C0.0676432 4.94325 6.09079e-08 5.10763 6.32182e-08 5.30137C6.78388e-08 5.68885 0.293122 6 0.665163 6C0.851184 6 1.02029 5.91781 1.14994 5.78278L5.00564 1.67319L8.85006 5.78278C8.97971 5.91781 9.15445 6 9.33484 6C9.70688 6 10 5.68885 10 5.30137C10 5.10763 9.93236 4.94325 9.80834 4.81409L5.52424 0.246575C5.37768 0.0821918 5.19729 0.0058709 5 5.96244e-08C4.80271 6.19771e-08 4.6336 0.0821918 4.4814 0.246575L0.191657 4.81409Z" fill="#979797"/>
</svg>
