<svg width="13" height="21" viewBox="0 0 13 21" fill="none" xmlns="http://www.w3.org/2000/svg">
<path d="M9.70801 20.3906C9.96582 20.6484 10.2939 20.7891 10.6807 20.7891C11.4541 20.7891 12.0752 20.1797 12.0752 19.4062C12.0752 19.0195 11.9111 18.668 11.6416 18.3984L3.43848 10.3828L11.6416 2.39062C11.9111 2.12109 12.0752 1.75781 12.0752 1.38281C12.0752 0.609375 11.4541 0 10.6807 0C10.2939 0 9.96582 0.140625 9.70801 0.398438L0.59082 9.30469C0.262695 9.60938 0.110352 9.98438 0.0986328 10.3945C0.0986328 10.8047 0.262695 11.1562 0.59082 11.4727L9.70801 20.3906Z" fill="#D1D1D1"/>
</svg>
