<svg width="10" height="6" viewBox="0 0 10 6" fill="none" xmlns="http://www.w3.org/2000/svg">
<path d="M9.80834 1.18591C9.93236 1.05675 10 0.892367 10 0.69863C10 0.311154 9.70688 -4.24301e-07 9.33484 -4.08039e-07C9.14882 -3.99907e-07 8.97971 0.0821916 8.85006 0.217221L4.99436 4.32681L1.14994 0.217221C1.02029 0.0821919 0.845547 -3.696e-08 0.665163 -2.90752e-08C0.293123 -1.28128e-08 -2.48667e-07 0.311155 -2.3173e-07 0.69863C-2.23262e-07 0.892368 0.0676435 1.05675 0.191657 1.18591L4.47576 5.75342C4.62232 5.91781 4.80271 5.99413 5 6C5.19729 6 5.3664 5.91781 5.5186 5.75342L9.80834 1.18591Z" fill="#3F3F3F"/>
</svg>
