<svg width="18" height="20" viewBox="0 0 18 20" fill="none" xmlns="http://www.w3.org/2000/svg">
<path fill-rule="evenodd" clip-rule="evenodd" d="M0.367154 9.63517C0.250771 9.51908 0.158434 9.38117 0.0954312 9.22934C0.0324288 9.07751 -4.75396e-08 8.91474 -5.4725e-08 8.75036C-6.19103e-08 8.58598 0.0324288 8.42321 0.0954312 8.27138C0.158434 8.11955 0.250771 7.98164 0.367154 7.86555L7.86552 0.367184C7.98161 0.250801 8.11952 0.158465 8.27135 0.0954624C8.42318 0.0324598 8.58594 3.01423e-05 8.75033 3.01351e-05C8.91471 3.01279e-05 9.07748 0.0324598 9.22931 0.0954624C9.38114 0.158465 9.51905 0.250801 9.63513 0.367184L17.1335 7.86555C17.3682 8.10022 17.5 8.41849 17.5 8.75036C17.5 9.08222 17.3682 9.4005 17.1335 9.63516C16.8988 9.86983 16.5806 10.0017 16.2487 10.0017C15.9168 10.0017 15.5986 9.86983 15.3639 9.63516L8.75033 3.01911L2.13677 9.63517C2.02068 9.75155 1.88277 9.84388 1.73094 9.90689C1.57911 9.96989 1.41634 10.0023 1.25196 10.0023C1.08758 10.0023 0.924811 9.96989 0.772981 9.90689C0.621152 9.84388 0.483243 9.75155 0.367154 9.63517Z" fill="white"/>
<path fill-rule="evenodd" clip-rule="evenodd" d="M8.7507 19.9979C8.41926 19.9979 8.10138 19.8663 7.86701 19.6319C7.63264 19.3975 7.50098 19.0796 7.50098 18.7482L7.50098 2.50174C7.50098 2.17029 7.63264 1.85242 7.86701 1.61804C8.10138 1.38367 8.41926 1.25201 8.7507 1.25201C9.08215 1.25201 9.40003 1.38367 9.6344 1.61804C9.86876 1.85241 10.0004 2.17029 10.0004 2.50174L10.0004 18.7482C10.0004 19.0796 9.86877 19.3975 9.6344 19.6319C9.40003 19.8663 9.08215 19.9979 8.7507 19.9979Z" fill="white"/>
</svg>
