<svg width="11" height="7" viewBox="0 0 11 7" fill="none" xmlns="http://www.w3.org/2000/svg">
<path d="M10.3083 1.89196C10.4324 1.76281 10.5 1.59842 10.5 1.40468C10.5 1.01721 10.2069 0.706054 9.83484 0.706054C9.64882 0.706054 9.47971 0.788246 9.35006 0.923276L5.49436 5.03286L1.64994 0.923276C1.52029 0.788247 1.34555 0.706055 1.16516 0.706055C0.793123 0.706055 0.5 1.01721 0.5 1.40469C0.5 1.59842 0.567644 1.76281 0.691657 1.89196L4.97576 6.45948C5.12232 6.62386 5.30271 6.70018 5.5 6.70605C5.69729 6.70605 5.8664 6.62386 6.0186 6.45948L10.3083 1.89196Z" fill="white"/>
</svg>
