<svg width="4" height="7" viewBox="0 0 4 7" xmlns="http://www.w3.org/2000/svg">
<path d="M1.31305 1.26054C1.24847 1.19438 1.16628 1.15829 1.06941 1.15829C0.87567 1.15829 0.720093 1.31466 0.720093 1.51313C0.720093 1.61237 0.761189 1.70258 0.828703 1.77175L2.8835 3.82861L0.828704 5.87947C0.761189 5.94863 0.720093 6.04185 0.720093 6.13808C0.720093 6.33655 0.87567 6.49292 1.06941 6.49292C1.16628 6.49292 1.24847 6.45683 1.31305 6.39068L3.5968 4.10527C3.679 4.02708 3.71716 3.93086 3.72009 3.82561C3.72009 3.72036 3.679 3.63014 3.5968 3.54895L1.31305 1.26054Z" stroke-width="0.5"/>
</svg>
