<svg width="24" height="24" viewBox="0 0 24 24" fill="none" xmlns="http://www.w3.org/2000/svg">
<path fill-rule="evenodd" clip-rule="evenodd" d="M6 9.24267V14C6 15.657 4.656 17 3 17V18H14.7573L6 9.24267ZM19 18H16.1715L6.09609 7.92455C6.22975 7.18582 6.49862 6.49419 6.87616 5.87619L19 18ZM20.4142 18H21V17C19.344 17 18 15.657 18 14V9C18 5.686 15.314 3 12 3C10.1939 3 8.57432 3.79778 7.4744 5.06022L20.4142 18ZM8.55493 19C9.24793 20.19 10.5239 21 11.9999 21C13.4759 21 14.7519 20.19 15.4449 19H8.55493Z" fill="#A6A6A6"/>
<path d="M1.29289 1.70711C1.68342 1.31658 2.31658 1.31658 2.70711 1.70711L22.5061 21.5061C22.8966 21.8966 22.8966 22.5298 22.5061 22.9203C22.1156 23.3108 21.4824 23.3108 21.0919 22.9203L1.29289 3.12132C0.90237 2.7308 0.902369 2.09763 1.29289 1.70711Z" fill="#FF5050"/>
</svg>
