<svg width="19" height="21" viewBox="0 0 19 21"  xmlns="http://www.w3.org/2000/svg">
<path d="M18.377 18.3028V4.3028C18.377 3.1998 17.48 2.3028 16.377 2.3028H14.377V0.302795H12.377V2.3028H6.37695V0.302795H4.37695V2.3028H2.37695C1.27395 2.3028 0.376953 3.1998 0.376953 4.3028V18.3028C0.376953 19.4058 1.27395 20.3028 2.37695 20.3028H16.377C17.48 20.3028 18.377 19.4058 18.377 18.3028ZM6.37695 16.3028H4.37695V14.3028H6.37695V16.3028ZM6.37695 12.3028H4.37695V10.3028H6.37695V12.3028ZM10.377 16.3028H8.37695V14.3028H10.377V16.3028ZM10.377 12.3028H8.37695V10.3028H10.377V12.3028ZM14.377 16.3028H12.377V14.3028H14.377V16.3028ZM14.377 12.3028H12.377V10.3028H14.377V12.3028ZM16.377 7.3028H2.37695V5.3028H16.377V7.3028Z"/>
</svg>
