<svg width="17" height="13" viewBox="0 0 17 13" fill="none" xmlns="http://www.w3.org/2000/svg">
<path d="M5.72293 10.385L2.48543 7.14754C2.40077 7.06185 2.29994 6.99381 2.1888 6.94738C2.07765 6.90094 1.95839 6.87703 1.83793 6.87703C1.71747 6.87703 1.59821 6.90094 1.48706 6.94738C1.37591 6.99381 1.27509 7.06185 1.19043 7.14754C1.10474 7.2322 1.0367 7.33302 0.990267 7.44417C0.943832 7.55532 0.919922 7.67458 0.919922 7.79504C0.919922 7.91549 0.943832 8.03476 0.990267 8.1459C1.0367 8.25705 1.10474 8.35788 1.19043 8.44254L5.06618 12.3183C5.42693 12.679 6.00968 12.679 6.37043 12.3183L16.1754 2.52254C16.2611 2.43788 16.3292 2.33705 16.3756 2.2259C16.422 2.11476 16.4459 1.9955 16.4459 1.87504C16.4459 1.75458 16.422 1.63532 16.3756 1.52417C16.3292 1.41302 16.2611 1.3122 16.1754 1.22754C16.0908 1.14185 15.9899 1.07381 15.8788 1.02738C15.7676 0.980941 15.6484 0.957031 15.5279 0.957031C15.4075 0.957031 15.2882 0.980941 15.1771 1.02738C15.0659 1.07381 14.9651 1.14185 14.8804 1.22754L5.72293 10.385Z" fill="white"/>
</svg>
