<svg width="16" height="16" viewBox="0 0 16 16" fill="none" xmlns="http://www.w3.org/2000/svg">
<g id="Icon/Outline/checkmark">
<path id="Mask" fill-rule="evenodd" clip-rule="evenodd" d="M6.57591 12C6.39191 12 6.21591 11.924 6.08991 11.79L2.84791 8.33734C2.59525 8.06934 2.60925 7.64734 2.87725 7.39534C3.14591 7.14334 3.56791 7.15667 3.81925 7.42467L6.56925 10.352L12.1746 4.21734C12.4239 3.94467 12.8452 3.92667 13.1172 4.17467C13.3886 4.42267 13.4072 4.84467 13.1592 5.116L7.06791 11.7827C6.94325 11.92 6.76591 11.9987 6.58058 12H6.57591Z" fill="#231F20"/>
<mask id="mask0" mask-type="alpha" maskUnits="userSpaceOnUse" x="2" y="4" width="12" height="8">
<path id="Mask_2" fill-rule="evenodd" clip-rule="evenodd" d="M6.57591 12C6.39191 12 6.21591 11.924 6.08991 11.79L2.84791 8.33734C2.59525 8.06934 2.60925 7.64734 2.87725 7.39534C3.14591 7.14334 3.56791 7.15667 3.81925 7.42467L6.56925 10.352L12.1746 4.21734C12.4239 3.94467 12.8452 3.92667 13.1172 4.17467C13.3886 4.42267 13.4072 4.84467 13.1592 5.116L7.06791 11.7827C6.94325 11.92 6.76591 11.9987 6.58058 12H6.57591Z" fill="white"/>
</mask>
<g mask="url(#mask0)">
<g id="&#240;&#159;&#142;&#168; Color">
<rect id="Base" width="16" height="16" fill="#B4B4B4"/>
</g>
</g>
</g>
</svg>
