<svg width="11" height="10" viewBox="0 0 11 10" xmlns="http://www.w3.org/2000/svg">
<path d="M5.77051 0C3.00935 0 0.770508 2.23884 0.770508 5C0.770508 7.76116 3.00935 10 5.77051 10C8.53167 10 10.7705 7.76116 10.7705 5C10.7705 2.23884 8.53167 0 5.77051 0ZM7.74037 6.53683L7.42118 6.9721C7.41424 6.98158 7.40549 6.98959 7.39544 6.99568C7.38539 7.00176 7.37424 7.0058 7.36262 7.00757C7.35101 7.00933 7.33916 7.00878 7.32775 7.00595C7.31635 7.00312 7.30562 6.99806 7.29618 6.99107L5.4502 5.64509C5.43869 5.63683 5.42935 5.62593 5.42294 5.61331C5.41653 5.60068 5.41325 5.5867 5.41336 5.57254V2.5C5.41336 2.45089 5.45354 2.41071 5.50265 2.41071H6.03948C6.08859 2.41071 6.12877 2.45089 6.12877 2.5V5.26228L7.72028 6.41295C7.76046 6.44085 7.76939 6.49665 7.74037 6.53683Z" />
</svg>
