<svg width="19" height="20" viewBox="0 0 19 20" xmlns="http://www.w3.org/2000/svg">
<path d="M16.8889 0.5H2.11111C1.55121 0.5 1.01424 0.72242 0.61833 1.11833C0.22242 1.51424 0 2.05121 0 2.61111V17.3889C0 17.9488 0.22242 18.4858 0.61833 18.8817C1.01424 19.2776 1.55121 19.5 2.11111 19.5H16.8889C17.4488 19.5 17.9858 19.2776 18.3817 18.8817C18.7776 18.4858 19 17.9488 19 17.3889V2.61111C19 2.05121 18.7776 1.51424 18.3817 1.11833C17.9858 0.72242 17.4488 0.5 16.8889 0.5ZM13.3 15.2778L9.5 11.4778L5.7 15.2778L4.22222 13.8L8.02222 10L4.22222 6.2L5.7 4.72222L9.5 8.52222L13.3 4.72222L14.7778 6.2L10.9778 10L14.7778 13.8L13.3 15.2778Z"/>
</svg>
