<svg width="14" height="14" viewBox="0 0 14 14" fill="none" xmlns="http://www.w3.org/2000/svg">
<path opacity="0.5" d="M12.2645 0.307007H2.15343C1.77034 0.307007 1.40294 0.459189 1.13205 0.730075C0.861166 1.00096 0.708984 1.36836 0.708984 1.75145V11.8626C0.708984 12.2457 0.861166 12.6131 1.13205 12.8839C1.40294 13.1548 1.77034 13.307 2.15343 13.307H12.2645C12.6476 13.307 13.015 13.1548 13.2859 12.8839C13.5568 12.6131 13.709 12.2457 13.709 11.8626V1.75145C13.709 1.36836 13.5568 1.00096 13.2859 0.730075C13.015 0.459189 12.6476 0.307007 12.2645 0.307007ZM9.80898 10.4181L7.20898 7.81812L4.60898 10.4181L3.59787 9.40701L6.19787 6.80701L3.59787 4.20701L4.60898 3.1959L7.20898 5.7959L9.80898 3.1959L10.8201 4.20701L8.2201 6.80701L10.8201 9.40701L9.80898 10.4181Z" fill="#FF5050"/>
</svg>
