<svg width="11" height="10" viewBox="0 0 11 10" xmlns="http://www.w3.org/2000/svg">
<path d="M10.56 9.05H0.44C0.196625 9.05 0 9.22875 0 9.45V9.9C0 9.955 0.0495 10 0.11 10H10.89C10.9505 10 11 9.955 11 9.9V9.45C11 9.22875 10.8034 9.05 10.56 9.05ZM2.00338 8C2.03087 8 2.05838 7.9975 2.08588 7.99375L4.39862 7.625C4.42613 7.62 4.45225 7.60875 4.4715 7.59L10.3001 2.29125C10.3129 2.27969 10.323 2.26595 10.3299 2.25083C10.3368 2.23571 10.3403 2.2195 10.3403 2.20312C10.3403 2.18675 10.3368 2.17054 10.3299 2.15542C10.323 2.1403 10.3129 2.12656 10.3001 2.115L8.01488 0.03625C7.98875 0.0125 7.95437 0 7.91725 0C7.88012 0 7.84575 0.0125 7.81962 0.03625L1.991 5.335C1.97037 5.35375 1.958 5.37625 1.9525 5.40125L1.54688 7.50375C1.5335 7.57071 1.53828 7.63963 1.5608 7.70454C1.58332 7.76945 1.6229 7.82838 1.67612 7.87625C1.76687 7.95625 1.881 8 2.00338 8Z" />
</svg>
