<svg width="54" height="44" viewBox="0 0 54 44" fill="none" xmlns="http://www.w3.org/2000/svg">
<g opacity="0.3">
<path d="M47.8998 44.0001H6.09963C3.06802 44.0001 0.599609 41.5339 0.599609 38.5001V23.1C0.599609 22.946 0.63261 22.7898 0.69641 22.649L9.42825 3.24492C10.317 1.27371 12.2861 -9.15527e-05 14.4443 -9.15527e-05H39.5552C41.7134 -9.15527e-05 43.6824 1.27371 44.5712 3.24492L53.303 22.649C53.3668 22.7898 53.3998 22.946 53.3998 23.1V38.5001C53.3998 41.5339 50.9314 44.0001 47.8998 44.0001ZM2.79962 23.3354V38.5001C2.79962 40.3195 4.28022 41.8001 6.09963 41.8001H47.8998C49.7192 41.8001 51.1998 40.3195 51.1998 38.5001V23.3354L42.5648 4.14473C42.0324 2.96552 40.851 2.19992 39.5552 2.19992H14.4443C13.1485 2.19992 11.9671 2.96552 11.4347 4.14693L2.79962 23.3354Z" fill="#D9D9D9"/>
<path d="M37.575 33.0001H16.4241C15.0557 33.0001 13.8149 32.1399 13.3353 30.8595L11.1045 24.9128C10.9461 24.486 10.5325 24.2 10.0749 24.2H2.24942C1.64222 24.2 1.14941 23.7072 1.14941 23.1C1.14941 22.4928 1.64222 22 2.24942 22H10.0749C11.4433 22 12.6841 22.8602 13.1659 24.1406L15.3945 30.0872C15.5551 30.514 15.9687 30.8001 16.4241 30.8001H37.5728C38.0304 30.8001 38.444 30.514 38.6024 30.0872L40.831 24.1406C41.315 22.8602 42.5558 22 43.9242 22H52.2996C52.9068 22 53.3996 22.4928 53.3996 23.1C53.3996 23.7072 52.9068 24.2 52.2996 24.2H43.9242C43.4666 24.2 43.053 24.486 42.8946 24.9128L40.666 30.8595C40.1842 32.1399 38.9412 33.0001 37.575 33.0001Z" fill="#D9D9D9"/>
</g>
</svg>
