<svg width="95" height="97" viewBox="0 0 95 97" fill="none" xmlns="http://www.w3.org/2000/svg">
<path d="M91.148 68.5977C86.6923 62.1192 78.7987 59.4339 71.6127 61.3297L58.2023 47.9192L55.3707 50.7493L64.3769 59.7539C65.6616 61.0419 65.6616 63.1145 64.3769 64.4025C63.7337 65.0457 62.8976 65.3673 62.0437 65.3673C61.2076 65.3673 60.373 65.0473 59.7299 64.4025L50.7252 55.3818L47.8952 58.2295L60.1463 70.4807C57.141 76.2372 57.3324 83.4103 61.2558 89.1347C65.0506 94.6661 71.3539 97.4141 77.5928 96.9494L69.3905 85.0006C68.2666 83.3589 68.6847 81.1431 70.3232 79.9998L79.3776 73.7786C81.0178 72.653 83.2529 73.0711 84.3929 74.6951L92.5775 86.6423C95.2644 80.9968 94.9444 74.113 91.148 68.5977ZM34.3063 31.0372C35.144 31.0372 35.9962 31.3572 36.6234 32.002L46.6732 42.0518L49.5032 39.2217L36.4625 26.1827C39.3247 20.4262 39.0031 13.335 35.0636 7.70715C31.2045 2.22397 24.8852 -0.477414 18.6623 0.0692958L26.9772 11.9184C28.1172 13.5602 27.7152 15.7936 26.0911 16.9369L17.1026 23.2562C15.4625 24.3963 13.2274 24.012 12.0857 22.3702L3.75484 10.505C1.13546 16.1956 1.52137 23.0616 5.36281 28.5448C9.93105 35.0426 17.9709 37.6298 25.2229 35.5556L39.1961 49.5288L42.0422 46.6988L31.9924 36.649C30.706 35.361 30.706 33.2883 31.9924 32.0003C32.6195 31.3572 33.4701 31.0372 34.3063 31.0372Z" fill="white"/>
<path d="M44.7248 65.0457C44.1153 65.6551 43.1232 65.6551 42.5138 65.0457L32.3723 54.9042C31.7613 54.2932 31.7613 53.3043 32.3723 52.6933L32.9158 52.1498C33.5253 51.5404 34.5158 51.5404 35.1268 52.1498L45.2682 62.2912C45.8776 62.9023 45.8776 63.8928 45.2682 64.5038L44.7248 65.0457Z" fill="white"/>
<path d="M40.2234 67.2969L18.0655 91.4646L15.3336 94.4394C14.4814 95.2916 13.515 95.9348 12.4538 96.3513C11.6498 96.6905 10.8297 96.8819 9.99516 96.9478C9.7218 96.98 9.44844 96.9944 9.15901 96.9944C6.92232 97.0105 4.68724 96.1583 2.98279 94.4538C-0.442181 91.0289 -0.442181 85.4975 2.98279 82.0902L5.94307 79.3727L30.1092 57.1988L40.2234 67.2969Z" fill="white"/>
<path d="M85.6162 15.6634L81.405 22.2882L77.6745 23.8801L44.211 57.3564L40.0625 53.2078L73.5404 19.7315L75.1323 16.0171L81.7571 11.8026L82.1109 12.158L77.2243 16.2422C76.3704 17.0945 76.7563 18.9276 77.6085 19.7959C78.4929 20.6642 80.3743 21.1771 81.2442 20.3104L85.2464 15.2935L85.6162 15.6634Z" fill="white"/>
</svg>
