<svg width="68" height="99" viewBox="0 0 68 99" fill="none" xmlns="http://www.w3.org/2000/svg">
<rect x="0.703125" y="92.1959" width="67" height="6.56863" fill="white"/>
<path d="M9.89844 94.1674L17.9295 62.638M34.2024 24.5399H27.6337L17.9295 62.638M59.1631 94.1674L17.9295 62.638M17.9295 62.638L43.3984 35.0497" stroke="white" stroke-width="5"/>
<path d="M59.1641 94.1674L51.133 62.638M32.8896 24.54H41.4288L51.133 62.638M9.89936 94.1674L51.133 62.638M51.133 62.638L25.6641 35.0498" stroke="white" stroke-width="5"/>
<circle cx="34.8616" cy="6.80398" r="6.56863" fill="white"/>
<rect x="32.2305" y="10.7457" width="5.2549" height="11.8235" fill="white"/>
<path d="M15.5951 0.23553L17.3555 2.19298C16.6652 2.80915 16.1129 3.56419 15.7348 4.40865C15.3567 5.2531 15.1612 6.16792 15.1612 7.09318C15.1612 8.01843 15.3567 8.93325 15.7348 9.7777C16.1129 10.6222 16.6652 11.3772 17.3555 11.9934L15.5951 13.9508C14.6296 13.0882 13.8572 12.0315 13.3283 10.8497C12.7994 9.66797 12.526 8.38787 12.526 7.09318C12.526 5.79848 12.7994 4.51838 13.3283 3.33663C13.8572 2.15489 14.6296 1.09814 15.5951 0.23553Z" fill="white"/>
<path d="M20.5692 9.86844C20.2032 9.50247 19.9129 9.068 19.7149 8.58983C19.5168 8.11167 19.4148 7.59917 19.4148 7.08161C19.4148 6.56405 19.5168 6.05155 19.7149 5.57339C19.9129 5.09522 20.2032 4.66075 20.5692 4.29478L23.356 7.08161L20.5692 9.86844Z" fill="white"/>
<path d="M53.4479 13.9519L51.6875 11.9945C52.3777 11.3783 52.93 10.6233 53.3082 9.77883C53.6863 8.93437 53.8818 8.01956 53.8818 7.0943C53.8818 6.16905 53.6863 5.25423 53.3082 4.40977C52.93 3.56532 52.3777 2.81028 51.6875 2.19411L53.4479 0.236656C54.4134 1.09927 55.1858 2.15602 55.7147 3.33776C56.2436 4.51951 56.5169 5.79961 56.5169 7.0943C56.5169 8.38899 56.2436 9.6691 55.7147 10.8508C55.1858 12.0326 54.4134 13.0893 53.4479 13.9519Z" fill="white"/>
<path d="M48.4738 4.31907C48.8398 4.68504 49.1301 5.11951 49.3281 5.59768C49.5262 6.07585 49.6281 6.58834 49.6281 7.1059C49.6281 7.62347 49.5262 8.13596 49.3281 8.61413C49.1301 9.09229 48.8398 9.52676 48.4738 9.89274L45.6869 7.1059L48.4738 4.31907Z" fill="white"/>
</svg>
