<svg width="36" height="18" viewBox="0 0 36 18" fill="none" xmlns="http://www.w3.org/2000/svg">
<path d="M26.6359 11.1859C26.8715 11.0568 27 10.8924 27 10.6986C27 10.3112 26.4431 10 25.7362 10C25.3827 10 25.0614 10.0822 24.8151 10.2172L17.4893 14.3268L10.1849 10.2172C9.93856 10.0822 9.60654 10 9.26381 10C8.55693 10 8 10.3112 8 10.6986C8 10.8924 8.12852 11.0568 8.36415 11.1859L16.5039 15.7534C16.7824 15.9178 17.1251 15.9941 17.5 16C17.8749 16 18.1962 15.9178 18.4853 15.7534L26.6359 11.1859Z" fill="white"/>
<path d="M8.36415 5.81409C8.12852 5.94325 8 6.10763 8 6.30137C8 6.68885 8.55693 7 9.26381 7C9.61725 7 9.93856 6.91781 10.1849 6.78278L17.5107 2.67319L24.8151 6.78278C25.0614 6.91781 25.3935 7 25.7362 7C26.4431 7 27 6.68885 27 6.30137C27 6.10763 26.8715 5.94325 26.6359 5.81409L18.4961 1.24658C18.2176 1.08219 17.8749 1.00587 17.5 1C17.1251 1 16.8038 1.08219 16.5147 1.24658L8.36415 5.81409Z" fill="white"/>
</svg>
