<svg width="11" height="11" viewBox="0 0 11 11" xmlns="http://www.w3.org/2000/svg">
<path d="M1.69743 2.30849L0.107773 0.719336L0.82711 0L10.8922 10.0656L10.1729 10.7845L8.4902 9.10177C7.5961 9.66887 6.55879 9.9692 5.5 9.96751C2.7589 9.96751 0.478371 7.99506 0 5.39223C0.218612 4.2081 0.814212 3.12639 1.69794 2.30849H1.69743ZM6.90156 7.51313L6.15732 6.76888C5.87266 6.90508 5.55276 6.94962 5.24172 6.89637C4.93068 6.84312 4.64381 6.69469 4.42068 6.47155C4.19754 6.24841 4.04911 5.96155 3.99586 5.65051C3.94261 5.33947 3.98715 5.01957 4.12335 4.73491L3.3791 3.99066C3.05564 4.47945 2.91104 5.06501 2.96978 5.64818C3.02853 6.23136 3.28701 6.77631 3.70147 7.19076C4.11592 7.60522 4.66087 7.8637 5.24404 7.92245C5.82722 7.98119 6.41277 7.83659 6.90156 7.51313ZM3.45332 1.2033C4.08725 0.954201 4.77812 0.816942 5.5 0.816942C8.2411 0.816942 10.5216 2.7894 11 5.39223C10.8442 6.23901 10.4941 7.0381 9.97717 7.72664L8.01488 5.76435C8.07317 5.3717 8.03868 4.97085 7.91419 4.59392C7.78969 4.21699 7.57864 3.87446 7.29795 3.59377C7.01726 3.31308 6.67473 3.10203 6.2978 2.97753C5.92087 2.85303 5.52002 2.81855 5.12737 2.87684L3.45332 1.20381V1.2033Z"/>
</svg>
