<svg width="16" height="13" viewBox="0 0 16 13" xmlns="http://www.w3.org/2000/svg">
<path d="M1.5841 9.3816C0.530792 7.80873 0.530556 5.69119 1.58385 4.11832C2.94079 2.09201 5.30765 0.75 8 0.75C10.6924 0.75 13.0589 2.09205 14.4159 4.1184C15.4692 5.69127 15.4694 7.80881 14.4161 9.38168C13.0592 11.408 10.6924 12.75 8 12.75C5.30761 12.75 2.94109 11.408 1.5841 9.3816ZM8 10.0833C8.91927 10.0833 9.8009 9.73214 10.4509 9.10702C11.1009 8.4819 11.4661 7.63406 11.4661 6.75C11.4661 5.86594 11.1009 5.0181 10.4509 4.39298C9.8009 3.76786 8.91927 3.41667 8 3.41667C7.08073 3.41667 6.1991 3.76786 5.54908 4.39298C4.89906 5.0181 4.53388 5.86594 4.53388 6.75C4.53388 7.63406 4.89906 8.4819 5.54908 9.10702C6.1991 9.73214 7.08073 10.0833 8 10.0833ZM8 8.75C7.44844 8.75 6.91946 8.53929 6.52945 8.16421C6.13943 7.78914 5.92033 7.28043 5.92033 6.75C5.92033 6.21957 6.13943 5.71086 6.52945 5.33579C6.91946 4.96071 7.44844 4.75 8 4.75C8.55156 4.75 9.08054 4.96071 9.47055 5.33579C9.86057 5.71086 10.0797 6.21957 10.0797 6.75C10.0797 7.28043 9.86057 7.78914 9.47055 8.16421C9.08054 8.53929 8.55156 8.75 8 8.75Z"/>
</svg>
