<svg width="36" height="20" viewBox="0 0 36 20" fill="none" xmlns="http://www.w3.org/2000/svg">
<path d="M3.32999 10.1167C3.33195 11.5821 4.36275 12.8448 5.79834 13.1401L5.79834 7.09337C4.36275 7.3888 3.33195 8.65118 3.32999 10.1167Z" fill="white"/>
<path d="M9.5 10.1167C9.49818 8.65118 8.46739 7.3888 7.03195 7.09337L7.03195 13.1401C8.46739 12.8448 9.49818 11.5821 9.5 10.1167Z" fill="white"/>
<path d="M21.0798 19.2873C20.8494 19.1594 20.6262 19.0225 20.4073 18.8782C20.3406 18.8342 20.274 18.7902 20.2083 18.7449C19.9616 18.5764 19.7265 18.4013 19.4988 18.2136L19.4892 18.2064C19.2584 18.0152 19.0395 17.8125 18.8261 17.603C18.7692 17.5477 18.7141 17.4913 18.6585 17.4346C18.4786 17.2494 18.3052 17.0599 18.1385 16.8624C18.1089 16.8278 18.0767 16.7946 18.0483 16.7594C17.8631 16.5301 17.6838 16.291 17.5154 16.0462C17.4727 15.9843 17.4326 15.9227 17.3919 15.861C17.2573 15.6553 17.1298 15.4458 17.0095 15.2323C16.9772 15.1748 16.9429 15.1186 16.9112 15.0602C16.7705 14.7974 16.6411 14.5283 16.5225 14.253C16.4968 14.1914 16.474 14.1297 16.4492 14.0681C16.3554 13.8385 16.2698 13.6049 16.1925 13.3677C16.1684 13.2944 16.1431 13.2208 16.1203 13.1464C16.0326 12.8551 15.9542 12.5601 15.8919 12.2595C15.8825 12.2153 15.8768 12.1695 15.868 12.1245C15.8166 11.8603 15.7767 11.5934 15.7445 11.3221C15.7351 11.2388 15.726 11.1558 15.7182 11.0718C15.6897 10.7566 15.67 10.4394 15.67 10.1167C15.67 9.79426 15.6897 9.47698 15.7182 9.16139C15.726 9.0778 15.7351 8.99435 15.7445 8.91104C15.776 8.64081 15.8159 8.37366 15.868 8.10903C15.8768 8.06395 15.8825 8.0183 15.8919 7.97392C15.9535 7.67359 16.0326 7.37788 16.1203 7.08734C16.1431 7.01258 16.1684 6.93907 16.1925 6.86584C16.2693 6.62809 16.3549 6.39469 16.4492 6.16562C16.474 6.10388 16.4968 6.04227 16.5225 5.98039C16.6411 5.70456 16.7705 5.43517 16.9112 5.17348C16.9429 5.11173 16.9772 5.05839 17.0095 5.00112C17.1297 4.78676 17.2572 4.57701 17.3919 4.37231C17.4332 4.31071 17.4734 4.24602 17.5154 4.18427C17.6838 3.93729 17.8607 3.70052 18.0483 3.47103C18.0781 3.43589 18.1099 3.40257 18.1385 3.36798C18.3052 3.17042 18.4786 2.98056 18.6585 2.79588C18.7141 2.73946 18.7692 2.68261 18.8261 2.62772C19.0395 2.41784 19.2577 2.21496 19.4892 2.02412L19.4988 2.0167C19.7265 1.83174 19.965 1.65392 20.2083 1.48576C20.274 1.44068 20.3406 1.39615 20.4073 1.35219C20.6262 1.20811 20.8494 1.07104 21.0798 0.943063C21.116 0.923041 21.1512 0.900078 21.1883 0.881596C21.2012 0.874595 21.2129 0.866615 21.2261 0.859894L7.0319 0.859893L7.0319 5.84555C9.15565 6.15036 10.7319 7.96944 10.7319 10.1149C10.7319 12.2603 9.15565 14.0796 7.0319 14.3845L7.0319 19.3717L21.2229 19.3717C21.21 19.365 21.1981 19.3567 21.1855 19.3503C21.1512 19.3303 21.116 19.3102 21.0798 19.2873Z" fill="white"/>
<path d="M26.1592 3.3299C22.411 3.3299 19.3721 6.36851 19.3721 10.117C19.3721 13.8652 22.411 16.9036 26.1592 16.9036C29.9075 16.9036 32.9461 13.8652 32.9461 10.117C32.9418 6.37033 29.9057 3.33424 26.1592 3.3299Z" fill="white"/>
<path d="M2.09622 10.1168C2.10042 7.97235 3.676 6.15496 5.79834 5.84706L5.79834 0.862106L1.47931 0.862106C1.13852 0.862106 0.862129 1.13822 0.862129 1.47901L0.862128 18.7548C0.862128 19.0956 1.13852 19.3718 1.47931 19.3718L5.79834 19.3718L5.79834 14.3864C3.676 14.0784 2.10042 12.2613 2.09622 10.1168Z" fill="white"/>
<path d="M35.4141 10.1165C35.4141 5.0051 31.2707 0.86177 26.1589 0.86177C21.0477 0.86177 16.9039 5.0051 16.9039 10.1165C16.9039 15.228 21.0477 19.3715 26.1589 19.3715C31.2681 19.3656 35.4082 15.2255 35.4141 10.1165ZM18.1382 10.1165C18.1382 5.68683 21.7291 2.09558 26.1589 2.09558C30.589 2.09558 34.1802 5.68683 34.1802 10.1165C34.1802 14.5464 30.589 18.1375 26.1589 18.1375C21.7312 18.1325 18.1433 14.5442 18.1382 10.1165Z" fill="white"/>
</svg>
