<svg width="21" height="21" viewBox="0 0 21 21" fill="none" xmlns="http://www.w3.org/2000/svg">
<path d="M1.5 10.706C1.5 9.52413 1.73279 8.3538 2.18508 7.26187C2.63738 6.16994 3.30031 5.17779 4.13604 4.34206C4.97177 3.50634 5.96392 2.8434 7.05585 2.39111C8.14778 1.93882 9.3181 1.70602 10.5 1.70602C11.6819 1.70602 12.8522 1.93882 13.9442 2.39111C15.0361 2.8434 16.0282 3.50634 16.864 4.34206C17.6997 5.17779 18.3626 6.16994 18.8149 7.26187C19.2672 8.3538 19.5 9.52413 19.5 10.706C19.5 13.093 18.5518 15.3822 16.864 17.07C15.1761 18.7578 12.8869 19.706 10.5 19.706C8.11305 19.706 5.82387 18.7578 4.13604 17.07C2.44821 15.3822 1.5 13.093 1.5 10.706Z" fill="#27AE60" fill-opacity="0.3"/>
<path d="M6.5 10.706L9.5 13.706L14.5 8.70602" stroke="#6FCF97" stroke-width="2" stroke-linecap="round" stroke-linejoin="round"/>
<path d="M1.5 10.706C1.5 9.52413 1.73279 8.3538 2.18508 7.26187C2.63738 6.16994 3.30031 5.17779 4.13604 4.34206C4.97177 3.50634 5.96392 2.8434 7.05585 2.39111C8.14778 1.93882 9.3181 1.70602 10.5 1.70602C11.6819 1.70602 12.8522 1.93882 13.9442 2.39111C15.0361 2.8434 16.0282 3.50634 16.864 4.34206C17.6997 5.17779 18.3626 6.16994 18.8149 7.26187C19.2672 8.3538 19.5 9.52413 19.5 10.706C19.5 13.093 18.5518 15.3822 16.864 17.07C15.1761 18.7578 12.8869 19.706 10.5 19.706C8.11305 19.706 5.82387 18.7578 4.13604 17.07C2.44821 15.3822 1.5 13.093 1.5 10.706V10.706Z" stroke="#6FCF97" stroke-width="2" stroke-linecap="round"/>
</svg>
