<svg width="24" height="23" viewBox="0 0 24 23" fill="none" xmlns="http://www.w3.org/2000/svg">
<path d="M23.6565 5.56699C23.6565 2.80557 21.4179 0.566986 18.6565 0.566986H5.27515C2.51372 0.566986 0.275146 2.80556 0.275146 5.56699V17.1498C0.275146 19.9112 2.51372 22.1498 5.27515 22.1498H18.6565C21.4179 22.1498 23.6565 19.9112 23.6565 17.1498V5.56699Z" fill="#DBDBDB"/>
<path d="M11.9658 0.566986V22.1498" stroke="#BEBEBE" stroke-dasharray="2 2"/>
<path fill-rule="evenodd" clip-rule="evenodd" d="M23.3108 3.73636C23.5339 4.30328 23.6565 4.92082 23.6565 5.56698V6.44558L19.8394 11.0261C17.7312 13.556 14.288 14.5354 11.1638 13.4941L9.59582 12.9714C7.79381 12.3707 5.8138 12.6588 4.25768 13.7481L0.275146 16.5359V14.0946L3.11076 12.1096C5.18558 10.6572 7.8256 10.2731 10.2283 11.074L11.7963 11.5967C14.1394 12.3777 16.7218 11.6431 18.303 9.74569L23.3108 3.73636Z" fill="#C56226"/>
<path opacity="0.3" fill-rule="evenodd" clip-rule="evenodd" d="M23.6165 5.10736C23.6429 5.31546 23.6565 5.52755 23.6565 5.74281V17.3256C23.6565 20.087 21.4179 22.3256 18.6565 22.3256H5.27515C2.51372 22.3256 0.275146 20.087 0.275146 17.3256V15.491L3.68422 13.1047C5.49969 11.8339 7.8097 11.4977 9.91205 12.1985L11.4801 12.7212C14.2137 13.6324 17.2265 12.7754 19.0712 10.5617L23.6165 5.10736Z" fill="#C56226"/>
</svg>
