<svg width="21" height="21" viewBox="0 0 21 21" xmlns="http://www.w3.org/2000/svg">
  <path
     id="circle161"
     d="M 10.5,0 A 10.5,10.5 0 0 0 0,10.5 10.5,10.5 0 0 0 10.5,21 10.5,10.5 0 0 0 21,10.5 10.5,10.5 0 0 0 10.5,0 Z m 0,4 A 1.5,1.5 0 0 1 12,5.5 1.5,1.5 0 0 1 10.5,7 1.5,1.5 0 0 1 9,5.5 1.5,1.5 0 0 1 10.5,4 Z m 0,5 A 1.5,1.5 0 0 1 12,10.5 1.5,1.5 0 0 1 10.5,12 1.5,1.5 0 0 1 9,10.5 1.5,1.5 0 0 1 10.5,9 Z m 0,5 A 1.5,1.5 0 0 1 12,15.5 1.5,1.5 0 0 1 10.5,17 1.5,1.5 0 0 1 9,15.5 1.5,1.5 0 0 1 10.5,14 Z" />
  <rect
     id="rect22"
     width="6.0660954"
     height="7.8139534"
     x="13.674418"
     y="0.8482253" />
  <rect
     id="rect26"
     width="5.9632792"
     height="13.674418"
     x="13.777234"
     y="0.8482253" />
  <path
     style="stroke-width:0.10281517"
     d="M 8.4621599,20.763373 C 5.1734399,20.020752 2.6823265,18.134472 1.2237342,15.28241 0.35564517,13.584991 0.07129146,12.357369 0.08771993,10.377968 0.09764218,9.1824753 0.14522143,8.7643275 0.36849349,7.910404 2.0890589,1.3299508 9.4565448,-1.8981966 15.457231,1.2991027 c 4.851452,2.5849616 6.854637,8.6230704 4.516237,13.6130843 -1.298636,2.771217 -3.625785,4.752967 -6.638343,5.65307 -0.801017,0.239331 -1.146349,0.281186 -2.57038,0.311535 -1.1742598,0.02503 -1.8332197,-0.0074 -2.3025851,-0.113419 z m 2.9497411,-4.047216 c 0.409485,-0.291579 0.68719,-1.005984 0.590792,-1.519831 -0.08937,-0.476388 -0.60342,-1.008486 -1.10919,-1.148136 -1.3776195,-0.380379 -2.482548,1.275432 -1.5998918,2.397547 0.4650497,0.591216 1.4849288,0.721412 2.1182898,0.27042 z m 0.0064,-5.023804 c 0.361458,-0.274385 0.63168,-0.781938 0.63168,-1.186482 0,-0.419156 -0.438015,-1.1279346 -0.820917,-1.3283736 -1.22418,-0.6408021 -2.5691499,0.4434438 -2.1763666,1.7544376 0.3090686,1.031579 1.5028186,1.415316 2.3655526,0.760418 z M 11.188778,6.8246646 C 11.989342,6.4371181 12.276161,5.3671046 11.76353,4.6804896 11.474265,4.2930504 11.106743,4.0556929 10.691852,3.9883652 9.8835498,3.8571968 8.9654799,4.6539684 8.9654799,5.4866382 c 0,0.5013653 0.3614368,1.1073246 0.7979507,1.3377874 0.4970774,0.262438 0.8835774,0.2625028 1.4253424,2.365e-4 z"
     id="path28"
     inkscape:connector-curvature="0" />
</svg>
