<svg width="8" height="10" viewBox="0 0 8 10" fill="none" xmlns="http://www.w3.org/2000/svg">
<path d="M3.92773 0.109283C2.72155 0.109283 1.74023 1.11863 1.74023 2.35928V3.70928H1.30273C1.07067 3.70928 0.84811 3.8041 0.684016 3.97289C0.519922 4.14167 0.427734 4.37059 0.427734 4.60928V8.20928C0.427734 8.44798 0.519922 8.6769 0.684016 8.84568C0.84811 9.01446 1.07067 9.10928 1.30273 9.10928H6.55273C6.7848 9.10928 7.00736 9.01446 7.17145 8.84568C7.33555 8.6769 7.42773 8.44798 7.42773 8.20928V4.60928C7.42773 4.37059 7.33555 4.14167 7.17145 3.97289C7.00736 3.8041 6.7848 3.70928 6.55273 3.70928H6.11523V2.35928C6.11523 1.11863 5.13392 0.109283 3.92773 0.109283ZM2.61523 2.35928C2.61523 1.61498 3.20411 1.00928 3.92773 1.00928C4.65136 1.00928 5.24023 1.61498 5.24023 2.35928V3.70928H2.61523V2.35928ZM4.36523 7.18463V8.20928H3.49023V7.18463C3.33728 7.09454 3.21446 6.95888 3.13797 6.79554C3.06149 6.63221 3.03492 6.44886 3.06178 6.26968C3.08865 6.0905 3.16767 5.9239 3.28844 5.79185C3.40922 5.6598 3.56606 5.5685 3.7383 5.52998C3.86623 5.50089 3.99888 5.5017 4.12647 5.53236C4.25405 5.56302 4.37332 5.62275 4.47548 5.70714C4.57763 5.79152 4.66007 5.89842 4.71671 6.01994C4.77335 6.14147 4.80275 6.27452 4.80273 6.40928C4.80248 6.56667 4.76191 6.7212 4.6851 6.85732C4.6083 6.99344 4.49797 7.10634 4.36523 7.18463Z" fill="#000000"/>
</svg>
