<svg width="22" height="22" viewBox="0 0 22 22" xmlns="http://www.w3.org/2000/svg">
<path fill-rule="evenodd" clip-rule="evenodd" d="M21.6577 10.7986C21.6577 16.5976 16.9567 21.2986 11.1577 21.2986C5.35871 21.2986 0.6577 16.5976 0.6577 10.7986C0.6577 4.99961 5.35871 0.298599 11.1577 0.298599C16.9567 0.298599 21.6577 4.99961 21.6577 10.7986ZM12.6577 5.79858C12.6577 6.62701 11.9861 7.29858 11.1577 7.29858C10.3293 7.29858 9.6577 6.62701 9.6577 5.79858C9.6577 4.97015 10.3293 4.29858 11.1577 4.29858C11.9861 4.29858 12.6577 4.97015 12.6577 5.79858ZM11.1577 12.2986C11.9861 12.2986 12.6577 11.627 12.6577 10.7986C12.6577 9.97017 11.9861 9.2986 11.1577 9.2986C10.3293 9.2986 9.6577 9.97017 9.6577 10.7986C9.6577 11.627 10.3293 12.2986 11.1577 12.2986ZM12.6577 15.7986C12.6577 16.627 11.9861 17.2986 11.1577 17.2986C10.3293 17.2986 9.6577 16.627 9.6577 15.7986C9.6577 14.9702 10.3293 14.2986 11.1577 14.2986C11.9861 14.2986 12.6577 14.9702 12.6577 15.7986Z" />
</svg>
