<svg width="11" height="13" viewBox="0 0 11 13" xmlns="http://www.w3.org/2000/svg">
<path d="M9.16667 4.33333H10.3889C10.551 4.33333 10.7064 4.39855 10.821 4.51465C10.9356 4.63074 11 4.7882 11 4.95238V12.381C11 12.5451 10.9356 12.7026 10.821 12.8187C10.7064 12.9348 10.551 13 10.3889 13H0.611111C0.449034 13 0.293596 12.9348 0.17899 12.8187C0.0643847 12.7026 0 12.5451 0 12.381V4.95238C0 4.7882 0.0643847 4.63074 0.17899 4.51465C0.293596 4.39855 0.449034 4.33333 0.611111 4.33333H1.83333V3.71429C1.83333 2.7292 2.21964 1.78445 2.90728 1.08789C3.59491 0.391325 4.52754 0 5.5 0C6.47246 0 7.40509 0.391325 8.09272 1.08789C8.78036 1.78445 9.16667 2.7292 9.16667 3.71429V4.33333ZM7.94444 4.33333V3.71429C7.94444 3.05756 7.68691 2.42773 7.22848 1.96335C6.77006 1.49898 6.14831 1.2381 5.5 1.2381C4.85169 1.2381 4.22994 1.49898 3.77152 1.96335C3.31309 2.42773 3.05556 3.05756 3.05556 3.71429V4.33333H7.94444ZM4.88889 8.04762V9.28572H6.11111V8.04762H4.88889ZM2.44444 8.04762V9.28572H3.66667V8.04762H2.44444ZM7.33333 8.04762V9.28572H8.55556V8.04762H7.33333Z"/>
</svg>
