<svg width="16" height="16" viewBox="0 0 16 16" xmlns="http://www.w3.org/2000/svg">
<path d="M5.33338 0H11.4286C11.6307 0 11.8245 0.0802718 11.9674 0.223157C12.1103 0.366042 12.1905 0.559835 12.1905 0.761905V1.05295C12.1904 1.19441 12.151 1.33305 12.0766 1.45335C12.0022 1.57365 11.8957 1.67086 11.7692 1.7341L10.6667 2.28571V6.09524L12.7292 8.15771C12.8721 8.30057 12.9524 8.49433 12.9524 8.69638V9.90476C12.9524 10.1068 12.8722 10.3006 12.7293 10.4435C12.5864 10.5864 12.3926 10.6667 12.1905 10.6667H9.1429V13.7143L8.381 16L7.61909 13.7143V10.6667H4.57148C4.36941 10.6667 4.17561 10.5864 4.03273 10.4435C3.88984 10.3006 3.80957 10.1068 3.80957 9.90476V8.69638C3.80961 8.49433 3.88991 8.30057 4.03281 8.15771L6.09528 6.09524V2.28571L4.99281 1.7341C4.86627 1.67086 4.75983 1.57365 4.68542 1.45335C4.61101 1.33305 4.57155 1.19441 4.57148 1.05295V0.761905C4.57148 0.559835 4.65175 0.366042 4.79463 0.223157C4.93752 0.0802718 5.13131 0 5.33338 0Z" />
</svg>
