<svg width="16" height="16" viewBox="0 0 16 16" xmlns="http://www.w3.org/2000/svg">
<path d="M5.8111 5.33333L11.1444 10.6667H8.85872V13.7143L8.09682 16L7.33491 13.7143V10.6667H4.2873C4.08523 10.6667 3.89143 10.5864 3.74855 10.4435C3.60566 10.3006 3.52539 10.1068 3.52539 9.90476V8.69638C3.52543 8.49433 3.60573 8.30057 3.74863 8.15771L5.8111 6.09524V5.33333ZM11.1444 0C11.3465 0 11.5403 0.0802718 11.6832 0.223157C11.8261 0.366042 11.9063 0.559835 11.9063 0.761905V1.05295C11.9063 1.19441 11.8668 1.33305 11.7924 1.45335C11.718 1.57365 11.6115 1.67086 11.485 1.7341L10.3825 2.28571V6.09524L12.445 8.15771C12.5879 8.30057 12.6682 8.49433 12.6682 8.69638V9.90476C12.6684 10.0049 12.6487 10.1041 12.6103 10.1966L8.30253 5.88952L5.8111 3.3981V2.28571L4.70863 1.7341C4.58209 1.67086 4.47565 1.57365 4.40124 1.45335C4.32683 1.33305 4.28737 1.19441 4.2873 1.05295V0.761905C4.2873 0.559835 4.36757 0.366042 4.51045 0.223157C4.65334 0.0802718 4.84713 0 5.0492 0H11.1444Z" />
<path d="M0.19978 0.689666C0.0718328 0.818175 0 0.992134 0 1.17348C0 1.35482 0.0718328 1.52878 0.19978 1.65729L14.0588 15.5163C14.1871 15.6446 14.3612 15.7167 14.5426 15.7167C14.7241 15.7167 14.8981 15.6446 15.0264 15.5163C15.1548 15.388 15.2268 15.214 15.2268 15.0325C15.2268 14.8511 15.1548 14.677 15.0264 14.5487L7.33502 6.85729L1.1674 0.689666C1.10387 0.626129 1.02844 0.575729 0.945427 0.541342C0.862414 0.506956 0.773442 0.489258 0.683589 0.489258C0.593737 0.489258 0.504764 0.506956 0.421752 0.541342C0.338739 0.575729 0.263313 0.626129 0.19978 0.689666Z" />
</svg>
