<svg width="15" height="15" viewBox="0 0 15 15" xmlns="http://www.w3.org/2000/svg">
<path d="M13.0037 8.30185C13.0319 8.07668 13.053 7.85152 13.053 7.61229C13.053 7.37305 13.0319 7.14789 13.0037 6.92272L14.4884 5.76172C14.6221 5.65618 14.6573 5.4662 14.5728 5.3114L13.1656 2.87682C13.0811 2.72202 12.8911 2.66573 12.7363 2.72202L10.9843 3.42565C10.6184 3.1442 10.2244 2.912 9.79515 2.73609L9.52777 0.871457C9.51612 0.788668 9.47468 0.712971 9.4112 0.658562C9.34773 0.604154 9.26658 0.574773 9.18299 0.57593H6.36844C6.19253 0.57593 6.04477 0.702585 6.02366 0.871457L5.75628 2.73609C5.32706 2.912 4.93303 3.15124 4.56714 3.42565L2.81508 2.72202C2.65325 2.65869 2.4703 2.72202 2.38587 2.87682L0.978594 5.3114C0.887121 5.4662 0.929339 5.65618 1.06303 5.76172L2.5477 6.92272C2.51956 7.14789 2.49845 7.38009 2.49845 7.61229C2.49845 7.84449 2.51956 8.07668 2.5477 8.30185L1.06303 9.46285C0.929339 9.56839 0.894157 9.75837 0.978594 9.91317L2.38587 12.3478C2.4703 12.5026 2.66028 12.5588 2.81508 12.5026L4.56714 11.7989C4.93303 12.0804 5.32706 12.3126 5.75628 12.4885L6.02366 14.3531C6.04477 14.522 6.19253 14.6486 6.36844 14.6486H9.18299C9.35889 14.6486 9.50666 14.522 9.52777 14.3531L9.79515 12.4885C10.2244 12.3126 10.6184 12.0733 10.9843 11.7989L12.7363 12.5026C12.8982 12.5659 13.0811 12.5026 13.1656 12.3478L14.5728 9.91317C14.6573 9.75837 14.6221 9.56839 14.4884 9.46285L13.0037 8.30185ZM7.77571 10.075C6.4177 10.075 5.31299 8.9703 5.31299 7.61229C5.31299 6.25427 6.4177 5.14956 7.77571 5.14956C9.13373 5.14956 10.2384 6.25427 10.2384 7.61229C10.2384 8.9703 9.13373 10.075 7.77571 10.075Z" />
</svg>
