<svg width="21" height="14" viewBox="0 0 21 14" xmlns="http://www.w3.org/2000/svg">
<path d="M20.1276 6.48672C18.2211 2.76684 14.4467 0.25 10.125 0.25C5.80322 0.25 2.02779 2.76859 0.122325 6.48707C0.0419017 6.64616 0 6.82192 0 7.00018C0 7.17843 0.0419017 7.3542 0.122325 7.51328C2.02885 11.2332 5.80322 13.75 10.125 13.75C14.4467 13.75 18.2222 11.2314 20.1276 7.51293C20.2081 7.35384 20.25 7.17808 20.25 6.99982C20.25 6.82157 20.2081 6.6458 20.1276 6.48672ZM10.125 12.0625C9.12371 12.0625 8.14493 11.7656 7.31241 11.2093C6.47988 10.653 5.83101 9.86239 5.44784 8.93734C5.06467 8.01228 4.96442 6.99438 5.15975 6.01236C5.35509 5.03033 5.83725 4.12828 6.54525 3.42027C7.25325 2.71227 8.15531 2.23011 9.13733 2.03477C10.1194 1.83944 11.1373 1.93969 12.0623 2.32286C12.9874 2.70603 13.778 3.3549 14.3343 4.18743C14.8906 5.01995 15.1875 5.99873 15.1875 7C15.1878 7.66491 15.0571 8.32336 14.8028 8.93772C14.5485 9.55207 14.1756 10.1103 13.7054 10.5805C13.2353 11.0506 12.6771 11.4235 12.0627 11.6778C11.4483 11.9321 10.7899 12.0628 10.125 12.0625ZM10.125 3.625C9.82374 3.62921 9.52444 3.67403 9.23518 3.75824C9.47361 4.08227 9.58803 4.48101 9.55768 4.88217C9.52734 5.28332 9.35423 5.66032 9.06976 5.94479C8.7853 6.22925 8.4083 6.40236 8.00715 6.4327C7.60599 6.46305 7.20725 6.34863 6.88322 6.1102C6.69871 6.78997 6.73202 7.5105 6.97845 8.17035C7.22489 8.83021 7.67205 9.39617 8.25699 9.78858C8.84193 10.181 9.5352 10.3801 10.2392 10.3578C10.9432 10.3356 11.6226 10.0931 12.1816 9.6646C12.7406 9.23605 13.1511 8.643 13.3554 7.9689C13.5597 7.29481 13.5475 6.57362 13.3204 5.90684C13.0934 5.24007 12.663 4.66128 12.0897 4.25195C11.5165 3.84261 10.8294 3.62334 10.125 3.625Z" />
</svg>
