<svg width="18" height="19" viewBox="0 0 18 19" xmlns="http://www.w3.org/2000/svg">
<path d="M17.5147 8.2677C17.7165 8.11016 17.8662 7.89039 17.9428 7.6392C18.0194 7.388 18.0191 7.11799 17.9418 6.86701C17.8646 6.61604 17.7143 6.39669 17.5121 6.23972C17.3098 6.08275 17.0658 5.99603 16.8142 5.99172L11.9269 5.79827C11.9029 5.79653 11.8799 5.78755 11.8606 5.7724C11.8413 5.75726 11.8266 5.7366 11.8183 5.71292L10.1295 0.933368C10.0446 0.690203 9.89053 0.480231 9.68802 0.331883C9.48551 0.183534 9.24438 0.103973 8.99729 0.103973C8.75019 0.103973 8.50906 0.183534 8.30655 0.331883C8.10404 0.480231 7.94992 0.690203 7.86507 0.933368L6.18169 5.72999C6.17337 5.75367 6.15869 5.77433 6.13942 5.78947C6.12015 5.80462 6.09711 5.8136 6.07308 5.81534L1.18583 6.00879C0.934199 6.0131 0.690159 6.09982 0.487932 6.25679C0.285706 6.41376 0.135435 6.63311 0.0581892 6.88408C-0.0190565 7.13506 -0.0194031 7.40507 0.0571981 7.65626C0.133799 7.90746 0.283507 8.12723 0.485329 8.28477L4.3191 11.4427C4.33829 11.4585 4.35263 11.4799 4.36035 11.5041C4.36807 11.5284 4.36884 11.5545 4.36255 11.5792L3.04299 16.4783C2.97461 16.7278 2.98123 16.9932 3.06196 17.2386C3.14269 17.484 3.2936 17.6974 3.49416 17.8497C3.69473 18.002 3.93521 18.0859 4.18289 18.09C4.43057 18.094 4.67343 18.018 4.87842 17.8723L8.92941 15.0273C8.94936 15.0129 8.97304 15.0052 8.99729 15.0052C9.02153 15.0052 9.04521 15.0129 9.06516 15.0273L13.1161 17.8723C13.3184 18.023 13.5604 18.104 13.8085 18.104C14.0567 18.104 14.2986 18.023 14.5009 17.8723C14.7015 17.7214 14.8525 17.5091 14.9333 17.2645C15.014 17.02 15.0204 16.7553 14.9516 16.5067L13.6212 11.5906C13.6141 11.5659 13.6145 11.5396 13.6223 11.5151C13.6301 11.4907 13.6448 11.4694 13.6646 11.4541L17.5147 8.2677Z" />
</svg>
