<svg width="16" height="17" viewBox="0 0 16 17" fill="none" xmlns="http://www.w3.org/2000/svg">
<path fill-rule="evenodd" clip-rule="evenodd" d="M2 0.963806C1.46957 0.963806 0.960859 1.17452 0.585786 1.54959C0.210714 1.92467 0 2.43337 0 2.96381L0 14.9638C0 15.4942 0.210714 16.0029 0.585786 16.378C0.960859 16.7531 1.46957 16.9638 2 16.9638H14C14.5304 16.9638 15.0391 16.7531 15.4142 16.378C15.7893 16.0029 16 15.4942 16 14.9638V2.96381C16 2.43337 15.7893 1.92467 15.4142 1.54959C15.0391 1.17452 14.5304 0.963806 14 0.963806H2ZM8.354 11.6098C8.44789 11.7037 8.50063 11.831 8.50063 11.9638C8.50063 12.0966 8.44789 12.2239 8.354 12.3178C8.26011 12.4117 8.13278 12.4644 8 12.4644C7.86722 12.4644 7.73989 12.4117 7.646 12.3178L4.646 9.31781C4.59944 9.27136 4.56249 9.21618 4.53729 9.15544C4.51208 9.09469 4.49911 9.02957 4.49911 8.96381C4.49911 8.89804 4.51208 8.83292 4.53729 8.77217C4.56249 8.71143 4.59944 8.65625 4.646 8.60981L7.646 5.60981C7.69249 5.56332 7.74768 5.52644 7.80842 5.50128C7.86916 5.47612 7.93426 5.46317 8 5.46317C8.06574 5.46317 8.13084 5.47612 8.19158 5.50128C8.25232 5.52644 8.30751 5.56332 8.354 5.60981C8.40049 5.65629 8.43736 5.71148 8.46252 5.77222C8.48768 5.83296 8.50063 5.89806 8.50063 5.96381C8.50063 6.02955 8.48768 6.09465 8.46252 6.15539C8.43736 6.21613 8.40049 6.27132 8.354 6.31781L6.207 8.46381H11C11.1326 8.46381 11.2598 8.51648 11.3536 8.61025C11.4473 8.70402 11.5 8.8312 11.5 8.96381C11.5 9.09641 11.4473 9.22359 11.3536 9.31736C11.2598 9.41113 11.1326 9.46381 11 9.46381H6.207L8.354 11.6098Z" fill="#FF5050"/>
</svg>
