<svg width="16" height="17" viewBox="0 0 16 17" fill="none" xmlns="http://www.w3.org/2000/svg">
<path fill-rule="evenodd" clip-rule="evenodd" d="M14 16.9638C14.5304 16.9638 15.0391 16.7531 15.4142 16.378C15.7893 16.0029 16 15.4942 16 14.9638L16 2.96381C16 2.43337 15.7893 1.92467 15.4142 1.54959C15.0391 1.17452 14.5304 0.963806 14 0.963806L2 0.963805C1.46957 0.963805 0.960861 1.17452 0.585788 1.54959C0.210716 1.92466 1.27029e-06 2.43337 1.22392e-06 2.9638L1.74846e-07 14.9638C1.28474e-07 15.4942 0.210714 16.0029 0.585787 16.378C0.960859 16.7531 1.46957 16.9638 2 16.9638L14 16.9638ZM7.646 6.31781C7.55211 6.22392 7.49937 6.09658 7.49937 5.96381C7.49937 5.83103 7.55211 5.70369 7.646 5.60981C7.73989 5.51592 7.86723 5.46317 8 5.46317C8.13278 5.46317 8.26011 5.51592 8.354 5.60981L11.354 8.60981C11.4006 8.65625 11.4375 8.71143 11.4627 8.77217C11.4879 8.83292 11.5009 8.89804 11.5009 8.96381C11.5009 9.02957 11.4879 9.09469 11.4627 9.15544C11.4375 9.21618 11.4006 9.27136 11.354 9.31781L8.354 12.3178C8.30751 12.3643 8.25232 12.4012 8.19158 12.4263C8.13084 12.4515 8.06574 12.4644 8 12.4644C7.93426 12.4644 7.86916 12.4515 7.80842 12.4263C7.74768 12.4012 7.69249 12.3643 7.646 12.3178C7.59951 12.2713 7.56264 12.2161 7.53748 12.1554C7.51232 12.0946 7.49937 12.0295 7.49937 11.9638C7.49937 11.8981 7.51232 11.833 7.53748 11.7722C7.56264 11.7115 7.59951 11.6563 7.646 11.6098L9.793 9.46381L5 9.46381C4.86739 9.46381 4.74022 9.41113 4.64645 9.31736C4.55268 9.22359 4.5 9.09641 4.5 8.96381C4.5 8.8312 4.55268 8.70402 4.64645 8.61025C4.74022 8.51648 4.86739 8.46381 5 8.46381L9.793 8.46381L7.646 6.31781Z" fill="#6FCF97"/>
</svg>
