<svg width="17" height="16" viewBox="0 0 17 16" xmlns="http://www.w3.org/2000/svg">
<path d="M11.0319 0.7435V3.37478H4.62256C2.49814 3.37478 0.776367 5.14234 0.776367 7.32325C0.776367 7.98647 0.950648 8.60033 1.2331 9.14942L2.81966 7.98956C2.74754 7.77979 2.69946 7.56078 2.69946 7.32634C2.69946 6.23434 3.56185 5.3521 4.62256 5.3521H11.0319V7.98339L16.1611 4.69197V4.03492L11.0319 0.7435ZM14.1178 7.97722C14.19 8.18698 14.238 8.40599 14.238 8.64044C14.238 9.73243 13.3786 10.6147 12.3149 10.6147H5.90562V7.98339L0.776367 11.2748V11.9319L5.90562 15.2233V12.592H12.3149C14.4394 12.592 16.1611 10.8244 16.1611 8.64352C16.1611 7.9803 15.9868 7.36644 15.7044 6.81735L14.1178 7.97722Z" />
</svg>
