<svg width="19" height="16" viewBox="0 0 19 16" xmlns="http://www.w3.org/2000/svg">
<path d="M16.8236 2.89784H13.9902L13.3152 1.02696C13.2686 0.898943 13.1831 0.788284 13.0705 0.710103C12.9579 0.631921 12.8237 0.590029 12.6861 0.590149H6.2944C6.01315 0.590149 5.76107 0.765287 5.66732 1.02696L4.99023 2.89784H2.1569C1.23607 2.89784 0.490234 3.63548 0.490234 4.54619V13.9418C0.490234 14.8525 1.23607 15.5901 2.1569 15.5901H16.8236C17.7444 15.5901 18.4902 14.8525 18.4902 13.9418V4.54619C18.4902 3.63548 17.7444 2.89784 16.8236 2.89784ZM9.49023 12.2934C7.64857 12.2934 6.1569 10.8182 6.1569 8.99674C6.1569 7.17531 7.64857 5.70004 9.49023 5.70004C11.3319 5.70004 12.8236 7.17531 12.8236 8.99674C12.8236 10.8182 11.3319 12.2934 9.49023 12.2934ZM7.49023 8.99674C7.49023 9.52135 7.70095 10.0245 8.07602 10.3954C8.45109 10.7664 8.9598 10.9748 9.49023 10.9748C10.0207 10.9748 10.5294 10.7664 10.9044 10.3954C11.2795 10.0245 11.4902 9.52135 11.4902 8.99674C11.4902 8.47214 11.2795 7.96902 10.9044 7.59807C10.5294 7.22712 10.0207 7.01872 9.49023 7.01872C8.9598 7.01872 8.45109 7.22712 8.07602 7.59807C7.70095 7.96902 7.49023 8.47214 7.49023 8.99674Z"/>
</svg>
