<svg width="16" height="16" viewBox="0 0 16 16" fill="none" xmlns="http://www.w3.org/2000/svg">
<path d="M8 0L6 3H7V5H9V3H10L8 0Z" fill="white"/>
<path d="M15 15V7H1V15H15ZM16 16H0V6H16V16Z" fill="white"/>
<path d="M8 14C8.79565 14 9.55871 13.6839 10.1213 13.1213C10.6839 12.5587 11 11.7956 11 11C11 10.2044 10.6839 9.44129 10.1213 8.87868C9.55871 8.31607 8.79565 8 8 8H13V9H14V13H13V14H8Z" fill="white"/>
<path d="M5 11C5 11.7956 5.31607 12.5587 5.87868 13.1213C6.44129 13.6839 7.20435 14 8 14H3V13H2V9H3V8H8C7.20435 8 6.44129 8.31607 5.87868 8.87868C5.31607 9.44129 5 10.2044 5 11Z" fill="white"/>
</svg>
