<svg width="27" height="26" viewBox="0 0 27 26" fill="none" xmlns="http://www.w3.org/2000/svg">
<path d="M13.3379 25.2599C20.1088 25.2599 25.5977 19.771 25.5977 13.0001C25.5977 6.22924 20.1088 0.740326 13.3379 0.740326C6.56702 0.740326 1.07812 6.22924 1.07812 13.0001C1.07812 19.771 6.56702 25.2599 13.3379 25.2599Z" fill="white"/>
<g opacity="0.3">
<g opacity="0.3">
<g opacity="0.3">
<path opacity="0.3" d="M23.3564 18.5631C19.6261 24.2135 12.0209 25.7703 6.37063 22.0401C3.62993 20.2308 1.8521 17.5095 1.17403 14.5429C0.969806 13.2827 0.961098 11.9887 1.15839 10.7109C1.73407 12.2629 2.62662 13.708 3.81399 14.9395C4.36391 10.2708 6.69944 4.91807 5.43402 3.62379L5.90471 3.42309L6.33703 4.70921L5.7478 8.55505L4.27012 15.1538L4.27848 15.3973C4.77325 15.8585 5.31251 16.2846 5.89579 16.6697C10.5282 19.7279 16.474 19.2319 20.5223 15.8416C19.3983 10.7138 14.1604 4.25982 16.6882 1.23309L17.0301 1.26128L16.6372 2.64064L16.8994 5.00659L18.3078 8.5698L20.0096 12.4634L21.0517 15.3695C21.7305 14.7308 22.3462 14.0039 22.8817 13.1927C23.8862 11.6711 24.5079 10.007 24.7686 8.31548C24.9554 8.8196 25.1092 9.33539 25.2291 9.85812C25.702 12.7855 25.1196 15.8924 23.3564 18.5631Z" fill="#181818"/>
</g>
</g>
</g>
<path d="M13.3117 25.7903C10.8338 25.7903 8.40918 25.0674 6.2936 23.6707C3.44336 21.7891 1.49656 18.9102 0.811664 15.5643C0.126655 12.2183 0.78579 8.80608 2.66731 5.95595C4.54893 3.10582 7.42778 1.1589 10.7738 0.473887C14.1197 -0.210571 17.5319 0.44812 20.3821 2.32964C23.2323 4.21138 25.1792 7.09012 25.8642 10.4362C26.5491 13.782 25.8899 17.1943 24.0084 20.0444C22.1268 22.8945 19.2479 24.8414 15.902 25.5263C15.0395 25.7029 14.1722 25.7903 13.3117 25.7903ZM13.3619 1.2626C12.5721 1.2626 11.7764 1.34274 10.9847 1.50469C7.91418 2.13333 5.27226 3.91996 3.54554 6.53558C1.8187 9.15121 1.21385 12.2827 1.84238 15.3533C2.47091 18.4239 4.25764 21.0659 6.87327 22.7925C9.48901 24.5194 12.6206 25.1241 15.6909 24.4957C18.7616 23.8671 21.4036 22.0804 23.1302 19.4648C24.857 16.8493 25.4618 13.7177 24.8333 10.6471C24.2048 7.57653 22.4181 4.93458 19.8025 3.20785C17.8612 1.92613 15.6357 1.2626 13.3619 1.2626Z" fill="#181818"/>
<path d="M17.1445 24.9026C17.0474 24.9026 16.9551 24.8452 16.9151 24.7501C16.8621 24.6236 16.9216 24.4778 17.0481 24.4246C19.0836 23.57 20.3641 22.4103 20.963 20.8795C22.1837 17.7587 20.2765 13.5729 18.594 9.87981C16.9234 6.21322 15.4808 3.04668 16.9746 1.19555C17.0608 1.08853 17.2172 1.07202 17.3241 1.15823C17.431 1.24443 17.4477 1.40088 17.3615 1.50778C16.0605 3.12001 17.5107 6.30338 19.0463 9.67371C20.7697 13.4564 22.7232 17.7441 21.4259 21.0606C20.7756 22.7233 19.4065 23.9736 17.2406 24.8832C17.2092 24.8963 17.1765 24.9026 17.1445 24.9026Z" fill="#181818"/>
<path d="M10.2048 25.1049C10.1778 25.1049 10.1503 25.1004 10.1235 25.091C1.92627 22.2486 3.83683 14.9152 5.23195 9.56077C5.94999 6.80466 6.57013 4.42453 5.6111 3.52263C5.51113 3.42861 5.50633 3.27128 5.60035 3.17132C5.69448 3.07124 5.85157 3.0665 5.95165 3.16052C7.12559 4.26422 6.50213 6.65691 5.71297 9.68605C4.29176 15.1407 2.52298 21.9292 10.2861 24.6213C10.4159 24.6662 10.4846 24.8078 10.4396 24.9375C10.404 25.0404 10.3077 25.1049 10.2048 25.1049Z" fill="#181818"/>
<path d="M17.3776 2.86372C17.3377 2.86372 17.2973 2.85227 17.2613 2.82871L16.6826 2.44658L15.8483 2.63869C15.7348 2.66544 15.621 2.594 15.5949 2.48027C15.5687 2.36654 15.6396 2.25314 15.7533 2.22694L16.676 2.01445C16.7325 2.00135 16.7916 2.01214 16.8398 2.04407L17.4941 2.47607C17.5915 2.54037 17.6182 2.67139 17.5539 2.76882C17.5135 2.83026 17.4462 2.86372 17.3776 2.86372Z" fill="#181818"/>
<path d="M6.22065 4.18531C6.20942 4.18531 6.19822 4.1843 6.18699 4.18254L5.41289 4.05747C5.29762 4.03887 5.21936 3.93043 5.23797 3.81527C5.25646 3.7 5.36454 3.62149 5.48014 3.64032L6.16495 3.75087L6.84654 3.23287C6.93924 3.16219 7.07179 3.18024 7.14258 3.27327C7.21326 3.36619 7.19524 3.49874 7.10221 3.56931L6.34837 4.14214C6.3116 4.17022 6.26656 4.18531 6.22065 4.18531Z" fill="#181818"/>
<path d="M6.29721 6.2073C6.26341 6.2073 6.22981 6.19915 6.19921 6.18319L5.5044 5.81966C5.40102 5.76549 5.36094 5.63799 5.415 5.5344C5.46917 5.43102 5.59664 5.39094 5.70023 5.445L6.31479 5.76657L7.12523 5.49091C7.23609 5.45358 7.35588 5.51237 7.39342 5.62291C7.43097 5.73344 7.37193 5.85345 7.2614 5.8911L6.3651 6.19596C6.34308 6.20355 6.32011 6.2073 6.29721 6.2073Z" fill="#181818"/>
<path d="M5.91716 8.00965C5.88248 8.00965 5.8479 8.00096 5.81685 7.98422L5.12677 7.61201C5.02394 7.55663 4.98576 7.42836 5.04114 7.32564C5.09651 7.22282 5.22456 7.1846 5.3275 7.23998L5.93786 7.56927L6.7519 7.30374C6.86266 7.26752 6.9821 7.32829 7.01832 7.43915C7.05444 7.55013 6.99378 7.66935 6.88291 7.70557L5.9828 7.99909C5.96133 8.00602 5.93918 8.00965 5.91716 8.00965Z" fill="#181818"/>
<path d="M5.51943 9.79726C5.47793 9.79726 5.43693 9.78504 5.40192 9.76159L4.75017 9.32551C4.65318 9.26056 4.62721 9.12931 4.69206 9.03232C4.75701 8.93544 4.88826 8.90956 4.98525 8.97418L5.56169 9.35997L6.39718 9.17303C6.51135 9.14793 6.62409 9.21925 6.64952 9.33309C6.67495 9.44693 6.60338 9.56 6.48943 9.58543L5.56556 9.7922C5.55037 9.79562 5.53485 9.79726 5.51943 9.79726Z" fill="#181818"/>
<path d="M4.96842 11.9397C4.92692 11.9397 4.88597 11.9275 4.85096 11.9039L4.19932 11.4678C4.10233 11.403 4.07633 11.2717 4.14129 11.1748C4.20636 11.0776 4.33749 11.0519 4.43437 11.1167L5.01073 11.5024L5.84622 11.3155C5.95984 11.2903 6.07313 11.3617 6.09856 11.4755C6.12399 11.5894 6.05242 11.7024 5.93847 11.7278L5.01455 11.9346C4.99935 11.938 4.98384 11.9397 4.96842 11.9397Z" fill="#181818"/>
<path d="M4.56336 13.8552C4.5289 13.8552 4.49468 13.8468 4.46374 13.8301L3.77245 13.4602C3.66952 13.4052 3.63075 13.2771 3.6858 13.1742C3.74085 13.0712 3.86901 13.0325 3.97184 13.0875L4.58341 13.4149L5.39646 13.1466C5.50787 13.1102 5.62686 13.1703 5.66342 13.2811C5.69997 13.3919 5.63967 13.5115 5.52892 13.5481L4.62975 13.8446C4.60795 13.8516 4.5856 13.8552 4.56336 13.8552Z" fill="#181818"/>
<path d="M4.292 15.9453C4.25754 15.9453 4.2233 15.9368 4.19236 15.9202L3.50107 15.5502C3.39813 15.4952 3.35939 15.3671 3.41444 15.2642C3.4696 15.1613 3.59774 15.1226 3.70046 15.1776L4.31202 15.5049L5.12521 15.2367C5.23596 15.2004 5.35551 15.2605 5.39206 15.3713C5.42861 15.4823 5.36826 15.6016 5.2574 15.6382L4.35828 15.9346C4.33659 15.9417 4.31424 15.9453 4.292 15.9453Z" fill="#181818"/>
<path d="M4.23353 17.8798C4.19907 17.8798 4.16483 17.8713 4.13389 17.8546L3.4426 17.4847C3.33966 17.4297 3.30092 17.3016 3.35597 17.1987C3.41102 17.0959 3.53916 17.057 3.64199 17.112L4.25355 17.4394L5.0666 17.1711C5.17791 17.1347 5.2969 17.1948 5.33356 17.3056C5.37011 17.4165 5.30982 17.536 5.19906 17.5726L4.29992 17.8691C4.27812 17.8762 4.25577 17.8798 4.23353 17.8798Z" fill="#181818"/>
<path d="M4.61013 19.7436C4.6054 19.7436 4.60057 19.7434 4.59572 19.7431L3.8135 19.6898C3.69702 19.6818 3.60915 19.581 3.61707 19.4645C3.625 19.3481 3.7252 19.2603 3.84234 19.2681L4.53417 19.3154L5.16533 18.7368C5.25143 18.6579 5.38507 18.6639 5.4639 18.7498C5.54273 18.8358 5.53693 18.9695 5.45095 19.0484L4.75291 19.6881C4.71382 19.7238 4.66286 19.7436 4.61013 19.7436Z" fill="#181818"/>
<path d="M5.36602 21.7165C5.36128 21.7165 5.3564 21.7164 5.35166 21.716L4.56947 21.6628C4.45299 21.6549 4.36501 21.5542 4.37293 21.4377C4.38086 21.3212 4.48205 21.2339 4.59809 21.2412L5.29006 21.2883L5.92122 20.7099C6.0072 20.6309 6.14096 20.6369 6.21979 20.7228C6.29861 20.8088 6.29276 20.9426 6.20678 21.0214L5.50879 21.6611C5.4696 21.6967 5.41864 21.7165 5.36602 21.7165Z" fill="#181818"/>
<path d="M15.8154 4.50202C15.7343 4.50202 15.6571 4.45511 15.6221 4.37617C15.5747 4.26938 15.6231 4.14453 15.7297 4.09741L16.5776 3.722C16.6253 3.70097 16.6788 3.6981 16.7282 3.71418L17.4858 3.95937C17.5969 3.99526 17.6577 4.11438 17.6217 4.22546C17.5857 4.33655 17.467 4.39753 17.3556 4.36141L16.6748 4.14112L15.9008 4.48385C15.873 4.49618 15.844 4.50202 15.8154 4.50202Z" fill="#181818"/>
<path d="M16.3819 6.49121C16.3151 6.49121 16.2494 6.45962 16.2083 6.40061C16.1417 6.30471 16.1651 6.17305 16.261 6.10645L17.0221 5.57689C17.0648 5.54705 17.1179 5.53405 17.1685 5.54055L17.9589 5.63755C18.0748 5.65175 18.1572 5.75721 18.143 5.87303C18.1289 5.98896 18.0243 6.07166 17.9075 6.05712L17.1973 5.96993L16.5024 6.45334C16.4656 6.47888 16.4235 6.49121 16.3819 6.49121Z" fill="#181818"/>
<path d="M17.2249 8.50442C17.158 8.50442 17.0922 8.47271 17.0511 8.4137C16.9846 8.31792 17.0081 8.18623 17.104 8.11952L17.8652 7.58995C17.9079 7.56023 17.9606 7.54703 18.0115 7.55375L18.8017 7.65073C18.9176 7.66493 19 7.77042 18.9858 7.88624C18.9716 8.00195 18.8667 8.0845 18.7503 8.0703L18.0402 7.98311L17.3452 8.46665C17.3084 8.49208 17.2664 8.50442 17.2249 8.50442Z" fill="#181818"/>
<path d="M18.1209 10.6325C18.0639 10.6325 18.0072 10.6096 17.9655 10.5645C17.8863 10.4787 17.8917 10.345 17.9775 10.2658L18.659 9.63705C18.6973 9.60182 18.7472 9.58191 18.799 9.58114L19.5951 9.56902C19.5962 9.56902 19.5973 9.56891 19.5984 9.56891C19.7136 9.56891 19.8078 9.66148 19.8096 9.77708C19.8115 9.89378 19.7182 9.9899 19.6015 9.99155L18.8861 10.0026L18.264 10.5766C18.2236 10.6139 18.1722 10.6325 18.1209 10.6325Z" fill="#181818"/>
<path d="M19.1776 12.6935C19.1207 12.6935 19.0641 12.6706 19.0223 12.6255C18.9432 12.5397 18.9486 12.4059 19.0343 12.3268L19.7158 11.698C19.7541 11.6628 19.804 11.6429 19.8558 11.6421L20.6519 11.63C20.653 11.63 20.6542 11.6299 20.6553 11.6299C20.7704 11.6299 20.8647 11.7225 20.8664 11.8381C20.8683 11.9548 20.775 12.0509 20.6583 12.0525L19.9429 12.0635L19.3208 12.6376C19.2803 12.6749 19.2289 12.6935 19.1776 12.6935Z" fill="#181818"/>
<path d="M19.9452 14.8166C19.8883 14.8166 19.8316 14.7937 19.7899 14.7485C19.7107 14.6627 19.7162 14.5291 19.8019 14.4498L20.4833 13.8211C20.5216 13.786 20.5714 13.7659 20.6233 13.7652L21.4194 13.753C21.4205 13.753 21.4216 13.7529 21.4227 13.7529C21.5379 13.7529 21.6321 13.8455 21.6339 13.9611C21.6357 14.0778 21.5425 14.1739 21.4258 14.1756L20.7104 14.1866L20.0883 14.7606C20.0479 14.798 19.9965 14.8166 19.9452 14.8166Z" fill="#181818"/>
<path d="M20.5846 17.0203C20.5184 17.0203 20.4533 16.9894 20.4122 16.9314C20.3446 16.8363 20.3668 16.7043 20.4619 16.6367L21.2176 16.0994C21.26 16.0695 21.3116 16.0561 21.3637 16.0616L22.1551 16.1507C22.271 16.1637 22.3546 16.2683 22.3413 16.3843C22.3284 16.5003 22.2249 16.585 22.1077 16.5706L21.3967 16.4906L20.7068 16.981C20.6696 17.0076 20.6269 17.0203 20.5846 17.0203Z" fill="#181818"/>
<path d="M20.7673 18.5483C20.6843 18.5483 20.6055 18.4991 20.5719 18.4175C20.5274 18.3098 20.5788 18.1861 20.6866 18.1415L21.5436 17.7877C21.5917 17.7679 21.6455 17.7665 21.6944 17.7837L22.4454 18.0479C22.5555 18.0867 22.6133 18.2072 22.5746 18.3173C22.5359 18.4275 22.4151 18.4853 22.3053 18.4466L21.6303 18.2091L20.848 18.5323C20.8215 18.5432 20.7942 18.5483 20.7673 18.5483Z" fill="#181818"/>
<path d="M22.2115 20.4559C22.1733 20.4559 22.1348 20.4457 22.1 20.4239L21.4926 20.0456L20.6588 20.1914C20.5443 20.2119 20.4344 20.1345 20.4142 20.0195C20.3941 19.9046 20.471 19.7951 20.5861 19.775L21.4995 19.6154C21.5504 19.6062 21.6033 19.6166 21.6475 19.6442L22.3235 20.0651C22.4225 20.1268 22.4528 20.2571 22.3911 20.3562C22.3511 20.4205 22.2821 20.4559 22.2115 20.4559Z" fill="#181818"/>
<path d="M21.6663 22.1166C21.6123 22.1166 21.5582 22.096 21.5169 22.0548L21.011 21.5488L20.1659 21.5019C20.0493 21.4954 19.9601 21.3957 19.9666 21.2793C19.973 21.1627 20.0725 21.0696 20.1892 21.08L21.1149 21.1313C21.1669 21.134 21.2158 21.1561 21.2526 21.1928L21.8156 21.7559C21.8981 21.8384 21.8981 21.9722 21.8156 22.0548C21.7745 22.096 21.7205 22.1166 21.6663 22.1166Z" fill="#181818"/>
<g opacity="0.3">
<g opacity="0.3">
<g opacity="0.3">
<path opacity="0.3" d="M7.74533 15.8852C7.84255 15.8852 7.92138 15.8063 7.92138 15.7091C7.92138 15.6119 7.84255 15.5331 7.74533 15.5331C7.6481 15.5331 7.56927 15.6119 7.56927 15.7091C7.56927 15.8063 7.6481 15.8852 7.74533 15.8852Z" fill="#181818"/>
</g>
</g>
</g>
<g opacity="0.3">
<g opacity="0.3">
<g opacity="0.3">
<path opacity="0.3" d="M13.5687 17.122C13.6374 17.122 13.6932 17.0662 13.6932 16.9974C13.6932 16.9287 13.6374 16.8729 13.5687 16.8729C13.4999 16.8729 13.4442 16.9287 13.4442 16.9974C13.4442 17.0662 13.4999 17.122 13.5687 17.122Z" fill="#181818"/>
</g>
</g>
</g>
<g opacity="0.3">
<g opacity="0.3">
<g opacity="0.3">
<path opacity="0.3" d="M23.6083 9.7183C23.677 9.7183 23.7328 9.66257 23.7328 9.5938C23.7328 9.52503 23.677 9.46927 23.6083 9.46927C23.5395 9.46927 23.4838 9.52503 23.4838 9.5938C23.4838 9.66257 23.5395 9.7183 23.6083 9.7183Z" fill="#181818"/>
</g>
</g>
</g>
<g opacity="0.3">
<g opacity="0.3">
<g opacity="0.3">
<path opacity="0.3" d="M21.9152 10.0574C21.9839 10.0574 22.0397 10.0017 22.0397 9.93288C22.0397 9.86411 21.9839 9.80838 21.9152 9.80838C21.8464 9.80838 21.7906 9.86411 21.7906 9.93288C21.7906 10.0017 21.8464 10.0574 21.9152 10.0574Z" fill="#181818"/>
</g>
</g>
</g>
<g opacity="0.3">
<g opacity="0.3">
<g opacity="0.3">
<path opacity="0.3" d="M7.78825 12.2325C7.85702 12.2325 7.91275 12.1768 7.91275 12.108C7.91275 12.0392 7.85702 11.9835 7.78825 11.9835C7.71948 11.9835 7.6637 12.0392 7.6637 12.108C7.6637 12.1768 7.71948 12.2325 7.78825 12.2325Z" fill="#181818"/>
</g>
</g>
</g>
<g opacity="0.3">
<g opacity="0.3">
<g opacity="0.3">
<path opacity="0.3" d="M3.01391 9.52487C3.08267 9.52487 3.13843 9.46912 3.13843 9.40035C3.13843 9.33158 3.08267 9.27582 3.01391 9.27582C2.94514 9.27582 2.8894 9.33158 2.8894 9.40035C2.8894 9.46912 2.94514 9.52487 3.01391 9.52487Z" fill="#181818"/>
</g>
</g>
</g>
<g opacity="0.3">
<g opacity="0.3">
<g opacity="0.3">
<path opacity="0.3" d="M14.1511 13.4446C14.2483 13.4446 14.3271 13.3658 14.3271 13.2686C14.3271 13.1713 14.2483 13.0925 14.1511 13.0925C14.0539 13.0925 13.975 13.1713 13.975 13.2686C13.975 13.3658 14.0539 13.4446 14.1511 13.4446Z" fill="#181818"/>
</g>
</g>
</g>
<g opacity="0.3">
<g opacity="0.3">
<g opacity="0.3">
<path opacity="0.3" d="M10.9312 15.4241C11.0946 15.4241 11.227 15.2917 11.227 15.1283C11.227 14.9649 11.0946 14.8325 10.9312 14.8325C10.7678 14.8325 10.6354 14.9649 10.6354 15.1283C10.6354 15.2917 10.7678 15.4241 10.9312 15.4241Z" fill="#181818"/>
</g>
</g>
</g>
<g opacity="0.3">
<g opacity="0.3">
<g opacity="0.3">
<path opacity="0.3" d="M22.0218 11.7557C22.1852 11.7557 22.3176 11.6233 22.3176 11.4599C22.3176 11.2965 22.1852 11.1641 22.0218 11.1641C21.8584 11.1641 21.726 11.2965 21.726 11.4599C21.726 11.6233 21.8584 11.7557 22.0218 11.7557Z" fill="#181818"/>
</g>
</g>
</g>
<g opacity="0.3">
<g opacity="0.3">
<g opacity="0.3">
<path opacity="0.3" d="M16.6908 15.864C16.8542 15.864 16.9867 15.7316 16.9867 15.5682C16.9867 15.4048 16.8542 15.2724 16.6908 15.2724C16.5275 15.2724 16.395 15.4048 16.395 15.5682C16.395 15.7316 16.5275 15.864 16.6908 15.864Z" fill="#181818"/>
</g>
</g>
</g>
<g opacity="0.3">
<g opacity="0.3">
<g opacity="0.3">
<path opacity="0.3" d="M2.57596 11.7377C2.7394 11.7377 2.8719 11.6052 2.8719 11.4417C2.8719 11.2783 2.7394 11.1458 2.57596 11.1458C2.41252 11.1458 2.28003 11.2783 2.28003 11.4417C2.28003 11.6052 2.41252 11.7377 2.57596 11.7377Z" fill="#181818"/>
</g>
</g>
</g>
</svg>
