<svg width="29" height="29" viewBox="0 0 29 29" fill="none" xmlns="http://www.w3.org/2000/svg">
<path d="M14.3376 27.8969C21.6641 27.8969 27.6034 21.957 27.6034 14.6296C27.6034 7.3023 21.6641 1.36232 14.3376 1.36232C7.01112 1.36232 1.07184 7.3023 1.07184 14.6296C1.07184 21.957 7.01112 27.8969 14.3376 27.8969Z" fill="#FF5722"/>
<g opacity="0.19">
<g opacity="0.19">
<g opacity="0.19">
<path opacity="0.19" d="M9.6855 15.5413C7.83672 14.3139 7.70896 11.2534 8.4082 10.1999C9.10743 9.14652 10.3688 10.499 12.2176 11.7264C14.0664 12.9538 15.8024 13.5913 15.1032 14.6447C14.404 15.6981 11.5342 16.7686 9.6855 15.5413Z" fill="white"/>
</g>
</g>
</g>
<g opacity="0.35">
<g opacity="0.35">
<g opacity="0.35">
<path opacity="0.35" d="M27.6036 14.6111C27.5933 7.28341 21.646 1.35215 14.3192 1.36236C10.6954 1.36742 7.4132 2.82521 5.02235 5.18448C5.02167 5.18448 5.02167 5.18448 5.02167 5.18448H5.021C5.00769 5.19711 4.99578 5.2111 4.98251 5.22377C4.89553 5.31029 4.80928 5.39814 4.72498 5.48671C4.70572 5.50669 4.68781 5.52667 4.66923 5.54594C4.58757 5.63247 4.50731 5.72032 4.42833 5.80952C4.40974 5.82947 4.3918 5.85013 4.3739 5.87075C4.29692 5.9586 4.22061 6.04713 4.14627 6.13697C4.13036 6.1556 4.11441 6.17422 4.09914 6.19289C4.0202 6.28873 3.94322 6.38589 3.86624 6.48369C3.84898 6.50631 3.83107 6.52829 3.81385 6.55092C3.73954 6.64808 3.66719 6.74588 3.59489 6.8444C3.57762 6.86902 3.55972 6.89364 3.54181 6.91826C3.4715 7.01677 3.40183 7.11658 3.33416 7.2177C3.3169 7.24299 3.29966 7.26829 3.28244 7.29423C3.21545 7.39535 3.14978 7.49783 3.08478 7.60031C3.06888 7.62625 3.05297 7.65219 3.03706 7.67884C2.97271 7.78264 2.90971 7.88708 2.84872 7.99355C2.84276 8.00354 2.83613 8.01349 2.83017 8.02416C2.83217 8.02085 2.83481 8.01753 2.83681 8.01417C2.56824 8.48056 2.32633 8.96418 2.11499 9.46435C2.94037 7.92557 4.06114 6.56792 5.40092 5.46786C6.55435 5.14252 7.76252 4.96799 9.00816 4.96622C10.3594 4.96433 11.6685 5.16657 12.912 5.54439L11.4152 6.55891C11.4152 6.55891 8.74337 7.63692 8.71344 7.64691C8.68287 7.65626 6.59356 8.45028 6.59356 8.45028L4.35991 9.19258L2.94854 9.95905C4.75092 9.30637 6.78462 8.67665 8.16409 8.35633C10.7203 7.77706 12.4279 6.80813 13.3848 5.69664C13.8576 5.86016 14.3205 6.04897 14.7721 6.26241C10.943 9.22731 7.8786 14.2944 7.19738 18.1629C9.2203 13.1425 11.8728 9.14089 15.4213 6.59054C16.5947 7.22177 17.6806 8.02126 18.6536 8.9612C16.6106 10.5229 15.2828 14.0394 15.7471 19.9518C15.8566 21.7179 15.7311 23.2843 15.3615 24.6435C15.8049 23.3207 16.0235 21.7828 16.0257 20.0358C15.9421 14.4785 17.2414 11.0166 19.1714 9.44044C21.9287 12.3987 23.7013 16.6494 23.7078 21.2423C23.7092 22.274 23.6242 23.2832 23.4601 24.262C23.5464 24.1801 23.6313 24.0969 23.7157 24.013C23.9076 22.9584 24.0077 21.8667 24.0062 20.7486C23.9999 16.2395 22.2951 12.1058 19.6256 9.15929C21.3808 8.01945 23.5733 8.26565 25.5345 9.51065C26.5168 11.3599 27.0748 13.4691 27.0779 15.7087C27.0805 17.5474 26.7087 19.2989 26.035 20.892C27.0388 19.0213 27.6067 16.8826 27.6036 14.6111ZM13.1891 5.04407C11.9516 4.67021 10.6505 4.47061 9.30655 4.47249C8.2537 4.47396 7.22761 4.59903 6.23821 4.83444C8.3525 3.36104 10.9156 2.48727 13.682 2.46077L13.8494 3.8027L13.1891 5.04407ZM15.2913 5.87675C14.7891 5.62817 14.2717 5.41017 13.7417 5.2241C14.3254 4.33182 14.4623 3.37371 14.1984 2.46605C14.4524 2.47366 14.705 2.48795 14.9549 2.50952C14.9867 3.373 17.5269 3.72443 18.1377 3.1818C18.7163 3.38178 19.2762 3.62029 19.8157 3.89473C18.2674 4.13554 16.7323 4.85164 15.2913 5.87675ZM19.1278 8.64008C18.1733 7.68883 17.1067 6.87463 15.9519 6.22546C17.2926 5.33748 18.7573 4.65072 20.3592 4.18644C22.5231 5.41654 24.307 7.23813 25.4919 9.43155C23.3647 7.89296 21.0033 7.53063 19.1278 8.64008Z" fill="white"/>
</g>
</g>
</g>
<path d="M9.06212 27.1682L9.10096 27.076L9.06213 27.1682C10.7339 27.8726 12.5086 28.2297 14.3372 28.2297L14.3562 28.2297H14.3569C16.1924 28.2271 17.9729 27.865 19.6486 27.1534C21.267 26.4661 22.72 25.4834 23.9669 24.2329C25.2138 22.9823 26.1922 21.5264 26.8749 19.906C27.5818 18.228 27.9388 16.4463 27.9363 14.6106C27.9337 12.775 27.5716 10.9942 26.8601 9.31831C26.1729 7.69976 25.1903 6.24662 23.9399 4.99959C22.6895 3.75255 21.2338 2.77394 19.6135 2.0912C17.9417 1.38677 16.167 1.0297 14.3384 1.0297L14.3188 1.02974C12.4833 1.03228 10.7028 1.3944 9.02708 2.10601L9.06617 2.19806L9.02708 2.10601C7.40871 2.79331 5.95575 3.77598 4.70885 5.02655C3.46192 6.27708 2.48343 7.73295 1.80077 9.35344C1.09392 11.0313 0.736848 12.8131 0.73943 14.6487C0.741975 16.4844 1.10405 18.2651 1.81557 19.9411C2.50275 21.5596 3.48532 23.0127 4.73574 24.2598C5.98613 25.5068 7.44182 26.4854 9.06212 27.1682ZM5.17989 5.49624C7.61933 3.04967 10.8649 1.69981 14.3196 1.69496H14.3196H14.3197H14.3197H14.3197H14.3198H14.3198H14.3199H14.3199H14.3199H14.32H14.32H14.3201H14.3201H14.3201H14.3202H14.3202H14.3202H14.3203H14.3203H14.3204H14.3204H14.3204H14.3205H14.3205H14.3205H14.3206H14.3206H14.3207H14.3207H14.3207H14.3208H14.3208H14.3209H14.3209H14.3209H14.321H14.321H14.321H14.3211H14.3211H14.3212H14.3212H14.3212H14.3213H14.3213H14.3213H14.3214H14.3214H14.3215H14.3215H14.3215H14.3216H14.3216H14.3216H14.3217H14.3217H14.3218H14.3218H14.3218H14.3219H14.3219H14.3219H14.322H14.322H14.322H14.3221H14.3221H14.3222H14.3222H14.3222H14.3223H14.3223H14.3223H14.3224H14.3224H14.3225H14.3225H14.3225H14.3226H14.3226H14.3226H14.3227H14.3227H14.3227H14.3228H14.3228H14.3229H14.3229H14.3229H14.323H14.323H14.323H14.3231H14.3231H14.3231H14.3232H14.3232H14.3233H14.3233H14.3233H14.3234H14.3234H14.3234H14.3235H14.3235H14.3235H14.3236H14.3236H14.3237H14.3237H14.3237H14.3238H14.3238H14.3238H14.3239H14.3239H14.3239H14.324H14.324H14.3241H14.3241H14.3241H14.3242H14.3242H14.3242H14.3243H14.3243H14.3243H14.3244H14.3244H14.3245H14.3245H14.3245H14.3246H14.3246H14.3246H14.3247H14.3247H14.3247H14.3248H14.3248H14.3248H14.3249H14.3249H14.325H14.325H14.325H14.3251H14.3251H14.3251H14.3252H14.3252H14.3252H14.3253H14.3253H14.3253H14.3254H14.3254H14.3254H14.3255H14.3255H14.3256H14.3256H14.3256H14.3257H14.3257H14.3257H14.3258H14.3258H14.3258H14.3259H14.3259H14.3259H14.326H14.326H14.3261H14.3261H14.3261H14.3262H14.3262H14.3262H14.3263H14.3263H14.3263H14.3264H14.3264H14.3264H14.3265H14.3265H14.3265H14.3266H14.3266H14.3267H14.3267H14.3267H14.3268H14.3268H14.3268H14.3269H14.3269H14.3269H14.327H14.327H14.327H14.3271H14.3271H14.3271H14.3272H14.3272H14.3273H14.3273H14.3273H14.3274H14.3274H14.3274H14.3275H14.3275H14.3275H14.3276H14.3276H14.3276H14.3277H14.3277H14.3277H14.3278H14.3278H14.3278H14.3279H14.3279H14.328H14.328H14.328H14.3281H14.3281H14.3281H14.3282H14.3282H14.3282H14.3283H14.3283H14.3283H14.3284H14.3284H14.3284H14.3285H14.3285H14.3285H14.3286H14.3286H14.3287H14.3287H14.3287H14.3288H14.3288H14.3288H14.3289H14.3289H14.3289H14.329H14.329H14.329H14.3291H14.3291H14.3291H14.3292H14.3292H14.3292H14.3293H14.3293H14.3294H14.3294H14.3294H14.3295H14.3295H14.3295H14.3296H14.3296H14.3296H14.3297H14.3297H14.3297H14.3298H14.3298H14.3298H14.3299H14.3299H14.33H14.33H14.33H14.3301H14.3301H14.3301H14.3302H14.3302H14.3302H14.3303H14.3303H14.3303H14.3304H14.3304H14.3304H14.3305H14.3305H14.3305H14.3306H14.3306H14.3307H14.3307H14.3307H14.3308H14.3308H14.3308H14.3309H14.3309H14.3309H14.331H14.331H14.331H14.3311H14.3311H14.3311H14.3312H14.3312H14.3313H14.3313H14.3313H14.3314H14.3314H14.3314H14.3315H14.3315H14.3315H14.3316H14.3316H14.3316H14.3317H14.3317H14.3317H14.3318H14.3318H14.3319H14.3319H14.3319H14.332H14.332H14.332H14.3321H14.3321H14.3321H14.3322H14.3322H14.3322H14.3323H14.3323H14.3324H14.3324H14.3324H14.3325H14.3325H14.3325H14.3326H14.3326H14.3326H14.3327H14.3327H14.3327H14.3328H14.3328H14.3329H14.3329H14.3329H14.333H14.333H14.333H14.3331H14.3331H14.3331H14.3332H14.3332H14.3332H14.3333H14.3333H14.3334H14.3334H14.3334H14.3335H14.3335H14.3335H14.3336H14.3336H14.3336H14.3337H14.3337H14.3337H14.3338H14.3338H14.3339H14.3339H14.3339H14.334H14.334H14.334H14.3341H14.3341H14.3341H14.3342H14.3342H14.3343H14.3343H14.3343H14.3344H14.3344H14.3344H14.3345H14.3345H14.3345H14.3346H14.3346H14.3347H14.3347H14.3347H14.3348H14.3348H14.3348H14.3349H14.3349H14.3349H14.335H14.335H14.3351H14.3351H14.3351H14.3352H14.3352H14.3352H14.3353H14.3353H14.3354H14.3354H14.3354H14.3355H14.3355H14.3355H14.3356H14.3356H14.3356H14.3357H14.3357H14.3358H14.3358H14.3358H14.3359H14.3359H14.3359H14.336H14.336H14.3361H14.3361H14.3361H14.3362H14.3362H14.3362H14.3363H14.3363H14.3364H14.3364H14.3364H14.3365H14.3365H14.3365H14.3366H14.3366H14.3367H14.3367H14.3367H14.3368H14.3368H14.3368H14.3369H14.3369H14.337H14.337H14.337H14.3371H14.3371H14.3371H14.3372H14.3372H14.3373H14.3373H14.3373H14.3374H14.3374H14.3375H14.3375H14.3375H14.3376H14.3376H14.3376H14.3377H14.3377H14.3378H14.3378H14.3378H14.3379H14.3379H14.338H14.338H14.338H14.3381H14.3381C21.4604 1.69496 27.261 7.48596 27.271 14.6115C27.2809 21.7436 21.4871 27.5543 14.3559 27.5643H14.3559H14.3558H14.3558H14.3557H14.3557H14.3557H14.3556H14.3556H14.3555H14.3555H14.3555H14.3554H14.3554H14.3554H14.3553H14.3553H14.3552H14.3552H14.3552H14.3551H14.3551H14.355H14.355H14.355H14.3549H14.3549H14.3549H14.3548H14.3548H14.3547H14.3547H14.3547H14.3546H14.3546H14.3546H14.3545H14.3545H14.3544H14.3544H14.3544H14.3543H14.3543H14.3543H14.3542H14.3542H14.3541H14.3541H14.3541H14.354H14.354H14.354H14.3539H14.3539H14.3538H14.3538H14.3538H14.3537H14.3537H14.3537H14.3536H14.3536H14.3536H14.3535H14.3535H14.3534H14.3534H14.3534H14.3533H14.3533H14.3533H14.3532H14.3532H14.3531H14.3531H14.3531H14.353H14.353H14.353H14.3529H14.3529H14.3529H14.3528H14.3528H14.3527H14.3527H14.3527H14.3526H14.3526H14.3526H14.3525H14.3525H14.3524H14.3524H14.3524H14.3523H14.3523H14.3523H14.3522H14.3522H14.3522H14.3521H14.3521H14.352H14.352H14.352H14.3519H14.3519H14.3519H14.3518H14.3518H14.3518H14.3517H14.3517H14.3517H14.3516H14.3516H14.3515H14.3515H14.3515H14.3514H14.3514H14.3514H14.3513H14.3513H14.3513H14.3512H14.3512H14.3511H14.3511H14.3511H14.351H14.351H14.351H14.3509H14.3509H14.3509H14.3508H14.3508H14.3508H14.3507H14.3507H14.3506H14.3506H14.3506H14.3505H14.3505H14.3505H14.3504H14.3504H14.3504H14.3503H14.3503H14.3503H14.3502H14.3502H14.3501H14.3501H14.3501H14.35H14.35H14.35H14.3499H14.3499H14.3499H14.3498H14.3498H14.3498H14.3497H14.3497H14.3497H14.3496H14.3496H14.3495H14.3495H14.3495H14.3494H14.3494H14.3494H14.3493H14.3493H14.3493H14.3492H14.3492H14.3492H14.3491H14.3491H14.3491H14.349H14.349H14.3489H14.3489H14.3489H14.3488H14.3488H14.3488H14.3487H14.3487H14.3487H14.3486H14.3486H14.3486H14.3485H14.3485H14.3485H14.3484H14.3484H14.3483H14.3483H14.3483H14.3482H14.3482H14.3482H14.3481H14.3481H14.3481H14.348H14.348H14.348H14.3479H14.3479H14.3479H14.3478H14.3478H14.3478H14.3477H14.3477H14.3476H14.3476H14.3476H14.3475H14.3475H14.3475H14.3474H14.3474H14.3474H14.3473H14.3473H14.3473H14.3472H14.3472H14.3472H14.3471H14.3471H14.3471H14.347H14.347H14.3469H14.3469H14.3469H14.3468H14.3468H14.3468H14.3467H14.3467H14.3467H14.3466H14.3466H14.3466H14.3465H14.3465H14.3465H14.3464H14.3464H14.3464H14.3463H14.3463H14.3462H14.3462H14.3462H14.3461H14.3461H14.3461H14.346H14.346H14.346H14.3459H14.3459H14.3459H14.3458H14.3458H14.3458H14.3457H14.3457H14.3457H14.3456H14.3456H14.3455H14.3455H14.3455H14.3454H14.3454H14.3454H14.3453H14.3453H14.3453H14.3452H14.3452H14.3452H14.3451H14.3451H14.3451H14.345H14.345H14.3449H14.3449H14.3449H14.3448H14.3448H14.3448H14.3447H14.3447H14.3447H14.3446H14.3446H14.3446H14.3445H14.3445H14.3445H14.3444H14.3444H14.3444H14.3443H14.3443H14.3442H14.3442H14.3442H14.3441H14.3441H14.3441H14.344H14.344H14.344H14.3439H14.3439H14.3439H14.3438H14.3438H14.3438H14.3437H14.3437H14.3436H14.3436H14.3436H14.3435H14.3435H14.3435H14.3434H14.3434H14.3434H14.3433H14.3433H14.3433H14.3432H14.3432H14.3431H14.3431H14.3431H14.343H14.343H14.343H14.3429H14.3429H14.3429H14.3428H14.3428H14.3428H14.3427H14.3427H14.3426H14.3426H14.3426H14.3425H14.3425H14.3425H14.3424H14.3424H14.3424H14.3423H14.3423H14.3423H14.3422H14.3422H14.3421H14.3421H14.3421H14.342H14.342H14.342H14.3419H14.3419H14.3419H14.3418H14.3418H14.3417H14.3417H14.3417H14.3416H14.3416H14.3416H14.3415H14.3415H14.3415H14.3414H14.3414H14.3414H14.3413H14.3413H14.3412H14.3412H14.3412H14.3411H14.3411H14.3411H14.341H14.341H14.341H14.3409H14.3409H14.3408H14.3408H14.3408H14.3407H14.3407H14.3407H14.3406H14.3406H14.3405H14.3405H14.3405H14.3404H14.3404H14.3404H14.3403H14.3403H14.3403H14.3402H14.3402H14.3401H14.3401H14.3401H14.34H14.34H14.34H14.3399H14.3399H14.3398H14.3398H14.3398H14.3397H14.3397H14.3397H14.3396H14.3396H14.3395H14.3395H14.3395H14.3394H14.3394H14.3394H14.3393H14.3393H14.3392H14.3392H14.3392H14.3391H14.3391H14.3391H14.339H14.339H14.3389H14.3389H14.3389H14.3388H14.3388H14.3388H14.3387H14.3387H14.3386H14.3386H14.3386H14.3385H14.3385H14.3385H14.3384H14.3384H14.3383H14.3383H14.3383H14.3382H14.3382H14.3382H14.3381H14.3381H14.338H14.338H14.338H14.3379H14.3379H14.3378H14.3378H14.3378H14.3377H14.3377H14.3377H14.3376H14.3376H14.3375H14.3375C7.21521 27.5643 1.41466 21.7733 1.40467 14.6478C1.39985 11.1925 2.74044 7.94283 5.17989 5.49624Z" fill="#111111" stroke="black" stroke-width="0.2"/>
<path d="M13.7072 28.1146C13.6538 28.1146 13.6003 28.0964 13.5565 28.0591C13.4587 27.9759 13.4468 27.829 13.53 27.7312C15.0553 25.9379 15.7232 23.3259 15.5153 19.9679C15.2603 16.72 15.5254 14.025 16.3031 11.9572C17.0014 10.1006 18.1178 8.79153 19.5315 8.17143C21.8893 7.13731 24.8345 8.09033 27.218 10.6584C27.3054 10.7526 27.2999 10.8998 27.2058 10.9873C27.1117 11.0746 26.9645 11.0692 26.877 10.975C24.6322 8.55638 21.8892 7.64543 19.7184 8.59755C16.8742 9.84507 15.5113 13.9769 15.9793 19.9335C15.9794 19.9348 15.9795 19.936 15.9796 19.9373C16.0866 21.663 15.9684 23.2142 15.6283 24.548C15.2817 25.9073 14.6949 27.0797 13.8845 28.0326C13.8385 28.0867 13.773 28.1146 13.7072 28.1146Z" fill="#111111"/>
<path d="M5.80309 25.0199C5.79404 25.0199 5.78493 25.0194 5.77569 25.0183C5.64808 25.0033 5.55677 24.8877 5.57174 24.7601C6.18947 19.4906 8.12006 14.4805 11.0078 10.6525C12.4855 8.69365 14.1651 7.10386 16 5.92729C17.9356 4.68607 20.0034 3.93336 22.1458 3.69014C22.2736 3.67604 22.3887 3.76739 22.4032 3.8951C22.4176 4.02276 22.3259 4.13802 22.1982 4.15253C14.1281 5.06872 7.32997 13.7583 6.03381 24.8143C6.01998 24.9327 5.91947 25.0199 5.80309 25.0199Z" fill="#111111"/>
<path d="M1.30072 12.399C1.29126 12.399 1.28168 12.3984 1.27203 12.3972C1.1445 12.3815 1.05383 12.2654 1.06951 12.1379C1.20953 10.9997 1.91592 10.0906 3.22897 9.35866C4.36265 8.72672 5.84444 8.27922 7.27744 7.84643C9.74885 7.10002 12.3044 6.3282 13.2085 4.6098C13.6579 3.75575 13.6801 2.72525 13.2764 1.45933C13.2374 1.33691 13.305 1.206 13.4274 1.16698C13.5498 1.12796 13.6807 1.19556 13.7197 1.31795C14.1632 2.70878 14.1306 3.85642 13.6202 4.82652C12.6253 6.71733 9.97501 7.51781 7.41187 8.29189C4.52747 9.16302 1.80298 9.98589 1.53125 12.1947C1.51685 12.3126 1.41653 12.399 1.30072 12.399Z" fill="#111111"/>
<g opacity="0.3">
<g opacity="0.3">
<g opacity="0.3">
<path opacity="0.3" d="M26.9459 18.7648C26.6844 19.5622 26.3499 20.3265 25.9488 21.0497C23.5835 24.6606 19.5044 27.0475 14.8649 27.054C7.53808 27.0643 1.5908 21.1323 1.58058 13.8053C1.5773 11.47 2.17773 9.27546 3.23389 7.36809C3.64447 6.74064 4.10692 6.15036 4.61461 5.60321C4.18507 6.91072 3.95439 8.30705 3.95643 9.75825C3.96668 17.0859 9.91397 23.0172 17.2408 23.007C21.0753 23.0015 24.5274 21.3694 26.9459 18.7648Z" fill="#111111"/>
</g>
</g>
</g>
<g opacity="0.2">
<g opacity="0.2">
<g opacity="0.2">
<path opacity="0.2" d="M11.3915 15.426C11.621 15.426 11.807 15.2399 11.807 15.0105C11.807 14.781 11.621 14.595 11.3915 14.595C11.1621 14.595 10.9761 14.781 10.9761 15.0105C10.9761 15.2399 11.1621 15.426 11.3915 15.426Z" fill="#111111"/>
</g>
</g>
</g>
<g opacity="0.2">
<g opacity="0.2">
<g opacity="0.2">
<path opacity="0.2" d="M19.4145 14.307C19.644 14.307 19.83 14.121 19.83 13.8916C19.83 13.6621 19.644 13.4761 19.4145 13.4761C19.1851 13.4761 18.9991 13.6621 18.9991 13.8916C18.9991 14.121 19.1851 14.307 19.4145 14.307Z" fill="#111111"/>
</g>
</g>
</g>
<g opacity="0.2">
<g opacity="0.2">
<g opacity="0.2">
<path opacity="0.2" d="M20.719 6.28463C20.9484 6.28463 21.1344 6.09861 21.1344 5.86915C21.1344 5.63968 20.9484 5.45366 20.719 5.45366C20.4895 5.45366 20.3035 5.63968 20.3035 5.86915C20.3035 6.09861 20.4895 6.28463 20.719 6.28463Z" fill="#111111"/>
</g>
</g>
</g>
<g opacity="0.2">
<g opacity="0.2">
<g opacity="0.2">
<path opacity="0.2" d="M16.5026 10.275C16.732 10.275 16.918 10.089 16.918 9.85959C16.918 9.63014 16.732 9.44414 16.5026 9.44414C16.2731 9.44414 16.0872 9.63014 16.0872 9.85959C16.0872 10.089 16.2731 10.275 16.5026 10.275Z" fill="#111111"/>
</g>
</g>
</g>
<g opacity="0.2">
<g opacity="0.2">
<g opacity="0.2">
<path opacity="0.2" d="M25.5043 18.7628C25.7337 18.7628 25.9197 18.5768 25.9197 18.3474C25.9197 18.1179 25.7337 17.9319 25.5043 17.9319C25.2748 17.9319 25.0889 18.1179 25.0889 18.3474C25.0889 18.5768 25.2748 18.7628 25.5043 18.7628Z" fill="#111111"/>
</g>
</g>
</g>
<g opacity="0.2">
<g opacity="0.2">
<g opacity="0.2">
<path opacity="0.2" d="M10.74 8.98421C10.9694 8.98421 11.1554 8.7982 11.1554 8.56876C11.1554 8.33931 10.9694 8.15331 10.74 8.15331C10.5106 8.15331 10.3246 8.33931 10.3246 8.56876C10.3246 8.7982 10.5106 8.98421 10.74 8.98421Z" fill="#111111"/>
</g>
</g>
</g>
<g opacity="0.2">
<g opacity="0.2">
<g opacity="0.2">
<path opacity="0.2" d="M6.03355 11.6166C6.26299 11.6166 6.44899 11.4306 6.44899 11.2011C6.44899 10.9717 6.26299 10.7857 6.03355 10.7857C5.8041 10.7857 5.6181 10.9717 5.6181 11.2011C5.6181 11.4306 5.8041 11.6166 6.03355 11.6166Z" fill="#111111"/>
</g>
</g>
</g>
<g opacity="0.2">
<g opacity="0.2">
<g opacity="0.2">
<path opacity="0.2" d="M11.0487 4.07014C11.2782 4.07014 11.4642 3.88412 11.4642 3.65466C11.4642 3.42519 11.2782 3.23917 11.0487 3.23917C10.8193 3.23917 10.6333 3.42519 10.6333 3.65466C10.6333 3.88412 10.8193 4.07014 11.0487 4.07014Z" fill="#111111"/>
</g>
</g>
</g>
<g opacity="0.2">
<g opacity="0.2">
<g opacity="0.2">
<path opacity="0.2" d="M12.9278 20.9968C13.1573 20.9968 13.3433 20.8107 13.3433 20.5813C13.3433 20.3518 13.1573 20.1658 12.9278 20.1658C12.6984 20.1658 12.5124 20.3518 12.5124 20.5813C12.5124 20.8107 12.6984 20.9968 12.9278 20.9968Z" fill="#111111"/>
</g>
</g>
</g>
<g opacity="0.2">
<g opacity="0.2">
<g opacity="0.2">
<path opacity="0.2" d="M13.9935 18.8962C14.1406 18.8962 14.2599 18.7769 14.2599 18.6298C14.2599 18.4827 14.1406 18.3634 13.9935 18.3634C13.8464 18.3634 13.7272 18.4827 13.7272 18.6298C13.7272 18.7769 13.8464 18.8962 13.9935 18.8962Z" fill="#111111"/>
</g>
</g>
</g>
<g opacity="0.2">
<g opacity="0.2">
<g opacity="0.2">
<path opacity="0.2" d="M23.7287 12.9905C23.8758 12.9905 23.995 12.8713 23.995 12.7242C23.995 12.5771 23.8758 12.4578 23.7287 12.4578C23.5816 12.4578 23.4623 12.5771 23.4623 12.7242C23.4623 12.8713 23.5816 12.9905 23.7287 12.9905Z" fill="#111111"/>
</g>
</g>
</g>
<g opacity="0.2">
<g opacity="0.2">
<g opacity="0.2">
<path opacity="0.2" d="M16.7776 4.19522C16.9247 4.19522 17.0439 4.07598 17.0439 3.92889C17.0439 3.78179 16.9247 3.66255 16.7776 3.66255C16.6305 3.66255 16.5113 3.78179 16.5113 3.92889C16.5113 4.07598 16.6305 4.19522 16.7776 4.19522Z" fill="#111111"/>
</g>
</g>
</g>
<g opacity="0.2">
<g opacity="0.2">
<g opacity="0.2">
<path opacity="0.2" d="M13.1038 11.7951C13.2078 11.7951 13.2922 11.7107 13.2922 11.6067C13.2922 11.5027 13.2078 11.4184 13.1038 11.4184C12.9998 11.4184 12.9155 11.5027 12.9155 11.6067C12.9155 11.7107 12.9998 11.7951 13.1038 11.7951Z" fill="#111111"/>
</g>
</g>
</g>
<g opacity="0.2">
<g opacity="0.2">
<g opacity="0.2">
<path opacity="0.2" d="M18.9957 11.7869C19.0997 11.7869 19.1841 11.7025 19.1841 11.5985C19.1841 11.4945 19.0997 11.4101 18.9957 11.4101C18.8917 11.4101 18.8074 11.4945 18.8074 11.5985C18.8074 11.7025 18.8917 11.7869 18.9957 11.7869Z" fill="#111111"/>
</g>
</g>
</g>
<g opacity="0.2">
<g opacity="0.2">
<g opacity="0.2">
<path opacity="0.2" d="M10.046 6.07245C10.15 6.07245 10.2344 5.98812 10.2344 5.88409C10.2344 5.78006 10.15 5.69572 10.046 5.69572C9.94199 5.69572 9.85767 5.78006 9.85767 5.88409C9.85767 5.98812 9.94199 6.07245 10.046 6.07245Z" fill="#111111"/>
</g>
</g>
</g>
<g opacity="0.2">
<g opacity="0.2">
<g opacity="0.2">
<path opacity="0.2" d="M5.61266 7.48464C5.71668 7.48464 5.80101 7.40031 5.80101 7.29628C5.80101 7.19224 5.71668 7.10791 5.61266 7.10791C5.50864 7.10791 5.42432 7.19224 5.42432 7.29628C5.42432 7.40031 5.50864 7.48464 5.61266 7.48464Z" fill="#111111"/>
</g>
</g>
</g>
<g opacity="0.2">
<g opacity="0.2">
<g opacity="0.2">
<path opacity="0.2" d="M9.10234 10.2467C9.20636 10.2467 9.29068 10.1624 9.29068 10.0583C9.29068 9.9543 9.20636 9.86996 9.10234 9.86996C8.99832 9.86996 8.914 9.9543 8.914 10.0583C8.914 10.1624 8.99832 10.2467 9.10234 10.2467Z" fill="#111111"/>
</g>
</g>
</g>
<g opacity="0.2">
<g opacity="0.2">
<g opacity="0.2">
<path opacity="0.2" d="M10.3666 18.8233C10.4706 18.8233 10.5549 18.7389 10.5549 18.6349C10.5549 18.5309 10.4706 18.4465 10.3666 18.4465C10.2625 18.4465 10.1782 18.5309 10.1782 18.6349C10.1782 18.7389 10.2625 18.8233 10.3666 18.8233Z" fill="#111111"/>
</g>
</g>
</g>
<g opacity="0.2">
<g opacity="0.2">
<g opacity="0.2">
<path opacity="0.2" d="M14.2551 15.5551C14.3286 15.5551 14.3883 15.4955 14.3883 15.4219C14.3883 15.3484 14.3286 15.2888 14.2551 15.2888C14.1816 15.2888 14.1219 15.3484 14.1219 15.4219C14.1219 15.4955 14.1816 15.5551 14.2551 15.5551Z" fill="#111111"/>
</g>
</g>
</g>
<g opacity="0.2">
<g opacity="0.2">
<g opacity="0.2">
<path opacity="0.2" d="M17.9499 15.9876C18.0235 15.9876 18.0831 15.928 18.0831 15.8545C18.0831 15.7809 18.0235 15.7213 17.9499 15.7213C17.8764 15.7213 17.8168 15.7809 17.8168 15.8545C17.8168 15.928 17.8764 15.9876 17.9499 15.9876Z" fill="#111111"/>
</g>
</g>
</g>
<g opacity="0.2">
<g opacity="0.2">
<g opacity="0.2">
<path opacity="0.2" d="M22.6405 10.3996C22.714 10.3996 22.7736 10.34 22.7736 10.2665C22.7736 10.1929 22.714 10.1333 22.6405 10.1333C22.5669 10.1333 22.5073 10.1929 22.5073 10.2665C22.5073 10.34 22.5669 10.3996 22.6405 10.3996Z" fill="#111111"/>
</g>
</g>
</g>
<g opacity="0.2">
<g opacity="0.2">
<g opacity="0.2">
<path opacity="0.2" d="M22.7688 6.88903C22.8423 6.88903 22.9019 6.82941 22.9019 6.75586C22.9019 6.68232 22.8423 6.6227 22.7688 6.6227C22.6952 6.6227 22.6356 6.68232 22.6356 6.75586C22.6356 6.82941 22.6952 6.88903 22.7688 6.88903Z" fill="#111111"/>
</g>
</g>
</g>
<g opacity="0.2">
<g opacity="0.2">
<g opacity="0.2">
<path opacity="0.2" d="M19.177 6.60825C19.2506 6.60825 19.3102 6.54863 19.3102 6.47509C19.3102 6.40154 19.2506 6.34192 19.177 6.34192C19.1035 6.34192 19.0439 6.40154 19.0439 6.47509C19.0439 6.54863 19.1035 6.60825 19.177 6.60825Z" fill="#111111"/>
</g>
</g>
</g>
<g opacity="0.2">
<g opacity="0.2">
<g opacity="0.2">
<path opacity="0.2" d="M15.4978 4.59705C15.5713 4.59705 15.6309 4.53741 15.6309 4.46385C15.6309 4.39028 15.5713 4.33064 15.4978 4.33064C15.4242 4.33064 15.3646 4.39028 15.3646 4.46385C15.3646 4.53741 15.4242 4.59705 15.4978 4.59705Z" fill="#111111"/>
</g>
</g>
</g>
<g opacity="0.2">
<g opacity="0.2">
<g opacity="0.2">
<path opacity="0.2" d="M18.875 20.5729C18.9486 20.5729 19.0082 20.5133 19.0082 20.4398C19.0082 20.3662 18.9486 20.3066 18.875 20.3066C18.8015 20.3066 18.7419 20.3662 18.7419 20.4398C18.7419 20.5133 18.8015 20.5729 18.875 20.5729Z" fill="#111111"/>
</g>
</g>
</g>
<g opacity="0.2">
<g opacity="0.2">
<g opacity="0.2">
<path opacity="0.2" d="M12.3951 4.06821C12.4686 4.06821 12.5283 4.00859 12.5283 3.93505C12.5283 3.8615 12.4686 3.80188 12.3951 3.80188C12.3216 3.80188 12.262 3.8615 12.262 3.93505C12.262 4.00859 12.3216 4.06821 12.3951 4.06821Z" fill="#111111"/>
</g>
</g>
</g>
<g opacity="0.2">
<g opacity="0.2">
<g opacity="0.2">
<path opacity="0.2" d="M6.99179 13.9089C7.06533 13.9089 7.12494 13.8493 7.12494 13.7758C7.12494 13.7022 7.06533 13.6426 6.99179 13.6426C6.91826 13.6426 6.85864 13.7022 6.85864 13.7758C6.85864 13.8493 6.91826 13.9089 6.99179 13.9089Z" fill="#111111"/>
</g>
</g>
</g>
<path d="M23.7156 24.2457C23.7018 24.2457 23.6878 24.2444 23.6737 24.2419C23.5473 24.2188 23.4635 24.0977 23.4865 23.9713C23.6783 22.9176 23.7748 21.8334 23.7733 20.7489C23.7673 16.4535 22.2562 12.4185 19.5184 9.38709C16.7912 6.36745 13.1717 4.70512 9.32526 4.70512C9.31892 4.70512 9.3129 4.70512 9.30656 4.70512C7.87092 4.70712 6.45435 4.94246 5.09625 5.40466C5.07213 5.41292 5.04679 5.41707 5.02131 5.41707C4.89283 5.41707 4.78833 5.31289 4.78833 5.1844C4.78833 5.07823 4.85924 4.98865 4.95639 4.96071C6.35958 4.48437 7.82289 4.24182 9.30588 4.23975C11.3221 4.23662 13.2776 4.6725 15.1195 5.53436C16.8966 6.36594 18.4927 7.55725 19.8636 9.07517C21.233 10.5913 22.3087 12.3572 23.0609 14.3237C23.8392 16.3583 24.2354 18.5198 24.2385 20.7482C24.2401 21.8608 24.1411 22.9732 23.9442 24.0546C23.9238 24.1669 23.8259 24.2457 23.7156 24.2457Z" fill="#111111"/>
</svg>
