<svg width="27" height="32" viewBox="0 0 27 32" fill="none" xmlns="http://www.w3.org/2000/svg">
<path d="M14.3573 27.1143C13.1717 28.0123 11.8516 28.6162 10.397 28.9261C6.11007 28.2271 3.7446 22.4913 4.05491 16.858C4.06341 16.6994 4.06664 16.5372 4.06485 16.3722C4.06022 15.8303 4.00184 15.2563 3.89364 14.6572C3.79767 14.1203 3.66134 13.5628 3.48779 12.9883C3.37673 12.6183 3.24977 12.2408 3.10796 11.8582C2.49409 10.1953 1.60486 8.42037 0.500692 6.617C-0.818789 3.73203 2.63323 2.15278 3.95275 5.03772C4.59493 7.05249 5.35615 8.88597 6.21259 10.4379C6.40927 10.7953 6.61181 11.1383 6.81913 11.4643C7.14016 11.9712 7.47275 12.4389 7.81616 12.8627C8.19862 13.3363 8.59464 13.7559 9.00154 14.1137C9.12521 14.223 9.24998 14.3265 9.37557 14.4239C13.8398 17.8729 16.6319 23.4135 14.3573 27.1143Z" fill="white"/>
<path d="M10.3972 29.1271C10.3864 29.1271 10.3756 29.1263 10.3649 29.1245C9.29234 28.9497 8.30189 28.4665 7.42098 27.6884C6.60122 26.9644 5.89488 26.003 5.32157 24.8308C4.77335 23.7098 4.36723 22.4405 4.11453 21.058C3.86358 19.6853 3.77607 18.2685 3.85439 16.847C3.86253 16.6951 3.86575 16.536 3.86399 16.3744C3.85953 15.8512 3.80301 15.2856 3.69599 14.6929C3.60272 14.1712 3.46801 13.6174 3.29554 13.0466C3.18647 12.6831 3.06004 12.3069 2.91966 11.9281C2.31771 10.2977 1.44627 8.54615 0.329492 6.72202C0.325256 6.71514 0.321442 6.70801 0.318086 6.70071C-0.121785 5.73896 -0.0961086 4.79652 0.388492 4.11504C0.790604 3.54951 1.44305 3.25097 2.1338 3.31655C2.96624 3.39556 3.69596 3.99243 4.13583 4.95419C4.13918 4.96155 4.14208 4.96904 4.14459 4.97673C4.7941 7.01454 5.5492 8.81925 6.38891 10.3408C6.58366 10.6948 6.78554 11.0365 6.98906 11.3564C7.30839 11.8607 7.63925 12.3248 7.97262 12.7362C8.35115 13.205 8.742 13.6175 9.1346 13.9628C9.25608 14.0701 9.37853 14.1717 9.49901 14.265C10.6253 15.1352 11.6399 16.1279 12.5142 17.2155C13.3947 18.3107 14.0893 19.448 14.5788 20.5958C15.0906 21.7962 15.356 22.9593 15.3677 24.053C15.3802 25.2283 15.098 26.2937 14.5289 27.2196C14.5159 27.2409 14.4989 27.2595 14.479 27.2746C13.2752 28.1864 11.916 28.8082 10.4392 29.1228C10.4253 29.1257 10.4113 29.1271 10.3972 29.1271ZM0.678864 6.52249C1.8063 8.36523 2.68708 10.1369 3.29684 11.7885C3.44009 12.175 3.56923 12.5593 3.68061 12.9306C3.85751 13.516 3.99588 14.0851 4.09182 14.6218C4.20284 15.2365 4.26151 15.825 4.26617 16.3705C4.26799 16.5402 4.26457 16.708 4.25597 16.8688C4.10279 19.6493 4.6229 22.4868 5.68287 24.6541C6.47888 26.2816 7.94099 28.3039 10.3925 28.7214C11.7845 28.4194 13.0671 27.8327 14.2059 26.9768C15.4932 24.8489 14.9195 22.4201 14.2089 20.7535C13.2626 18.5343 11.4562 16.2852 9.25295 14.5831C9.12547 14.4842 8.9963 14.3771 8.86872 14.2645C8.45941 13.9044 8.05264 13.4752 7.66004 12.989C7.31709 12.5658 6.97704 12.089 6.64956 11.5719C6.44171 11.245 6.23546 10.896 6.03673 10.5348C5.18612 8.9935 4.42186 7.16852 3.76522 5.11055C3.38633 4.28942 2.77842 3.78163 2.09588 3.71689C1.5498 3.66515 1.03413 3.90104 0.71623 4.34806C0.318874 4.90681 0.30542 5.69885 0.678864 6.52249ZM14.3576 27.1143H14.3579H14.3576Z" fill="#111111"/>
<path d="M6.81939 11.4643C5.83048 12.2042 4.69441 12.7239 3.48804 12.9884C3.37698 12.6183 3.25003 12.2408 3.10822 11.8582C4.23865 11.6307 5.30158 11.1445 6.21286 10.4379C6.40953 10.7953 6.61207 11.1383 6.81939 11.4643Z" fill="#FF5722"/>
<g opacity="0.55">
<g opacity="0.55">
<g opacity="0.55">
<g opacity="0.55">
<path opacity="0.55" d="M6.32842 11.737C6.09138 11.9144 5.84568 12.0787 5.59277 12.2303C6.02105 12.01 6.43159 11.7544 6.81927 11.4643C6.61195 11.1383 6.40938 10.7954 6.21274 10.4379C6.06359 10.5536 5.90998 10.6626 5.75309 10.7664C5.93996 11.1035 6.13194 11.4281 6.32842 11.737Z" fill="white"/>
</g>
</g>
</g>
<g opacity="0.55">
<g opacity="0.55">
<g opacity="0.55">
<path opacity="0.55" d="M5.02215 11.1919C4.41913 11.4987 3.77561 11.7239 3.10822 11.8582C3.12577 11.9056 3.14239 11.9526 3.15949 11.9998C3.81461 11.8162 4.44141 11.5446 5.02215 11.1919Z" fill="white"/>
</g>
</g>
</g>
</g>
<path d="M9.00164 14.1137C7.59948 15.3117 5.88808 16.0946 4.06494 16.3722C4.06031 15.8303 4.00193 15.2563 3.89374 14.6572C5.33812 14.4217 6.69361 13.8016 7.81629 12.8627C8.19875 13.3364 8.59477 13.7559 9.00164 14.1137Z" fill="#FF5722"/>
<g opacity="0.55">
<g opacity="0.55">
<g opacity="0.55">
<g opacity="0.55">
<path opacity="0.55" d="M8.5653 14.441C8.48115 14.5129 8.39577 14.5831 8.30947 14.652C8.54719 14.4829 8.77872 14.3042 9.00162 14.1137C8.59475 13.7559 8.19873 13.3364 7.81626 12.8627C7.67657 12.9795 7.53326 13.0914 7.38666 13.1982C7.76707 13.6684 8.16081 14.0853 8.5653 14.441Z" fill="white"/>
</g>
</g>
</g>
<g opacity="0.55">
<g opacity="0.55">
<g opacity="0.55">
<path opacity="0.55" d="M7.25608 13.2899C6.2543 13.9903 5.10553 14.4596 3.89355 14.6572C3.90776 14.7357 3.92096 14.8138 3.9334 14.8914C5.14717 14.6185 6.28418 14.0711 7.25608 13.2899Z" fill="white"/>
</g>
</g>
</g>
</g>
<path d="M3.48783 13.156C3.41531 13.156 3.34911 13.1087 3.32745 13.0366C3.21831 12.6728 3.09164 12.2959 2.951 11.9165C2.93396 11.8705 2.93791 11.8194 2.96176 11.7766C2.9856 11.7338 3.02701 11.7037 3.07506 11.694C4.17438 11.4728 5.22388 10.9927 6.1101 10.3055C6.14884 10.2755 6.19879 10.264 6.24674 10.2739C6.2947 10.2838 6.33597 10.3142 6.35956 10.3572C6.55454 10.7116 6.75679 11.0538 6.96066 11.3745C7.0077 11.4484 6.98982 11.5461 6.91967 11.5986C5.9046 12.358 4.76209 12.8807 3.52382 13.1521C3.51174 13.1547 3.49968 13.156 3.48783 13.156ZM3.33155 11.9816C3.42974 12.2545 3.52054 12.5253 3.60267 12.7903C4.68592 12.5326 5.69105 12.0727 6.59438 11.4216C6.44761 11.1861 6.30212 10.9404 6.15998 10.6877C5.31924 11.3053 4.34854 11.7494 3.33155 11.9816Z" fill="#111111"/>
<path d="M4.06485 16.5398C4.0253 16.5398 3.98669 16.5257 3.95617 16.4997C3.91919 16.4682 3.89769 16.4222 3.8973 16.3736C3.89283 15.849 3.83612 15.2815 3.72874 14.687C3.72076 14.6427 3.73085 14.5972 3.75682 14.5605C3.78272 14.5238 3.8223 14.499 3.86667 14.4918C5.28089 14.2612 6.60942 13.6535 7.70868 12.7342C7.74314 12.7053 7.78765 12.6915 7.83248 12.6959C7.87721 12.7003 7.91829 12.7225 7.9465 12.7574C8.32597 13.2274 8.71818 13.6414 9.11215 13.9879C9.14863 14.02 9.16942 14.0664 9.16906 14.1149C9.1687 14.1635 9.1473 14.2096 9.11032 14.2411C7.68249 15.461 5.94649 16.2552 4.09003 16.5378C4.08162 16.5391 4.07319 16.5398 4.06485 16.5398ZM4.08732 14.7936C4.1674 15.2747 4.21471 15.7381 4.22845 16.1759C5.88909 15.8897 7.44353 15.1785 8.746 14.1091C8.4238 13.8125 8.10415 13.4736 7.79267 13.0985C6.71752 13.9611 5.44287 14.5442 4.08732 14.7936Z" fill="#111111"/>
<path d="M4.06485 16.5398C4.0253 16.5398 3.98669 16.5257 3.95617 16.4997C3.91919 16.4682 3.89769 16.4222 3.8973 16.3736C3.89283 15.849 3.83612 15.2815 3.72874 14.687C3.72076 14.6427 3.73085 14.5972 3.75682 14.5605C3.78272 14.5238 3.8223 14.499 3.86667 14.4918C5.28089 14.2612 6.60942 13.6535 7.70868 12.7342C7.74314 12.7053 7.78765 12.6915 7.83248 12.6959C7.87721 12.7003 7.91829 12.7225 7.9465 12.7574C8.32597 13.2274 8.71818 13.6414 9.11215 13.9879C9.14863 14.02 9.16942 14.0664 9.16906 14.1149C9.1687 14.1635 9.1473 14.2096 9.11032 14.2411C7.68249 15.461 5.94649 16.2552 4.09003 16.5378C4.08162 16.5391 4.07319 16.5398 4.06485 16.5398ZM4.08732 14.7936C4.1674 15.2747 4.21471 15.7381 4.22845 16.1759C5.88909 15.8897 7.44353 15.1785 8.746 14.1091C8.4238 13.8125 8.10415 13.4736 7.79267 13.0985C6.71752 13.9611 5.44287 14.5442 4.08732 14.7936Z" fill="#111111"/>
<g opacity="0.3">
<g opacity="0.3">
<g opacity="0.3">
<path opacity="0.3" d="M12.8103 27.9514C12.1689 28.2398 11.4953 28.4587 10.7906 28.6094C6.50407 27.9105 4.1384 22.1745 4.44871 16.5413C4.45718 16.3825 4.4606 16.2203 4.45891 16.0557C4.45431 15.5138 4.3959 14.9398 4.28761 14.3407C4.19147 13.8038 4.05511 13.2462 3.88146 12.6718C3.7706 12.3018 3.64371 11.9239 3.5018 11.5418C2.88806 9.87864 1.99851 8.104 0.894439 6.30004C0.390357 5.19831 0.582925 4.28677 1.08694 3.74203C1.35395 3.58629 1.66081 3.50428 1.97906 3.50982C2.03826 3.51083 2.09787 3.51457 2.15775 3.52177C2.06839 3.53767 1.98623 3.56182 1.91045 3.59541C1.15011 3.9242 1.05883 5.08268 1.76147 6.34891C3.0015 8.06181 3.90596 9.9412 4.64679 11.5514C4.81763 11.9218 4.97331 12.2886 5.11291 12.649C5.3307 13.2079 5.50953 13.7533 5.64642 14.2812C5.80094 14.8703 5.90313 15.4384 5.94978 15.9781C5.96434 16.1421 5.97373 16.3043 5.97741 16.4631C6.09974 21.9173 8.72368 27.2735 12.8103 27.9514Z" fill="#111111"/>
</g>
</g>
</g>
<g opacity="0.3">
<g opacity="0.3">
<g opacity="0.3">
<path opacity="0.3" d="M9.75688 24.4975C9.91742 24.4975 10.0476 24.3673 10.0476 24.2068C10.0476 24.0462 9.91742 23.916 9.75688 23.916C9.59633 23.916 9.46619 24.0462 9.46619 24.2068C9.46619 24.3673 9.59633 24.4975 9.75688 24.4975Z" fill="#111111"/>
</g>
</g>
</g>
<g opacity="0.3">
<g opacity="0.3">
<g opacity="0.3">
<path opacity="0.3" d="M7.74252 20.0879C7.85357 20.0879 7.9436 19.9979 7.9436 19.8868C7.9436 19.7758 7.85357 19.6858 7.74252 19.6858C7.63147 19.6858 7.54144 19.7758 7.54144 19.8868C7.54144 19.9979 7.63147 20.0879 7.74252 20.0879Z" fill="#111111"/>
</g>
</g>
</g>
<g opacity="0.3">
<g opacity="0.3">
<g opacity="0.3">
<path opacity="0.3" d="M8.02656 17.383C8.09135 17.383 8.14387 17.3305 8.14387 17.2657C8.14387 17.2009 8.09135 17.1484 8.02656 17.1484C7.96177 17.1484 7.90924 17.2009 7.90924 17.2657C7.90924 17.3305 7.96177 17.383 8.02656 17.383Z" fill="#111111"/>
</g>
</g>
</g>
<g opacity="0.3">
<g opacity="0.3">
<g opacity="0.3">
<path opacity="0.3" d="M11.76 25.4629C11.8248 25.4629 11.8773 25.4104 11.8773 25.3456C11.8773 25.2808 11.8248 25.2283 11.76 25.2283C11.6952 25.2283 11.6427 25.2808 11.6427 25.3456C11.6427 25.4104 11.6952 25.4629 11.76 25.4629Z" fill="#111111"/>
</g>
</g>
</g>
<g opacity="0.3">
<g opacity="0.3">
<g opacity="0.3">
<path opacity="0.3" d="M9.30734 20.6964C9.37211 20.6964 9.42463 20.6439 9.42463 20.5791C9.42463 20.5144 9.37211 20.4618 9.30734 20.4618C9.24257 20.4618 9.19006 20.5144 9.19006 20.5791C9.19006 20.6439 9.24257 20.6964 9.30734 20.6964Z" fill="#111111"/>
</g>
</g>
</g>
<g opacity="0.3">
<g opacity="0.3">
<g opacity="0.3">
<path opacity="0.3" d="M10.4651 22.0254C10.562 22.0254 10.6405 21.9468 10.6405 21.8499C10.6405 21.753 10.562 21.6745 10.4651 21.6745C10.3682 21.6745 10.2897 21.753 10.2897 21.8499C10.2897 21.9468 10.3682 22.0254 10.4651 22.0254Z" fill="#111111"/>
</g>
</g>
</g>
<g opacity="0.3">
<g opacity="0.3">
<g opacity="0.3">
<path opacity="0.3" d="M8.48397 22.1634C8.58086 22.1634 8.6594 22.0848 8.6594 21.9879C8.6594 21.891 8.58086 21.8125 8.48397 21.8125C8.38708 21.8125 8.30853 21.891 8.30853 21.9879C8.30853 22.0848 8.38708 22.1634 8.48397 22.1634Z" fill="#111111"/>
</g>
</g>
</g>
<path d="M16.8435 27.0703C15.4158 27.4868 13.9671 27.5806 12.4976 27.3518C8.74109 25.171 8.57451 18.9687 10.8715 13.8158C10.936 13.6706 10.9968 13.5202 11.0539 13.3654C11.2426 12.8574 11.3926 12.3003 11.505 11.7019C11.6066 11.1661 11.6779 10.5966 11.7204 9.99799C11.7485 9.61265 11.7643 9.21466 11.7682 8.8067C11.787 7.03427 11.5886 5.05892 11.1994 2.98039C10.9944 -0.185436 14.7825 -0.430811 14.9875 2.73502C14.8697 4.84639 14.9277 6.83083 15.175 8.58605C15.2314 8.9901 15.2985 9.38275 15.3761 9.76125C15.4954 10.3493 15.6395 10.9049 15.8094 11.4231C15.998 12.002 16.2186 12.5352 16.4712 13.0145C16.5479 13.1607 16.6275 13.3019 16.7102 13.4376C19.6527 18.2511 20.2873 24.4231 16.8435 27.0703Z" fill="white"/>
<path d="M14.048 27.6737C13.5222 27.6737 12.9946 27.6327 12.4669 27.5505C12.4422 27.5466 12.4185 27.5382 12.3969 27.5257C11.4571 26.9801 10.7038 26.1757 10.1579 25.1348C9.64991 24.1661 9.33251 23.0161 9.21448 21.7165C9.10162 20.4737 9.1744 19.143 9.43082 17.7612C9.68542 16.3892 10.1084 15.0342 10.6881 13.7339C10.7499 13.5948 10.8096 13.4473 10.8655 13.2957C11.0478 12.8052 11.1964 12.2566 11.3076 11.6648C11.4063 11.1441 11.4778 10.5786 11.52 9.98369C11.5477 9.6049 11.5636 9.20837 11.5673 8.80478C11.5858 7.06673 11.3956 5.11963 11.002 3.01731C11.0005 3.00939 10.9995 3.00138 10.999 2.99333C10.9307 1.93794 11.2904 1.0665 11.986 0.602437C12.5633 0.217383 13.2792 0.170954 13.9013 0.478365C14.651 0.848822 15.1201 1.6666 15.1884 2.72193C15.189 2.72997 15.189 2.73808 15.1885 2.74613C15.0694 4.88165 15.1319 6.83703 15.3744 8.55788C15.4302 8.95792 15.4971 9.34909 15.5732 9.72072C15.692 10.3058 15.8358 10.8573 16.0007 11.3604C16.1873 11.9333 16.4056 12.4581 16.6493 12.9206C16.7246 13.0641 16.8028 13.2026 16.8821 13.3329C17.6245 14.5473 18.2187 15.8364 18.6482 17.1642C19.0806 18.5013 19.3245 19.8115 19.3728 21.0584C19.4234 22.3624 19.257 23.5438 18.8781 24.5698C18.4711 25.6725 17.8278 26.5673 16.9662 27.2296C16.9464 27.2448 16.9239 27.2562 16.9 27.2632C15.9631 27.5366 15.0087 27.6737 14.048 27.6737ZM12.5663 27.1588C13.9746 27.3728 15.382 27.2816 16.7509 26.8878C18.7119 25.3583 19.0412 22.8845 18.971 21.0741C18.8775 18.6632 17.991 15.918 16.5389 13.5425C16.4549 13.4047 16.3724 13.2585 16.2934 13.1078C16.0392 12.6256 15.812 12.0796 15.6184 11.4854C15.4488 10.9679 15.301 10.4012 15.1792 9.8012C15.1014 9.42159 15.0331 9.02197 14.9762 8.61378C14.7305 6.87055 14.6666 4.89299 14.7864 2.7361C14.7249 1.83387 14.3378 1.14274 13.7232 0.838982C13.2314 0.595953 12.6655 0.632673 12.2092 0.937054C11.6389 1.31755 11.3441 2.05279 11.3996 2.95544C11.7965 5.07891 11.9882 7.04819 11.9694 8.80882C11.9656 9.22063 11.9493 9.62571 11.9212 10.0126C11.8778 10.6227 11.8044 11.2038 11.7028 11.7393C11.5875 12.3533 11.4327 12.924 11.2426 13.4354C11.1839 13.5946 11.1209 13.7501 11.0555 13.8974C9.92178 16.4408 9.39675 19.2773 9.61499 21.6801C9.77882 23.4845 10.4245 25.8951 12.5663 27.1588ZM16.8437 27.0703H16.844H16.8437Z" fill="#111111"/>
<path d="M15.376 9.7612C14.1884 10.1001 12.9418 10.1808 11.7203 9.99797C11.7485 9.61263 11.7643 9.21464 11.7681 8.80668C12.9054 8.99702 14.0718 8.92143 15.175 8.58604C15.2314 8.99005 15.2985 9.3827 15.376 9.7612Z" fill="#FF5722"/>
<g opacity="0.55">
<g opacity="0.55">
<g opacity="0.55">
<g opacity="0.55">
<path opacity="0.55" d="M14.722 9.87031C14.5158 9.92915 14.3078 9.97966 14.0984 10.0229C14.5294 9.96789 14.9566 9.88106 15.3765 9.76126C15.2989 9.38275 15.2318 8.99011 15.1755 8.58606C14.9622 8.6509 14.7465 8.70576 14.5292 8.75112C14.5839 9.13536 14.648 9.50943 14.722 9.87031Z" fill="white"/>
</g>
</g>
</g>
<g opacity="0.55">
<g opacity="0.55">
<g opacity="0.55">
<path opacity="0.55" d="M13.9022 8.85453C13.1945 8.94045 12.4758 8.92507 11.7684 8.80667C11.7678 8.86998 11.7664 8.9326 11.7652 8.99542C12.4805 9.05129 13.2003 9.00386 13.9022 8.85453Z" fill="white"/>
</g>
</g>
</g>
</g>
<path d="M16.4715 13.0145C14.7345 13.6341 12.8565 13.7558 11.0541 13.3654C11.2429 12.8574 11.3928 12.3003 11.5052 11.7019C12.9387 11.9966 14.4261 11.9003 15.8097 11.4231C15.9983 12.002 16.2188 12.5351 16.4715 13.0145Z" fill="#FF5722"/>
<g opacity="0.55">
<g opacity="0.55">
<g opacity="0.55">
<path opacity="0.55" d="M15.7624 13.1781C15.5177 13.2654 15.27 13.3417 15.0203 13.4092C15.5115 13.3145 15.9968 13.1838 16.4714 13.0145C16.2187 12.5351 15.9982 12.002 15.8096 11.4231C15.5805 11.5021 15.3484 11.5696 15.1143 11.6277C15.2999 12.1907 15.5157 12.7102 15.7624 13.1781Z" fill="white"/>
</g>
</g>
</g>
<path d="M13.0085 10.2621C12.5717 10.2621 12.1337 10.2293 11.6954 10.1637C11.6088 10.1507 11.5467 10.0732 11.5531 9.98577C11.5808 9.60662 11.5967 9.20938 11.6005 8.8051C11.6009 8.75613 11.6228 8.70977 11.6603 8.67826C11.6979 8.64679 11.7473 8.63336 11.7956 8.64138C12.9016 8.82648 14.0533 8.75186 15.1261 8.42565C15.173 8.41141 15.2238 8.41839 15.2651 8.44478C15.3064 8.47117 15.3341 8.51431 15.3408 8.56282C15.3967 8.96332 15.4637 9.35515 15.54 9.72753C15.5576 9.81338 15.5061 9.89829 15.4219 9.92234C14.629 10.1486 13.8213 10.2621 13.0085 10.2621ZM11.898 9.85378C13.0021 9.99907 14.105 9.92765 15.181 9.64115C15.1277 9.36877 15.0794 9.0873 15.0366 8.80057C14.031 9.07808 12.9658 9.14708 11.9328 9.00164C11.9274 9.29136 11.9157 9.57677 11.898 9.85378Z" fill="#111111"/>
<path d="M13.1489 13.7574C12.4362 13.7574 11.7224 13.6816 11.0186 13.5291C10.9711 13.5189 10.9304 13.4885 10.907 13.4458C10.8837 13.4032 10.88 13.3525 10.897 13.3069C11.0797 12.8151 11.2289 12.2647 11.3404 11.671C11.3487 11.6268 11.3744 11.5878 11.4117 11.5628C11.449 11.5377 11.4948 11.5287 11.5388 11.5378C12.9424 11.8263 14.4002 11.7319 15.7549 11.2647C15.7974 11.25 15.8439 11.253 15.8842 11.2731C15.9244 11.2931 15.9549 11.3284 15.9688 11.3712C16.1559 11.9455 16.3749 12.4721 16.6196 12.9363C16.6422 12.9793 16.6451 13.03 16.6275 13.0753C16.6099 13.1206 16.5734 13.156 16.5277 13.1723C15.4372 13.5613 14.2947 13.7574 13.1489 13.7574ZM11.2769 13.2403C12.9305 13.5646 14.6363 13.4541 16.2342 12.9192C16.0389 12.5271 15.8609 12.0966 15.7036 11.6351C14.3917 12.0579 12.993 12.1485 11.6375 11.8985C11.541 12.3764 11.42 12.8263 11.2769 13.2403Z" fill="#111111"/>
<path d="M13.1489 13.7574C12.4362 13.7574 11.7224 13.6816 11.0186 13.5291C10.9711 13.5189 10.9304 13.4885 10.907 13.4458C10.8837 13.4032 10.88 13.3525 10.897 13.3069C11.0797 12.8151 11.2289 12.2647 11.3404 11.671C11.3487 11.6268 11.3744 11.5878 11.4117 11.5628C11.449 11.5377 11.4948 11.5287 11.5388 11.5378C12.9424 11.8263 14.4002 11.7319 15.7549 11.2647C15.7974 11.25 15.8439 11.253 15.8842 11.2731C15.9244 11.2931 15.9549 11.3284 15.9688 11.3712C16.1559 11.9455 16.3749 12.4721 16.6196 12.9363C16.6422 12.9793 16.6451 13.03 16.6275 13.0753C16.6099 13.1206 16.5734 13.156 16.5277 13.1723C15.4372 13.5613 14.2947 13.7574 13.1489 13.7574ZM11.2769 13.2403C12.9305 13.5646 14.6363 13.4541 16.2342 12.9192C16.0389 12.5271 15.8609 12.0966 15.7036 11.6351C14.3917 12.0579 12.993 12.1485 11.6375 11.8985C11.541 12.3764 11.42 12.8263 11.2769 13.2403Z" fill="#111111"/>
<g opacity="0.3">
<g opacity="0.3">
<g opacity="0.3">
<path opacity="0.3" d="M15.0995 27.301C14.3975 27.3419 13.6901 27.3064 12.978 27.1961C9.22188 25.0154 9.05514 18.8129 11.3521 13.6601C11.4166 13.5147 11.4776 13.3644 11.5347 13.21C11.7234 12.702 11.8734 12.1448 11.9856 11.5466C12.0871 11.0106 12.1583 10.441 12.2007 9.84244C12.229 9.45719 12.245 9.05891 12.2486 8.65124C12.2677 6.87856 12.0688 4.90344 11.68 2.82441C11.6015 1.61533 12.1062 0.832223 12.7712 0.502917C13.0762 0.452513 13.3921 0.485258 13.6875 0.603857C13.7425 0.625947 13.7968 0.650709 13.8502 0.678729C13.7611 0.661754 13.6757 0.655009 13.5929 0.659407C12.7653 0.695639 12.2673 1.74556 12.4727 3.17907C13.021 5.22144 13.1965 7.29977 13.315 9.06826C13.3426 9.47527 13.3574 9.87352 13.3594 10.2599C13.3638 10.8598 13.3366 11.4331 13.2764 11.9751C13.2108 12.5807 13.104 13.1478 12.9553 13.6687C12.9104 13.8272 12.8614 13.982 12.8082 14.1318C10.9794 19.2716 11.5227 25.2112 15.0995 27.301Z" fill="#111111"/>
</g>
</g>
</g>
<g opacity="0.3">
<g opacity="0.3">
<g opacity="0.3">
<path opacity="0.3" d="M13.581 23.0049C13.7415 23.0049 13.8717 22.8747 13.8717 22.7141C13.8717 22.5536 13.7415 22.4234 13.581 22.4234C13.4204 22.4234 13.2903 22.5536 13.2903 22.7141C13.2903 22.8747 13.4204 23.0049 13.581 23.0049Z" fill="#111111"/>
</g>
</g>
</g>
<g opacity="0.3">
<g opacity="0.3">
<g opacity="0.3">
<path opacity="0.3" d="M13.2375 18.1608C13.3485 18.1608 13.4385 18.0708 13.4385 17.9597C13.4385 17.8487 13.3485 17.7586 13.2375 17.7586C13.1264 17.7586 13.0364 17.8487 13.0364 17.9597C13.0364 18.0708 13.1264 18.1608 13.2375 18.1608Z" fill="#111111"/>
</g>
</g>
</g>
<g opacity="0.3">
<g opacity="0.3">
<g opacity="0.3">
<path opacity="0.3" d="M14.4372 15.7293C14.502 15.7293 14.5545 15.6768 14.5545 15.612C14.5545 15.5472 14.502 15.4947 14.4372 15.4947C14.3725 15.4947 14.3199 15.5472 14.3199 15.612C14.3199 15.6768 14.3725 15.7293 14.4372 15.7293Z" fill="#111111"/>
</g>
</g>
</g>
<g opacity="0.3">
<g opacity="0.3">
<g opacity="0.3">
<path opacity="0.3" d="M15.047 24.6093C15.1118 24.6093 15.1643 24.5567 15.1643 24.4919C15.1643 24.4271 15.1118 24.3746 15.047 24.3746C14.9822 24.3746 14.9297 24.4271 14.9297 24.4919C14.9297 24.5567 14.9822 24.6093 15.047 24.6093Z" fill="#111111"/>
</g>
</g>
</g>
<g opacity="0.3">
<g opacity="0.3">
<g opacity="0.3">
<path opacity="0.3" d="M14.4535 19.2818C14.5183 19.2818 14.5708 19.2292 14.5708 19.1644C14.5708 19.0996 14.5183 19.0471 14.4535 19.0471C14.3887 19.0471 14.3362 19.0996 14.3362 19.1644C14.3362 19.2292 14.3887 19.2818 14.4535 19.2818Z" fill="#111111"/>
</g>
</g>
</g>
<g opacity="0.3">
<g opacity="0.3">
<g opacity="0.3">
<path opacity="0.3" d="M15.0824 20.9398C15.1793 20.9398 15.2578 20.8612 15.2578 20.7643C15.2578 20.6674 15.1793 20.5888 15.0824 20.5888C14.9855 20.5888 14.9069 20.6674 14.9069 20.7643C14.9069 20.8612 14.9855 20.9398 15.0824 20.9398Z" fill="#111111"/>
</g>
</g>
</g>
<g opacity="0.3">
<g opacity="0.3">
<g opacity="0.3">
<path opacity="0.3" d="M13.182 20.3627C13.2789 20.3627 13.3574 20.2842 13.3574 20.1873C13.3574 20.0904 13.2789 20.0118 13.182 20.0118C13.0851 20.0118 13.0065 20.0904 13.0065 20.1873C13.0065 20.2842 13.0851 20.3627 13.182 20.3627Z" fill="#111111"/>
</g>
</g>
</g>
<path d="M18.2926 31.0757C22.8083 31.0757 26.4691 27.4145 26.4691 22.8982C26.4691 18.382 22.8083 14.7208 18.2926 14.7208C13.7768 14.7208 10.1161 18.382 10.1161 22.8982C10.1161 27.4145 13.7768 31.0757 18.2926 31.0757Z" fill="#4C5A69"/>
<g opacity="0.55">
<g opacity="0.55">
<g opacity="0.55">
<path opacity="0.55" d="M25.1869 27.2968C25.7284 26.2035 26.0334 24.9722 26.0334 23.6692C26.0334 21.1657 24.9081 18.9242 23.136 17.4255C22.1321 18.3103 19.9854 17.1849 20.224 15.8403C19.4747 15.613 18.6798 15.4917 17.8568 15.4917C14.9602 15.4917 12.4147 16.9986 10.9624 19.2708C12.2988 16.5742 15.0795 14.7209 18.2925 14.7209C22.8083 14.7209 26.4689 18.382 26.4689 22.8983C26.469 24.5178 25.9985 26.0266 25.1869 27.2968Z" fill="white"/>
</g>
</g>
</g>
<g opacity="0.3">
<g opacity="0.3">
<g opacity="0.3">
<path opacity="0.3" d="M26.4511 23.4413C26.3693 24.6881 26.0088 25.8577 25.4297 26.8899C23.9666 29.1025 21.4567 30.5617 18.6057 30.5617C14.0898 30.5617 10.4291 26.9006 10.4291 22.3843C10.4291 20.9552 10.7964 19.6106 11.4405 18.4417C11.4291 18.6186 11.423 18.7976 11.423 18.9772C11.423 23.4936 15.0837 27.1547 19.5995 27.1547C22.4687 27.1547 24.9921 25.6774 26.4511 23.4413Z" fill="#111111"/>
</g>
</g>
</g>
<path d="M18.2925 31.2768C16.0547 31.2768 13.9509 30.4053 12.3686 28.8228C10.7863 27.2403 9.91486 25.1363 9.91486 22.8982C9.91486 20.6602 10.7863 18.5562 12.3686 16.9737C13.9509 15.3912 16.0547 14.5197 18.2925 14.5197C20.5302 14.5197 22.634 15.3912 24.2163 16.9737C25.7986 18.5562 26.6701 20.6602 26.6701 22.8982C26.6701 25.1363 25.7986 27.2403 24.2163 28.8228C22.634 30.4053 20.5302 31.2768 18.2925 31.2768ZM18.2925 14.9218C13.8948 14.9218 10.317 18.5 10.317 22.8982C10.317 27.2964 13.8948 30.8746 18.2925 30.8746C22.6901 30.8746 26.2679 27.2965 26.2679 22.8982C26.2679 18.5 22.6901 14.9218 18.2925 14.9218Z" fill="#111111"/>
<g opacity="0.13">
<g opacity="0.13">
<g opacity="0.13">
<path opacity="0.13" d="M24.5733 21.3654C25.0782 21.9442 25.0549 23.7249 23.9505 24.6884C22.8462 25.6518 21.079 25.4332 20.5741 24.8544C20.0692 24.2755 21.0178 23.5556 22.1221 22.5922C23.2265 21.6287 24.0685 20.7866 24.5733 21.3654Z" fill="white"/>
</g>
</g>
</g>
<path d="M17.1178 20.6007C16.904 20.848 16.6118 20.9773 16.341 20.9727C16.1721 20.9693 16.0106 20.9143 15.8819 20.8031C15.5461 20.5129 15.5555 19.9525 15.902 19.551C16.2485 19.1495 16.8014 19.059 17.1372 19.3492C17.1781 19.3847 17.2143 19.4243 17.2451 19.4672C17.2458 19.4679 17.2458 19.4679 17.2458 19.4679C17.4656 19.7742 17.4214 20.2487 17.1178 20.6007Z" fill="#3C4A59"/>
<g opacity="0.55">
<g opacity="0.55">
<g opacity="0.55">
<path opacity="0.55" d="M17.2143 20.6717C17.0005 20.919 16.7083 21.0484 16.4375 21.0437C16.2686 21.0403 16.1071 20.9854 15.9784 20.8741C15.9764 20.8721 15.9738 20.8701 15.9717 20.8681C16.0823 20.9358 16.2097 20.97 16.341 20.9726C16.6118 20.9773 16.904 20.848 17.1178 20.6006C17.4214 20.2487 17.4656 19.7742 17.2458 19.4678C17.2458 19.4678 17.2458 19.4678 17.2451 19.4672C17.2156 19.4256 17.1808 19.3874 17.1413 19.3532C17.1734 19.3726 17.2043 19.3947 17.2338 19.4202C17.2746 19.4558 17.3108 19.4953 17.3417 19.5382C17.3424 19.5389 17.3424 19.5389 17.3424 19.5389C17.5622 19.8452 17.5179 20.3198 17.2143 20.6717Z" fill="white"/>
</g>
</g>
</g>
<path d="M17.1182 20.6007C16.9044 20.848 16.6122 20.9774 16.3414 20.9727C16.2864 20.9478 16.2349 20.915 16.188 20.8748C15.8796 20.608 15.8877 20.0919 16.2067 19.7226C16.4942 19.3901 16.9352 19.2896 17.2455 19.4672C17.2462 19.4679 17.2462 19.4679 17.2462 19.4679C17.466 19.7742 17.4218 20.2488 17.1182 20.6007Z" fill="#111111"/>
<path d="M17.3217 16.5997C17.1187 16.3651 16.6761 16.4157 16.3331 16.7127C15.9901 17.0096 15.8766 17.4404 16.0796 17.6749C16.2826 17.9095 16.7252 17.8589 17.0682 17.5619C17.4112 17.265 17.5247 16.8342 17.3217 16.5997Z" fill="#3C4A59"/>
<g opacity="0.55">
<g opacity="0.55">
<g opacity="0.55">
<path opacity="0.55" d="M17.1112 17.6158C16.8826 17.8143 16.6085 17.9028 16.3921 17.8692C16.2842 17.8531 16.1904 17.8069 16.1233 17.7291C16.1166 17.7217 16.1106 17.7137 16.1052 17.7056C16.1696 17.7674 16.2534 17.8042 16.3478 17.8182C16.5643 17.8518 16.8384 17.7633 17.067 17.5649C17.396 17.2807 17.514 16.8732 17.3451 16.6332C17.3531 16.6399 17.3592 16.6466 17.3652 16.6533C17.5683 16.888 17.4543 17.3189 17.1112 17.6158Z" fill="white"/>
</g>
</g>
</g>
<path d="M17.0669 17.5649C16.8384 17.7633 16.5642 17.8518 16.3478 17.8183L16.3471 17.8176C16.1441 17.583 16.2573 17.152 16.6004 16.8551C16.8303 16.6567 17.1037 16.5682 17.3209 16.6023C17.524 16.837 17.4101 17.268 17.0669 17.5649Z" fill="#111111"/>
<path d="M13.9881 19.2371C13.7534 19.0344 13.3227 19.1485 13.0263 19.4919C12.7298 19.8353 12.6798 20.278 12.9145 20.4806C13.1493 20.6833 13.5799 20.5693 13.8763 20.2259C14.1728 19.8825 14.2228 19.4398 13.9881 19.2371Z" fill="#3C4A59"/>
<g opacity="0.4">
<g opacity="0.4">
<g opacity="0.4">
<path opacity="0.4" d="M17.1178 20.6007C16.904 20.848 16.6118 20.9773 16.341 20.9727C16.1721 20.9693 16.0106 20.9143 15.8819 20.8031C15.5461 20.5129 15.5555 19.9525 15.902 19.551C16.2485 19.1495 16.8014 19.059 17.1372 19.3492C17.1781 19.3847 17.2143 19.4243 17.2451 19.4672C17.2458 19.4679 17.2458 19.4679 17.2458 19.4679C17.4656 19.7742 17.4214 20.2487 17.1178 20.6007Z" fill="#111111"/>
</g>
</g>
</g>
<g opacity="0.4">
<g opacity="0.4">
<g opacity="0.4">
<path opacity="0.4" d="M17.3217 16.5997C17.1187 16.3651 16.6761 16.4157 16.3331 16.7127C15.9901 17.0096 15.8766 17.4404 16.0796 17.6749C16.2826 17.9095 16.7252 17.8589 17.0682 17.5619C17.4112 17.265 17.5247 16.8342 17.3217 16.5997Z" fill="#111111"/>
</g>
</g>
</g>
<g opacity="0.4">
<g opacity="0.4">
<g opacity="0.4">
<path opacity="0.4" d="M13.9881 19.2371C13.7534 19.0344 13.3227 19.1485 13.0263 19.4919C12.7298 19.8353 12.6798 20.278 12.9145 20.4806C13.1493 20.6833 13.5799 20.5693 13.8763 20.2259C14.1728 19.8825 14.2228 19.4398 13.9881 19.2371Z" fill="#111111"/>
</g>
</g>
</g>
<g opacity="0.55">
<g opacity="0.55">
<g opacity="0.55">
<path opacity="0.55" d="M13.9365 20.2729C13.72 20.5236 13.4312 20.6523 13.1999 20.6234C13.1148 20.6133 13.0377 20.5819 12.9747 20.5276C12.9654 20.5195 12.9566 20.5108 12.9479 20.5014C13.0049 20.5416 13.0712 20.5651 13.143 20.5739C13.3742 20.6027 13.663 20.474 13.8795 20.2233C14.1342 19.9277 14.2073 19.5597 14.0732 19.3338C14.0585 19.3077 14.0403 19.2829 14.0189 19.2607C14.0289 19.2675 14.039 19.2755 14.0484 19.2836C14.0819 19.3124 14.1094 19.3459 14.1301 19.3834C14.2642 19.6093 14.1911 19.9773 13.9365 20.2729Z" fill="white"/>
</g>
</g>
</g>
<path d="M13.8795 20.2233C13.6631 20.474 13.3742 20.6027 13.143 20.5739C13.009 20.3479 13.082 19.9793 13.3367 19.6844C13.5538 19.4337 13.842 19.305 14.0732 19.3338C14.2073 19.5597 14.1342 19.9277 13.8795 20.2233Z" fill="#111111"/>
<g opacity="0.3">
<g opacity="0.3">
<g opacity="0.3">
<path opacity="0.3" d="M16.3818 25.4174C16.5424 25.4174 16.6725 25.2872 16.6725 25.1266C16.6725 24.9661 16.5424 24.8359 16.3818 24.8359C16.2213 24.8359 16.0911 24.9661 16.0911 25.1266C16.0911 25.2872 16.2213 25.4174 16.3818 25.4174Z" fill="#111111"/>
</g>
</g>
</g>
<g opacity="0.3">
<g opacity="0.3">
<g opacity="0.3">
<path opacity="0.3" d="M19.583 26.6127C19.7436 26.6127 19.8737 26.4825 19.8737 26.322C19.8737 26.1614 19.7436 26.0313 19.583 26.0313C19.4225 26.0313 19.2924 26.1614 19.2924 26.322C19.2924 26.4825 19.4225 26.6127 19.583 26.6127Z" fill="#111111"/>
</g>
</g>
</g>
<g opacity="0.3">
<g opacity="0.3">
<g opacity="0.3">
<path opacity="0.3" d="M17.4796 22.7996C17.5765 22.7996 17.6551 22.721 17.6551 22.6241C17.6551 22.5272 17.5765 22.4486 17.4796 22.4486C17.3827 22.4486 17.3041 22.5272 17.3041 22.6241C17.3041 22.721 17.3827 22.7996 17.4796 22.7996Z" fill="#111111"/>
</g>
</g>
</g>
<g opacity="0.3">
<g opacity="0.3">
<g opacity="0.3">
<path opacity="0.3" d="M19.1125 24.6771C19.2093 24.6771 19.2879 24.5986 19.2879 24.5017C19.2879 24.4048 19.2093 24.3262 19.1125 24.3262C19.0156 24.3262 18.937 24.4048 18.937 24.5017C18.937 24.5986 19.0156 24.6771 19.1125 24.6771Z" fill="#111111"/>
</g>
</g>
</g>
<g opacity="0.3">
<g opacity="0.3">
<g opacity="0.3">
<path opacity="0.3" d="M15.1092 23.2628C15.1712 23.2628 15.2215 23.2125 15.2215 23.1505C15.2215 23.0885 15.1712 23.0382 15.1092 23.0382C15.0472 23.0382 14.9969 23.0885 14.9969 23.1505C14.9969 23.2125 15.0472 23.2628 15.1092 23.2628Z" fill="#111111"/>
</g>
</g>
</g>
<g opacity="0.3">
<g opacity="0.3">
<g opacity="0.3">
<path opacity="0.3" d="M17.6334 24.048C17.6954 24.048 17.7457 23.9978 17.7457 23.9357C17.7457 23.8737 17.6954 23.8234 17.6334 23.8234C17.5714 23.8234 17.5211 23.8737 17.5211 23.9357C17.5211 23.9978 17.5714 24.048 17.6334 24.048Z" fill="#111111"/>
</g>
</g>
</g>
<g opacity="0.3">
<g opacity="0.3">
<g opacity="0.3">
<path opacity="0.3" d="M19.5826 22.7364C19.6446 22.7364 19.6949 22.6861 19.6949 22.6241C19.6949 22.5621 19.6446 22.5118 19.5826 22.5118C19.5206 22.5118 19.4703 22.5621 19.4703 22.6241C19.4703 22.6861 19.5206 22.7364 19.5826 22.7364Z" fill="#111111"/>
</g>
</g>
</g>
</svg>
