<svg width="26" height="26" viewBox="0 0 26 26" fill="none" xmlns="http://www.w3.org/2000/svg">
<path d="M7.08199 6.87049C0.967873 12.9853 0.0534154 22.4898 2.20905 24.1407C4.35461 25.7839 13.3545 24.8998 19.4772 19.2672C25.5644 13.6672 26.6458 3.5148 24.5321 1.61766C22.1944 -0.480468 13.1962 0.755719 7.08199 6.87049Z" fill="#FF5722"/>
<g opacity="0.3">
<g opacity="0.3">
<g opacity="0.3">
<path opacity="0.3" d="M6.5762 9.9366C6.69372 9.9366 6.78899 9.84132 6.78899 9.72379C6.78899 9.60626 6.69372 9.51098 6.5762 9.51098C6.45867 9.51098 6.3634 9.60626 6.3634 9.72379C6.3634 9.84132 6.45867 9.9366 6.5762 9.9366Z" fill="#111111"/>
</g>
</g>
</g>
<g opacity="0.3">
<g opacity="0.3">
<g opacity="0.3">
<path opacity="0.3" d="M16.0045 15.7812C16.122 15.7812 16.2172 15.6859 16.2172 15.5684C16.2172 15.4509 16.122 15.3556 16.0045 15.3556C15.887 15.3556 15.7917 15.4509 15.7917 15.5684C15.7917 15.6859 15.887 15.7812 16.0045 15.7812Z" fill="#111111"/>
</g>
</g>
</g>
<g opacity="0.3">
<g opacity="0.3">
<g opacity="0.3">
<path opacity="0.3" d="M16.2089 9.09573C16.292 9.09573 16.3594 9.02839 16.3594 8.94531C16.3594 8.86223 16.292 8.79488 16.2089 8.79488C16.1259 8.79488 16.0585 8.86223 16.0585 8.94531C16.0585 9.02839 16.1259 9.09573 16.2089 9.09573Z" fill="#111111"/>
</g>
</g>
</g>
<g opacity="0.3">
<g opacity="0.3">
<g opacity="0.3">
<path opacity="0.3" d="M12.0619 13.1848C12.145 13.1848 12.2123 13.1175 12.2123 13.0344C12.2123 12.9513 12.145 12.884 12.0619 12.884C11.9788 12.884 11.9115 12.9513 11.9115 13.0344C11.9115 13.1175 11.9788 13.1848 12.0619 13.1848Z" fill="#111111"/>
</g>
</g>
</g>
<g opacity="0.3">
<g opacity="0.3">
<g opacity="0.3">
<path opacity="0.3" d="M17.6723 12.8592C17.7554 12.8592 17.8227 12.7919 17.8227 12.7088C17.8227 12.6257 17.7554 12.5584 17.6723 12.5584C17.5893 12.5584 17.5219 12.6257 17.5219 12.7088C17.5219 12.7919 17.5893 12.8592 17.6723 12.8592Z" fill="#111111"/>
</g>
</g>
</g>
<g opacity="0.3">
<g opacity="0.3">
<g opacity="0.3">
<path opacity="0.3" d="M7.9421 14.7153C8.02517 14.7153 8.09252 14.648 8.09252 14.5649C8.09252 14.4818 8.02517 14.4145 7.9421 14.4145C7.85903 14.4145 7.79169 14.4818 7.79169 14.5649C7.79169 14.648 7.85903 14.7153 7.9421 14.7153Z" fill="#111111"/>
</g>
</g>
</g>
<g opacity="0.3">
<g opacity="0.3">
<g opacity="0.3">
<path opacity="0.3" d="M19.1358 10.2073C19.2189 10.2073 19.2863 10.14 19.2863 10.0569C19.2863 9.97376 19.2189 9.90639 19.1358 9.90639C19.0527 9.90639 18.9854 9.97376 18.9854 10.0569C18.9854 10.14 19.0527 10.2073 19.1358 10.2073Z" fill="#111111"/>
</g>
</g>
</g>
<g opacity="0.3">
<g opacity="0.3">
<g opacity="0.3">
<path opacity="0.3" d="M12.3942 18.1303C12.6158 18.1303 12.7956 17.9506 12.7956 17.7289C12.7956 17.5071 12.6158 17.3274 12.3942 17.3274C12.1725 17.3274 11.9927 17.5071 11.9927 17.7289C11.9927 17.9506 12.1725 18.1303 12.3942 18.1303Z" fill="#111111"/>
</g>
</g>
</g>
<g opacity="0.3">
<g opacity="0.3">
<g opacity="0.3">
<path opacity="0.3" d="M9.79328 11.0172C10.015 11.0172 10.1946 10.8375 10.1946 10.6158C10.1946 10.3941 10.015 10.2144 9.79328 10.2144C9.57161 10.2144 9.39191 10.3941 9.39191 10.6158C9.39191 10.8375 9.57161 11.0172 9.79328 11.0172Z" fill="#111111"/>
</g>
</g>
</g>
<g opacity="0.3">
<g opacity="0.3">
<g opacity="0.3">
<path opacity="0.3" d="M15.4776 12.9326C15.6993 12.9326 15.8789 12.7529 15.8789 12.5312C15.8789 12.3096 15.6993 12.1298 15.4776 12.1298C15.2559 12.1298 15.0762 12.3096 15.0762 12.5312C15.0762 12.7529 15.2559 12.9326 15.4776 12.9326Z" fill="#111111"/>
</g>
</g>
</g>
<g opacity="0.3">
<g opacity="0.3">
<g opacity="0.3">
<path opacity="0.3" d="M12.3194 9.13065C12.476 9.13065 12.603 9.00366 12.603 8.84699C12.603 8.69033 12.476 8.56334 12.3194 8.56334C12.1627 8.56334 12.0357 8.69033 12.0357 8.84699C12.0357 9.00366 12.1627 9.13065 12.3194 9.13065Z" fill="#111111"/>
</g>
</g>
</g>
<g opacity="0.3">
<g opacity="0.3">
<g opacity="0.3">
<path opacity="0.3" d="M16.437 20.0514C16.5936 20.0514 16.7206 19.9244 16.7206 19.7678C16.7206 19.6111 16.5936 19.4841 16.437 19.4841C16.2804 19.4841 16.1534 19.6111 16.1534 19.7678C16.1534 19.9244 16.2804 20.0514 16.437 20.0514Z" fill="#111111"/>
</g>
</g>
</g>
<g opacity="0.3">
<g opacity="0.3">
<g opacity="0.3">
<path opacity="0.3" d="M20.0786 18.683C24.5489 12.9452 25.2017 4.70211 23.3189 3.01161C20.9813 0.913724 11.983 2.14926 5.86822 8.26389C5.78004 8.35203 5.69201 8.44192 5.60657 8.53185C6.05973 7.95726 6.55157 7.40065 7.08201 6.8701C13.1968 0.755474 22.1951 -0.480066 24.5327 1.61782C26.5737 3.45132 25.6341 12.9893 20.0786 18.683Z" fill="white"/>
</g>
</g>
</g>
<path d="M5.52854 25.1975C3.96796 25.1975 2.71514 24.9246 2.01785 24.3906C1.36107 23.8875 0.96121 22.8234 0.861519 21.3132C0.727502 19.2827 1.168 16.7103 2.07025 14.2554C3.14129 11.341 4.79741 8.71042 6.85963 6.64796L7.08219 6.87049L6.85963 6.64796C10.6236 2.88359 14.9215 1.4049 17.1485 0.858556C18.7863 0.456708 20.3601 0.290836 21.7 0.379327C23.0584 0.468915 24.1104 0.816104 24.7424 1.38343C25.4374 2.00725 25.8264 3.36382 25.8376 5.20335C25.851 7.37687 25.3273 9.991 24.4009 12.3754C23.2975 15.2157 21.6686 17.6789 19.6904 19.4987C15.9783 22.9137 11.6618 24.2482 9.41915 24.7398C8.0201 25.0465 6.68915 25.1975 5.52854 25.1975ZM20.9792 0.989549C19.8751 0.989549 18.6117 1.14765 17.2983 1.46987C15.1352 2.00062 10.9604 3.43686 7.30463 7.09301C3.14692 11.2512 1.23208 17.3733 1.48946 21.2717C1.57435 22.5578 1.90639 23.5124 2.40046 23.8908C3.25263 24.5435 5.77042 24.8952 9.28441 24.125C11.465 23.647 15.6611 22.3502 19.2642 19.0355C23.3832 15.2462 25.2328 9.21107 25.2083 5.20719C25.1982 3.57134 24.8752 2.34841 24.322 1.85184C23.6872 1.28208 22.4805 0.989549 20.9792 0.989549Z" fill="#111111"/>
<path d="M13.958 22.8911C12.3082 23.7247 11.429 23.9325 9.84573 24.3183C5.76648 24.1456 2.07922 20.8365 1.41571 17.8242C1.69351 16.2901 1.9606 15.2525 2.71404 13.5772C1.70821 18.7457 7.98075 23.3263 13.958 22.8911Z" fill="white"/>
<path d="M9.84541 24.5431C9.84227 24.5431 9.83909 24.543 9.83595 24.5429C7.88373 24.4602 5.88508 23.6676 4.20817 22.3108C2.63473 21.0379 1.53679 19.4202 1.19587 17.8725C1.18949 17.8435 1.18889 17.8134 1.19422 17.7841C1.47695 16.2229 1.74574 15.1814 2.50875 13.485C2.55553 13.3808 2.673 13.3283 2.78171 13.3629C2.89052 13.3974 2.95613 13.5081 2.93431 13.6201C2.5769 15.4565 3.17827 17.3679 4.62761 19.0019C6.82579 21.4802 10.4813 22.9187 13.9414 22.6669C14.048 22.6594 14.1457 22.7278 14.1743 22.8311C14.2029 22.9343 14.1547 23.0434 14.059 23.0917C12.4099 23.925 11.4902 24.149 9.96653 24.5201L9.89864 24.5366C9.8812 24.5409 9.8633 24.5431 9.84541 24.5431ZM1.64469 17.8194C2.29685 20.6523 5.7951 23.9057 9.82335 24.0923L9.86013 24.0833C11.0673 23.7893 11.8504 23.5985 12.9015 23.1417C11.4533 23.1088 9.97711 22.8025 8.5763 22.2396C6.87069 21.5542 5.38891 20.5378 4.29132 19.3003C3.11356 17.9726 2.46261 16.4666 2.39047 14.9496C2.02997 15.9274 1.83954 16.7494 1.64469 17.8194Z" fill="#111111"/>
<path d="M25.4682 6.53188C25.407 7.27011 25.2919 8.05607 25.1202 8.86893C18.6577 7.08715 16.8304 3.02676 16.8304 1.2652C17.6432 1.04761 18.4308 0.892056 19.1762 0.794945C18.298 1.55773 21.7146 6.16138 25.4682 6.53188Z" fill="white"/>
<path d="M25.1202 9.09374C25.1002 9.09374 25.0801 9.09104 25.0605 9.08566C22.2111 8.3 19.9017 6.95873 18.3821 5.20679C17.0724 3.69676 16.6057 2.1806 16.6057 1.26519C16.6057 1.16345 16.6741 1.07436 16.7723 1.04805C17.5768 0.832699 18.3759 0.672508 19.1472 0.572009C19.2459 0.559253 19.3406 0.612368 19.3813 0.702803C19.4219 0.793237 19.3985 0.899665 19.3237 0.964688C19.2386 1.03853 19.2407 1.2485 19.3292 1.52633C19.5394 2.18638 20.2883 3.32117 21.4873 4.36852C22.773 5.49145 24.1946 6.18035 25.4903 6.30825C25.6125 6.32031 25.7024 6.42818 25.6922 6.5505C25.629 7.31314 25.5106 8.10882 25.3402 8.91546C25.3274 8.9761 25.2901 9.02876 25.2372 9.061C25.2016 9.08257 25.1611 9.09374 25.1202 9.09374ZM17.0611 1.43699C17.1163 2.28324 17.5739 3.58879 18.7217 4.91217C20.142 6.54961 22.2917 7.81734 24.9487 8.58685C25.0743 7.95511 25.167 7.33208 25.2249 6.72908C22.1595 6.29699 19.4044 3.24339 18.9008 1.66275C18.8234 1.4196 18.8028 1.22648 18.8167 1.07326C18.2421 1.16225 17.6537 1.28417 17.0611 1.43699Z" fill="#111111"/>
<path d="M1.96966 24.135C1.95078 24.135 1.93165 24.1326 1.91257 24.1276C1.7925 24.0962 1.7206 23.9733 1.75209 23.8532C2.46079 21.1475 3.54907 18.4791 4.98684 15.922C6.43945 13.3383 8.17923 10.9933 10.1579 8.95178C12.2252 6.81882 14.476 5.10061 16.8477 3.84499C19.3836 2.50232 22.0054 1.71995 24.6401 1.5196C24.7635 1.51013 24.8718 1.60286 24.8813 1.72668C24.8906 1.8505 24.798 1.95847 24.6742 1.96789C13.5902 2.81085 4.8156 13.9316 2.18697 23.9672C2.16047 24.0681 2.06941 24.135 1.96966 24.135Z" fill="#111111"/>
<g opacity="0.3">
<g opacity="0.3">
<g opacity="0.3">
<path opacity="0.3" d="M22.6768 14.0611C21.8011 15.6041 20.7015 17.0626 19.3573 18.2991C13.2353 23.9317 4.23527 24.8157 2.08995 23.1719C1.65298 22.8374 1.3419 22.1801 1.17555 21.2944C0.995747 18.585 1.85436 14.5062 4.0743 10.7646C4.14893 10.6396 4.22446 10.5146 4.30173 10.3905C4.21544 10.832 4.18036 11.2583 4.19207 11.6674C4.36649 17.9628 15.5964 20.2864 22.6768 14.0611Z" fill="#111111"/>
</g>
</g>
</g>
<g opacity="0.3">
<g opacity="0.3">
<g opacity="0.3">
<path opacity="0.3" d="M17.0056 4.62153C16.8532 4.30907 16.476 4.17947 16.164 4.33189C15.8306 4.49457 15.5035 4.66553 15.1812 4.84316C15.0894 4.68461 15.0119 4.52835 14.9486 4.37394C14.8922 4.23612 14.7348 4.1702 14.5968 4.22651C14.4589 4.28291 14.3929 4.44046 14.4493 4.57838C14.5213 4.75402 14.6087 4.9309 14.712 5.10963C14.221 5.39633 13.7422 5.70061 13.2763 6.02493C13.171 5.85886 13.082 5.69483 13.0094 5.53245C12.9485 5.39648 12.7894 5.33524 12.6531 5.39623C12.5171 5.45701 12.4561 5.61656 12.5169 5.75258C12.6037 5.94686 12.7108 6.14212 12.8373 6.33909C12.3013 6.73262 11.7819 7.15315 11.2773 7.60094C11.1565 7.44907 11.0517 7.29755 10.963 7.14573C10.8878 7.01697 10.7226 6.97367 10.594 7.04896C10.4654 7.1241 10.4221 7.28942 10.4973 7.41798C10.6043 7.60114 10.7315 7.783 10.8781 7.96447C10.3821 8.42656 9.90102 8.9168 9.43361 9.43604C9.30761 9.28138 9.19822 9.12696 9.106 8.9721C9.02978 8.84405 8.864 8.8021 8.73626 8.87838C8.60823 8.95462 8.56633 9.12024 8.64256 9.24814C8.76203 9.44874 8.90523 9.64765 9.07267 9.84586C8.64696 10.3401 8.23273 10.8595 7.82899 11.405C7.66777 11.2485 7.52713 11.0903 7.40751 10.9294C7.31858 10.8097 7.14935 10.785 7.03013 10.8739C6.91061 10.9628 6.88574 11.1318 6.97467 11.2514C7.12517 11.4538 7.30343 11.6514 7.50943 11.8455C7.21166 12.2639 6.91962 12.6969 6.6331 13.1453C6.48882 13.0018 6.36168 12.8568 6.25217 12.7096C6.16324 12.5899 5.99402 12.5651 5.8748 12.6541C5.75523 12.743 5.7304 12.912 5.81933 13.0315C5.9664 13.2294 6.13984 13.4225 6.33987 13.6124C6.08309 14.0288 5.8305 14.4575 5.5822 14.8994C5.44868 14.7644 5.33069 14.6281 5.22791 14.4897C5.13893 14.3701 4.9698 14.3453 4.85053 14.4343C4.73096 14.5231 4.70609 14.6922 4.79502 14.8116C4.94124 15.0083 5.11328 15.2003 5.31171 15.389C5.19947 15.5955 5.08778 15.8038 4.97713 16.0157C4.81626 16.3239 4.93563 16.7041 5.24387 16.865C5.33678 16.9136 5.43637 16.9366 5.53452 16.9366C5.76155 16.9366 5.98071 16.8135 6.09295 16.5984C6.16793 16.4548 6.24346 16.3132 6.31914 16.1723C6.50861 16.2963 6.71068 16.4193 6.92745 16.5419C6.96945 16.5656 7.01502 16.5769 7.05991 16.5769C7.15407 16.5769 7.2454 16.5276 7.29497 16.4398C7.36831 16.3101 7.32268 16.1456 7.19295 16.0722C6.97229 15.9475 6.76791 15.8227 6.57839 15.6975C6.82804 15.2478 7.08193 14.8123 7.34019 14.39C7.53056 14.5146 7.7338 14.6384 7.95181 14.7617C7.99381 14.7854 8.03938 14.7967 8.08432 14.7967C8.17843 14.7967 8.26976 14.7474 8.31938 14.6597C8.39272 14.5299 8.34702 14.3654 8.21733 14.2921C8.00525 14.1722 7.80852 14.0523 7.62523 13.932C7.91334 13.4775 8.20703 13.0393 8.5066 12.617C8.69382 12.7392 8.89336 12.8606 9.10714 12.9814C9.14899 13.0051 9.19457 13.0164 9.2395 13.0164C9.33367 13.0164 9.42505 12.9671 9.47457 12.8792C9.54791 12.7495 9.50226 12.585 9.37242 12.5118C9.17678 12.4011 8.99429 12.2905 8.82321 12.1796C9.1992 11.6707 9.58452 11.1859 9.98005 10.7243C10.1671 10.8777 10.3692 11.0316 10.5877 11.1865C10.6351 11.2201 10.6895 11.2362 10.7434 11.2362C10.828 11.2362 10.9112 11.1965 10.9639 11.1224C11.0499 11.0008 11.0211 10.8324 10.8996 10.7463C10.6965 10.6023 10.509 10.4599 10.3358 10.3186C10.7988 9.80216 11.2754 9.31576 11.7672 8.85915C11.968 9.02936 12.1871 9.20026 12.426 9.37261C12.4737 9.40709 12.5289 9.42363 12.5836 9.42363C12.6674 9.42363 12.7499 9.38481 12.8026 9.31167C12.8898 9.19084 12.8624 9.02223 12.7416 8.93513C12.5354 8.7863 12.3454 8.63927 12.1704 8.49352C12.641 8.07862 13.1255 7.68958 13.6245 7.3248C13.8052 7.51529 14.004 7.70846 14.2221 7.90518C14.2736 7.95171 14.3382 7.97463 14.4026 7.97463C14.4764 7.97463 14.5497 7.94459 14.6029 7.88549C14.7028 7.77483 14.6939 7.60428 14.5833 7.50452C14.3967 7.33631 14.2258 7.17154 14.0693 7.0095C14.5207 6.69789 14.9837 6.40501 15.4594 6.13091C15.6464 6.34432 15.8544 6.56151 16.0857 6.78374C16.1379 6.83406 16.2052 6.85902 16.2725 6.85902C16.3433 6.85902 16.414 6.83127 16.467 6.77611C16.5702 6.66874 16.5668 6.49794 16.4593 6.3947C16.2703 6.21313 16.0978 6.03575 15.9412 5.86195C16.1959 5.72418 16.454 5.59105 16.7159 5.46324C17.0283 5.31082 17.158 4.93399 17.0056 4.62153Z" fill="#111111"/>
</g>
</g>
</g>
<path d="M16.446 5.04382C16.1843 5.17152 15.9262 5.30461 15.6709 5.44218C15.8282 5.61573 15.9999 5.79376 16.1897 5.97542C16.2966 6.07791 16.3003 6.24877 16.1969 6.35669C16.1438 6.41155 16.0737 6.4394 16.0027 6.4394C15.9352 6.4394 15.8678 6.41424 15.8157 6.36387C15.5846 6.14174 15.376 5.92505 15.1899 5.71104C14.7134 5.98529 14.2503 6.27841 13.7989 6.58958C13.9563 6.75231 14.1271 6.91689 14.3132 7.08505C14.4238 7.18485 14.4328 7.35481 14.333 7.46632C14.28 7.52477 14.2062 7.55536 14.1325 7.55536C14.0678 7.55536 14.004 7.53199 13.9518 7.48521C13.7342 7.28919 13.5355 7.09586 13.3548 6.90523C12.8558 7.27031 12.3712 7.65875 11.9 8.0742C12.0754 8.21989 12.2651 8.36643 12.4719 8.51571C12.5924 8.60296 12.6193 8.77107 12.5322 8.8925C12.48 8.96534 12.3973 9.00401 12.3136 9.00401C12.2588 9.00401 12.204 8.98781 12.1564 8.95279C11.9171 8.78104 11.6978 8.61018 11.4973 8.43933C11.0055 8.89613 10.5289 9.38259 10.0659 9.89874C10.2395 10.0399 10.4264 10.1829 10.6297 10.3268C10.7511 10.4131 10.7798 10.5813 10.6935 10.7026C10.6414 10.7773 10.5577 10.8168 10.4732 10.8168C10.4193 10.8168 10.3653 10.8006 10.3177 10.7674C10.0992 10.6118 9.89691 10.4581 9.70988 10.3052C9.31431 10.7665 8.92945 11.2512 8.5536 11.7601C8.72449 11.8708 8.90697 11.9813 9.10296 12.0919C9.23245 12.1657 9.27829 12.3302 9.20455 12.4597C9.15513 12.5478 9.06341 12.5973 8.9699 12.5973C8.92496 12.5973 8.87908 12.5856 8.83683 12.5622C8.62375 12.4408 8.42412 12.3194 8.23714 12.1971C7.93682 12.6198 7.64372 13.0577 7.35512 13.5127C7.53855 13.6323 7.73545 13.7527 7.94763 13.8724C8.07712 13.9461 8.123 14.1107 8.04922 14.2401C7.9998 14.3273 7.90898 14.3768 7.81457 14.3768C7.76968 14.3768 7.72373 14.366 7.68148 14.3418C7.46391 14.2186 7.2607 14.0954 7.07008 13.9704C6.81206 14.393 6.55849 14.8282 6.30859 15.2778C6.49831 15.4028 6.70236 15.5279 6.92267 15.6528C7.053 15.7256 7.09799 15.8902 7.02515 16.0206C6.97573 16.1078 6.88401 16.1573 6.7896 16.1573C6.74466 16.1573 6.69968 16.1456 6.65748 16.1222C6.53064 16.0511 6.40932 15.9792 6.29239 15.9073C6.29239 15.9073 6.29239 15.9073 6.29149 15.9064C6.26723 15.8911 6.24292 15.8758 6.21866 15.8605H6.21776C6.16022 15.8245 6.10447 15.7886 6.04962 15.7526C6.02172 15.8048 5.99294 15.8569 5.96598 15.9091H5.96503C5.91741 15.9981 5.86972 16.0881 5.82299 16.1788C5.7106 16.3937 5.49124 16.517 5.2646 16.517C5.16661 16.517 5.06681 16.4936 4.97424 16.445C4.66586 16.285 4.54624 15.9046 4.70721 15.5962C4.77826 15.4604 4.84929 15.3273 4.92029 15.1943C4.96074 15.1187 5.0012 15.044 5.04165 14.9695C4.84297 14.7806 4.67124 14.5891 4.52467 14.3921C4.43659 14.2726 4.46086 14.1035 4.58043 14.0145C4.69999 13.9254 4.86901 13.9506 4.95804 14.0702C5.06052 14.2087 5.17832 14.3445 5.31228 14.4794C5.56039 14.0379 5.81307 13.609 6.07025 13.1926C5.86972 13.0029 5.69618 12.8095 5.54966 12.6117C5.46063 12.4921 5.4849 12.3231 5.60452 12.2349C5.72409 12.1459 5.89313 12.1702 5.98216 12.2898C6.09181 12.4373 6.2186 12.582 6.36333 12.7259C6.64925 12.2772 6.94145 11.8447 7.23908 11.4257C7.03317 11.2314 6.85518 11.0345 6.70497 10.8322C6.61599 10.7126 6.64023 10.5435 6.75985 10.4545C6.87942 10.3655 7.04846 10.3898 7.13744 10.5103C7.25701 10.6703 7.39822 10.8286 7.55919 10.985C7.96288 10.4401 8.37734 9.92036 8.80266 9.42674C8.63541 9.22798 8.4924 9.02927 8.37283 8.82877C8.29641 8.70106 8.33868 8.53474 8.46637 8.45921C8.59406 8.38277 8.75946 8.42413 8.83589 8.55273C8.9285 8.70739 9.0373 8.86205 9.1641 9.01672C9.63071 8.49698 10.1117 8.00689 10.608 7.5447C10.4615 7.36303 10.3347 7.18142 10.2277 6.99796C10.1521 6.87025 10.1953 6.70483 10.3239 6.62929C10.4524 6.55376 10.6179 6.5978 10.6934 6.7264C10.7816 6.87837 10.8867 7.02944 11.0073 7.18136C11.5116 6.73358 12.0313 6.31275 12.5672 5.91977C12.4404 5.72285 12.3335 5.52773 12.2471 5.33256C12.1859 5.19679 12.2471 5.03764 12.3829 4.97651C12.5195 4.91537 12.6787 4.9765 12.7399 5.11318C12.8117 5.27506 12.9008 5.43959 13.006 5.60506C13.4726 5.28134 13.9509 4.9765 14.4419 4.68966C14.3385 4.51163 14.2513 4.33444 14.1793 4.15916C14.1226 4.02069 14.1892 3.86329 14.3267 3.80664C14.4652 3.75088 14.6226 3.8165 14.6783 3.95407C14.7421 4.10873 14.8195 4.26524 14.9112 4.42348C15.234 4.24635 15.5603 4.0755 15.8939 3.91272C16.206 3.75985 16.5836 3.88935 16.7355 4.20231C16.8883 4.51417 16.7579 4.89095 16.446 5.04382Z" fill="white"/>
<g opacity="0.3">
<g opacity="0.3">
<g opacity="0.3">
<path opacity="0.3" d="M5.96528 15.909C5.91765 15.998 5.86997 16.0879 5.82324 16.1787C5.71084 16.3936 5.49148 16.5168 5.26485 16.5168C5.16685 16.5168 5.06706 16.4935 4.97449 16.4449C4.6661 16.2848 4.54649 15.9045 4.70746 15.596C4.77851 15.4603 4.84954 15.3272 4.92054 15.1941C4.96194 15.4882 5.14892 16.1905 5.96528 15.909Z" fill="#111111"/>
</g>
</g>
</g>
<g opacity="0.19">
<g opacity="0.19">
<g opacity="0.19">
<path opacity="0.19" d="M21.0195 9.34342C20.1781 8.35322 18.9394 9.97935 17.0474 11.5873C15.1555 13.1953 13.3268 14.1763 14.1682 15.1665C15.0096 16.1567 17.7154 15.919 19.6073 14.311C21.4993 12.703 21.8609 10.3336 21.0195 9.34342Z" fill="white"/>
</g>
</g>
</g>
</svg>
