<svg width="25" height="26" viewBox="0 0 25 26" fill="none" xmlns="http://www.w3.org/2000/svg">
<path d="M24.2419 13C24.2419 15.8776 23.2204 18.5172 21.5208 20.5753C20.3043 22.0486 18.7397 23.2247 16.9528 23.9764C15.5336 24.5735 13.9742 24.9041 12.3379 24.9041C10.6083 24.9041 8.9648 24.5351 7.48168 23.8714C5.75735 23.1002 4.25012 21.9306 3.07731 20.4801V20.4795C1.42406 18.4357 0.433777 15.8332 0.433777 13C0.433777 12.8527 0.436376 12.7066 0.441604 12.5606C0.510715 10.6537 1.029 8.86032 1.89278 7.2846C3.48019 4.39007 6.23587 2.22699 9.52482 1.43035C10.4264 1.21196 11.3691 1.09592 12.3379 1.09592C13.3066 1.09592 14.2493 1.21196 15.1509 1.43035C18.3375 2.20221 21.0234 4.25644 22.631 7.01602C23.5424 8.58064 24.1076 10.3721 24.2204 12.2848C24.2347 12.5215 24.2419 12.7601 24.2419 13Z" fill="white"/>
<path d="M12.3378 25.1322C10.6144 25.1322 8.94925 24.7781 7.38846 24.0797C5.65222 23.3032 4.10008 22.108 2.89984 20.6236L2.8491 20.5598C2.01901 19.5197 1.37045 18.3605 0.920883 17.1132C0.446232 15.7963 0.205566 14.4124 0.205566 13C0.205566 12.8512 0.208256 12.7007 0.213544 12.5525C0.282535 10.6487 0.780182 8.83944 1.69268 7.17494C3.33342 4.18319 6.16855 2.00854 9.47107 1.20861C10.4047 0.982448 11.3693 0.867767 12.3378 0.867767C13.3064 0.867767 14.2709 0.982448 15.2046 1.20861C16.8092 1.59729 18.2948 2.2994 19.6201 3.29542C20.9272 4.27769 22.0066 5.49086 22.8282 6.90119C23.7769 8.52984 24.337 10.3868 24.4482 12.2715C24.4627 12.5112 24.4701 12.7564 24.4701 13C24.4701 14.4343 24.2221 15.8385 23.7329 17.1735C23.2604 18.4633 22.5753 19.6568 21.6967 20.7206C20.4489 22.232 18.8391 23.4305 17.0413 24.1867C15.5501 24.8141 13.9677 25.1322 12.3378 25.1322ZM3.30544 20.399C4.45355 21.799 5.92821 22.9267 7.57482 23.6632C9.07665 24.3352 10.6791 24.6759 12.3378 24.6759C13.9065 24.6759 15.4295 24.3698 16.8643 23.7661C18.5944 23.0383 20.1438 21.8848 21.3448 20.4301C23.0659 18.3459 24.0137 15.7072 24.0137 13C24.0137 12.7656 24.0066 12.5296 23.9926 12.2987C23.8857 10.4848 23.3467 8.69795 22.4338 7.13088C20.8382 4.39198 18.1641 2.39504 15.0972 1.65213C14.1986 1.4345 13.2702 1.32414 12.3378 1.32414C11.4054 1.32414 10.477 1.4345 9.57847 1.65213C6.40039 2.42193 3.67197 4.51491 2.09278 7.39436C1.21479 8.99594 0.735972 10.7369 0.669581 12.5689C0.664504 12.7116 0.661905 12.8566 0.661905 13C0.661905 15.6638 1.58268 18.2691 3.25467 20.336L3.30544 20.399Z" fill="#181818"/>
<path d="M12.3378 23.4699C11.3111 23.4699 10.2966 23.3207 9.32219 23.0267L9.1426 22.9725L9.18928 22.7908C9.22119 22.6666 9.20524 22.5356 9.14438 22.422L7.61306 19.5667C7.57296 19.4921 7.51569 19.4288 7.44758 19.3839C7.40578 19.3557 7.3617 19.3346 7.31489 19.3201L4.22 18.3578C4.03826 18.3018 3.8412 18.3504 3.70618 18.485L3.5307 18.6598L3.40136 18.4485C2.57242 17.0946 2.07372 15.6086 1.91909 14.0315L1.89648 13.8012L2.1273 13.8173C2.29646 13.8291 2.45986 13.7559 2.56439 13.6217L4.55537 11.0655C4.61351 10.9909 4.64941 10.9025 4.65926 10.8098L4.65996 10.8041C4.66476 10.7686 4.66488 10.7315 4.66026 10.6937L4.28721 7.47403C4.26681 7.2971 4.15823 7.14628 3.9968 7.07052L3.78043 6.96895L3.92282 6.77697C5.11917 5.16388 6.73767 3.93339 8.60337 3.21849L8.79224 3.14612L8.85823 3.33728C8.90553 3.47427 9.01012 3.5846 9.14526 3.63999L12.144 4.86752C12.268 4.91826 12.4076 4.91826 12.5317 4.86752L15.5305 3.63996C15.6655 3.58463 15.7701 3.4743 15.8174 3.33731L15.8834 3.14615L16.0722 3.21849C17.8538 3.90099 19.4186 5.06098 20.5974 6.57308L20.7588 6.78017L20.5142 6.87554C20.3301 6.94732 20.2033 7.12132 20.1911 7.3188L19.9877 10.5532C19.9835 10.6253 19.9945 10.6972 20.0205 10.7659L20.0271 10.7834C20.0475 10.8328 20.0759 10.8787 20.1118 10.9201L22.235 13.3679C22.327 13.474 22.4551 13.5365 22.5957 13.544L22.7946 13.5545L22.7804 13.7532C22.6569 15.4845 22.0965 17.172 21.16 18.6332L21.1022 18.7232H20.9427L20.8965 18.6968C20.7795 18.6289 20.6434 18.61 20.5131 18.6439L17.3744 19.4517C17.323 19.4654 17.2744 19.4864 17.2315 19.5135C17.1633 19.556 17.1058 19.6146 17.0639 19.6837L15.3933 22.4592C15.3241 22.5746 15.3029 22.7099 15.3338 22.8397L15.3774 23.022L15.1971 23.0732C14.2709 23.3364 13.3088 23.4699 12.3378 23.4699ZM9.59588 22.6993C10.4843 22.9512 11.4058 23.0787 12.3378 23.0787C13.2164 23.0787 14.0873 22.9653 14.9289 22.7414C14.9251 22.573 14.9691 22.4061 15.0581 22.2577L16.7291 19.4816C16.8029 19.3597 16.9046 19.2564 17.0234 19.1824C17.0986 19.1348 17.1838 19.0977 17.2753 19.0734L20.4152 18.2653C20.5835 18.2216 20.7575 18.2276 20.9196 18.2808C21.7365 16.9578 22.2376 15.4509 22.376 13.9021C22.2078 13.8549 22.057 13.7598 21.9395 13.6244L19.8162 11.1764C19.7458 11.095 19.6913 11.0034 19.6542 10.904L19.6419 10.8686C19.6056 10.7591 19.5905 10.6453 19.5973 10.5297L19.8007 7.29459C19.8168 7.03284 19.9471 6.79432 20.1487 6.6379C19.069 5.31416 17.6757 4.28589 16.0987 3.64933C16 3.80613 15.8538 3.93024 15.6788 4.00201L12.6798 5.22963C12.4612 5.31905 12.2143 5.31902 11.9958 5.22963L8.99694 4.00204C8.82182 3.93024 8.67559 3.80613 8.57686 3.64933C6.91494 4.32007 5.46463 5.41971 4.36275 6.84406C4.53609 6.98989 4.64899 7.1968 4.67579 7.42919L5.0487 10.6476C5.05707 10.7164 5.05689 10.7862 5.04794 10.8539C5.02996 11.0184 4.96635 11.1747 4.86391 11.3061L2.87301 13.8622C2.73642 14.0376 2.54275 14.1539 2.33004 14.1942C2.49189 15.5665 2.9268 16.8651 3.62484 18.0603C3.83821 17.9399 4.09441 17.9098 4.33574 17.9842L7.43084 18.9466C7.51406 18.9724 7.59278 19.0101 7.66467 19.0586C7.78497 19.138 7.88687 19.25 7.95765 19.3816L9.48912 22.2373C9.56596 22.3807 9.60217 22.5398 9.59588 22.6993Z" fill="#181818"/>
<path d="M11.7843 9.18044L8.87605 11.2934C8.54609 11.5332 8.40802 11.9581 8.53406 12.346L9.64492 15.7649C9.77096 16.1528 10.1324 16.4154 10.5403 16.4154H14.1351C14.543 16.4154 14.9044 16.1528 15.0305 15.7649L16.1413 12.346C16.2674 11.9581 16.1293 11.5332 15.7993 11.2934L12.891 9.18044C12.5611 8.94071 12.1143 8.94071 11.7843 9.18044Z" fill="#3C4A59"/>
<path d="M14.1352 16.611H10.5404C10.0463 16.611 9.6117 16.2953 9.45901 15.8253L8.34815 12.4064C8.19546 11.9365 8.36145 11.4256 8.76119 11.1352L11.6694 9.02222C12.0692 8.73181 12.6064 8.73181 13.0061 9.02222L15.9144 11.1352C16.3141 11.4256 16.4801 11.9365 16.3274 12.4064L15.2166 15.8253C15.0639 16.2953 14.6293 16.611 14.1352 16.611ZM11.8994 9.33867L8.99109 11.4516C8.72885 11.6422 8.61997 11.9773 8.72015 12.2855L9.831 15.7044C9.93115 16.0127 10.2162 16.2198 10.5404 16.2198H14.1352C14.4593 16.2198 14.7444 16.0127 14.8446 15.7044L15.9554 12.2855C16.0556 11.9773 15.9467 11.6421 15.6845 11.4516L12.7762 9.33867C12.514 9.14814 12.1616 9.14814 11.8994 9.33867Z" fill="#181818"/>
<g opacity="0.19">
<g opacity="0.19">
<g opacity="0.19">
<path opacity="0.19" d="M15.3862 12.2105L14.8712 13.796C14.6463 13.4811 14.3829 13.1956 14.0889 12.9453C14.0869 12.9498 14.085 12.9537 14.0823 12.9576C13.8594 13.3436 13.1918 13.3755 12.5901 13.0281C12.0816 12.7347 11.7837 12.264 11.8384 11.8924C11.5803 11.8474 11.3136 11.8246 11.0424 11.8246C10.4179 11.8246 9.8214 11.9459 9.27706 12.1668C9.19882 11.8683 9.3116 11.5501 9.5639 11.3669L11.8945 9.67326C12.1585 9.48094 12.5171 9.48094 12.7811 9.67326L15.1117 11.3669C15.3764 11.5586 15.4873 11.8996 15.3862 12.2105Z" fill="white"/>
</g>
</g>
</g>
<path d="M16.0023 3.40112C15.9391 3.58431 15.8002 3.74078 15.6047 3.82095L12.6058 5.04851C12.5197 5.08372 12.4291 5.10133 12.3379 5.10133C12.2466 5.10133 12.156 5.08372 12.0699 5.04851L9.07111 3.82095C8.87553 3.74078 8.73667 3.58431 8.67342 3.40112C8.60691 3.21467 8.61864 3.00084 8.72688 2.81372L9.52482 1.43035C10.4264 1.21196 11.3691 1.09592 12.3379 1.09592C13.3066 1.09592 14.2493 1.21196 15.1509 1.43035L15.9488 2.81372C16.0571 3.00084 16.0688 3.21467 16.0023 3.40112Z" fill="#3C4A59"/>
<path d="M12.3378 5.2969C12.2201 5.2969 12.1051 5.27424 11.9958 5.22954L8.99693 4.00195C8.75772 3.90386 8.57244 3.70816 8.48846 3.46493C8.40041 3.21807 8.42534 2.94432 8.55748 2.7158L9.39721 1.26L9.47871 1.24026C10.4099 1.01471 11.3718 0.90033 12.3378 0.90033C13.3038 0.90033 14.2657 1.01471 15.1969 1.24026L15.2784 1.26L16.1182 2.71598C16.2501 2.94402 16.2751 3.21735 16.1868 3.46581C16.1027 3.70862 15.9176 3.90398 15.6788 4.00186L12.6799 5.22948C12.5705 5.27421 12.4554 5.2969 12.3378 5.2969ZM9.65202 1.60105L8.89618 2.91144C8.82151 3.04057 8.80746 3.19502 8.85753 3.33538C8.90546 3.47427 9.01008 3.58457 9.14518 3.63996L12.1439 4.86749C12.2679 4.91823 12.4076 4.91823 12.5316 4.86749L15.5304 3.63993C15.6654 3.5846 15.77 3.47427 15.8173 3.33729L15.8179 3.33538C15.868 3.19498 15.854 3.04057 15.7794 2.91162L15.0234 1.60102C14.1477 1.39559 13.2446 1.29145 12.3377 1.29145C11.4308 1.29145 10.5278 1.39562 9.65202 1.60105Z" fill="#181818"/>
<path d="M21.5209 20.5753C20.3044 22.0486 18.7398 23.2247 16.9528 23.9764L15.5512 23.372C15.3361 23.2788 15.1926 23.0937 15.1438 22.8851C15.1027 22.713 15.1261 22.5245 15.2259 22.3583L16.8968 19.5824C16.9548 19.4866 17.0337 19.4064 17.1269 19.3484C17.1875 19.3099 17.2547 19.2812 17.3258 19.2623L20.4641 18.4546C20.6525 18.4057 20.8409 18.4383 20.9948 18.5276H20.9954C21.1793 18.6358 21.3149 18.8249 21.3422 19.0563L21.5209 20.5753Z" fill="#3C4A59"/>
<path d="M16.9518 24.1889L15.4737 23.5517C15.2085 23.4368 15.019 23.2101 14.9533 22.9297C14.8986 22.7006 14.9357 22.4617 15.0581 22.2577L16.7291 19.4816C16.803 19.3596 16.9046 19.2563 17.0235 19.1824C17.0986 19.1347 17.1838 19.0977 17.2753 19.0734L20.4152 18.2653C20.6275 18.2102 20.8488 18.234 21.044 18.3321H21.0479L21.0945 18.3591C21.3418 18.5047 21.5029 18.7505 21.5363 19.0334L21.7247 20.6355L21.6715 20.6999C20.427 22.2072 18.8215 23.4026 17.0285 24.1568L16.9518 24.1889ZM20.6411 18.6275C20.5984 18.6275 20.5555 18.633 20.5131 18.6439L17.3744 19.4517C17.323 19.4654 17.2745 19.4864 17.2316 19.5135C17.1633 19.556 17.1058 19.6146 17.064 19.6837L15.3934 22.4592C15.3241 22.5746 15.3029 22.7099 15.3339 22.8397C15.3713 22.9992 15.4787 23.1275 15.6289 23.1926L16.9533 23.7636C18.6321 23.0431 20.1378 21.9221 21.3167 20.5148L21.1479 19.0792C21.1295 18.9233 21.0422 18.787 20.9077 18.7032L20.8965 18.6968C20.8175 18.651 20.7298 18.6275 20.6411 18.6275Z" fill="#181818"/>
<path d="M9.37867 22.8395V22.8401C9.32328 23.0546 9.16877 23.2404 8.94189 23.3251L7.48158 23.8714C5.75725 23.1002 4.25001 21.9307 3.07721 20.4801V20.4795L3.37121 18.7291C3.39663 18.5778 3.4677 18.4468 3.56742 18.347L3.56809 18.3464C3.74671 18.1684 4.01597 18.0902 4.27806 18.171L7.3727 19.1333C7.43788 19.1535 7.49917 19.1828 7.55525 19.2206C7.65108 19.2839 7.72998 19.3712 7.78537 19.4742L9.31672 22.3297C9.40475 22.494 9.42104 22.6745 9.37867 22.8395Z" fill="#3C4A59"/>
<path d="M7.47501 24.0827L7.40176 24.05C5.67015 23.2755 4.12218 22.0836 2.92514 20.6031L2.88165 20.5493V20.4638L2.88434 20.4471L3.17834 18.6967C3.20968 18.5102 3.29641 18.3415 3.42916 18.2087C3.66786 17.9709 4.01487 17.8852 4.3357 17.9841L7.43077 18.9465C7.514 18.9723 7.59272 19.01 7.66464 19.0585C7.78494 19.1379 7.88684 19.2499 7.95761 19.3815L9.48908 22.2372C9.59228 22.4298 9.62217 22.6508 9.57424 22.8626V22.8649L9.56802 22.889C9.4944 23.1738 9.28595 23.4053 9.01032 23.5083L7.47501 24.0827ZM3.28468 20.4251C4.41835 21.8058 5.86896 22.922 7.48861 23.66L8.8734 23.142C9.02891 23.0839 9.14268 22.9597 9.18686 22.8005L9.18931 22.7908C9.22122 22.6666 9.20527 22.5356 9.14441 22.422L7.61308 19.5667C7.57298 19.4921 7.51572 19.4288 7.4476 19.3839C7.40581 19.3557 7.36172 19.3346 7.31491 19.3201L4.22006 18.3578C4.03826 18.3018 3.84123 18.3504 3.70621 18.485C3.63094 18.5603 3.58195 18.6557 3.56418 18.7615L3.28468 20.4251Z" fill="#181818"/>
<path d="M24.2203 12.2849L23.1511 13.5001C23.0019 13.6695 22.7919 13.7491 22.5853 13.7393C22.4008 13.7295 22.2195 13.6487 22.0872 13.4961L19.9639 11.0482C19.9091 10.9849 19.8661 10.9126 19.8374 10.8356V10.835C19.8022 10.7418 19.7865 10.642 19.7924 10.541L19.9958 7.30683C20.0134 7.02063 20.1973 6.78921 20.443 6.69338C20.5643 6.64515 20.7005 6.63017 20.8394 6.65818L22.6309 7.01609C23.5423 8.58066 24.1075 10.3721 24.2203 12.2849Z" fill="#3C4A59"/>
<path d="M22.6198 13.9357C22.6053 13.9357 22.5907 13.9353 22.5761 13.9346C22.3274 13.9215 22.1017 13.8113 21.9395 13.6243L19.8162 11.1763C19.7458 11.0949 19.6913 11.0033 19.6542 10.9039L19.6419 10.8685C19.6056 10.759 19.5905 10.6452 19.5973 10.5296L19.8007 7.29449C19.8222 6.94567 20.0464 6.63807 20.3721 6.51109C20.5318 6.44751 20.7073 6.43195 20.8782 6.4664L22.7556 6.84151L22.8 6.9176C23.7461 8.54184 24.3047 10.3938 24.4156 12.2734L24.4203 12.3537L23.298 13.6292C23.1252 13.8255 22.88 13.9357 22.6198 13.9357ZM20.027 10.7834C20.0475 10.8328 20.0759 10.8787 20.1118 10.9201L22.235 13.3679C22.327 13.474 22.4551 13.5365 22.5957 13.544C22.7516 13.5511 22.901 13.4883 23.0044 13.3708L24.0201 12.2164C23.9039 10.4545 23.3813 8.72044 22.5059 7.19048L20.8012 6.84991C20.7045 6.83039 20.6058 6.83909 20.5154 6.87505C20.3301 6.94733 20.2033 7.1213 20.1911 7.31879L19.9877 10.5532C19.9835 10.6253 19.9945 10.6972 20.0204 10.7659L20.027 10.7834Z" fill="#181818"/>
<path d="M4.85372 10.8304C4.84003 10.9595 4.79048 11.0821 4.70964 11.1857L2.71869 13.7419C2.56744 13.9362 2.33862 14.0281 2.1137 14.0124C1.94683 14.002 1.78383 13.9323 1.65606 13.8019L0.441528 12.5606C0.510639 10.6537 1.02893 8.86032 1.89271 7.2846L3.60465 6.84782C3.77088 6.80545 3.93712 6.82567 4.0799 6.89345C4.29244 6.9932 4.45214 7.19724 4.48149 7.4515L4.85439 10.67C4.86089 10.7235 4.86089 10.7776 4.85372 10.8304Z" fill="#3C4A59"/>
<path d="M2.16292 14.2097C2.14207 14.2097 2.12113 14.209 2.10012 14.2075C1.88055 14.1938 1.67274 14.0983 1.51638 13.9387L0.243042 12.6374L0.246094 12.5535C0.314902 10.655 0.81119 8.85064 1.72121 7.19062L1.76206 7.11613L3.55632 6.65834C3.75958 6.60654 3.97531 6.6273 4.16385 6.71681C4.44809 6.85023 4.63977 7.11664 4.67582 7.42911L5.04869 10.6476C5.05709 10.7164 5.05691 10.7862 5.04797 10.8539C5.02998 11.0183 4.96637 11.1746 4.86393 11.306L2.87304 13.8621C2.70133 14.0826 2.43945 14.2097 2.16292 14.2097ZM0.640331 12.4841L1.79588 13.6651C1.88566 13.7567 1.99983 13.8093 2.12593 13.8172C2.29652 13.8291 2.45991 13.756 2.56441 13.6217L4.55539 11.0655C4.61354 10.991 4.64944 10.9026 4.65929 10.8098L4.65998 10.8041C4.66479 10.7686 4.66491 10.7315 4.66028 10.6937L4.28726 7.47404C4.26683 7.29711 4.15829 7.14632 3.99686 7.07053C3.88828 7.01894 3.76961 7.00761 3.65302 7.03735L2.02382 7.45301C1.18228 9.0141 0.717027 10.706 0.640331 12.4841Z" fill="#181818"/>
<path d="M17.2789 19.227L14.8304 16.1212L14.5233 16.3634L16.9718 19.4692L17.2789 19.227Z" fill="#181818"/>
<path d="M10.0565 16.3636L9.74933 16.1214L7.40169 19.0993L7.70887 19.3414L10.0565 16.3636Z" fill="#181818"/>
<path d="M12.5334 5.04852H12.1422V9.00063H12.5334V5.04852Z" fill="#181818"/>
<path d="M8.57072 11.6183L4.90253 10.6415L4.80188 11.0195L8.47007 11.9963L8.57072 11.6183Z" fill="#181818"/>
<path d="M19.8877 11.0259L19.7871 10.6479L16.1369 11.6194L16.2375 11.9974L19.8877 11.0259Z" fill="#181818"/>
<g opacity="0.3">
<g opacity="0.3">
<g opacity="0.3">
<path opacity="0.3" d="M15.9174 11.395L19.8018 10.3929L19.9489 10.7678L16.2276 11.6859L15.9174 11.395Z" fill="#181818"/>
</g>
</g>
</g>
<g opacity="0.3">
<g opacity="0.3">
<g opacity="0.3">
<path opacity="0.3" d="M4.85925 10.2789L8.87618 11.2934L8.62189 11.807L4.9005 10.7569L4.85925 10.2789Z" fill="#181818"/>
</g>
</g>
</g>
<g opacity="0.3">
<g opacity="0.3">
<g opacity="0.3">
<path opacity="0.3" d="M22.1499 13.6007C22.0325 15.5093 21.4387 17.0942 20.4861 18.4494L20.9946 18.5276C21.9072 16.9687 22.5219 15.3808 22.5853 13.7393L22.1499 13.6007Z" fill="#181818"/>
</g>
</g>
</g>
<g opacity="0.3">
<g opacity="0.3">
<g opacity="0.3">
<path opacity="0.3" d="M14.2284 16.521L16.7929 19.7548L16.9583 19.2468L14.5489 16.2426L14.2284 16.521Z" fill="#181818"/>
</g>
</g>
</g>
<g opacity="0.3">
<g opacity="0.3">
<g opacity="0.3">
<path opacity="0.3" d="M23.3918 17.4246C22.9315 18.5746 22.2972 19.6359 21.5208 20.5754C21.3722 20.7553 21.2183 20.9307 21.0599 21.1014C20.0442 22.0493 18.8616 22.8206 17.5617 23.3675C16.1424 23.9647 14.583 24.2952 12.9467 24.2952C11.2172 24.2952 9.57369 23.9262 8.09057 23.2626C6.36624 22.4913 4.859 21.3218 3.6862 19.8713V19.8706C2.03294 17.8268 1.04266 15.2244 1.04266 12.3911C1.04266 12.2438 1.04526 12.0978 1.05049 11.9517C1.1196 10.0449 1.63789 8.25144 2.50164 6.67576C2.89672 5.95603 3.36352 5.28127 3.89287 4.66196C3.8883 4.67435 3.88308 4.68607 3.87918 4.69846C3.8544 4.75975 3.83092 4.82167 3.80877 4.88425C3.8055 4.89141 3.8029 4.89794 3.80094 4.9051C3.77683 4.96962 3.75334 5.03483 3.73116 5.10068C3.7227 5.12546 3.71421 5.15024 3.70575 5.17499C3.68686 5.22844 3.66925 5.28257 3.65229 5.33666C3.6451 5.35688 3.63924 5.37706 3.63274 5.39728C3.61385 5.45593 3.5956 5.51528 3.57732 5.57524C3.57082 5.59675 3.56496 5.61891 3.55843 5.64042C3.54214 5.69521 3.52649 5.74996 3.5115 5.80472C3.50105 5.84189 3.49062 5.8797 3.48086 5.9175C3.46977 5.95727 3.45934 5.99704 3.44955 6.03744C3.43 6.11111 3.41175 6.18476 3.39477 6.2591C3.37848 6.32691 3.36282 6.39535 3.3485 6.46443C3.28199 6.76953 3.22723 7.07921 3.18486 7.39276C3.18096 7.41948 3.1777 7.44689 3.17444 7.4736C3.17117 7.49705 3.16794 7.5212 3.16531 7.54468C3.16075 7.57922 3.15685 7.61442 3.15292 7.64963C3.14836 7.69266 3.14313 7.73569 3.13923 7.77869C3.1386 7.78455 3.13793 7.79045 3.1373 7.79631C3.12947 7.87648 3.12164 7.95735 3.11578 8.03752C3.11185 8.08055 3.10862 8.12358 3.10599 8.16658C3.09687 8.29761 3.08967 8.42864 3.08514 8.561C3.07994 8.70705 3.07731 8.85307 3.07731 9.00042C3.07731 11.8337 4.06759 14.4361 5.72085 16.4799V16.4805C6.2789 17.1709 6.91257 17.7968 7.60948 18.347L9.53395 15.9206L9.81166 16.1787L7.95304 18.6091C8.6265 19.1026 9.35466 19.527 10.1252 19.8719C11.6084 20.5355 13.2519 20.9045 14.9814 20.9045C16.6177 20.9045 18.1771 20.574 19.5963 19.9768C21.0247 19.3758 22.3115 18.5035 23.3918 17.4246Z" fill="#181818"/>
</g>
</g>
</g>
<g opacity="0.19">
<g opacity="0.19">
<g opacity="0.19">
<path opacity="0.19" d="M4.42916 10.3661C4.41895 10.4625 4.38196 10.554 4.32165 10.6314L3.68569 11.4478C3.59908 9.87179 2.87068 8.59456 1.92621 8.30551C2.01671 8.106 2.1145 7.91088 2.21912 7.71965L3.49687 7.39365C3.62095 7.36204 3.74504 7.37712 3.85159 7.42771C4.01024 7.50217 4.12942 7.65444 4.1513 7.84422L4.42962 10.2465C4.43451 10.2864 4.43451 10.3267 4.42916 10.3661Z" fill="white"/>
</g>
</g>
</g>
<g opacity="0.19">
<g opacity="0.19">
<g opacity="0.19">
<path opacity="0.19" d="M20.9628 20.4779C20.9447 20.4998 20.9262 20.5217 20.9077 20.5437C20.4177 20.3951 19.8537 20.3104 19.2526 20.3104C18.3043 20.3104 17.4471 20.5213 16.8304 20.8617L17.508 19.7361C17.5513 19.6645 17.6102 19.6046 17.6799 19.5613C17.7252 19.5325 17.7754 19.5111 17.8285 19.497L20.1732 18.8935C20.314 18.8569 20.4547 18.8813 20.5697 18.948H20.5702C20.7075 19.0289 20.8088 19.1701 20.8293 19.343L20.9628 20.4779Z" fill="white"/>
</g>
</g>
</g>
<g opacity="0.15">
<g opacity="0.15">
<g opacity="0.15">
<path opacity="0.15" d="M8.56517 22.3302C7.83194 22.2255 7.0127 21.8896 6.25063 21.3358C5.27066 20.6234 4.60418 19.7102 4.37134 18.8765C4.3879 18.8803 4.40391 18.8846 4.42044 18.8894L6.95555 19.6776C7.00895 19.6942 7.05914 19.7182 7.10508 19.7492C7.18359 19.801 7.24819 19.8725 7.29358 19.9569L8.54807 22.296C8.55396 22.3072 8.55982 22.3184 8.56517 22.3302Z" fill="white"/>
</g>
</g>
</g>
<g opacity="0.19">
<g opacity="0.19">
<g opacity="0.19">
<path opacity="0.19" d="M23.3312 9.02953C23.1269 8.39849 22.8569 7.79728 22.5288 7.234L21.1392 6.95641C21.0315 6.93465 20.9259 6.94628 20.8318 6.9837C20.6412 7.05803 20.4986 7.23754 20.4849 7.45949L20.4187 8.51073C20.7527 8.35259 21.1147 8.26577 21.4806 8.25791C21.513 8.43448 21.7128 8.63067 21.9957 8.7416C22.3533 8.88182 22.707 8.83268 22.7857 8.63187C22.7896 8.62199 22.7921 8.61181 22.7946 8.6016C22.996 8.72072 23.1758 8.86507 23.3312 9.02953Z" fill="white"/>
</g>
</g>
</g>
<g opacity="0.19">
<g opacity="0.19">
<g opacity="0.19">
<path opacity="0.19" d="M20.7612 16.2607C20.3111 17.2473 19.3936 17.795 18.7119 17.4841C18.0302 17.1731 18.8089 16.5243 19.259 15.5377C19.7091 14.5511 19.6601 13.6002 20.3418 13.9111C21.0234 14.2221 21.2112 15.2741 20.7612 16.2607Z" fill="#181818"/>
</g>
</g>
</g>
<g opacity="0.19">
<g opacity="0.19">
<g opacity="0.19">
<path opacity="0.19" d="M6.78365 5.66981C7.65039 5.01808 8.71809 4.9752 9.16842 5.57405C9.61874 6.1729 8.62466 6.37083 7.75791 7.02257C6.89117 7.67433 6.47998 8.5331 6.02968 7.93425C5.57939 7.3354 5.91688 6.32158 6.78365 5.66981Z" fill="#181818"/>
</g>
</g>
</g>
<g opacity="0.19">
<g opacity="0.19">
<g opacity="0.19">
<path opacity="0.19" d="M18.8966 12.8304C18.9642 12.8304 19.019 12.7756 19.019 12.708C19.019 12.6404 18.9642 12.5856 18.8966 12.5856C18.829 12.5856 18.7742 12.6404 18.7742 12.708C18.7742 12.7756 18.829 12.8304 18.8966 12.8304Z" fill="#181818"/>
</g>
</g>
</g>
<g opacity="0.19">
<g opacity="0.19">
<g opacity="0.19">
<path opacity="0.19" d="M17.3155 14.2015C17.4451 14.2015 17.5501 14.1176 17.5501 14.0142C17.5501 13.9107 17.4451 13.8268 17.3155 13.8268C17.186 13.8268 17.0809 13.9107 17.0809 14.0142C17.0809 14.1176 17.186 14.2015 17.3155 14.2015Z" fill="#181818"/>
</g>
</g>
</g>
<g opacity="0.19">
<g opacity="0.19">
<g opacity="0.19">
<path opacity="0.19" d="M7.09347 13.1701C7.11581 13.2585 7.19113 13.3157 7.2617 13.2978C7.33226 13.28 7.37135 13.1939 7.349 13.1055C7.32665 13.0172 7.25133 12.96 7.18077 12.9778C7.1102 12.9957 7.07112 13.0818 7.09347 13.1701Z" fill="#181818"/>
</g>
</g>
</g>
<g opacity="0.19">
<g opacity="0.19">
<g opacity="0.19">
<path opacity="0.19" d="M8.25345 9.52904C8.38301 9.52904 8.48804 9.44516 8.48804 9.34169C8.48804 9.23821 8.38301 9.15433 8.25345 9.15433C8.12389 9.15433 8.01886 9.23821 8.01886 9.34169C8.01886 9.44516 8.12389 9.52904 8.25345 9.52904Z" fill="#181818"/>
</g>
</g>
</g>
<g opacity="0.19">
<g opacity="0.19">
<g opacity="0.19">
<path opacity="0.19" d="M19.949 5.23589C20.0786 5.23589 20.1836 5.15201 20.1836 5.04853C20.1836 4.94506 20.0786 4.86118 19.949 4.86118C19.8194 4.86118 19.7144 4.94506 19.7144 5.04853C19.7144 5.15201 19.8194 5.23589 19.949 5.23589Z" fill="#181818"/>
</g>
</g>
</g>
<g opacity="0.19">
<g opacity="0.19">
<g opacity="0.19">
<path opacity="0.19" d="M17.8071 7.05638C17.8295 7.14474 17.9048 7.20188 17.9754 7.18402C18.046 7.16616 18.085 7.08006 18.0627 6.9917C18.0403 6.90335 17.965 6.84621 17.8944 6.86407C17.8238 6.88193 17.7848 6.96803 17.8071 7.05638Z" fill="#181818"/>
</g>
</g>
</g>
<g opacity="0.19">
<g opacity="0.19">
<g opacity="0.19">
<path opacity="0.19" d="M7.09537 3.08143C7.11773 3.16979 7.19306 3.22695 7.26362 3.2091C7.33418 3.19124 7.37326 3.10514 7.35091 3.01678C7.32855 2.92841 7.25322 2.87125 7.18266 2.88911C7.1121 2.90696 7.07302 2.99307 7.09537 3.08143Z" fill="#181818"/>
</g>
</g>
</g>
<g opacity="0.19">
<g opacity="0.19">
<g opacity="0.19">
<path opacity="0.19" d="M13.9422 6.07186C14.0098 6.07186 14.0646 6.01705 14.0646 5.94944C14.0646 5.88183 14.0098 5.82703 13.9422 5.82703C13.8746 5.82703 13.8198 5.88183 13.8198 5.94944C13.8198 6.01705 13.8746 6.07186 13.9422 6.07186Z" fill="#181818"/>
</g>
</g>
</g>
<g opacity="0.19">
<g opacity="0.19">
<g opacity="0.19">
<path opacity="0.19" d="M18.4435 3.64697C18.5111 3.64697 18.5659 3.59216 18.5659 3.52455C18.5659 3.45694 18.5111 3.40213 18.4435 3.40213C18.3759 3.40213 18.3211 3.45694 18.3211 3.52455C18.3211 3.59216 18.3759 3.64697 18.4435 3.64697Z" fill="#181818"/>
</g>
</g>
</g>
<g opacity="0.19">
<g opacity="0.19">
<g opacity="0.19">
<path opacity="0.19" d="M10.9388 17.8541C11.0064 17.8541 11.0612 17.7993 11.0612 17.7317C11.0612 17.6641 11.0064 17.6093 10.9388 17.6093C10.8712 17.6093 10.8163 17.6641 10.8163 17.7317C10.8163 17.7993 10.8712 17.8541 10.9388 17.8541Z" fill="#181818"/>
</g>
</g>
</g>
<g opacity="0.19">
<g opacity="0.19">
<g opacity="0.19">
<path opacity="0.19" d="M10.6102 7.43764C10.6779 7.43764 10.7327 7.38282 10.7327 7.3152C10.7327 7.24757 10.6779 7.19275 10.6102 7.19275C10.5426 7.19275 10.4878 7.24757 10.4878 7.3152C10.4878 7.38282 10.5426 7.43764 10.6102 7.43764Z" fill="#181818"/>
</g>
</g>
</g>
<g opacity="0.19">
<g opacity="0.19">
<g opacity="0.19">
<path opacity="0.19" d="M16.8305 16.5378C16.8981 16.5378 16.9529 16.483 16.9529 16.4154C16.9529 16.3477 16.8981 16.2929 16.8305 16.2929C16.7628 16.2929 16.708 16.3477 16.708 16.4154C16.708 16.483 16.7628 16.5378 16.8305 16.5378Z" fill="#181818"/>
</g>
</g>
</g>
<g opacity="0.19">
<g opacity="0.19">
<g opacity="0.19">
<path opacity="0.19" d="M5.5244 12.251C5.59201 12.251 5.64681 12.1962 5.64681 12.1286C5.64681 12.0609 5.59201 12.0061 5.5244 12.0061C5.45679 12.0061 5.40198 12.0609 5.40198 12.1286C5.40198 12.1962 5.45679 12.251 5.5244 12.251Z" fill="#181818"/>
</g>
</g>
</g>
<g opacity="0.19">
<g opacity="0.19">
<g opacity="0.19">
<path opacity="0.19" d="M6.23918 9.12304C6.30679 9.12304 6.36159 9.06823 6.36159 9.00062C6.36159 8.93301 6.30679 8.8782 6.23918 8.8782C6.17157 8.8782 6.11676 8.93301 6.11676 9.00062C6.11676 9.06823 6.17157 9.12304 6.23918 9.12304Z" fill="#181818"/>
</g>
</g>
</g>
<g opacity="0.19">
<g opacity="0.19">
<g opacity="0.19">
<path opacity="0.19" d="M7.55534 15.8336C7.62295 15.8336 7.67776 15.7788 7.67776 15.7112C7.67776 15.6436 7.62295 15.5888 7.55534 15.5888C7.48773 15.5888 7.43292 15.6436 7.43292 15.7112C7.43292 15.7788 7.48773 15.8336 7.55534 15.8336Z" fill="#181818"/>
</g>
</g>
</g>
<g opacity="0.19">
<g opacity="0.19">
<g opacity="0.19">
<path opacity="0.19" d="M15.1244 9.21345C15.2716 9.21345 15.391 9.11816 15.391 9.00061C15.391 8.88307 15.2716 8.78778 15.1244 8.78778C14.9772 8.78778 14.8579 8.88307 14.8579 9.00061C14.8579 9.11816 14.9772 9.21345 15.1244 9.21345Z" fill="#181818"/>
</g>
</g>
</g>
<g opacity="0.19">
<g opacity="0.19">
<g opacity="0.19">
<path opacity="0.19" d="M16.1874 5.59406C16.3346 5.59406 16.454 5.49877 16.454 5.38123C16.454 5.26368 16.3346 5.1684 16.1874 5.1684C16.0402 5.1684 15.9209 5.26368 15.9209 5.38123C15.9209 5.49877 16.0402 5.59406 16.1874 5.59406Z" fill="#181818"/>
</g>
</g>
</g>
<g opacity="0.19">
<g opacity="0.19">
<g opacity="0.19">
<path opacity="0.19" d="M4.85924 4.87479C5.00645 4.87479 5.12578 4.7795 5.12578 4.66196C5.12578 4.54442 5.00645 4.44913 4.85924 4.44913C4.71204 4.44913 4.59271 4.54442 4.59271 4.66196C4.59271 4.7795 4.71204 4.87479 4.85924 4.87479Z" fill="#181818"/>
</g>
</g>
</g>
<g opacity="0.19">
<g opacity="0.19">
<g opacity="0.19">
<path opacity="0.19" d="M18.0124 9.42725C18.1596 9.42725 18.279 9.33195 18.279 9.21439C18.279 9.09683 18.1596 9.00153 18.0124 9.00153C17.8652 9.00153 17.7459 9.09683 17.7459 9.21439C17.7459 9.33195 17.8652 9.42725 18.0124 9.42725Z" fill="#181818"/>
</g>
</g>
</g>
<g opacity="0.19">
<g opacity="0.19">
<g opacity="0.19">
<path opacity="0.19" d="M12.9188 18.6448C13.066 18.6448 13.1853 18.5495 13.1853 18.4319C13.1853 18.3144 13.066 18.2191 12.9188 18.2191C12.7716 18.2191 12.6522 18.3144 12.6522 18.4319C12.6522 18.5495 12.7716 18.6448 12.9188 18.6448Z" fill="#181818"/>
</g>
</g>
</g>
</svg>
