<svg width="28" height="30" viewBox="0 0 28 30" fill="none" xmlns="http://www.w3.org/2000/svg">
<path d="M21.3745 25.7755C21.308 25.7755 21.2422 25.747 21.1966 25.6922C21.1917 25.6867 21.1876 25.6819 21.1837 25.6772C21.104 25.5774 21.1201 25.4319 21.2199 25.3521C21.3183 25.2733 21.4613 25.2881 21.5417 25.3843C21.5469 25.3902 21.5514 25.3954 21.5555 25.4006C21.6348 25.5006 21.6181 25.6461 21.518 25.7255C21.4755 25.7592 21.4248 25.7755 21.3745 25.7755ZM21.1932 25.688C21.1934 25.6883 21.1936 25.6885 21.1938 25.6888C21.1935 25.6885 21.1933 25.6882 21.1932 25.688Z" fill="#111111"/>
<g opacity="0.2">
<g opacity="0.2">
<g opacity="0.2">
<path opacity="0.2" d="M25.1908 25.9082C24.9344 26.1215 24.5537 26.0866 24.3404 25.8302L22.3028 23.3805C22.0896 23.1241 22.1245 22.7433 22.3809 22.5301C22.6373 22.3168 23.018 22.3517 23.2312 22.6081L25.2688 25.0578C25.4821 25.3142 25.4472 25.6949 25.1908 25.9082Z" fill="white"/>
</g>
</g>
</g>
<path d="M23.6748 22.6943L20.8073 19.5435L20.6601 19.3817L20.5167 19.2236L20.2531 18.9337C19.5571 18.1682 18.3931 18.0541 17.5622 18.6708C17.1914 18.9461 16.9432 19.323 16.826 19.7339C16.8114 19.7832 16.7991 19.8334 16.789 19.8843C16.6742 20.4432 16.796 21.0476 17.176 21.5333L17.314 21.7106L20.3086 25.5312C19.2973 24.3332 18.0039 23.6934 16.5401 23.4066C16.4892 23.3966 16.4383 23.3873 16.3875 23.3781C15.7061 23.257 14.99 23.21 14.2484 23.2169C14.1952 23.2169 14.1421 23.2177 14.0889 23.2192C13.88 23.2231 13.6688 23.2308 13.4568 23.2431H13.4561C13.0391 23.3333 12.6243 23.3973 12.2166 23.432C12.1549 23.4374 12.0933 23.442 12.0324 23.4459C11.8458 23.4582 11.6608 23.4644 11.4782 23.4636C10.8653 23.4621 10.2579 23.3695 9.66442 23.1969C5.24221 21.9125 1.53227 16.2378 1.54379 11.3387C1.55767 5.19683 6.19185 1.71617 11.3548 2.0276C17.9014 2.42075 23.0019 7.68302 23.3349 12.7009C23.348 12.8813 23.3534 13.0609 23.3534 13.2398C23.3527 13.4965 23.3357 13.7524 23.3033 14.0076C23.2933 14.087 23.2817 14.1664 23.2687 14.2458C23.1916 14.7122 23.0644 15.1755 22.8925 15.6319C22.8262 15.9009 22.7661 16.1669 22.7137 16.4275C22.7037 16.4776 22.6937 16.5285 22.6844 16.5786C22.6327 16.8469 22.5888 17.1105 22.5526 17.3688C22.5457 17.422 22.538 17.4751 22.5318 17.5276C22.4763 17.967 22.4447 18.391 22.4393 18.7988C22.4385 18.8636 22.4378 18.9276 22.4393 18.9908V18.9915C22.4507 20.4756 22.8253 21.7329 23.6748 22.6943Z" fill="#F8BF71"/>
<g opacity="0.26">
<g opacity="0.26">
<g opacity="0.26">
<g opacity="0.26">
<g opacity="0.26">
<path opacity="0.26" d="M11.4671 21.8293C11.6559 22.3897 11.8501 22.971 12.2163 23.432C12.1546 23.4374 12.093 23.442 12.0321 23.4459C11.6906 22.9787 11.5033 22.4198 11.3214 21.8786C11.1379 21.3321 10.9483 20.7677 10.6022 20.3121C10.576 20.2782 10.5829 20.2296 10.6168 20.2042C10.6507 20.178 10.6985 20.1849 10.7247 20.2188C11.0863 20.6945 11.2797 21.2712 11.4671 21.8293Z" fill="#AC6C29"/>
</g>
</g>
</g>
<g opacity="0.26">
<g opacity="0.26">
<g opacity="0.26">
<path opacity="0.26" d="M22.7132 16.4275C22.7032 16.4776 22.6932 16.5285 22.6839 16.5786C22.5853 16.5632 22.4874 16.5408 22.391 16.5115C22.0488 16.4067 21.7258 16.2263 21.4136 16.0528C20.9157 15.7753 20.4447 15.5139 19.9128 15.5402C19.0919 15.581 18.4829 16.2903 17.9765 16.9517C17.4215 17.6771 16.808 18.3925 15.957 18.4758C15.7419 18.4966 15.5238 18.4743 15.3133 18.4519C15.0089 18.4203 14.7205 18.391 14.45 18.4843C13.8865 18.6786 13.6406 19.3407 13.6506 19.8735C13.6599 20.3476 13.8187 20.8132 13.9728 21.2642C14.0114 21.376 14.0492 21.4885 14.0854 21.6003C14.2357 22.0667 14.3814 22.6565 14.248 23.2169C14.1948 23.2169 14.1417 23.2176 14.0885 23.2192C14.2303 22.6849 14.0862 22.1044 13.9389 21.6481C13.9027 21.5363 13.8649 21.4253 13.8271 21.3135C13.6691 20.8517 13.5057 20.3745 13.4965 19.8766C13.4857 19.2899 13.7632 18.5583 14.3998 18.3386C14.7028 18.2338 15.0211 18.2669 15.3287 18.2985C15.5322 18.3201 15.7418 18.3417 15.9415 18.3224C16.7316 18.2445 17.319 17.5569 17.8539 16.8585C18.4197 16.1183 19.0602 15.4284 19.9051 15.386C20.4809 15.3567 20.9934 15.6419 21.4884 15.9179C21.7936 16.0883 22.1089 16.2641 22.4364 16.3635C22.5275 16.3913 22.62 16.4128 22.7132 16.4275Z" fill="#AC6C29"/>
</g>
</g>
</g>
</g>
<g opacity="0.26">
<g opacity="0.26">
<g opacity="0.26">
<g opacity="0.26">
<path opacity="0.26" d="M22.5524 17.3688C22.5454 17.422 22.5377 17.4752 22.5316 17.5276C22.4398 17.4891 22.3512 17.4444 22.2649 17.3943C22.1523 17.3287 22.0444 17.2532 21.9396 17.1799C21.7522 17.0481 21.575 16.9232 21.3715 16.8508C21.0708 16.7429 20.6685 16.803 20.5428 17.0859C20.4704 17.2485 20.505 17.4528 20.5336 17.6163L20.7671 18.9623C20.801 19.1596 20.8249 19.3601 20.8072 19.5435C20.791 19.7201 20.7355 19.8804 20.6152 20.0107C20.4156 20.2258 20.1057 20.2697 19.8305 20.2936C19.1784 20.3514 18.4816 20.3808 17.8056 20.2111C17.5867 20.1564 17.367 20.0809 17.155 20.0068C17.0317 19.9645 16.9091 19.9221 16.7889 19.8842C16.395 19.7594 16.0134 19.6784 15.6249 19.764C15.4777 19.7956 15.2094 19.885 15.0684 20.1155C14.8764 20.4316 15.0221 20.8656 15.2526 21.1555C15.3744 21.3089 15.5232 21.4468 15.6665 21.581C15.8161 21.7198 15.971 21.8631 16.1013 22.0281C16.4057 22.4159 16.5622 22.9147 16.5399 23.4065C16.489 23.3965 16.4381 23.3873 16.3873 23.378C16.4019 22.9293 16.2578 22.4768 15.9795 22.1237C15.857 21.968 15.7066 21.8285 15.5617 21.6935C15.4137 21.5563 15.2611 21.4137 15.1316 21.2511C14.8872 20.9435 14.6899 20.4408 14.9373 20.0353C15.0637 19.828 15.2957 19.6776 15.5918 19.6129C16.0095 19.5211 16.4227 19.6075 16.8258 19.7339C16.953 19.774 17.0794 19.8179 17.2051 19.8611C17.4148 19.9336 17.6306 20.0092 17.8433 20.0623C18.497 20.2258 19.1784 20.1965 19.8174 20.1402C20.0749 20.1171 20.34 20.0809 20.5027 19.9058C20.6299 19.7686 20.6645 19.5805 20.6599 19.3816C20.6568 19.2513 20.636 19.1172 20.6145 18.9885L20.3817 17.6424C20.3501 17.4582 20.31 17.2285 20.4017 17.0234C20.5635 16.6595 21.0577 16.5748 21.423 16.705C21.6466 16.7852 21.8408 16.9216 22.0281 17.0535C22.1299 17.1252 22.2355 17.1992 22.3426 17.2616C22.4105 17.3017 22.4807 17.3372 22.5524 17.3688Z" fill="#AC6C29"/>
</g>
</g>
</g>
</g>
<g opacity="0.26">
<g opacity="0.26">
<g opacity="0.26">
<g opacity="0.26">
<path opacity="0.26" d="M12.8698 22.6708C12.8442 22.6708 12.8188 22.6687 12.7936 22.6645C12.5302 22.6204 12.3639 22.3761 12.2616 22.1962C11.988 21.7146 11.6776 20.9854 11.753 20.2462C11.7573 20.2039 11.7945 20.1734 11.8375 20.1773C11.8799 20.1816 11.9107 20.2194 11.9064 20.2618C11.835 20.9606 12.1331 21.658 12.3957 22.12C12.4824 22.2726 12.6205 22.4792 12.8191 22.5125C12.9691 22.5377 13.1387 22.4511 13.2316 22.3023C13.3143 22.1697 13.3437 21.9888 13.3142 21.7927C13.2971 21.6788 13.2585 21.5733 13.2176 21.4617C13.1934 21.3955 13.1684 21.3271 13.1479 21.2562C13.0962 21.0771 13.0477 20.8874 13.0038 20.6924C12.9111 20.2807 12.864 19.8736 12.8638 19.4823C12.8637 19.4397 12.8982 19.4051 12.9408 19.4051H12.9409C12.9834 19.4051 13.0179 19.4396 13.0179 19.4822C13.0182 19.8621 13.064 20.2579 13.1542 20.6585C13.1974 20.8505 13.2452 21.0372 13.296 21.2134C13.315 21.2791 13.3391 21.345 13.3624 21.4087C13.4041 21.5227 13.4472 21.6405 13.4666 21.7698C13.5016 22.0022 13.4645 22.2203 13.3623 22.3839C13.2523 22.5603 13.058 22.6708 12.8698 22.6708Z" fill="#AC6C29"/>
</g>
</g>
</g>
</g>
<g opacity="0.26">
<g opacity="0.26">
<g opacity="0.26">
<g opacity="0.26">
<path opacity="0.26" d="M18.8043 17.4041C18.7985 17.4041 18.7926 17.4035 18.7868 17.402C18.7453 17.3924 18.7194 17.3509 18.7292 17.3095C18.8004 17.0038 18.9904 16.7275 19.2504 16.5516C19.5106 16.3758 19.8374 16.3023 20.1479 16.3502C20.19 16.3566 20.2189 16.396 20.2124 16.4381C20.2059 16.4802 20.1666 16.5087 20.1245 16.5026C19.8523 16.4606 19.5652 16.525 19.3368 16.6793C19.1085 16.8337 18.9418 17.0761 18.8792 17.3444C18.871 17.38 18.8393 17.4041 18.8043 17.4041Z" fill="#AC6C29"/>
</g>
</g>
</g>
</g>
<g opacity="0.26">
<g opacity="0.26">
<g opacity="0.26">
<g opacity="0.26">
<path opacity="0.26" d="M23.3029 14.0076C23.2929 14.087 23.2814 14.1664 23.2683 14.2459C23.2228 14.2898 23.1789 14.3361 23.1357 14.3815C23.0208 14.501 22.9021 14.6251 22.7595 14.7207C22.5584 14.8556 22.3186 14.925 22.0789 14.925C21.9271 14.925 21.7752 14.8973 21.6334 14.841C21.2665 14.6953 20.9851 14.3654 20.8972 13.9807C20.888 13.939 20.9142 13.8982 20.9558 13.8882C20.9975 13.8789 21.0383 13.9051 21.0476 13.9468C21.1239 14.2829 21.3706 14.5704 21.6905 14.6976C22.0111 14.8256 22.3873 14.7847 22.6733 14.5928C22.8028 14.5065 22.9099 14.3939 23.024 14.2752C23.1026 14.1927 23.1843 14.1079 23.273 14.0323C23.2829 14.0238 23.2929 14.0153 23.3029 14.0076Z" fill="#AC6C29"/>
</g>
</g>
</g>
</g>
<g opacity="0.26">
<g opacity="0.26">
<g opacity="0.26">
<g opacity="0.26">
<path opacity="0.26" d="M22.4391 18.7988C22.4383 18.8636 22.4375 18.9276 22.4391 18.9908C22.0413 18.7071 21.7415 18.3185 21.4516 17.9416C21.4262 17.9084 21.4324 17.8598 21.4655 17.8336C21.4994 17.8074 21.548 17.8144 21.5742 17.8475C21.8339 18.1859 22.1022 18.5344 22.4391 18.7988Z" fill="#AC6C29"/>
</g>
</g>
</g>
</g>
</g>
<g opacity="0.65">
<g opacity="0.65">
<g opacity="0.65">
<path opacity="0.65" d="M23.6749 22.6942L22.1333 20.9998C21.6692 19.5335 21.7841 17.7064 22.2951 15.6319C22.5903 14.8494 22.7538 14.0462 22.756 13.2398C22.756 13.061 22.7506 12.8813 22.7375 12.7009C22.4045 7.68305 17.304 2.42082 10.7574 2.02763C10.6464 2.02069 10.5362 2.01607 10.4268 2.01296C10.7335 2.0037 11.0434 2.00913 11.3549 2.02763C17.9014 2.42078 23.002 7.68305 23.335 12.7009C23.3481 12.8813 23.3535 13.0609 23.3535 13.2398C23.3511 14.0462 23.1877 14.8494 22.8925 15.6319C22.1595 18.6053 22.2412 21.0715 23.6749 22.6942Z" fill="white"/>
</g>
</g>
</g>
<g opacity="0.3">
<g opacity="0.3">
<g opacity="0.3">
<path opacity="0.3" d="M21.0795 24.105C20.1275 22.978 18.9266 22.3443 17.5684 22.0351L17.314 21.7106L17.176 21.5333C16.4862 20.6521 16.6465 19.3816 17.5252 18.6994C17.4843 19.1866 17.6208 19.69 17.9468 20.1071L18.0848 20.2844L21.0795 24.105Z" fill="#111111"/>
</g>
</g>
</g>
<path d="M23.3353 12.7009L9.66425 23.1968C5.24194 21.913 1.53204 16.2381 1.54342 11.339C1.55768 5.19715 6.19148 1.71642 11.3545 2.02754C17.9017 2.42049 23.0016 7.68303 23.3353 12.7009Z" fill="#E05958"/>
<path d="M23.3354 12.7007L23.3205 12.7122L23.2941 12.7322L22.7773 13.1289L22.7515 13.149L22.2347 13.5457L22.2083 13.5657L21.6921 13.9624L21.6658 13.9825L21.1489 14.3792L21.1232 14.3992L20.6063 14.7959L20.58 14.8165L20.0632 15.2127L20.0374 15.2333L19.5206 15.6294L19.4942 15.65L18.9774 16.0468L18.9517 16.0668L18.4348 16.4635L18.4085 16.4835L17.8916 16.8802L17.8659 16.9003L17.3491 17.297L17.3227 17.317L16.8064 17.7137L16.7801 17.7338L16.2638 18.1305L16.2375 18.1505L15.7201 18.5478L15.6949 18.5672L15.1775 18.9645L15.1511 18.9845L14.6349 19.3812L14.6085 19.4013L14.0922 19.798L14.0659 19.818L13.5491 20.2147L13.5233 20.2348L13.0065 20.6315L12.9802 20.6515L12.4633 21.0482L12.4376 21.0683L11.9207 21.465L11.8944 21.485L11.3776 21.8817L11.3512 21.9018L10.835 22.2985L10.8086 22.3185L10.3416 22.6774L10.2918 22.7152L9.66446 23.1972C9.66275 23.1966 9.661 23.1961 9.65929 23.1955C9.41087 23.1233 9.16478 23.0375 8.92152 22.9379C8.91007 22.9333 8.89804 22.9287 8.88604 22.9235C8.80877 22.8915 8.73208 22.8583 8.65539 22.8239C8.63478 22.8148 8.61358 22.8051 8.593 22.7953C8.46763 22.7381 8.34229 22.6768 8.21866 22.6122C8.20779 22.607 8.19692 22.6013 8.18659 22.5956C7.97941 22.4868 7.77506 22.3695 7.57358 22.2429C7.56384 22.2366 7.55412 22.2303 7.5438 22.2241C7.4053 22.1365 7.26793 22.0449 7.13226 21.9493C7.10194 21.9281 7.07161 21.9063 7.04184 21.8846C7.01951 21.8691 6.99773 21.8531 6.97599 21.8371C6.96682 21.8302 6.95708 21.8239 6.94795 21.817C6.7688 21.6848 6.59194 21.5457 6.41853 21.4009C6.40995 21.394 6.40137 21.3866 6.39279 21.3791C6.22451 21.2383 6.0591 21.0906 5.89653 20.9378C5.88853 20.9309 5.88049 20.9229 5.87249 20.9149C5.71392 20.7655 5.55881 20.6109 5.40656 20.4512C5.39856 20.4432 5.39111 20.4351 5.38369 20.4271C5.23428 20.2697 5.08836 20.1077 4.94583 19.9417C4.93838 19.9337 4.9315 19.9251 4.92409 19.9166C4.78326 19.7523 4.64592 19.584 4.51255 19.4117C4.50568 19.4031 4.49881 19.3939 4.49193 19.3853C4.35914 19.2141 4.23035 19.039 4.10501 18.861C4.09872 18.8518 4.0924 18.8432 4.08614 18.8341C3.96135 18.6566 3.8406 18.4757 3.72326 18.2914C3.71755 18.2822 3.7118 18.2725 3.70551 18.2634C3.58934 18.079 3.476 17.8918 3.36724 17.7024C3.36212 17.6927 3.35637 17.6829 3.35066 17.6738C3.24194 17.4826 3.13715 17.2891 3.03701 17.0939C3.03188 17.0836 3.02672 17.0738 3.02156 17.0641C2.92083 16.8667 2.82466 16.6669 2.73307 16.466C2.72849 16.4556 2.72391 16.4453 2.71878 16.435C2.63635 16.2524 2.55737 16.0681 2.48297 15.8827C2.46752 15.8443 2.45207 15.806 2.43719 15.7676C2.35531 15.5615 2.27921 15.3537 2.20823 15.1448C2.20478 15.1339 2.20081 15.123 2.19736 15.1122C2.12296 14.8924 2.05486 14.6714 1.99246 14.4499C1.98901 14.4384 1.98617 14.427 1.98272 14.4155C1.93752 14.2524 1.89516 14.0892 1.85622 13.9255C1.85051 13.8992 1.84418 13.8734 1.83847 13.8477C1.82934 13.8076 1.82015 13.7675 1.8116 13.7275C1.80873 13.7154 1.80644 13.704 1.80357 13.6925V13.692C1.7515 13.4527 1.70739 13.214 1.67078 12.9753C1.66907 12.9627 1.66674 12.9507 1.66507 12.9381C1.64103 12.7789 1.62041 12.6198 1.60383 12.4613C1.60154 12.4401 1.59925 12.4189 1.59696 12.3977C1.59009 12.3273 1.58322 12.2569 1.57751 12.1865C1.57693 12.1733 1.5758 12.1607 1.57467 12.1476C1.55405 11.8808 1.54376 11.6152 1.54376 11.3524V11.3106C1.54376 11.2906 1.54434 11.2712 1.54434 11.2517C1.54434 11.2334 1.54492 11.2156 1.54492 11.1979C1.54838 10.95 1.55921 10.7061 1.57812 10.4675C1.5787 10.4526 1.57983 10.4377 1.58099 10.4234C1.58728 10.3473 1.59416 10.2711 1.60216 10.1962C1.60332 10.1801 1.60503 10.1641 1.60732 10.1481C1.62964 9.93513 1.65768 9.72621 1.69204 9.52067C1.69433 9.50521 1.6972 9.48921 1.70004 9.47375C1.71266 9.39761 1.72637 9.32204 1.74069 9.24706C1.74353 9.23273 1.7464 9.21785 1.74927 9.20356C1.79792 8.95969 1.85458 8.72157 1.91868 8.48916C1.92326 8.47138 1.92842 8.45367 1.93359 8.4365C1.93817 8.41992 1.94275 8.40389 1.94733 8.38727C1.95133 8.3741 1.95533 8.36094 1.95875 8.34781C2.03373 8.09249 2.11787 7.84465 2.21117 7.60363C2.21575 7.59159 2.22033 7.57959 2.22546 7.56755C2.25753 7.48399 2.29128 7.40154 2.32622 7.32027C2.3348 7.29965 2.34396 7.27907 2.35312 7.25845C2.40748 7.13193 2.4653 7.00771 2.5254 6.88581C2.53057 6.87494 2.53628 6.86348 2.54202 6.85257C2.64848 6.63736 2.76295 6.42844 2.88487 6.22691C2.89116 6.21662 2.8969 6.20629 2.90319 6.19658C2.97359 6.08094 3.04628 5.96762 3.12183 5.85656C3.14071 5.82794 3.16019 5.79932 3.17965 5.77125C3.21456 5.72146 3.24946 5.67168 3.28553 5.62302C3.29182 5.61328 3.29869 5.60411 3.30557 5.59498C3.4389 5.41294 3.57857 5.23776 3.72394 5.06888C3.73139 5.0603 3.73823 5.05172 3.74627 5.04372C3.89109 4.87655 4.04163 4.71632 4.19845 4.56231C4.20645 4.55431 4.21449 4.54686 4.22249 4.53882C4.37873 4.38656 4.54072 4.24059 4.70784 4.10149C4.71642 4.09404 4.725 4.08717 4.73358 4.08033C4.90073 3.94123 5.07301 3.80955 5.25042 3.6842C5.259 3.67787 5.26816 3.67161 5.27733 3.66529C5.45535 3.53994 5.63847 3.42201 5.82624 3.31098C5.83598 3.30466 5.84511 3.29894 5.85485 3.29378C6.04371 3.18214 6.23719 3.07741 6.43463 2.98009C6.44496 2.97551 6.45467 2.97038 6.46496 2.96576C6.66469 2.8679 6.86904 2.77746 7.07681 2.69444C7.0871 2.68983 7.09801 2.68582 7.10888 2.68186C7.19989 2.6452 7.29148 2.61087 7.38362 2.57767C7.4174 2.5656 7.45118 2.5536 7.48493 2.54218C7.57365 2.51127 7.6635 2.48152 7.75338 2.45345C7.76425 2.44999 7.77571 2.44657 7.78716 2.44312C8.0098 2.37388 8.23647 2.31319 8.46599 2.2605C8.47802 2.25766 8.48944 2.25479 8.50148 2.25249C8.69666 2.20842 8.89414 2.17009 9.09387 2.13801C9.1162 2.13401 9.1391 2.13056 9.16198 2.12714C9.1803 2.12427 9.19859 2.12143 9.2175 2.11856C9.23008 2.11685 9.24212 2.11511 9.2547 2.11285C9.50425 2.07678 9.75724 2.04987 10.0119 2.0327C10.0251 2.03154 10.0382 2.03096 10.0514 2.02983C10.163 2.02296 10.2758 2.01725 10.3886 2.01379C10.4074 2.01321 10.4263 2.01266 10.4452 2.01205C10.5809 2.00863 10.7171 2.00808 10.8539 2.00979C10.8676 2.00979 10.8819 2.00979 10.8956 2.01037C11.0479 2.01324 11.2013 2.01899 11.3547 2.02812C11.3994 2.03099 11.4446 2.03386 11.4892 2.03732C11.5058 2.0379 11.5224 2.03903 11.539 2.04077C11.6094 2.0459 11.6798 2.05161 11.7497 2.05794C11.7645 2.05907 11.7794 2.06081 11.7943 2.06194C12.0244 2.08368 12.2533 2.11114 12.4794 2.14496C12.4949 2.14725 12.5098 2.14954 12.5252 2.15183C12.5841 2.16041 12.6431 2.17012 12.7021 2.17983C12.7181 2.18212 12.7336 2.185 12.749 2.18784C12.9648 2.22391 13.1783 2.26569 13.3895 2.31261C13.4038 2.31548 13.4175 2.31835 13.4318 2.3218C13.5286 2.34355 13.6248 2.36646 13.7209 2.3905C13.7381 2.3945 13.7553 2.3985 13.7724 2.40308C13.9281 2.44203 14.0826 2.48436 14.236 2.52956C14.2492 2.53302 14.2624 2.53643 14.2755 2.54102C14.4615 2.59542 14.6458 2.65437 14.8284 2.71732C14.8473 2.72364 14.8662 2.72993 14.8851 2.73677C14.9332 2.75335 14.9807 2.77001 15.0282 2.78717C15.0402 2.79175 15.0528 2.79634 15.0648 2.80088C15.304 2.88791 15.5399 2.98177 15.7722 3.08137C15.7836 3.08653 15.7951 3.0917 15.8071 3.09628C15.8924 3.13348 15.9777 3.17127 16.0624 3.21079C16.0841 3.2205 16.1053 3.23021 16.1271 3.24054C16.2438 3.29433 16.3595 3.35044 16.474 3.40771C16.4848 3.41284 16.4957 3.41859 16.5066 3.4243C16.7212 3.5319 16.9313 3.64467 17.1379 3.7626C17.1482 3.76835 17.1585 3.77464 17.1688 3.78038C17.2833 3.8462 17.3966 3.91319 17.5082 3.98188C17.5345 3.99792 17.5603 4.01396 17.586 4.03054C17.6467 4.06774 17.7068 4.10611 17.7669 4.14447C17.7766 4.15077 17.7864 4.15706 17.7961 4.16335C17.989 4.2887 18.1779 4.41809 18.3627 4.55147C18.3719 4.55835 18.3811 4.56464 18.3902 4.57151C18.5734 4.70432 18.7525 4.84112 18.9271 4.98196C18.9363 4.9888 18.9448 4.99626 18.9534 5.00313C19.1274 5.14339 19.2969 5.28762 19.4617 5.43533C19.4703 5.44279 19.4783 5.45024 19.4863 5.45763C19.488 5.45879 19.4897 5.45992 19.4909 5.46163C19.5367 5.50225 19.5813 5.54294 19.626 5.58414C19.7421 5.69175 19.8561 5.80052 19.9677 5.911C19.9751 5.91903 19.9831 5.92645 19.9912 5.93449C20.1463 6.08962 20.2974 6.24759 20.4439 6.40847C20.4513 6.41647 20.4588 6.42506 20.4662 6.43309C20.6127 6.59565 20.7547 6.76049 20.8915 6.92821C20.8984 6.93679 20.9052 6.94479 20.9121 6.95341C21.0495 7.12284 21.1822 7.29514 21.3093 7.46973C21.3162 7.47893 21.3225 7.48751 21.3288 7.49664C21.4576 7.67352 21.5801 7.85269 21.6974 8.03415C21.7036 8.04335 21.7094 8.05306 21.7157 8.06219C21.8341 8.24707 21.9475 8.43428 22.0539 8.62317C22.0597 8.63236 22.0648 8.64208 22.0706 8.65179C22.1633 8.81725 22.252 8.98438 22.3356 9.15265C22.3608 9.20305 22.3854 9.25342 22.4094 9.30378C22.5004 9.49441 22.5857 9.6862 22.6641 9.87908C22.6682 9.88937 22.6727 9.90025 22.6767 9.91057C22.7626 10.1229 22.8404 10.3365 22.9103 10.5511C22.9143 10.5625 22.9177 10.5734 22.9211 10.5843C22.9938 10.8081 23.0568 11.0325 23.1111 11.2575C23.1146 11.269 23.1174 11.281 23.1197 11.293C23.1226 11.3045 23.1254 11.3159 23.1277 11.3273C23.1346 11.3537 23.1403 11.38 23.1461 11.4064C23.1913 11.6061 23.2291 11.8053 23.2594 12.0051C23.2611 12.0177 23.2628 12.0303 23.2646 12.0424C23.297 12.2617 23.321 12.4815 23.3354 12.7007Z" fill="#FF5722"/>
<g opacity="0.25">
<g opacity="0.25">
<g opacity="0.25">
<path opacity="0.25" d="M22.977 12.26L23.2643 12.0419C23.2626 12.0299 23.2609 12.0173 23.2592 12.0047L22.957 12.2342L22.5632 11.715L23.0817 11.3212L23.1458 11.4059C23.1401 11.3796 23.1344 11.3533 23.1275 11.3269L23.108 11.3011L23.1195 11.2926C23.1172 11.2805 23.1144 11.2685 23.1109 11.2571L23.088 11.2748L22.6943 10.7562L22.9209 10.5839C22.9175 10.573 22.914 10.5621 22.91 10.5507L22.6742 10.7298L22.2804 10.2112L22.6765 9.91013C22.6725 9.89981 22.6679 9.88893 22.6639 9.87864L22.2604 10.1849L21.866 9.66627L22.3851 9.27185L22.4092 9.30334C22.3851 9.25298 22.3605 9.20261 22.3353 9.15221L21.9971 8.70687L22.0703 8.65134C22.0646 8.64163 22.0595 8.63192 22.0537 8.62273L21.9776 8.68054L21.5832 8.1619L21.7154 8.06172C21.7092 8.05256 21.7034 8.04284 21.6971 8.03368L21.5632 8.13557L21.1694 7.61693L21.3285 7.49616C21.3222 7.487 21.3159 7.47842 21.3091 7.46925L21.1494 7.59064L20.7556 7.07199L20.9118 6.95297C20.905 6.94435 20.8981 6.93635 20.8912 6.92777L20.7355 7.0457L20.3417 6.52706L20.4659 6.43262C20.4585 6.42462 20.451 6.41603 20.4436 6.408L20.3217 6.50073L19.9273 5.98209L19.9908 5.93401C19.9828 5.92601 19.9748 5.91859 19.9674 5.91052L19.9078 5.95576L19.6257 5.58367C19.581 5.54247 19.5364 5.50178 19.4906 5.46115L19.8815 5.9758L19.3624 6.36963L18.9686 5.85102L19.486 5.45716C19.478 5.44974 19.47 5.44228 19.4614 5.43486L18.9485 5.82466L18.5548 5.30544L18.9531 5.00266C18.9445 4.99579 18.936 4.98833 18.9268 4.98149L18.5347 5.27972L18.1409 4.7605L18.3899 4.57104C18.3808 4.56416 18.3716 4.55787 18.3624 4.551L18.1209 4.73475L17.7265 4.21553L17.7958 4.16287C17.786 4.15658 17.7763 4.15029 17.7666 4.144L17.7071 4.1892L17.5857 4.03007C17.56 4.01348 17.5342 3.99745 17.5079 3.98141L17.6807 4.20924L17.1622 4.60362L16.7678 4.08444L17.1685 3.77991C17.1582 3.77417 17.1479 3.76787 17.1376 3.76213L16.7478 4.05807L16.354 3.53946L16.5063 3.42382C16.4954 3.41811 16.4845 3.41237 16.4737 3.40724L16.334 3.51317L16.1268 3.2401C16.1051 3.22978 16.0839 3.22006 16.0621 3.21035L16.3077 3.5332L15.7891 3.92701L15.3948 3.4084L15.8069 3.09584C15.7948 3.09126 15.7834 3.08613 15.772 3.08093L15.3753 3.38204L14.9809 2.86343L15.0645 2.80045C15.0525 2.79586 15.0399 2.79128 15.0279 2.78673L14.9615 2.8371L14.8848 2.73637C14.8659 2.72953 14.847 2.7232 14.8281 2.71691L14.9352 2.85717L14.416 3.25104L14.0222 2.7324L14.2752 2.54065C14.2621 2.53606 14.2489 2.53265 14.2357 2.52919L14.0022 2.70611L13.7721 2.40271C13.755 2.39813 13.7378 2.39413 13.7206 2.39013L13.9759 2.72615L13.4573 3.11998L13.0635 2.60137L13.4315 2.32143C13.4172 2.31798 13.4035 2.31511 13.3892 2.31223L13.0435 2.57501L12.7487 2.18746C12.7333 2.18463 12.7178 2.18175 12.7018 2.17946L13.0172 2.59504L12.4986 2.98888L12.1042 2.47028L12.5249 2.15146C12.5095 2.14917 12.4946 2.14688 12.4792 2.14459L12.0842 2.44395L11.794 2.06156C11.7792 2.06044 11.7643 2.05869 11.7494 2.05756L12.0585 2.46399L11.5393 2.8584L11.1455 2.33921L11.5387 2.0404C11.5222 2.03865 11.5055 2.03753 11.4889 2.03695L11.1255 2.31285L10.8954 2.01004C10.8817 2.00946 10.8673 2.00945 10.8536 2.00945L11.0991 2.33289L10.5806 2.72727L10.1868 2.20805L10.4449 2.01171C10.426 2.01233 10.4072 2.01287 10.3883 2.01346L10.1668 2.18175L10.0511 2.02949C10.038 2.03062 10.0248 2.0312 10.0116 2.03236L10.1404 2.20179L9.62189 2.59618L9.25443 2.11248C9.24184 2.11474 9.22981 2.11648 9.21723 2.11819L9.59557 2.61566L9.07644 3.01005L8.68265 2.49082L9.16171 2.12677C9.13883 2.13022 9.11593 2.13364 9.0936 2.13764L8.66261 2.46508L8.5012 2.25209C8.48917 2.25438 8.47775 2.25725 8.46572 2.26009L8.63629 2.4845L8.11774 2.87892L7.78692 2.44272C7.7755 2.44617 7.76401 2.44959 7.75314 2.45304L8.09141 2.89896L7.57286 3.29279L7.17907 2.77418L7.48472 2.54177C7.45094 2.55319 7.41717 2.56523 7.38342 2.57727L7.15904 2.74782L7.10868 2.68145C7.0978 2.68542 7.08693 2.68942 7.07661 2.69403L7.13271 2.76786L6.61416 3.1617L6.46479 2.96536C6.4545 2.96998 6.44479 2.9751 6.43446 2.97968L6.58784 3.18173L6.06871 3.5756L5.85465 3.29338C5.8449 3.29854 5.83574 3.30425 5.82603 3.31057L6.04296 3.59564L5.52383 3.99002L5.27716 3.66488C5.268 3.67121 5.25883 3.67747 5.25025 3.68379L5.49809 4.00948L4.97896 4.40387L4.73341 4.07989C4.72483 4.08672 4.71625 4.0936 4.70767 4.10105L4.95267 4.42387L4.43412 4.81774L4.22235 4.53838C4.21435 4.54639 4.20632 4.55384 4.19832 4.56187L4.4078 4.83778L3.88925 5.23161L3.74613 5.04328C3.73813 5.05128 3.73126 5.05986 3.7238 5.06845L3.86289 5.25162L3.34434 5.64546L3.30543 5.59454C3.29856 5.60371 3.29169 5.61284 3.2854 5.62258L3.31801 5.66549L3.17951 5.77081C3.16006 5.79888 3.14057 5.8275 3.1217 5.85612L3.33805 5.69182L3.73184 6.21043L3.21329 6.60485L2.90306 6.19614C2.89677 6.20585 2.89102 6.21617 2.88473 6.22646L3.18693 6.62489L2.66838 7.01872L2.54188 6.85214C2.53617 6.86301 2.53043 6.87446 2.52527 6.88537L2.64206 7.03876L2.35299 7.25801C2.34382 7.27863 2.33466 7.29921 2.32608 7.31983L2.66206 7.06512L3.05585 7.58373L2.5373 7.97757L2.22536 7.56715C2.22023 7.57919 2.21565 7.59118 2.21107 7.60322L2.51098 7.99761L1.99243 8.39148L1.95865 8.3474C1.95523 8.36057 1.95123 8.37373 1.94723 8.38686L1.9661 8.41152L1.93349 8.43613C1.92832 8.4533 1.92319 8.47105 1.91858 8.48879L1.98614 8.43784L2.37993 8.95649L1.86138 9.35087L1.74921 9.20319C1.74633 9.21752 1.7435 9.23239 1.74062 9.24668L1.83506 9.37091L1.69997 9.47338C1.69714 9.48884 1.69426 9.50484 1.69197 9.5203L1.85509 9.39666L2.24888 9.91588L1.73033 10.3097L1.60729 10.1477C1.605 10.1638 1.60329 10.1798 1.60212 10.1958L1.70401 10.3298L1.58096 10.4231C1.5798 10.4374 1.57867 10.4523 1.57809 10.4671L1.72404 10.3561L2.11783 10.8747L1.59929 11.2691L1.54492 11.1975C1.54492 11.2153 1.54434 11.233 1.54434 11.2513L1.57296 11.2886L1.54376 11.3103V11.3521L1.59299 11.3149L1.98679 11.8335L1.5747 12.1472C1.57583 12.1604 1.57699 12.173 1.57754 12.1862L2.00682 11.8599L2.40061 12.3791L1.88207 12.7729L1.59703 12.3974C1.59932 12.4186 1.60161 12.4398 1.6039 12.4609L1.85574 12.793L1.66513 12.9378C1.66684 12.9504 1.66913 12.9624 1.67084 12.975L1.87577 12.8193L2.26953 13.3379L1.80364 13.6917V13.6922C1.80647 13.7037 1.8088 13.7152 1.81167 13.7272L2.28957 13.3643L2.68394 13.8829L2.16481 14.2773L1.83858 13.8474C1.84429 13.8731 1.85061 13.8989 1.85632 13.9252L2.13848 14.2967L1.98279 14.4152C1.98624 14.4267 1.98908 14.4381 1.99253 14.4496L2.15852 14.3231L2.55289 14.8417L2.19746 15.1119C2.20091 15.1227 2.20491 15.1336 2.20833 15.1445L2.57235 14.868L2.96668 15.3872L2.44755 15.7811L2.43726 15.7673C2.45214 15.8057 2.46759 15.844 2.48304 15.8824L2.83564 16.3461L2.71888 16.4348C2.72401 16.4451 2.72862 16.4554 2.73317 16.4657L2.85567 16.3724L3.24946 16.8911L3.02166 17.0639C3.02679 17.0736 3.03199 17.0834 3.03711 17.0937L3.2695 16.9174L3.66329 17.436L3.35077 17.6736C3.35648 17.6827 3.36222 17.6925 3.36735 17.7022L3.68329 17.4623L4.07708 17.981L3.70562 18.2632C3.71191 18.2724 3.71765 18.2821 3.72336 18.2912L4.09712 18.0073L4.49149 18.5265L4.08624 18.8339C4.09254 18.843 4.09883 18.8516 4.10512 18.8608L4.51091 18.5522L4.90528 19.0714L4.49204 19.3851C4.49891 19.3937 4.50578 19.4029 4.51265 19.4115L4.92532 19.0978L5.31911 19.6164L4.92419 19.9164C4.93161 19.9249 4.93848 19.9335 4.94593 19.9415L5.33914 19.6427L5.73293 20.1614L5.3838 20.427C5.39125 20.435 5.39867 20.443 5.40667 20.451L5.75297 20.1877L6.14676 20.7063L5.8726 20.9147C5.8806 20.9227 5.8886 20.9307 5.89663 20.9376L6.1668 20.7327L6.56117 21.2513L6.39289 21.3789C6.40147 21.3864 6.41005 21.3939 6.41863 21.4007L6.58062 21.2776L6.97496 21.7962L6.94805 21.8169C6.95722 21.8237 6.96693 21.83 6.97609 21.8369L6.99496 21.8226L7.04194 21.8844C7.07168 21.9062 7.10201 21.9279 7.13237 21.9491L7.02132 21.8026L7.53987 21.4087L7.93366 21.9273L7.54387 22.2239C7.55416 22.2302 7.5639 22.2365 7.57365 22.2428L7.9537 21.9537L8.34749 22.4729L8.18666 22.5954C8.19695 22.6011 8.20786 22.6069 8.21873 22.612L8.36756 22.4987L8.59307 22.7952C8.61369 22.8049 8.63485 22.8146 8.65547 22.8238L8.39388 22.4792L8.91243 22.0848L9.30681 22.604L8.88611 22.9235C8.89814 22.9286 8.91014 22.9332 8.92159 22.9378L9.32684 22.6298L9.72063 23.149L9.65936 23.1954C9.66107 23.196 9.66282 23.1965 9.66453 23.1971L10.2918 22.7151L9.89804 22.1959L10.4166 21.802L10.8087 22.3184L10.835 22.2984L10.4429 21.782L10.9615 21.3881L11.3513 21.9016L11.3776 21.8816L10.9878 21.3681L11.5063 20.9743L11.8944 21.4849L11.9207 21.4649L11.5327 20.9542L12.0512 20.5598L12.4375 21.0681L12.4633 21.0481L12.0775 20.5398L12.596 20.1459L12.9801 20.6514L13.0064 20.6313L12.6224 20.1259L13.1415 19.7321L13.5233 20.2346L13.549 20.2146L13.1672 19.712L13.6864 19.3182L14.0659 19.8179L14.0922 19.7978L13.7127 19.2981L14.2313 18.9037L14.6085 19.4012L14.6349 19.3811L14.2576 18.8843L14.7762 18.4899L15.1511 18.9845L15.1774 18.9644L14.8025 18.4699L15.3211 18.076L15.6948 18.5671L15.72 18.5477L15.3474 18.0559L15.866 17.6621L16.2374 18.1504L16.2638 18.1304L15.8923 17.6421L16.4114 17.2482L16.78 17.7336L16.8063 17.7136L16.4372 17.2282L16.9563 16.8338L17.3226 17.3169L17.3489 17.2969L16.9826 16.8144L17.5012 16.4199L17.8658 16.9002L17.8915 16.8802L17.5275 16.3999L18.0461 16.0061L18.4084 16.4835L18.4347 16.4634L18.0724 15.986L18.5909 15.5922L18.9515 16.0667L18.9773 16.0467L18.6173 15.5722L19.1358 15.1783L19.4941 15.65L19.5204 15.6294L19.1621 15.1582L19.6807 14.7639L20.0373 15.2333L20.063 15.2126L19.707 14.7444L20.2261 14.35L20.5798 14.8165L20.6062 14.7959L20.2519 14.33L20.771 13.9361L21.123 14.3992L21.1488 14.3792L20.7973 13.9161L21.3159 13.5222L21.6656 13.9825L21.6919 13.9624L21.3422 13.5022L21.8608 13.1084L22.2082 13.5657L22.2345 13.5457L21.8871 13.0883L22.4056 12.6939L22.7513 13.149L22.7771 13.129L22.4319 12.6745L22.9505 12.2801L23.2939 12.7323L23.3203 12.7123L22.977 12.26ZM23.0617 11.2949L22.5432 11.6887L22.1494 11.1701L22.668 10.7762L23.0617 11.2949ZM19.2263 10.7705L18.7078 11.1649L18.3134 10.6457L18.8325 10.2519L19.2263 10.7705ZM18.8583 10.2319L19.3774 9.83799L19.7712 10.3566L19.2527 10.7505L18.8583 10.2319ZM16.7634 10.9228L16.2449 11.3166L15.8505 10.798L16.3696 10.4036L16.7634 10.9228ZM16.3959 10.3836L16.9145 9.9897L17.3083 10.5083L16.7897 10.9027L16.3959 10.3836ZM15.2598 11.2056L14.7407 11.5994L14.3469 11.0808L14.8654 10.6869L15.2598 11.2056ZM14.8918 10.6669L15.4103 10.2725L15.8047 10.7917L15.2861 11.1856L14.8918 10.6669ZM13.7556 11.4883L13.2371 11.8827L12.8427 11.3636L13.3619 10.9697L13.7556 11.4883ZM13.3882 10.9497L13.9067 10.5558L14.3005 11.0744L13.782 11.4683L13.3882 10.9497ZM11.7071 12.1856L11.188 12.5794L10.7942 12.0608L11.3127 11.6664L11.7071 12.1856ZM11.3391 11.6463L11.8577 11.2525L12.252 11.7711L11.7329 12.1655L11.3391 11.6463ZM11.1617 12.5994L10.6431 12.9933L10.2493 12.4747L10.7679 12.0802L11.1617 12.5994ZM10.7742 12.0345L10.3804 11.5152L10.8989 11.1214L11.2927 11.64L10.7742 12.0345ZM10.7478 12.0545L10.2293 12.4483L9.83492 11.9297L10.3541 11.5353L10.7478 12.0545ZM10.203 12.4683L9.68443 12.8622L9.29005 12.3436L9.80921 11.9491L10.203 12.4683ZM9.81547 11.9034L9.4211 11.3847L9.94026 10.9903L10.3341 11.5089L9.81547 11.9034ZM9.78915 11.9234L9.2706 12.3172L8.87622 11.7986L9.39477 11.4042L9.78915 11.9234ZM8.85619 11.7723L8.4624 11.2537L8.98095 10.8592L9.37532 11.3785L8.85619 11.7723ZM8.82986 11.7923L8.31132 12.1862L7.91753 11.6675L8.43607 11.2731L8.82986 11.7923ZM8.28496 12.2061L7.76641 12.6L7.37262 12.0814L7.89117 11.6875L8.28496 12.2061ZM8.30499 12.2325L8.69936 12.7511L8.18023 13.145L7.78641 12.6263L8.30499 12.2325ZM8.33132 12.2125L8.8499 11.8186L9.24424 12.3372L8.72511 12.7311L8.33132 12.2125ZM9.26427 12.3636L9.65806 12.8822L9.13952 13.2761L8.74514 12.7574L9.26427 12.3636ZM9.6781 12.9085L10.0719 13.4271L9.55334 13.8216L9.159 13.3024L9.6781 12.9085ZM9.70442 12.8885L10.223 12.4947L10.6168 13.0133L10.0982 13.4071L9.70442 12.8885ZM10.6368 13.0396L11.0306 13.5582L10.512 13.9526L10.1183 13.4334L10.6368 13.0396ZM10.6632 13.0196L11.1817 12.6257L11.5761 13.1444L11.057 13.5382L10.6632 13.0196ZM11.208 12.6057L11.7266 12.2113L12.121 12.7305L11.6018 13.1244L11.208 12.6057ZM11.7529 12.1918L12.2715 11.7975L12.6658 12.3167L12.1473 12.7105L11.7529 12.1918ZM12.2978 11.7774L12.8169 11.3836L13.2107 11.9022L12.6922 12.2966L12.2978 11.7774ZM12.8233 11.3372L12.4289 10.8186L12.948 10.4247L13.3418 10.9434L12.8233 11.3372ZM12.7969 11.3573L12.2784 11.7516L11.884 11.2325L12.4025 10.8386L12.7969 11.3573ZM11.864 11.2061L11.4702 10.6875L11.9887 10.2937L12.3831 10.8123L11.864 11.2061ZM11.8376 11.2262L11.3191 11.6205L10.9253 11.1014L11.4438 10.7075L11.8376 11.2262ZM10.9053 11.075L10.5115 10.5564L11.03 10.1626L11.4238 10.6812L10.9053 11.075ZM10.8789 11.0951L10.3604 11.4895L9.96604 10.9703L10.4852 10.5764L10.8789 11.0951ZM9.94655 10.9445L9.55218 10.4253L10.0713 10.0315L10.4651 10.5501L9.94655 10.9445ZM9.92023 10.964L9.40106 11.3584L9.00727 10.8392L9.52582 10.4453L9.92023 10.964ZM8.98727 10.8134L8.59348 10.2942L9.11203 9.90039L9.5064 10.419L8.98727 10.8134ZM8.96095 10.8329L8.4424 11.2273L8.04861 10.7081L8.56719 10.3142L8.96095 10.8329ZM8.41604 11.2473L7.89749 11.6412L7.5037 11.1226L8.02225 10.7282L8.41604 11.2473ZM7.48366 11.0962L7.08929 10.577L7.60842 10.1832L8.00221 10.7018L7.48366 11.0962ZM7.45734 11.1163L6.93876 11.5101L6.54442 10.9915L7.06355 10.5971L7.45734 11.1163ZM7.47737 11.142L7.87116 11.6612L7.35262 12.0551L6.95824 11.5364L7.47737 11.142ZM7.74008 12.62L7.22154 13.0144L6.82716 12.4952L7.34629 12.1014L7.74008 12.62ZM7.76012 12.6463L8.15391 13.165L7.63536 13.5594L7.24157 13.0402L7.76012 12.6463ZM8.17394 13.1913L8.56832 13.71L8.04915 14.1043L7.65536 13.5857L8.17394 13.1913ZM8.20027 13.1713L8.71882 12.7774L9.11319 13.2961L8.59403 13.6905L8.20027 13.1713ZM9.13323 13.3224L9.52702 13.841L9.00847 14.2354L8.6141 13.7162L9.13323 13.3224ZM9.54702 13.8673L9.94081 14.3866L9.42226 14.7804L9.02789 14.2618L9.54702 13.8673ZM9.57334 13.8473L10.0919 13.4535L10.4857 13.9721L9.96714 14.3665L9.57334 13.8473ZM10.5058 13.9984L10.9001 14.517L10.3809 14.9115L9.98714 14.3928L10.5058 13.9984ZM10.5321 13.9784L11.0506 13.5846L11.445 14.1032L10.9258 14.4976L10.5321 13.9784ZM11.077 13.5646L11.5955 13.1707L11.9899 13.6893L11.4713 14.0832L11.077 13.5646ZM11.6219 13.1507L12.141 12.7568L12.5348 13.2754L12.0162 13.6693L11.6219 13.1507ZM12.1667 12.7368L12.6859 12.3424L13.0797 12.8616L12.5611 13.2555L12.1667 12.7368ZM12.7122 12.3229L13.2307 11.9285L13.6246 12.4472L13.106 12.8415L12.7122 12.3229ZM13.2571 11.9085L13.7756 11.5146L14.1694 12.0333L13.6509 12.4277L13.2571 11.9085ZM13.802 11.4946L14.3205 11.1008L14.7149 11.6194L14.1958 12.0133L13.802 11.4946ZM14.3268 11.0544L13.9331 10.5358L14.4516 10.1414L14.8459 10.6606L14.3268 11.0544ZM13.9131 10.5095L13.5193 9.99086L14.0378 9.59644L14.4316 10.1157L13.9131 10.5095ZM13.8867 10.5295L13.3681 10.9233L12.9738 10.4047L13.4929 10.0104L13.8867 10.5295ZM12.9543 10.3784L12.5599 9.85977L13.0791 9.46538L13.4729 9.98457L12.9543 10.3784ZM12.928 10.3984L12.4089 10.7923L12.0151 10.2736L12.5336 9.87926L12.928 10.3984ZM11.995 10.2473L11.6012 9.72867L12.1198 9.33428L12.5142 9.85348L11.995 10.2473ZM11.9687 10.2674L11.4502 10.6612L11.0564 10.1426L11.5749 9.74871L11.9687 10.2674ZM11.0363 10.1162L10.642 9.59761L11.1611 9.20319L11.5549 9.72241L11.0363 10.1162ZM11.01 10.1363L10.4915 10.5301L10.0971 10.0115L10.6163 9.61764L11.01 10.1363ZM10.0776 9.98512L9.68326 9.46651L10.2018 9.07209L10.5962 9.59132L10.0776 9.98512ZM10.0513 10.0052L9.53214 10.399L9.13835 9.88039L9.6569 9.48655L10.0513 10.0052ZM9.11832 9.85406L8.72453 9.33542L9.24308 8.94103L9.63741 9.46026L9.11832 9.85406ZM9.09199 9.87406L8.57345 10.2679L8.17965 9.74929L8.6982 9.35545L9.09199 9.87406ZM8.54712 10.288L8.02854 10.6824L7.63416 10.1632L8.15333 9.76929L8.54712 10.288ZM7.61475 10.1368L7.22037 9.61823L7.7395 9.22435L8.13329 9.743L7.61475 10.1368ZM7.58842 10.1569L7.06987 10.5513L6.6755 10.0321L7.19405 9.63823L7.58842 10.1569ZM7.04351 10.5707L6.52438 10.9651L6.13059 10.4465L6.64914 10.0521L7.04351 10.5707ZM6.91243 11.5301L6.3933 11.924L5.99951 11.4054L6.51806 11.0109L6.91243 11.5301ZM6.93246 11.5564L7.32626 12.0751L6.80771 12.4689L6.41333 11.9503L6.93246 11.5564ZM7.19518 13.0339L6.67663 13.4283L6.28225 12.9091L6.80142 12.5152L7.19518 13.0339ZM7.21521 13.0602L7.609 13.5789L7.09045 13.9732L6.69666 13.4546L7.21521 13.0602ZM7.62903 13.6052L8.02283 14.1244L7.50428 14.5182L7.11049 13.9996L7.62903 13.6052ZM8.04286 14.1502L8.43724 14.6693L7.91811 15.0632L7.52431 14.5446L8.04286 14.1502ZM8.06919 14.1307L8.58774 13.7363L8.98211 14.2555L8.46298 14.6493L8.06919 14.1307ZM9.00214 14.2812L9.39597 14.8004L8.87739 15.1943L8.48305 14.6757L9.00214 14.2812ZM9.41597 14.8268L9.80976 15.3454L9.29121 15.7392L8.89684 15.2206L9.41597 14.8268ZM9.4423 14.8067L9.96084 14.4123L10.3546 14.9315L9.83609 15.3254L9.4423 14.8067ZM10.3747 14.9578L10.769 15.4765L10.2499 15.8703L9.85612 15.3517L10.3747 14.9578ZM10.401 14.9378L10.9195 14.5434L11.3139 15.0626L10.7948 15.4565L10.401 14.9378ZM10.9459 14.524L11.4645 14.1296L11.8588 14.6482L11.3402 15.0426L10.9459 14.524ZM11.4908 14.1095L12.0099 13.7157L12.4037 14.2343L11.8851 14.6287L11.4908 14.1095ZM12.0357 13.6956L12.5548 13.3018L12.9486 13.8204L12.4301 14.2143L12.0357 13.6956ZM12.5811 13.2818L13.0997 12.8874L13.4935 13.4066L12.9749 13.8004L12.5811 13.2818ZM13.126 12.8679L13.6446 12.4735L14.0384 12.9927L13.5198 13.3866L13.126 12.8679ZM13.6709 12.4535L14.1895 12.0596L14.5838 12.5782L14.0647 12.9726L13.6709 12.4535ZM14.2158 12.0396L14.7344 11.6457L15.1287 12.1644L14.6096 12.5588L14.2158 12.0396ZM14.7607 11.6257L15.2798 11.2319L15.6736 11.7505L15.1551 12.1444L14.7607 11.6257ZM15.3056 11.2118L15.8247 10.8174L16.2185 11.3366L15.7 11.7305L15.3056 11.2118ZM15.831 10.7716L15.4367 10.253L15.9558 9.85864L16.3496 10.3772L15.831 10.7716ZM15.4166 10.2267L15.0228 9.7075L15.5414 9.31367L15.9358 9.83228L15.4166 10.2267ZM15.3909 10.2468L14.8717 10.6406L14.4779 10.122L14.9965 9.72758L15.3909 10.2468ZM14.4579 10.0956L14.0641 9.57641L14.5826 9.18257L14.9764 9.70121L14.4579 10.0956ZM14.0441 9.55066L13.6503 9.03144L14.1689 8.6376L14.5626 9.15621L14.0441 9.55066ZM14.0178 9.57015L13.4992 9.96453L13.1049 9.44535L13.624 9.05147L14.0178 9.57015ZM13.0854 9.41956L12.691 8.90037L13.2102 8.5065L13.6039 9.02514L13.0854 9.41956ZM13.0591 9.43906L12.5399 9.83344L12.1461 9.31483L12.6647 8.92045L13.0591 9.43906ZM12.1261 9.28847L11.7323 8.76928L12.2509 8.37544L12.6452 8.89405L12.1261 9.28847ZM12.0998 9.30851L11.5812 9.70237L11.1875 9.18377L11.706 8.78935L12.0998 9.30851ZM11.1674 9.1574L10.773 8.63818L11.2922 8.24434L11.686 8.76295L11.1674 9.1574ZM11.1411 9.17744L10.6225 9.57128L10.2281 9.05267L10.7473 8.65825L11.1411 9.17744ZM10.2081 9.02631L9.81431 8.50712L10.3329 8.11325L10.7272 8.63189L10.2081 9.02631ZM10.1824 9.04634L9.66323 9.44022L9.26944 8.92157L9.78798 8.52719L10.1824 9.04634ZM9.2494 8.89521L8.85561 8.3766L9.37416 7.98218L9.76795 8.50083L9.2494 8.89521ZM9.22307 8.91525L8.70453 9.30912L8.31074 8.79048L8.82928 8.39609L9.22307 8.91525ZM8.67817 9.32915L8.15962 9.72299L7.76525 9.20435L8.28438 8.81051L8.67817 9.32915ZM7.74579 9.17802L7.35142 8.65938L7.87055 8.265L8.26434 8.78422L7.74579 9.17802ZM7.71947 9.19806L7.20034 9.5919L6.80655 9.07329L7.32509 8.67942L7.71947 9.19806ZM7.17459 9.6119L6.65546 10.0063L6.26167 9.48709L6.78022 9.09326L7.17459 9.6119ZM6.24164 9.46077L5.84785 8.94216L6.36639 8.54832L6.76019 9.06693L6.24164 9.46077ZM6.62968 10.0258L6.11056 10.4202L5.71676 9.90097L6.23531 9.50713L6.62968 10.0258ZM6.08423 10.4402L5.56568 10.8341L5.17189 10.3155L5.69044 9.92104L6.08423 10.4402ZM6.10426 10.466L6.49864 10.9852L5.97947 11.379L5.58568 10.8604L6.10426 10.466ZM6.36756 11.944L5.84843 12.3378L5.45463 11.8192L5.97318 11.4254L6.36756 11.944ZM6.38701 11.9703L6.78138 12.4889L6.26283 12.8834L5.86846 12.3641L6.38701 11.9703ZM6.6503 13.4483L6.13172 13.8422L5.73738 13.3235L6.25651 12.9292L6.6503 13.4483ZM6.67034 13.4741L7.06413 13.9933L6.54558 14.3872L6.15121 13.8685L6.67034 13.4741ZM7.08416 14.0196L7.47795 14.5382L6.9594 14.9321L6.56562 14.4134L7.08416 14.0196ZM7.49795 14.5646L7.89233 15.0832L7.3732 15.4771L6.97937 14.9584L7.49795 14.5646ZM7.91178 15.1095L8.30615 15.6282L7.78702 16.0225L7.39323 15.5033L7.91178 15.1095ZM7.93811 15.0895L8.45666 14.6957L8.85103 15.2143L8.33248 15.6081L7.93811 15.0895ZM8.87106 15.2406L9.26485 15.7592L8.74631 16.1531L8.35197 15.6345L8.87106 15.2406ZM9.28489 15.7856L9.67868 16.3042L9.16013 16.6986L8.76634 16.1794L9.28489 15.7856ZM9.31121 15.7655L9.82976 15.3717L10.2236 15.8903L9.70501 16.2842L9.31121 15.7655ZM10.2436 15.9167L10.638 16.4353L10.1188 16.8297L9.72501 16.3105L10.2436 15.9167ZM10.2699 15.8966L10.7885 15.5028L11.1828 16.0214L10.6637 16.4153L10.2699 15.8966ZM10.8148 15.4828L11.334 15.0884L11.7277 15.6076L11.2092 16.0014L10.8148 15.4828ZM11.3597 15.0689L11.8788 14.6745L12.2726 15.1937L11.7541 15.5875L11.3597 15.0689ZM11.9046 14.6545L12.4237 14.2606L12.8175 14.7792L12.299 15.1736L11.9046 14.6545ZM12.4501 14.2406L12.9686 13.8467L13.3624 14.3653L12.8439 14.7598L12.4501 14.2406ZM12.995 13.8267L13.5135 13.4329L13.9079 13.9515L13.3888 14.3453L12.995 13.8267ZM13.5398 13.4129L14.0584 13.0184L14.4528 13.5377L13.9336 13.9315L13.5398 13.4129ZM14.0847 12.999L14.6033 12.6046L14.9976 13.1238L14.4785 13.5177L14.0847 12.999ZM14.6296 12.5846L15.1488 12.1907L15.5425 12.7093L15.024 13.1037L14.6296 12.5846ZM15.1745 12.1707L15.6937 11.7768L16.0875 12.2955L15.5689 12.6898L15.1745 12.1707ZM15.72 11.7568L16.2385 11.363L16.6323 11.8816L16.1138 12.2754L15.72 11.7568ZM16.2649 11.3429L16.7834 10.9485L17.1772 11.4677L16.6587 11.8616L16.2649 11.3429ZM16.8098 10.9291L17.3283 10.5347L17.7227 11.0539L17.2035 11.4477L16.8098 10.9291ZM17.3547 10.5147L17.8732 10.1208L18.2676 10.6394L17.7484 11.0338L17.3547 10.5147ZM17.3346 10.4889L16.9409 9.96966L17.4594 9.57583L17.8532 10.0945L17.3346 10.4889ZM16.9208 9.94337L16.527 9.42476L17.0456 9.03089L17.4394 9.54953L16.9208 9.94337ZM16.8945 9.96341L16.3759 10.3578L15.9816 9.8386L16.5007 9.44473L16.8945 9.96341ZM15.9621 9.81282L15.5677 9.29363L16.0869 8.89976L16.4807 9.4184L15.9621 9.81282ZM15.5477 9.2673L15.1539 8.74869L15.6724 8.35486L16.0668 8.87347L15.5477 9.2673ZM15.522 9.28734L15.0028 9.68176L14.609 9.16253L15.1276 8.76869L15.522 9.28734ZM14.589 9.1362L14.1952 8.6176L14.7138 8.22376L15.1076 8.74237L14.589 9.1362ZM14.1752 8.5913L13.7808 8.07266L14.2999 7.67882L14.6937 8.19743L14.1752 8.5913ZM14.1488 8.61131L13.6303 9.00518L13.2359 8.48653L13.7551 8.0927L14.1488 8.61131ZM13.2164 8.4602L12.8221 7.94156L13.3407 7.54772L13.735 8.06634L13.2164 8.4602ZM13.1901 8.48024L12.671 8.87463L12.2772 8.35544L12.7957 7.96157L13.1901 8.48024ZM12.2572 8.32911L11.8634 7.8105L12.3819 7.41663L12.7763 7.93527L12.2572 8.32911ZM12.2308 8.34915L11.7123 8.74353L11.3185 8.22434L11.837 7.8305L12.2308 8.34915ZM11.2985 8.19801L10.9041 7.6794L11.4232 7.28556L11.817 7.80417L11.2985 8.19801ZM11.2721 8.21805L10.7536 8.61247L10.3592 8.09325L10.8783 7.69941L11.2721 8.21805ZM10.3392 8.06695L9.94539 7.54831L10.4639 7.15447L10.8583 7.67308L10.3392 8.06695ZM10.3134 8.08699L9.79431 8.48137L9.40052 7.96215L9.91906 7.56831L10.3134 8.08699ZM9.38048 7.9364L8.98669 7.41717L9.50524 7.02334L9.89903 7.54198L9.38048 7.9364ZM9.35416 7.95589L8.83561 8.35027L8.44182 7.83109L8.96036 7.43725L9.35416 7.95589ZM8.80925 8.37035L8.2907 8.76418L7.89633 8.24554L8.41546 7.85115L8.80925 8.37035ZM7.87687 8.21921L7.48253 7.69999L8.00167 7.30615L8.39546 7.82476L7.87687 8.21921ZM7.85055 8.23921L7.33142 8.63309L6.93763 8.11445L7.45618 7.72006L7.85055 8.23921ZM7.30564 8.65309L6.78651 9.04693L6.39272 8.52832L6.91127 8.1339L7.30564 8.65309ZM6.37272 8.50196L5.97893 7.98335L6.49747 7.58893L6.89127 8.10815L6.37272 8.50196ZM6.34636 8.52199L5.82781 8.91583L5.43402 8.39722L5.95257 8.00284L6.34636 8.52199ZM6.21531 9.4808L5.69676 9.87522L5.30297 9.356L5.82152 8.96216L6.21531 9.4808ZM5.6704 9.89471L5.15186 10.2891L4.75748 9.76987L5.27664 9.37604L5.6704 9.89471ZM5.53936 10.8541L5.02081 11.2479L4.62643 10.7293L5.14556 10.3349L5.53936 10.8541ZM5.55939 10.8804L5.95318 11.3991L5.43463 11.7929L5.04084 11.2743L5.55939 10.8804ZM5.82265 12.3579L5.30352 12.7523L4.90973 12.233L5.42827 11.8392L5.82265 12.3579ZM5.84214 12.3842L6.23651 12.9028L5.71738 13.2972L5.32359 12.778L5.84214 12.3842ZM6.10539 13.8622L5.58626 14.2561L5.19247 13.7374L5.71102 13.343L6.10539 13.8622ZM6.12543 13.8885L6.51922 14.4072L6.00067 14.801L5.6063 14.2824L6.12543 13.8885ZM6.53925 14.4335L6.93304 14.9521L6.4145 15.346L6.02013 14.8274L6.53925 14.4335ZM6.95308 14.9784L7.34691 15.4971L6.82832 15.8914L6.43453 15.3723L6.95308 14.9784ZM7.36691 15.5234L7.76128 16.042L7.24215 16.4364L6.84836 15.9172L7.36691 15.5234ZM7.7807 16.0683L8.17507 16.587L7.65594 16.9814L7.26215 16.4627L7.7807 16.0683ZM7.80706 16.0483L8.32619 15.6545L8.71998 16.1731L8.20143 16.5675L7.80706 16.0483ZM8.73998 16.1994L9.13377 16.7181L8.61522 17.1125L8.22085 16.5938L8.73998 16.1994ZM9.15381 16.7444L9.5476 17.2636L9.02905 17.6575L8.63526 17.1388L9.15381 16.7444ZM9.18013 16.7244L9.69872 16.3305L10.0925 16.8491L9.57396 17.2435L9.18013 16.7244ZM10.1125 16.8755L10.5069 17.3947L9.98775 17.7886L9.59396 17.2699L10.1125 16.8755ZM10.1389 16.8555L10.6574 16.4616L11.0518 16.9802L10.5326 17.3746L10.1389 16.8555ZM10.6837 16.4416L11.2029 16.0477L11.5967 16.5664L11.0781 16.9608L10.6837 16.4416ZM11.2287 16.0277L11.7478 15.6339L12.1416 16.1525L11.623 16.5463L11.2287 16.0277ZM11.7741 15.6139L12.2927 15.2195L12.6864 15.7387L12.1679 16.1325L11.7741 15.6139ZM12.319 15.2L12.8375 14.8056L13.2313 15.3248L12.7128 15.7186L12.319 15.2ZM12.8639 14.7855L13.3824 14.3917L13.7768 14.9103L13.2577 15.3047L12.8639 14.7855ZM13.4088 14.3717L13.9273 13.9778L14.3217 14.4964L13.8026 14.8903L13.4088 14.3717ZM13.9537 13.9578L14.4722 13.564L14.8666 14.0826L14.348 14.4765L13.9537 13.9578ZM14.4985 13.5439L15.0177 13.1495L15.4115 13.6688L14.8929 14.0626L14.4985 13.5439ZM15.0434 13.1301L15.5626 12.7357L15.9564 13.2549L15.4378 13.6488L15.0434 13.1301ZM15.5889 12.7157L16.1075 12.3218L16.5012 12.8404L15.9827 13.2348L15.5889 12.7157ZM16.1338 12.3017L16.6524 11.9079L17.0462 12.4265L16.5276 12.8204L16.1338 12.3017ZM16.6787 11.8879L17.1972 11.4941L17.5916 12.0127L17.0725 12.4065L16.6787 11.8879ZM17.2236 11.474L17.7421 11.0796L18.1365 11.5988L17.6174 11.9927L17.2236 11.474ZM17.7685 11.0602L18.287 10.6658L18.6814 11.1844L18.1628 11.5788L17.7685 11.0602ZM18.2939 10.62L17.8996 10.1008L18.4181 9.70692L18.8124 10.2255L18.2939 10.62ZM17.8795 10.0745L17.4857 9.55582L18.0043 9.16199L18.3986 9.6806L17.8795 10.0745ZM17.4657 9.52949L17.0719 9.01085L17.5904 8.61702L17.9842 9.13562L17.4657 9.52949ZM17.0519 8.98456L16.6576 8.46591L17.1767 8.07153L17.5705 8.59072L17.0519 8.98456ZM17.0256 9.0046L16.507 9.39843L16.1126 8.87979L16.6318 8.48595L17.0256 9.0046ZM16.0932 8.85346L15.6988 8.33485L16.2173 7.94044L16.6117 8.45966L16.0932 8.85346ZM15.6788 8.30849L15.285 7.78985L15.8035 7.39547L16.1979 7.91469L15.6788 8.30849ZM15.653 8.32853L15.1339 8.72236L14.7401 8.20376L15.2586 7.80934L15.653 8.32853ZM14.7201 8.17739L14.3263 7.65878L14.8448 7.26437L15.2386 7.78359L14.7201 8.17739ZM14.3062 7.63246L13.9119 7.11385L14.431 6.71943L14.8248 7.23865L14.3062 7.63246ZM14.2799 7.65249L13.7614 8.04633L13.367 7.52772L13.8861 7.13334L14.2799 7.65249ZM13.3469 7.50139L12.9532 6.98275L13.4717 6.58837L13.8661 7.10756L13.3469 7.50139ZM13.3212 7.52143L12.8021 7.91527L12.4083 7.39663L12.9268 7.00224L13.3212 7.52143ZM12.3882 7.3703L11.9945 6.85166L12.513 6.45727L12.9068 6.97646L12.3882 7.3703ZM12.3619 7.39034L11.8434 7.78417L11.4496 7.26556L11.9681 6.87114L12.3619 7.39034ZM11.4295 7.2392L11.0352 6.72059L11.5543 6.32617L11.9481 6.8454L11.4295 7.2392ZM11.4032 7.25924L10.8847 7.65307L10.4903 7.13447L11.0088 6.74063L11.4032 7.25924ZM10.4703 7.1081L10.0765 6.5895L10.595 6.19508L10.9894 6.7143L10.4703 7.1081ZM10.4445 7.12814L9.92536 7.52201L9.53156 7.00337L10.0501 6.60953L10.4445 7.12814ZM9.51156 6.97704L9.11777 6.4584L9.63632 6.06401L10.0301 6.58321L9.51156 6.97704ZM9.4852 6.99708L8.96666 7.39092L8.57228 6.87227L9.09141 6.47844L9.4852 6.99708ZM8.94033 7.41092L8.42178 7.8053L8.02741 7.28611L8.54654 6.89224L8.94033 7.41092ZM8.00795 7.25979L7.61358 6.74118L8.13213 6.34734L8.5265 6.86595L8.00795 7.25979ZM7.98163 7.27982L7.4625 7.67424L7.06871 7.15502L7.58726 6.76118L7.98163 7.27982ZM7.43672 7.69373L6.91759 8.08812L6.5238 7.56889L7.04235 7.17505L7.43672 7.69373ZM6.50377 7.54314L6.10997 7.02395L6.62852 6.63008L7.02231 7.14869L6.50377 7.54314ZM6.47744 7.56263L5.95889 7.95702L5.56452 7.43841L6.08365 7.04399L6.47744 7.56263ZM5.93257 7.97705L5.41402 8.37089L5.01965 7.85229L5.53877 7.4579L5.93257 7.97705ZM5.80148 8.93587L5.28294 9.32974L4.88856 8.8111L5.40769 8.41726L5.80148 8.93587ZM5.25661 9.34974L4.73806 9.74413L4.34369 9.22494L4.86282 8.83107L5.25661 9.34974ZM5.12553 10.3092L4.60698 10.703L4.21264 10.1844L4.73177 9.78998L5.12553 10.3092ZM4.99445 11.2679L4.4759 11.6618L4.08153 11.1432L4.60066 10.7493L4.99445 11.2679ZM5.01448 11.2943L5.40827 11.8129L4.88973 12.2073L4.49593 11.6881L5.01448 11.2943ZM5.27719 12.7717L4.75864 13.1661L4.36485 12.6475L4.8834 12.2531L5.27719 12.7717ZM5.29723 12.7981L5.6916 13.3173L5.17247 13.7111L4.77868 13.1925L5.29723 12.7981ZM5.56052 14.2761L5.04139 14.6699L4.6476 14.1513L5.16615 13.7574L5.56052 14.2761ZM5.57997 14.3024L5.97435 14.821L5.45522 15.2149L5.06142 14.6963L5.57997 14.3024ZM5.99438 14.8474L6.38817 15.366L5.86962 15.7604L5.47525 15.2412L5.99438 14.8474ZM6.40817 15.3923L6.80196 15.9109L6.28342 16.3054L5.88904 15.7861L6.40817 15.3923ZM6.822 15.9373L7.21579 16.4565L6.69724 16.8503L6.30345 16.3317L6.822 15.9373ZM7.23583 16.4822L7.63016 17.0014L7.11103 17.3953L6.71724 16.8767L7.23583 16.4822ZM7.64965 17.0278L8.04399 17.5464L7.52486 17.9402L7.13107 17.4216L7.64965 17.0278ZM7.67598 17.0077L8.19514 16.6133L8.58893 17.1325L8.07039 17.5264L7.67598 17.0077ZM8.60893 17.1582L9.00272 17.6775L8.48418 18.0713L8.08981 17.5527L8.60893 17.1582ZM9.02276 17.7038L9.41655 18.2224L8.898 18.6163L8.50421 18.0977L9.02276 17.7038ZM9.04909 17.6838L9.56763 17.2894L9.96197 17.8086L9.44284 18.2024L9.04909 17.6838ZM9.98146 17.8349L10.3758 18.3535L9.8567 18.7474L9.46291 18.2288L9.98146 17.8349ZM10.0078 17.8148L10.5263 17.4205L10.9207 17.9397L10.4022 18.3335L10.0078 17.8148ZM10.5527 17.401L11.0718 17.0066L11.4656 17.5252L10.947 17.9196L10.5527 17.401ZM11.0976 16.9865L11.6167 16.5927L12.0105 17.1113L11.4919 17.5057L11.0976 16.9865ZM11.643 16.5727L12.1616 16.1788L12.5554 16.6975L12.0368 17.0913L11.643 16.5727ZM12.1879 16.1588L12.7065 15.765L13.1003 16.2836L12.5817 16.6774L12.1879 16.1588ZM12.7328 15.7449L13.2514 15.3505L13.6457 15.8697L13.1266 16.2636L12.7328 15.7449ZM13.2777 15.3311L13.7963 14.9367L14.1906 15.4553L13.6715 15.8497L13.2777 15.3311ZM13.8226 14.9166L14.3417 14.5228L14.7355 15.0414L14.217 15.4358L13.8226 14.9166ZM14.3675 14.5028L14.8866 14.1089L15.2804 14.6275L14.7619 15.0214L14.3675 14.5028ZM14.9124 14.0889L15.4315 13.695L15.8253 14.2137L15.3067 14.6075L14.9124 14.0889ZM15.4579 13.675L15.9764 13.2806L16.3702 13.7998L15.8517 14.1937L15.4579 13.675ZM16.0027 13.2612L16.5213 12.8668L16.9157 13.3854L16.3965 13.7798L16.0027 13.2612ZM16.5476 12.8467L17.0662 12.4529L17.4605 12.9715L16.9414 13.3659L16.5476 12.8467ZM17.0925 12.4328L17.6111 12.039L18.0054 12.5576L17.4863 12.9514L17.0925 12.4328ZM17.6374 12.019L18.1566 11.6246L18.5503 12.1438L18.0318 12.5377L17.6374 12.019ZM18.1823 11.6051L18.7014 11.2107L19.0952 11.7299L18.5767 12.1238L18.1823 11.6051ZM18.7278 11.1907L19.2463 10.7968L19.6401 11.3154L19.1215 11.7099L18.7278 11.1907ZM19.2727 10.7768L19.7912 10.383L20.185 10.9016L19.6665 11.296L19.2727 10.7768ZM19.8175 10.363L20.3361 9.96908L20.7305 10.4877L20.2113 10.8816L19.8175 10.363ZM19.7975 10.3366L19.4037 9.81802L19.9223 9.42415L20.316 9.94279L19.7975 10.3366ZM19.3837 9.79165L18.9893 9.27304L19.5085 8.87866L19.9023 9.39785L19.3837 9.79165ZM19.3573 9.81169L18.8388 10.2055L18.4444 9.68692L18.9636 9.29308L19.3573 9.81169ZM18.4244 9.66056L18.0306 9.14195L18.5492 8.74753L18.9436 9.26675L18.4244 9.66056ZM18.0106 9.11562L17.6168 8.59701L18.1354 8.2026L18.5297 8.72182L18.0106 9.11562ZM17.5968 8.57065L17.203 8.05204L17.7215 7.65762L18.1153 8.17685L17.5968 8.57065ZM17.1829 8.02571L16.7886 7.50652L17.3077 7.11265L17.7015 7.6313L17.1829 8.02571ZM17.1566 8.04575L16.6381 8.43962L16.2437 7.92098L16.7628 7.5266L17.1566 8.04575ZM16.2242 7.89465L15.8299 7.37543L16.3484 6.98159L16.7428 7.5002L16.2242 7.89465ZM15.8098 7.34968L15.416 6.83046L15.9346 6.43662L16.329 6.95526L15.8098 7.34968ZM15.7835 7.3691L15.265 7.76352L14.8712 7.24491L15.3897 6.85049L15.7835 7.3691ZM14.8511 7.21858L14.4573 6.69936L14.9759 6.30552L15.3697 6.82413L14.8511 7.21858ZM14.4373 6.67364L14.0429 6.15442L14.5621 5.76058L14.9559 6.27919L14.4373 6.67364ZM14.411 6.6931L13.8924 7.08748L13.4981 6.5683L14.0172 6.17442L14.411 6.6931ZM13.478 6.54255L13.0842 6.02336L13.6028 5.62949L13.9972 6.14813L13.478 6.54255ZM13.4523 6.56201L12.9331 6.95639L12.5393 6.4372L13.0579 6.04336L13.4523 6.56201ZM12.5193 6.41148L12.1255 5.89226L12.6441 5.49842L13.0379 6.01703L12.5193 6.41148ZM12.493 6.43091L11.9745 6.82533L11.5801 6.3061L12.0992 5.91226L12.493 6.43091ZM11.5606 6.28039L11.1663 5.76117L11.6854 5.36733L12.0792 5.88594L11.5606 6.28039ZM11.5343 6.29984L11.0157 6.69423L10.6214 6.17562L11.1399 5.7812L11.5343 6.29984ZM10.6013 6.14929L10.2076 5.63007L10.7261 5.23623L11.1205 5.75487L10.6013 6.14929ZM10.5756 6.16933L10.0564 6.56317L9.66265 6.04456L10.1812 5.65014L10.5756 6.16933ZM9.64261 6.0182L9.24882 5.49901L9.76737 5.10513L10.1612 5.62378L9.64261 6.0182ZM9.61628 6.03823L9.09774 6.4321L8.70336 5.91346L9.22249 5.51908L9.61628 6.03823ZM9.07141 6.45211L8.55286 6.84594L8.15849 6.3273L8.67765 5.93292L9.07141 6.45211ZM8.13846 6.30097L7.74466 5.78233L8.26321 5.38795L8.65759 5.90717L8.13846 6.30097ZM8.11268 6.32101L7.59355 6.71485L7.19976 6.19624L7.7183 5.80237L8.11268 6.32101ZM7.5678 6.73488L7.04864 7.12872L6.65485 6.61012L7.1734 6.21628L7.5678 6.73488ZM6.63485 6.58375L6.24106 6.06515L6.7596 5.67131L7.15339 6.18991L6.63485 6.58375ZM6.60852 6.60382L6.08997 6.99821L5.6956 6.47898L6.21473 6.08515L6.60852 6.60382ZM6.06361 7.01766L5.54506 7.41205L5.15069 6.89282L5.66982 6.49899L6.06361 7.01766ZM5.51874 7.43208L5.00019 7.82592L4.60585 7.30732L5.1244 6.91293L5.51874 7.43208ZM5.38766 8.3909L4.86911 8.78477L4.47474 8.26612L4.99387 7.87229L5.38766 8.3909ZM4.84278 8.8048L4.32366 9.19922L3.92986 8.68L4.44841 8.28616L4.84278 8.8048ZM4.7117 9.76362L4.19315 10.158L3.79882 9.63881L4.31736 9.24497L4.7117 9.76362ZM4.16683 10.178L3.64766 10.5719L3.25387 10.0533L3.77246 9.65888L4.16683 10.178ZM4.18625 10.2038L4.58062 10.723L4.06207 11.1169L3.6677 10.5982L4.18625 10.2038ZM4.44957 11.6818L3.93103 12.0762L3.53665 11.557L4.05578 11.1631L4.44957 11.6818ZM4.46961 11.7081L4.8634 12.2268L4.34485 12.6212L3.95048 12.102L4.46961 11.7081ZM4.73232 13.1861L4.21377 13.58L3.8194 13.0614L4.33853 12.667L4.73232 13.1861ZM4.75235 13.2119L5.14615 13.7311L4.6276 14.125L4.23381 13.6064L4.75235 13.2119ZM5.01506 14.6899L4.49652 15.0844L4.10272 14.5651L4.62127 14.1713L5.01506 14.6899ZM5.0351 14.7163L5.42947 15.2349L4.91034 15.6293L4.51655 15.1101L5.0351 14.7163ZM5.44889 15.2612L5.84326 15.7798L5.32472 16.1743L4.93034 15.6556L5.44889 15.2612ZM5.8633 15.8062L6.25709 16.3254L5.73854 16.7193L5.34417 16.2006L5.8633 15.8062ZM6.27712 16.3511L6.67092 16.8704L6.15237 17.2642L5.75858 16.7456L6.27712 16.3511ZM6.69095 16.8967L7.08474 17.4153L6.5662 17.8091L6.1724 17.2905L6.69095 16.8967ZM7.10474 17.4416L7.49912 17.9603L6.97999 18.3541L6.5862 17.8355L7.10474 17.4416ZM7.51857 17.9866L7.91291 18.5052L7.39436 18.8996L6.99999 18.3804L7.51857 17.9866ZM7.5449 17.9665L8.06403 17.5727L8.45782 18.0913L7.93927 18.4852L7.5449 17.9665ZM8.47785 18.1177L8.87164 18.6363L8.3531 19.0307L7.9593 18.5115L8.47785 18.1177ZM8.89168 18.6626L9.2855 19.1812L8.76692 19.5757L8.37313 19.0564L8.89168 18.6626ZM8.918 18.6426L9.43655 18.2488L9.83092 18.7674L9.3118 19.1612L8.918 18.6426ZM9.85038 18.7937L10.2448 19.3123L9.72562 19.7067L9.33183 19.1875L9.85038 18.7937ZM9.8767 18.7737L10.3958 18.3798L10.7896 18.8985L10.2711 19.2923L9.8767 18.7737ZM10.4216 18.3598L10.9407 17.9659L11.3345 18.4846L10.816 18.8784L10.4216 18.3598ZM10.9671 17.9459L11.4856 17.5516L11.8794 18.0708L11.3609 18.4646L10.9671 17.9459ZM11.512 17.5315L12.0305 17.1377L12.4243 17.6563L11.9058 18.0507L11.512 17.5315ZM12.0568 17.1176L12.5754 16.7238L12.9698 17.2424L12.4506 17.6368L12.0568 17.1176ZM12.6018 16.7038L13.1203 16.3099L13.5147 16.8286L12.9955 17.2224L12.6018 16.7038ZM13.1466 16.2899L13.6652 15.8955L14.0596 16.4147L13.541 16.8085L13.1466 16.2899ZM13.6915 15.876L14.2107 15.4816L14.6045 16.0008L14.0859 16.3947L13.6915 15.876ZM14.2364 15.4616L14.7555 15.0677L15.1493 15.5863L14.6308 15.9808L14.2364 15.4616ZM14.7819 15.0477L15.3004 14.6539L15.6942 15.1725L15.1757 15.5669L14.7819 15.0477ZM15.3268 14.6338L15.8453 14.24L16.2391 14.7586L15.7206 15.1525L15.3268 14.6338ZM15.8717 14.22L16.3902 13.8256L16.7846 14.3448L16.2655 14.7387L15.8717 14.22ZM16.4166 13.8061L16.9351 13.4117L17.3295 13.9309L16.8103 14.3248L16.4166 13.8061ZM16.9615 13.3917L17.48 12.9978L17.8744 13.5165L17.3558 13.9108L16.9615 13.3917ZM17.5063 12.9778L18.0255 12.584L18.4193 13.1026L17.9007 13.497L17.5063 12.9778ZM18.0512 12.5639L18.5704 12.1701L18.9642 12.6887L18.4456 13.0825L18.0512 12.5639ZM18.5967 12.1501L19.1153 11.7557L19.509 12.2749L18.9905 12.6687L18.5967 12.1501ZM19.1416 11.7362L19.6601 11.3418L20.0539 11.861L19.5354 12.2549L19.1416 11.7362ZM19.6865 11.3218L20.205 10.9279L20.5994 11.4465L20.0802 11.841L19.6865 11.3218ZM20.2314 10.9079L20.7499 10.5141L21.1442 11.0327L20.6251 11.4271L20.2314 10.9079ZM20.3624 9.94908L20.881 9.5547L21.2754 10.0739L20.7562 10.4678L20.3624 9.94908ZM20.3424 9.92275L19.9486 9.40411L20.4672 9.00973L20.8615 9.52891L20.3424 9.92275ZM19.9286 9.37782L19.5348 8.85917L20.0533 8.46479L20.4471 8.98398L19.9286 9.37782ZM19.5148 8.83284L19.1204 8.31362L19.6395 7.91978L20.0333 8.43839L19.5148 8.83284ZM19.4884 8.85288L18.9699 9.24672L18.5755 8.72811L19.0946 8.33369L19.4884 8.85288ZM18.5555 8.70174L18.1617 8.18252L18.6802 7.78872L19.0746 8.30733L18.5555 8.70174ZM18.1417 8.15681L17.7479 7.63759L18.2664 7.24375L18.6608 7.76239L18.1417 8.15681ZM17.7279 7.61184L17.3341 7.09261L17.8526 6.69878L18.2464 7.21742L17.7279 7.61184ZM17.314 7.06632L16.9197 6.54768L17.4388 6.15384L17.8326 6.67248L17.314 7.06632ZM17.2877 7.08636L16.7692 7.48074L16.3748 6.96155L16.8939 6.56768L17.2877 7.08636ZM16.3547 6.93522L15.9609 6.41661L16.4795 6.02274L16.8738 6.54139L16.3547 6.93522ZM15.9409 6.39025L15.5471 5.87164L16.0657 5.47777L16.46 5.99642L15.9409 6.39025ZM15.9146 6.41029L15.396 6.80471L15.0023 6.28548L15.5208 5.89165L15.9146 6.41029ZM14.9822 6.25916L14.5878 5.74055L15.107 5.34671L15.5008 5.86532L14.9822 6.25916ZM14.5684 5.71422L14.174 5.19561L14.6931 4.80122L15.0869 5.32042L14.5684 5.71422ZM14.5421 5.73426L14.0235 6.12813L13.6291 5.60948L14.1477 5.21565L14.5421 5.73426ZM13.6091 5.58316L13.2153 5.06451L13.7338 4.67013L14.1282 5.18932L13.6091 5.58316ZM13.5833 5.60319L13.0642 5.99703L12.6704 5.47842L13.189 5.08455L13.5833 5.60319ZM12.6504 5.45206L12.2566 4.93342L12.7751 4.53958L13.1689 5.05822L12.6504 5.45206ZM12.624 5.47213L12.1055 5.86648L11.7112 5.34729L12.2303 4.95345L12.624 5.47213ZM11.6917 5.32096L11.2973 4.80235L11.8165 4.40852L12.2103 4.92712L11.6917 5.32096ZM11.6653 5.341L11.1468 5.73542L10.7524 5.2162L11.271 4.82236L11.6653 5.341ZM10.7324 5.18987L10.3386 4.67126L10.8571 4.27742L11.2515 4.79603L10.7324 5.18987ZM10.7061 5.20994L10.1875 5.60432L9.79373 5.08513L10.3123 4.69126L10.7061 5.20994ZM9.77369 5.0588L9.37932 4.54016L9.89848 4.14632L10.2923 4.66496L9.77369 5.0588ZM9.74737 5.07884L9.22878 5.47323L8.83445 4.95404L9.35358 4.56016L9.74737 5.07884ZM9.20246 5.49268L8.68391 5.8871L8.28957 5.36846L8.8087 4.97407L9.20246 5.49268ZM8.26954 5.34216L7.87574 4.82294L8.39429 4.4291L8.78867 4.94771L8.26954 5.34216ZM8.24376 5.3622L7.72463 5.75604L7.33084 5.2374L7.84938 4.84301L8.24376 5.3622ZM7.6983 5.77607L7.17975 6.16991L6.78596 5.6513L7.30451 5.25688L7.6983 5.77607ZM6.76593 5.62494L6.37214 5.10633L6.89069 4.71191L7.28448 5.23113L6.76593 5.62494ZM6.7396 5.64498L6.22106 6.03882L5.82668 5.52021L6.34581 5.12579L6.7396 5.64498ZM6.1947 6.05882L5.67615 6.45269L5.28177 5.93404L5.8009 5.54021L6.1947 6.05882ZM5.64982 6.47272L5.13069 6.86711L4.7369 6.34792L5.25545 5.95405L5.64982 6.47272ZM5.10491 6.88657L4.58578 7.28095L4.19196 6.76176L4.71051 6.36792L5.10491 6.88657ZM4.97387 7.84596L4.4547 8.23983L4.06091 7.72119L4.57946 7.3268L4.97387 7.84596ZM4.42896 8.25983L3.90983 8.65367L3.51607 8.13503L4.03462 7.74119L4.42896 8.25983ZM4.29788 9.21864L3.77875 9.61303L3.38496 9.09384L3.9035 8.7L4.29788 9.21864ZM3.75242 9.63252L3.23384 10.0269L2.84005 9.50829L3.3586 9.11391L3.75242 9.63252ZM3.62192 10.5919L3.10276 10.9858L2.709 10.4671L3.22755 10.0727L3.62192 10.5919ZM3.64138 10.6182L4.03575 11.1369L3.51662 11.5307L3.12283 11.0121L3.64138 10.6182ZM3.90467 12.0957L3.38554 12.4901L2.99174 11.9709L3.51029 11.5771L3.90467 12.0957ZM3.9247 12.122L4.31849 12.6412L3.79994 13.0351L3.40561 12.5164L3.9247 12.122ZM4.18741 13.6L3.66886 13.9939L3.27449 13.4753L3.79362 13.0814L4.18741 13.6ZM4.20745 13.6264L4.60124 14.145L4.08269 14.5389L3.68835 14.0202L4.20745 13.6264ZM4.47016 15.1038L3.95161 15.4982L3.55782 14.979L4.07636 14.5851L4.47016 15.1038ZM4.49019 15.1301L4.88398 15.6488L4.36543 16.0432L3.97164 15.5246L4.49019 15.1301ZM4.90402 15.6751L5.29836 16.1943L4.77923 16.5882L4.38544 16.0696L4.90402 15.6751ZM5.31839 16.22L5.71218 16.7393L5.19363 17.1331L4.79926 16.6145L5.31839 16.22ZM5.73222 16.7656L6.12601 17.2842L5.60746 17.678L5.21309 17.1594L5.73222 16.7656ZM6.14604 17.3106L6.53987 17.8292L6.02129 18.2236L5.6275 17.7044L6.14604 17.3106ZM6.55987 17.8555L6.95421 18.3741L6.43508 18.7685L6.04129 18.2493L6.55987 17.8555ZM6.9737 18.4005L7.36807 18.9191L6.84891 19.3135L6.45511 18.7943L6.9737 18.4005ZM7.38807 18.9454L7.78186 19.4646L7.26331 19.8584L6.86894 19.3398L7.38807 18.9454ZM7.41385 18.9253L7.93298 18.5315L8.32677 19.0501L7.80822 19.4445L7.41385 18.9253ZM8.34677 19.0765L8.74056 19.5951L8.22201 19.9895L7.82819 19.4709L8.34677 19.0765ZM8.7606 19.6214L9.15439 20.1407L8.63584 20.5345L8.24205 20.0159L8.7606 19.6214ZM8.78692 19.602L9.30547 19.2076L9.69984 19.7262L9.18068 20.1206L8.78692 19.602ZM9.7193 19.7525L10.1137 20.2717L9.59512 20.6656L9.20075 20.147L9.7193 19.7525ZM9.74562 19.7325L10.2648 19.3387L10.6586 19.8573L10.14 20.2517L9.74562 19.7325ZM10.2905 19.3186L10.8097 18.9248L11.2035 19.4434L10.6849 19.8378L10.2905 19.3186ZM10.836 18.9048L11.3546 18.5109L11.7484 19.0295L11.2298 19.4234L10.836 18.9048ZM11.3809 18.4909L11.8994 18.0965L12.2932 18.6157L11.7747 19.0095L11.3809 18.4909ZM11.9258 18.077L12.4444 17.6826L12.8387 18.2018L12.3196 18.5957L11.9258 18.077ZM12.4707 17.6626L12.9892 17.2688L13.3836 17.7874L12.8644 18.1818L12.4707 17.6626ZM13.0156 17.2487L13.5341 16.8549L13.9285 17.3735L13.4099 17.7679L13.0156 17.2487ZM13.5605 16.8348L14.0796 16.441L14.4734 16.9596L13.9548 17.3534L13.5605 16.8348ZM14.1054 16.421L14.6245 16.0266L15.0183 16.5458L14.4997 16.9396L14.1054 16.421ZM14.6508 16.0071L15.1694 15.6127L15.5632 16.1319L15.0446 16.5258L14.6508 16.0071ZM15.1957 15.5927L15.7142 15.1988L16.108 15.7174L15.5895 16.1118L15.1957 15.5927ZM15.7406 15.1788L16.2592 14.785L16.6535 15.3036L16.1344 15.698L15.7406 15.1788ZM16.2855 14.7649L16.804 14.3711L17.1984 14.8897L16.6793 15.2836L16.2855 14.7649ZM16.8304 14.3511L17.3495 13.9567L17.7433 14.4759L17.2248 14.8697L16.8304 14.3511ZM17.3753 13.9372L17.8944 13.5428L18.2882 14.062L17.7696 14.4558L17.3753 13.9372ZM17.9202 13.5227L18.4393 13.1289L18.8331 13.6475L18.3145 14.0419L17.9202 13.5227ZM18.4656 13.1089L18.9842 12.7151L19.378 13.2337L18.8594 13.6281L18.4656 13.1089ZM19.0105 12.695L19.529 12.3012L19.9234 12.8198L19.4043 13.2136L19.0105 12.695ZM19.5554 12.2812L20.074 11.8868L20.4683 12.406L19.9492 12.7998L19.5554 12.2812ZM20.1003 11.8673L20.6189 11.4729L21.0132 11.9921L20.4946 12.3859L20.1003 11.8673ZM20.6452 11.4529L21.1643 11.059L21.5581 11.5776L21.0396 11.972L20.6452 11.4529ZM21.1901 11.039L21.7092 10.6452L22.103 11.1638L21.5845 11.5582L21.1901 11.039ZM21.1706 11.0127L20.7762 10.494L21.2954 10.1002L21.6892 10.6188L21.1706 11.0127ZM20.9073 9.5352L21.4259 9.14082L21.8202 9.66001L21.3017 10.0538L20.9073 9.5352ZM20.8873 9.50888L20.4935 8.99027L21.012 8.59588L21.4064 9.11449L20.8873 9.50888ZM20.4735 8.96391L20.0797 8.44472L20.5982 8.05088L20.992 8.56949L20.4735 8.96391ZM20.0597 8.419L19.6659 7.89978L20.1844 7.50594L20.5782 8.02455L20.0597 8.419ZM19.6458 7.87341L19.2515 7.35481L19.7706 6.96097L20.1644 7.47958L19.6458 7.87341ZM19.6195 7.89345L19.1009 8.28787L18.7066 7.76865L19.2251 7.37481L19.6195 7.89345ZM18.6866 7.74235L18.2928 7.22371L18.8113 6.82988L19.2057 7.34848L18.6866 7.74235ZM18.2727 7.19741L17.8789 6.67877L18.3975 6.28494L18.7913 6.80355L18.2727 7.19741ZM17.8589 6.65244L17.4651 6.1338L17.9837 5.73942L18.3774 6.25861L17.8589 6.65244ZM17.4451 6.10751L17.0507 5.58887L17.5699 5.19448L17.9637 5.71367L17.4451 6.10751ZM17.4188 6.12755L16.9002 6.52138L16.5059 6.00274L17.025 5.60894L17.4188 6.12755ZM16.4858 5.97641L16.092 5.45777L16.6105 5.06339L17.0049 5.58261L16.4858 5.97641ZM16.072 5.43144L15.6782 4.9128L16.1968 4.51841L16.5911 5.03764L16.072 5.43144ZM16.0456 5.45148L15.5271 5.84531L15.1333 5.32671L15.6518 4.93232L16.0456 5.45148ZM15.1133 5.30034L14.7189 4.78174L15.2381 4.38732L15.6319 4.90654L15.1133 5.30034ZM14.6994 4.75541L14.3051 4.23622L14.8242 3.84234L15.218 4.36099L14.6994 4.75541ZM14.6731 4.77548L14.154 5.16928L13.7602 4.65067L14.2787 4.25625L14.6731 4.77548ZM13.7402 4.62431L13.3464 4.1057L13.8649 3.71132L14.2593 4.22993L13.7402 4.62431ZM13.7138 4.64435L13.1953 5.03822L12.8015 4.51958L13.32 4.12519L13.7138 4.64435ZM12.7815 4.49325L12.3877 3.97461L12.9062 3.58022L13.3 4.09941L12.7815 4.49325ZM12.7551 4.51329L12.2366 4.90712L11.8422 4.38851L12.3613 3.99409L12.7551 4.51329ZM11.8228 4.36215L11.4284 3.84354L11.947 3.44916L12.3413 3.96835L11.8228 4.36215ZM11.7964 4.38219L11.2773 4.77603L10.8835 4.25742L11.4021 3.863L11.7964 4.38219ZM10.8635 4.23105L10.4697 3.71245L10.9882 3.31803L11.3826 3.83725L10.8635 4.23105ZM10.8371 4.25109L10.3186 4.64496L9.92477 4.12632L10.4433 3.73248L10.8371 4.25109ZM9.90477 4.09999L9.5104 3.58135L10.0295 3.18696L10.4233 3.70615L9.90477 4.09999ZM9.87845 4.12003L9.3599 4.51387L8.96553 3.99523L9.48466 3.60139L9.87845 4.12003ZM9.33354 4.53387L8.81499 4.92825L8.42062 4.40906L8.93917 4.01519L9.33354 4.53387ZM8.40058 4.38277L8.00679 3.86416L8.52534 3.47029L8.91971 3.98893L8.40058 4.38277ZM8.37484 4.40277L7.85571 4.79719L7.46192 4.27797L7.98047 3.88413L8.37484 4.40277ZM7.82939 4.81665L7.31084 5.21107L6.91705 4.69184L7.43559 4.29804L7.82939 4.81665ZM6.89698 4.66613L6.50264 4.1469L7.02177 3.75307L7.41556 4.27168L6.89698 4.66613ZM6.87065 4.68558L6.3521 5.07997L5.95773 4.56078L6.47686 4.16691L6.87065 4.68558ZM6.32578 5.10001L5.80723 5.49384L5.41286 4.97524L5.93202 4.58085L6.32578 5.10001ZM5.78087 5.51391L5.26174 5.90775L4.86795 5.38911L5.3865 4.99472L5.78087 5.51391ZM5.236 5.92775L4.71687 6.32159L4.32307 5.80295L4.84162 5.40911L5.236 5.92775ZM4.69051 6.34163L4.17196 6.73602L3.77817 6.21682L4.29671 5.82299L4.69051 6.34163ZM4.56004 7.30099L4.04091 7.69486L3.64712 7.17622L4.16567 6.78183L4.56004 7.30099ZM4.01455 7.7149L3.496 8.10874L3.10218 7.59013L3.62072 7.19571L4.01455 7.7149ZM3.8835 8.67371L3.36495 9.06809L2.97116 8.5489L3.48971 8.15507L3.8835 8.67371ZM3.33859 9.08755L2.82005 9.48197L2.42626 8.96278L2.9448 8.56891L3.33859 9.08755ZM3.20755 10.047L2.689 10.4408L2.29521 9.92221L2.81376 9.52779L3.20755 10.047ZM3.07647 11.0058L2.55792 11.3996L2.16413 10.881L2.68267 10.4872L3.07647 11.0058ZM3.09647 11.0321L3.49084 11.5507L2.97171 11.9451L2.57792 11.4259L3.09647 11.0321ZM3.35979 12.5101L2.84066 12.904L2.44687 12.3853L2.96545 11.991L3.35979 12.5101ZM3.37925 12.5359L3.77359 13.0551L3.25504 13.449L2.8607 12.9303L3.37925 12.5359ZM3.64254 14.0139L3.12399 14.4077L2.72962 13.8891L3.24816 13.4953L3.64254 14.0139ZM3.66257 14.0402L4.05636 14.5589L3.53782 14.9533L3.14344 14.4341L3.66257 14.0402ZM3.92528 15.5183L3.40673 15.9121L3.01236 15.3935L3.53149 14.9991L3.92528 15.5183ZM3.94532 15.544L4.33911 16.0632L3.82056 16.4571L3.42677 15.9385L3.94532 15.544ZM4.35914 16.0896L4.75352 16.6082L4.23439 17.002L3.84059 16.4834L4.35914 16.0896ZM4.77294 16.6345L5.16731 17.1531L4.64814 17.5469L4.25435 17.0283L4.77294 16.6345ZM5.18734 17.1795L5.58113 17.6981L5.06259 18.0925L4.66821 17.5733L5.18734 17.1795ZM5.60117 17.7244L5.99496 18.243L5.47641 18.6374L5.08207 18.1182L5.60117 17.7244ZM6.01496 18.2694L6.40875 18.788L5.89021 19.1824L5.49641 18.6638L6.01496 18.2694ZM6.42879 18.8143L6.82316 19.3335L6.304 19.7274L5.91021 19.2087L6.42879 18.8143ZM6.84262 19.3593L7.23699 19.8785L6.71786 20.2723L6.32407 19.7537L6.84262 19.3593ZM7.25699 19.9048L7.65078 20.4234L7.13223 20.8173L6.73786 20.2986L7.25699 19.9048ZM7.28277 19.8848L7.8019 19.4904L8.19569 20.0096L7.67714 20.4034L7.28277 19.8848ZM8.21572 20.0359L8.60952 20.5545L8.09097 20.9483L7.69718 20.4297L8.21572 20.0359ZM8.62951 20.5808L9.02389 21.0994L8.50476 21.4933L8.11097 20.9747L8.62951 20.5808ZM8.65584 20.5608L9.17439 20.1664L9.56876 20.6856L9.04963 21.0794L8.65584 20.5608ZM9.58825 20.7119L9.98262 21.2305L9.46408 21.6244L9.0697 21.1058L9.58825 20.7119ZM9.61458 20.6919L10.1337 20.2975L10.5275 20.8167L10.0089 21.2105L9.61458 20.6919ZM10.1594 20.278L10.6786 19.8836L11.0724 20.4028L10.5538 20.7967L10.1594 20.278ZM10.7049 19.8636L11.2235 19.4697L11.6173 19.9884L11.0987 20.3828L10.7049 19.8636ZM11.2498 19.4497L11.7684 19.0559L12.1622 19.5745L11.6436 19.9683L11.2498 19.4497ZM11.7947 19.0359L12.3133 18.642L12.7076 19.1606L12.1885 19.5545L11.7947 19.0359ZM12.3396 18.622L12.8581 18.2276L13.2525 18.7468L12.7334 19.1406L12.3396 18.622ZM12.8845 18.2081L13.4037 17.8137L13.7975 18.3329L13.2789 18.7268L12.8845 18.2081ZM13.4294 17.7937L13.9485 17.3998L14.3423 17.9185L13.8237 18.3129L13.4294 17.7937ZM13.9749 17.3798L14.4934 16.9859L14.8872 17.5046L14.3687 17.8984L13.9749 17.3798ZM14.5197 16.9659L15.0383 16.5721L15.4321 17.0907L14.9135 17.4845L14.5197 16.9659ZM15.0646 16.5521L15.5832 16.1577L15.9775 16.6769L15.4584 17.0707L15.0646 16.5521ZM15.6095 16.1382L16.1281 15.7438L16.5224 16.263L16.0033 16.6568L15.6095 16.1382ZM16.1544 15.7237L16.673 15.3299L17.0673 15.8485L16.5488 16.2429L16.1544 15.7237ZM16.6993 15.3099L17.2184 14.9161L17.6122 15.4347L17.0937 15.8285L16.6993 15.3099ZM17.2442 14.896L17.7633 14.5022L18.1571 15.0208L17.6386 15.4146L17.2442 14.896ZM17.7897 14.4822L18.3082 14.0878L18.702 14.607L18.1834 15.0008L17.7897 14.4822ZM18.3345 14.0683L18.8531 13.6739L19.2469 14.1925L18.7283 14.5869L18.3345 14.0683ZM18.8794 13.6538L19.398 13.26L19.7924 13.7786L19.2732 14.173L18.8794 13.6538ZM19.4243 13.24L19.9429 12.8461L20.3372 13.3648L19.8181 13.7586L19.4243 13.24ZM19.9692 12.8261L20.4878 12.4323L20.8822 12.9509L20.3636 13.3447L19.9692 12.8261ZM20.5141 12.4123L21.0332 12.0179L21.427 12.5371L20.9085 12.9309L20.5141 12.4123ZM21.059 11.9984L21.5781 11.604L21.9719 12.1226L21.4534 12.517L21.059 11.9984ZM21.6045 11.5839L22.123 11.1901L22.5168 11.7087L21.9983 12.1031L21.6045 11.5839ZM22.6479 10.7499L22.1293 11.1437L21.7355 10.6251L22.2541 10.2313L22.6479 10.7499ZM22.2341 10.2049L21.7155 10.5988L21.3211 10.0802L21.8403 9.68579L22.2341 10.2049ZM22.3651 9.24555L21.8466 9.63994L21.4523 9.12075L21.9714 8.72688L22.3651 9.24555ZM21.9513 8.70062L21.4322 9.095L21.0384 8.57581L21.5569 8.18194L21.9513 8.70062ZM21.5375 8.15565L21.0184 8.55003L20.6246 8.03084L21.1431 7.63697L21.5375 8.15565ZM21.1231 7.61071L20.6046 8.00455L20.2108 7.48594L20.7293 7.09207L21.1231 7.61071ZM20.7093 7.06574L20.1907 7.45958L19.7963 6.94097L20.3155 6.54655L20.7093 7.06574ZM19.9017 6.00158L20.2955 6.5208L19.7769 6.91464L19.3825 6.39603L19.9017 6.00158ZM19.7506 6.93464L19.232 7.32848L18.8377 6.80987L19.3562 6.41603L19.7506 6.93464ZM19.3368 6.3897L18.8176 6.78354L18.4238 6.26493L18.9424 5.87052L19.3368 6.3897ZM18.9224 5.84473L18.4038 6.23857L18.01 5.71996L18.5286 5.32555L18.9224 5.84473ZM18.5086 5.29922L17.99 5.6936L17.5962 5.17499L18.1148 4.78058L18.5086 5.29922ZM17.7009 4.23564L18.0947 4.75428L17.5762 5.14866L17.1818 4.62947L17.7009 4.23564ZM17.5498 5.1687L17.0313 5.56257L16.6369 5.04393L17.1555 4.64955L17.5498 5.1687ZM17.136 4.62318L16.6169 5.0176L16.2231 4.49838L16.7416 4.10454L17.136 4.62318ZM16.3278 3.5596L16.7217 4.07821L16.2031 4.47263L15.8093 3.95341L16.3278 3.5596ZM16.1767 4.49209L15.6582 4.8865L15.2643 4.36728L15.7829 3.97344L16.1767 4.49209ZM15.7629 3.94712L15.2443 4.34153L14.85 3.82231L15.3691 3.42847L15.7629 3.94712ZM14.9553 2.88357L15.3491 3.40218L14.8306 3.79605L14.4362 3.27741L14.9553 2.88357ZM14.8042 3.81605L14.285 4.21044L13.8912 3.69125L14.4098 3.29737L14.8042 3.81605ZM13.996 2.75247L14.3904 3.27112L13.8712 3.6655L13.4774 3.14631L13.996 2.75247ZM13.8449 3.68495L13.3264 4.07934L12.9326 3.56015L13.4511 3.16631L13.8449 3.68495ZM13.0373 2.62137L13.4311 3.14002L12.9126 3.5344L12.5182 3.01521L13.0373 2.62137ZM12.8862 3.55386L12.3676 3.94828L11.9733 3.42905L12.4924 3.03522L12.8862 3.55386ZM12.078 2.49031L12.4724 3.00892L11.9539 3.40334L11.5595 2.88412L12.078 2.49031ZM11.9275 3.42276L11.4083 3.81718L11.0146 3.29857L11.5331 2.90415L11.9275 3.42276ZM11.1193 2.35925L11.5137 2.87786L10.9946 3.27224L10.6008 2.75302L11.1193 2.35925ZM10.9682 3.29228L10.4497 3.68612L10.0559 3.16751L10.5744 2.77309L10.9682 3.29228ZM10.1606 2.22812L10.5544 2.74676L10.0359 3.14115L9.64148 2.62196L10.1606 2.22812ZM9.6157 2.64199L10.0095 3.16118L9.49095 3.55502L9.09657 3.03641L9.6157 2.64199ZM9.46462 3.57506L8.94607 3.9689L8.5517 3.45025L9.07025 3.05587L9.46462 3.57506ZM8.65646 2.5109L9.05083 3.03012L8.53166 3.42396L8.13788 2.90532L8.65646 2.5109ZM8.11155 2.92477L8.50589 3.44399L7.98676 3.83783L7.59297 3.31922L8.11155 2.92477ZM7.96043 3.85783L7.44188 4.25171L7.04809 3.73307L7.56664 3.33923L7.96043 3.85783ZM7.15285 2.79426L7.54664 3.31286L7.02809 3.7067L6.63372 3.18809L7.15285 2.79426ZM6.60794 3.20813L7.00173 3.72674L6.48318 4.12061L6.08885 3.60197L6.60794 3.20813ZM6.06249 3.62201L6.45682 4.14065L5.93828 4.53503L5.5439 4.01584L6.06249 3.62201ZM5.51758 4.03588L5.91195 4.55449L5.39282 4.94887L4.99903 4.43026L5.51758 4.03588ZM4.9727 4.44975L5.36708 4.96894L4.84795 5.36282L4.45415 4.84417L4.9727 4.44975ZM4.42779 4.86418L4.82159 5.38282L4.30304 5.77666L3.90921 5.25801L4.42779 4.86418ZM3.36379 5.67189L3.88296 5.27805L4.27675 5.79666L3.7582 6.19104L3.36379 5.67189ZM3.75184 6.23686L4.14563 6.75547L3.62708 7.14989L3.23329 6.63124L3.75184 6.23686ZM2.6878 7.04515L3.20693 6.65074L3.60072 7.16996L3.08218 7.5638L2.6878 7.04515ZM3.07588 7.61013L3.46968 8.12874L2.95113 8.52257L2.55679 8.00396L3.07588 7.61013ZM2.01185 8.41781L2.53098 8.02397L2.92477 8.54261L2.40622 8.93699L2.01185 8.41781ZM1.8808 9.37723L2.39993 8.98282L2.79372 9.50204L2.27517 9.89588L1.8808 9.37723ZM1.74972 10.336L2.26885 9.94221L2.66267 10.4608L2.14409 10.8547L1.74972 10.336ZM1.61864 11.2949L2.13777 10.901L2.53156 11.4196L2.01301 11.814L1.61864 11.2949ZM2.03301 11.8398L2.55156 11.446L2.94535 11.9646L2.4268 12.359L2.03301 11.8398ZM1.90196 12.7992L2.42051 12.4048L2.8143 12.924L2.29575 13.3179L1.90196 12.7992ZM2.31579 13.3442L2.83434 12.9503L3.22871 13.469L2.70958 13.8628L2.31579 13.3442ZM2.18471 14.303L2.70326 13.9091L3.09763 14.4278L2.5785 14.8222L2.18471 14.303ZM2.59853 14.8479L3.11766 14.4541L3.51145 14.9727L2.99291 15.3671L2.59853 14.8479ZM2.46745 15.8074L2.98662 15.4129L3.38041 15.9321L2.86186 16.326L2.46745 15.8074ZM2.88128 16.3523L3.40041 15.9584L3.7942 16.477L3.27565 16.8709L2.88128 16.3523ZM3.29569 16.8972L3.81423 16.5034L4.20803 17.022L3.68948 17.4159L3.29569 16.8972ZM3.70948 17.4422L4.22803 17.0483L4.6224 17.567L4.10327 17.9614L3.70948 17.4422ZM4.12331 17.9872L4.64186 17.5933L5.03623 18.1119L4.51706 18.5063L4.12331 17.9872ZM4.53713 18.5327L5.0563 18.1383L5.45009 18.6569L4.93151 19.0513L4.53713 18.5327ZM4.95151 19.0776L5.47005 18.6832L5.86385 19.2024L5.3453 19.5963L4.95151 19.0776ZM5.36533 19.6226L5.88388 19.2282L6.27767 19.7474L5.75912 20.1413L5.36533 19.6226ZM5.77916 20.1675L6.29771 19.7737L6.69208 20.2923L6.17295 20.6862L5.77916 20.1675ZM6.19299 20.7125L6.71153 20.3186L7.10591 20.8373L6.58674 21.2311L6.19299 20.7125ZM7.00115 21.7766L6.60681 21.2574L7.12594 20.8636L7.51973 21.3822L7.00115 21.7766ZM7.15169 20.8436L7.67082 20.4497L8.06461 20.9683L7.54606 21.3622L7.15169 20.8436ZM7.56606 21.3885L8.08461 20.9947L8.47843 21.5133L7.95985 21.9077L7.56606 21.3885ZM8.37368 22.4527L7.97989 21.9335L8.49847 21.5396L8.89281 22.0582L8.37368 22.4527ZM8.52479 21.5196L9.04334 21.1257L9.43772 21.6444L8.91859 22.0388L8.52479 21.5196ZM8.93862 22.0646L9.45775 21.6707L9.85154 22.1894L9.33299 22.5837L8.93862 22.0646ZM10.2654 22.7343L9.74682 23.1287L9.35245 22.6101L9.87158 22.2157L10.2654 22.7343ZM9.87787 22.1693L9.48349 21.6507L10.0027 21.2569L10.3964 21.7755L9.87787 22.1693ZM10.4228 21.7555L10.029 21.2369L10.5476 20.843L10.9413 21.3616L10.4228 21.7555ZM10.9676 21.3416L10.5739 20.823L11.0924 20.4286L11.4862 20.9478L10.9676 21.3416ZM11.5125 20.9277L11.1187 20.4091L11.6373 20.0147L12.0317 20.5333L11.5125 20.9277ZM12.0574 20.5139L11.6636 19.9946L12.1822 19.6008L12.5766 20.1194L12.0574 20.5139ZM12.6029 20.0994L12.2085 19.5808L12.7271 19.187L13.1214 19.7056L12.6029 20.0994ZM13.1478 19.6856L12.7534 19.1669L13.2726 18.7731L13.6663 19.2917L13.1478 19.6856ZM13.6927 19.2717L13.2983 18.753L13.8174 18.3587L14.2112 18.8779L13.6927 19.2717ZM14.2376 18.8578L13.8438 18.3392L14.3623 17.9448L14.7561 18.4634L14.2376 18.8578ZM14.7824 18.4439L14.3887 17.9247L14.9072 17.5309L15.301 18.0495L14.7824 18.4439ZM15.3274 18.0295L14.9336 17.5109L15.4521 17.117L15.8465 17.6357L15.3274 18.0295ZM15.8722 17.6156L15.4784 17.097L15.997 16.7032L16.3914 17.2218L15.8722 17.6156ZM16.4177 17.2018L16.0233 16.6832L16.5419 16.2887L16.9362 16.808L16.4177 17.2018ZM16.9626 16.7879L16.5682 16.2693L17.0874 15.8749L17.4811 16.3935L16.9626 16.7879ZM17.5075 16.3741L17.1131 15.8548L17.6323 15.461L18.0261 15.9796L17.5075 16.3741ZM18.0524 15.9596L17.6586 15.441L18.1771 15.0471L18.5709 15.5658L18.0524 15.9596ZM18.5972 15.5457L18.2035 15.0271L18.722 14.6332L19.1158 15.1519L18.5972 15.5457ZM19.1422 15.1319L18.7484 14.6132L19.2669 14.2189L19.6613 14.738L19.1422 15.1319ZM19.687 14.718L19.2932 14.1988L19.8118 13.8049L20.2062 14.3236L19.687 14.718ZM20.2325 14.3041L19.8381 13.7849L20.3573 13.3911L20.7511 13.9097L20.2325 14.3041ZM20.7774 13.8897L20.383 13.3711L20.9021 12.9772L21.2959 13.4958L20.7774 13.8897ZM21.3223 13.4758L20.9285 12.9572L21.447 12.5634L21.8408 13.082L21.3223 13.4758ZM21.8672 13.062L21.4734 12.5434L21.9919 12.1489L22.3857 12.6682L21.8672 13.062ZM22.4121 12.6481L22.0183 12.1289L22.5368 11.735L22.9312 12.2536L22.4121 12.6481Z" fill="#111111" stroke="black" stroke-width="1.2556" stroke-miterlimit="10"/>
</g>
</g>
</g>
<g opacity="0.3">
<g opacity="0.3">
<g opacity="0.3">
<path opacity="0.3" d="M10.7366 22.3735L9.66441 23.1969C5.24221 21.9125 1.53227 16.2379 1.54379 11.3387C1.55227 7.61829 3.25578 4.87463 5.74554 3.35823C3.87785 4.95632 2.66844 7.39703 2.66147 10.5293C2.64995 15.4115 6.33445 21.0637 10.7366 22.3735Z" fill="#111111"/>
</g>
</g>
</g>
<g opacity="0.55">
<g opacity="0.55">
<g opacity="0.55">
<path opacity="0.55" d="M23.3348 12.7009L9.66429 23.1969C9.64808 23.1922 9.63191 23.1876 9.61574 23.1822L10.4891 22.5115L22.564 13.2406C22.5624 13.2221 22.5617 13.2043 22.5601 13.1858L10.4891 22.5115L22.4962 12.6022C21.7962 7.78555 16.8529 2.94345 10.5839 2.56725C8.52042 2.44313 6.54172 2.92416 4.90833 3.93867C6.6689 2.55724 8.95438 1.88267 11.3547 2.02758C17.9013 2.42084 23.0018 7.68307 23.3348 12.7009Z" fill="white"/>
</g>
</g>
</g>
<path d="M20.3087 25.7624C20.24 25.7624 20.1721 25.732 20.1265 25.6738L20.0058 25.5198C17.9595 23.0111 14.1767 23.4228 12.3405 23.6227C11.9712 23.6629 11.6794 23.6947 11.4787 23.6951C11.4737 23.6951 11.4687 23.6951 11.4638 23.6951C10.4098 23.6951 9.34088 23.4326 8.28584 22.9148C7.29729 22.4295 6.34656 21.734 5.4601 20.8474C4.23407 19.6213 3.1964 18.0921 2.45921 16.4253C1.70503 14.72 1.30837 12.9611 1.31216 11.3385C1.31555 9.87252 1.57744 8.50797 2.09058 7.28262C2.57658 6.12211 3.27825 5.10595 4.17612 4.26244C5.10412 3.39054 6.20611 2.73315 7.45148 2.3084C8.6878 1.88673 10.0057 1.7146 11.3684 1.7967C14.6128 1.99153 17.7007 3.37116 20.0634 5.68125C22.3072 7.87516 23.5906 10.6303 23.5846 13.2403C23.5827 14.0456 23.4242 14.8731 23.1135 15.7003C22.336 18.8635 22.5765 21.1013 23.8485 22.5411C23.9326 22.6363 23.9241 22.7816 23.8296 22.8665C23.735 22.9513 23.5897 22.9439 23.5041 22.8499L20.082 19.0892C19.463 18.4082 18.4392 18.3082 17.7004 18.8563C17.3103 19.1456 17.0596 19.5699 16.9945 20.0511C16.9295 20.5325 17.0586 21.0084 17.358 21.3911C17.358 21.3911 17.358 21.3911 17.3581 21.3911L17.4964 21.568L20.365 25.2282C20.4084 25.2816 20.4511 25.3361 20.4932 25.3919C20.5696 25.4933 20.5501 25.6372 20.4495 25.7145C20.4075 25.7468 20.3579 25.7624 20.3087 25.7624ZM14.6675 23.0043C15.9681 23.0043 17.4383 23.186 18.7142 23.8717L16.9938 21.6761C16.6168 21.1943 16.4543 20.5952 16.5362 19.9891C16.6181 19.3832 16.9337 18.8489 17.4249 18.4848C18.3554 17.7944 19.6448 17.9205 20.424 18.7779L22.5081 21.0682C22.058 19.6442 22.1128 17.8275 22.6677 15.5763C22.6699 15.5673 22.6726 15.5585 22.6758 15.5499C22.9702 14.7705 23.1203 13.9931 23.122 13.2393C23.1278 10.7534 21.8951 8.11916 19.7401 6.012C17.457 3.77966 14.474 2.44661 11.3406 2.25837C8.70103 2.09938 6.26902 2.93078 4.49275 4.59958C2.72093 6.26421 1.78103 8.59482 1.77464 11.3395C1.76736 14.4717 3.34235 18.0754 5.78712 20.5203C7.53631 22.2697 9.5521 23.2326 11.4642 23.2326C11.4688 23.2326 11.473 23.2326 11.4776 23.2326C11.6538 23.2322 11.9348 23.2016 12.2905 23.1629C12.9122 23.0952 13.7476 23.0043 14.6675 23.0043Z" fill="#111111"/>
<path d="M26.998 26.7014L24.8721 28.6835L24.7542 28.7937L24.1113 29.3927C23.8677 29.6201 23.4823 29.5901 23.2773 29.328L22.2844 28.0575H22.2837L22.1881 27.9349L21.5491 27.1178L21.4373 26.9744L20.9957 26.4109L20.8909 26.276L20.517 25.798L20.4199 25.6739L20.3096 25.5328C20.3096 25.532 20.3089 25.532 20.3089 25.5313L19.7123 24.7704L19.6113 24.6416L19.1179 24.0118L19.0224 23.89L18.6917 23.4675L18.5954 23.3449L18.1089 22.7251L18.0018 22.5879L17.3143 21.7106L17.1763 21.5332C16.4771 20.6398 16.6513 19.3462 17.5624 18.6709C17.6094 18.6354 17.658 18.603 17.7074 18.573C17.7721 18.5329 17.8384 18.4967 17.9062 18.4651C18.25 18.3032 18.6269 18.2453 18.9931 18.2885C19.0386 18.2931 19.0848 18.3001 19.1295 18.3093C19.5496 18.3856 19.9466 18.5961 20.2534 18.9337L20.3089 18.9954L20.4438 19.1427L20.5171 19.2237L23.6751 22.6943C23.706 22.7298 23.7383 22.7644 23.7707 22.7991L23.9981 23.0304L24.1184 23.153L24.8429 23.89L24.9593 24.0079L25.9506 25.0163L26.0639 25.1319L27.0112 26.0955C27.1784 26.2651 27.1722 26.5396 26.998 26.7014Z" fill="#F8BF71"/>
<g opacity="0.3">
<g opacity="0.3">
<g opacity="0.3">
<g opacity="0.3">
<path opacity="0.3" d="M18.9929 18.2885C18.838 18.361 18.7108 18.4913 18.6276 18.6647C18.4896 18.9538 18.4872 19.33 18.6214 19.6237C18.8164 20.0508 19.1941 20.3437 19.5587 20.6274C19.6073 20.6659 19.6559 20.703 19.7037 20.7415C20.0605 21.0237 20.4768 21.413 20.5254 21.9148C20.5809 22.4861 20.1322 22.9756 19.8594 23.2169C19.7206 23.3395 19.5703 23.4559 19.4239 23.5684C19.2897 23.6717 19.1525 23.7773 19.0223 23.8899L19.1178 24.0117C19.2473 23.8984 19.3838 23.7935 19.5179 23.6903C19.6659 23.5761 19.8193 23.459 19.9619 23.3325C20.2563 23.072 20.7412 22.5393 20.6787 21.8994C20.6248 21.3398 20.18 20.9219 19.7992 20.6205C19.7507 20.5819 19.7021 20.5442 19.6535 20.5064C19.3036 20.2335 18.9413 19.9521 18.7617 19.5597C18.6461 19.3053 18.6476 18.9807 18.7663 18.7317C18.8257 18.6076 18.9405 18.4488 19.1517 18.3948L19.1294 18.3093L18.9929 18.2885Z" fill="#AC6C29"/>
</g>
</g>
</g>
</g>
<g opacity="0.3">
<g opacity="0.3">
<g opacity="0.3">
<g opacity="0.3">
<path opacity="0.3" d="M17.7073 18.573C17.4707 19.3701 17.7035 20.2428 18.3132 20.7377C18.4358 20.8364 18.5691 20.9196 18.6978 20.9998C18.7773 21.0499 18.8597 21.1008 18.9376 21.1548C18.9599 21.1702 18.9823 21.1856 19.0054 21.201C19.1388 21.2912 19.2767 21.3837 19.3392 21.5179C19.4139 21.6782 19.4432 21.8771 19.4224 22.093C19.3808 22.5185 19.1565 22.9302 18.8212 23.1954C18.7549 23.2478 18.6785 23.2987 18.5953 23.3449L18.6917 23.4675C18.7734 23.4205 18.8489 23.3688 18.916 23.3164C19.2844 23.0258 19.5303 22.5748 19.5758 22.1084C19.5989 21.8648 19.5658 21.6381 19.4787 21.4523C19.3985 21.2797 19.2351 21.1702 19.0917 21.073C19.0694 21.0584 19.047 21.043 19.0254 21.0283C18.9445 20.972 18.8605 20.9196 18.7795 20.8695C18.6547 20.7909 18.5252 20.7107 18.4103 20.6182C17.8099 20.1309 17.6071 19.2421 17.9062 18.465L17.7073 18.573Z" fill="#AC6C29"/>
</g>
</g>
</g>
</g>
<g opacity="0.3">
<g opacity="0.3">
<g opacity="0.3">
<g opacity="0.3">
<path opacity="0.3" d="M18.7277 22.0714C18.7254 22.3034 18.592 22.5239 18.387 22.6334C18.2991 22.6804 18.2035 22.7051 18.1087 22.7251L18.0016 22.5879H18.0039C18.1164 22.5663 18.2228 22.5462 18.3145 22.4977C18.4679 22.4152 18.572 22.244 18.5736 22.0698C18.5743 21.8964 18.4733 21.7229 18.3207 21.6389C18.1896 21.5664 18.0339 21.5564 17.869 21.5464C17.7395 21.5379 17.6054 21.5294 17.4774 21.4893C16.7806 21.2704 16.8145 20.3561 16.8253 20.0562L16.9795 20.0616C16.9524 20.7993 17.1305 21.2187 17.5236 21.3421C17.6339 21.3768 17.7534 21.3844 17.879 21.3922C18.0532 21.403 18.2336 21.4145 18.3955 21.504C18.599 21.6165 18.7292 21.8386 18.7277 22.0714Z" fill="#AC6C29"/>
</g>
</g>
</g>
</g>
<g opacity="0.3">
<g opacity="0.3">
<g opacity="0.3">
<g opacity="0.3">
<path opacity="0.3" d="M21.9455 28.087C21.9368 28.0918 21.9272 28.0958 21.9184 28.0997C21.9264 28.0917 21.9352 28.0861 21.9432 28.0813L21.9455 28.087Z" fill="#AC6C29"/>
</g>
</g>
</g>
<g opacity="0.3">
<g opacity="0.3">
<g opacity="0.3">
<path opacity="0.3" d="M22.1515 24.879C21.9996 25.1095 21.8169 25.3192 21.6404 25.522C21.4963 25.6877 21.3467 25.8596 21.2172 26.0392C21.1494 26.1341 21.0669 26.262 20.9952 26.4108L20.8904 26.2759C20.9467 26.1672 21.0145 26.0577 21.0924 25.949C21.2257 25.7632 21.3776 25.589 21.5248 25.421C21.6975 25.2221 21.8771 25.0163 22.022 24.7942C22.728 23.7196 22.6063 22.1924 21.7391 21.2418C21.5934 21.0823 21.4262 20.935 21.2635 20.7924C21.0631 20.6166 20.8557 20.4347 20.6815 20.2227C20.421 19.9051 20.209 19.4372 20.3084 18.9954L20.4434 19.1427C20.4125 19.5011 20.5967 19.8766 20.801 20.1248C20.9667 20.3268 21.1695 20.5049 21.3652 20.6768C21.531 20.8217 21.7013 20.9721 21.8531 21.1378C22.7658 22.1384 22.8938 23.7466 22.1515 24.879Z" fill="#AC6C29"/>
</g>
</g>
</g>
</g>
<g opacity="0.3">
<g opacity="0.3">
<g opacity="0.3">
<g opacity="0.3">
<path opacity="0.3" d="M21.6955 23.4289C21.6 24.327 21.0788 25.1126 20.5169 25.798L20.4198 25.6738C20.9725 24.9985 21.4519 24.2646 21.5421 23.4127C21.5537 23.3071 21.5583 23.1969 21.5182 23.1028C21.4866 23.0288 21.408 22.9548 21.3248 22.9633C21.1976 22.9756 21.1351 23.1398 21.0765 23.321C20.8646 23.9794 20.3458 24.5128 19.7122 24.7703L19.6112 24.6416C20.2194 24.4042 20.7312 23.8923 20.9301 23.274C20.9864 23.0982 21.0719 22.8338 21.3093 22.8099C21.4511 22.7952 21.5961 22.8909 21.66 23.042C21.714 23.1691 21.7086 23.3087 21.6955 23.4289Z" fill="#AC6C29"/>
</g>
</g>
</g>
</g>
<g opacity="0.3">
<g opacity="0.3">
<g opacity="0.3">
<g opacity="0.3">
<path opacity="0.3" d="M24.9591 24.0079C24.9144 24.1135 24.8705 24.2215 24.8265 24.3301C24.6423 24.7873 24.4519 25.2598 24.1058 25.6153C23.9369 25.788 23.7605 25.8959 23.5816 25.9344C23.5346 25.9452 23.4868 25.9498 23.4398 25.9498C23.2571 25.9498 23.0837 25.8758 22.9819 25.7463C22.864 25.5975 22.8339 25.3763 22.9018 25.1543C22.9526 24.9869 23.0467 24.8413 23.1376 24.7002L23.1669 24.6547C23.483 24.1613 23.8183 23.587 23.9979 23.0304L24.1181 23.153C23.9285 23.7027 23.6032 24.2585 23.2964 24.738L23.2672 24.7843C23.1777 24.9223 23.0937 25.0526 23.049 25.1998C22.9966 25.3725 23.0166 25.5413 23.1029 25.6507C23.1962 25.7679 23.3751 25.8219 23.5492 25.7841C23.698 25.7518 23.8483 25.6584 23.9948 25.5073C24.3208 25.1735 24.505 24.7156 24.6839 24.2723C24.7348 24.1451 24.7864 24.0164 24.8427 23.89L24.9591 24.0079Z" fill="#AC6C29"/>
</g>
</g>
</g>
</g>
<g opacity="0.3">
<g opacity="0.3">
<g opacity="0.3">
<g opacity="0.3">
<path opacity="0.3" d="M26.0639 25.1319C25.9898 25.2753 25.9205 25.4218 25.8526 25.5651C25.7594 25.7617 25.663 25.9652 25.5559 26.1603C25.2337 26.7454 24.8668 27.1224 24.4336 27.3112C24.2617 27.3868 24.0605 27.4292 23.8578 27.4292C23.497 27.4292 23.1309 27.2958 22.9073 26.9774C22.8426 26.8849 22.7917 26.7808 22.7432 26.6799C22.6484 26.4848 22.559 26.3006 22.3847 26.2296C22.1619 26.1379 21.9006 26.2905 21.7758 26.4902C21.7033 26.6074 21.6663 26.7361 21.6278 26.8726C21.6047 26.9543 21.5815 27.0368 21.5491 27.1177L21.4374 26.9744C21.452 26.9273 21.4659 26.8796 21.4798 26.831C21.5191 26.6899 21.5607 26.5442 21.6455 26.4085C21.8035 26.1549 22.145 25.9645 22.4425 26.0863C22.6722 26.1804 22.7786 26.4001 22.8819 26.6121C22.9282 26.7077 22.9759 26.8063 23.0337 26.8888C23.3251 27.3036 23.9433 27.3575 24.3719 27.1702C24.7727 26.9953 25.1157 26.6406 25.421 26.0855C25.5258 25.8952 25.6214 25.6939 25.7132 25.4989C25.7887 25.3393 25.8658 25.1759 25.9506 25.0163L26.0639 25.1319Z" fill="#AC6C29"/>
</g>
</g>
</g>
</g>
<g opacity="0.3">
<g opacity="0.3">
<g opacity="0.3">
<g opacity="0.3">
<path opacity="0.3" d="M21.9432 28.0814L21.9456 28.087C21.9368 28.0918 21.9272 28.0958 21.9185 28.0998C21.9264 28.0918 21.9352 28.0862 21.9432 28.0814Z" fill="#AC6C29"/>
</g>
</g>
</g>
<g opacity="0.3">
<g opacity="0.3">
<g opacity="0.3">
<path opacity="0.3" d="M24.8722 28.6835L24.7543 28.7937C24.7373 28.7844 24.7204 28.7745 24.7034 28.7644C24.5446 28.6681 24.3982 28.5501 24.2563 28.4368C24.0729 28.2904 23.8995 28.1516 23.6991 28.0506C23.2643 27.8317 22.7263 27.8501 22.2846 28.0575H22.2838L22.1882 27.9349C22.6777 27.6936 23.282 27.6682 23.7684 27.9133C23.9835 28.0213 24.1708 28.1716 24.3527 28.3166C24.4907 28.4268 24.6333 28.5409 24.7836 28.6334C24.8129 28.6511 24.8422 28.6681 24.8722 28.6835Z" fill="#AC6C29"/>
</g>
</g>
</g>
</g>
<g opacity="0.65">
<g opacity="0.65">
<g opacity="0.65">
<path opacity="0.65" d="M26.9979 26.7015L26.6818 26.9959C26.7535 26.841 26.7273 26.6506 26.6001 26.5211L23.3596 23.2246C23.3272 23.1899 23.2948 23.1553 23.264 23.1198L20.1052 19.6484L19.8416 19.3585C19.1463 18.593 17.9823 18.4797 17.1514 19.0956C17.1414 19.1026 17.1321 19.1103 17.1229 19.1172C17.2416 18.9507 17.3888 18.7996 17.5622 18.6708C18.3932 18.0541 19.5571 18.1682 20.2532 18.9337L20.5168 19.2237L23.6749 22.6943C23.7057 22.7298 23.7381 22.7644 23.7704 22.7991L27.011 26.0955C27.1783 26.2651 27.1721 26.5396 26.9979 26.7015Z" fill="white"/>
</g>
</g>
</g>
<g opacity="0.3">
<g opacity="0.3">
<g opacity="0.3">
<path opacity="0.3" d="M27.0874 26.5812C27.0659 26.6251 27.0358 26.666 26.998 26.7015L24.1113 29.3927C23.8677 29.6201 23.4823 29.5901 23.2773 29.328L20.3096 25.5328C20.3096 25.532 20.3089 25.532 20.3089 25.5312L17.3143 21.7106L17.1763 21.5333C16.4771 20.6398 16.6513 19.3462 17.5624 18.6709C17.648 18.6077 17.7366 18.5521 17.8276 18.5044C17.4491 19.1897 17.49 20.0655 18.0049 20.7238L18.1429 20.9011L21.1375 24.7217C21.1375 24.7225 21.1383 24.7225 21.1383 24.7233L24.106 28.5185C24.311 28.7806 24.6964 28.8107 24.94 28.5833L27.0874 26.5812Z" fill="#111111"/>
</g>
</g>
</g>
<path d="M23.7237 29.7768C23.7031 29.7768 23.6824 29.776 23.6617 29.7744C23.4391 29.7569 23.2326 29.646 23.095 29.4702L20.127 25.6752C20.1244 25.6719 20.1219 25.6685 20.1195 25.665L16.9937 21.6762C16.6167 21.1944 16.4541 20.5953 16.5361 19.9892C16.618 19.3833 16.9336 18.849 17.4248 18.4848C18.3552 17.7945 19.6446 17.9206 20.4239 18.778L23.846 22.5387C23.8473 22.5401 23.8486 22.5416 23.8499 22.543C23.8773 22.5747 23.9066 22.6062 23.9375 22.6396L27.1757 25.9334C27.3006 26.0604 27.3672 26.2284 27.3634 26.4065C27.3595 26.5846 27.2856 26.7495 27.1554 26.8709L24.2689 29.5623C24.1208 29.7003 23.9249 29.7768 23.7237 29.7768ZM20.4982 25.399L23.4593 29.1851C23.518 29.2603 23.6028 29.3057 23.6978 29.3132C23.793 29.3209 23.8837 29.2889 23.9535 29.2239L26.84 26.5326C26.8782 26.497 26.8998 26.4486 26.901 26.3964C26.9021 26.3442 26.8826 26.295 26.8459 26.2577L23.6054 22.9615C23.6039 22.9599 23.6024 22.9584 23.6009 22.9568C23.568 22.9213 23.5347 22.8854 23.5021 22.8479L20.0818 19.0892C19.4629 18.4083 18.4391 18.3082 17.7002 18.8563C17.3101 19.1456 17.0594 19.5699 16.9944 20.0511C16.9293 20.5325 17.0584 21.0084 17.3579 21.3911L17.4963 21.568L20.4904 25.3884C20.4931 25.3919 20.4957 25.3955 20.4982 25.399Z" fill="#111111"/>
<path d="M9.72979 23.4072C9.67208 23.4072 9.61502 23.3813 9.57703 23.3321C9.51204 23.2478 9.5277 23.1268 9.61197 23.0618L23.2195 12.5693C23.3038 12.5044 23.4248 12.52 23.4898 12.6043C23.5548 12.6886 23.5391 12.8096 23.4548 12.8746L9.8473 23.367C9.81229 23.3941 9.77089 23.4072 9.72979 23.4072Z" fill="#111111"/>
<g opacity="0.3">
<g opacity="0.3">
<g opacity="0.3">
<path opacity="0.3" d="M16.7468 20.9558L19.04 24.105L17.1739 23.5253C17.1639 23.5076 17.1546 23.4898 17.1454 23.4729C16.6736 23.4158 14.8738 23.1977 14.8483 23.1969C14.8082 23.1969 12.0255 23.3804 12.0255 23.3804L10.3975 23.2848L10.4738 23.2192L9.93115 23.2424L23.1022 12.9029L23.2278 13.2976L12.6391 21.6041C12.3032 21.8676 12.5179 22.407 12.943 22.3668C14.3827 22.2304 15.8391 22.14 16.6666 22.3335C16.3744 21.3298 16.4731 20.4471 16.7467 19.6191V20.9558H16.7468Z" fill="#111111"/>
</g>
</g>
</g>
<g opacity="0.3">
<g opacity="0.3">
<g opacity="0.3">
<path opacity="0.3" d="M8.87855 20.4248C9.02631 20.4248 9.14608 20.305 9.14608 20.1573C9.14608 20.0095 9.02631 19.8897 8.87855 19.8897C8.7308 19.8897 8.61102 20.0095 8.61102 20.1573C8.61102 20.305 8.7308 20.4248 8.87855 20.4248Z" fill="#111111"/>
</g>
</g>
</g>
<g opacity="0.3">
<g opacity="0.3">
<g opacity="0.3">
<path opacity="0.3" d="M8.02504 16.8196C8.17279 16.8196 8.29257 16.6998 8.29257 16.552C8.29257 16.4043 8.17279 16.2845 8.02504 16.2845C7.87729 16.2845 7.75751 16.4043 7.75751 16.552C7.75751 16.6998 7.87729 16.8196 8.02504 16.8196Z" fill="#111111"/>
</g>
</g>
</g>
<g opacity="0.3">
<g opacity="0.3">
<g opacity="0.3">
<path opacity="0.3" d="M5.44783 15.8525C5.59558 15.8525 5.71536 15.7327 5.71536 15.5849C5.71536 15.4372 5.59558 15.3174 5.44783 15.3174C5.30008 15.3174 5.1803 15.4372 5.1803 15.5849C5.1803 15.7327 5.30008 15.8525 5.44783 15.8525Z" fill="#111111"/>
</g>
</g>
</g>
<g opacity="0.3">
<g opacity="0.3">
<g opacity="0.3">
<path opacity="0.3" d="M7.01485 18.8729C7.11066 18.8729 7.18832 18.7952 7.18832 18.6994C7.18832 18.6036 7.11066 18.5259 7.01485 18.5259C6.91904 18.5259 6.84137 18.6036 6.84137 18.6994C6.84137 18.7952 6.91904 18.8729 7.01485 18.8729Z" fill="#111111"/>
</g>
</g>
</g>
<g opacity="0.3">
<g opacity="0.3">
<g opacity="0.3">
<path opacity="0.3" d="M5.00667 12.3514C5.10247 12.3514 5.18014 12.2737 5.18014 12.1779C5.18014 12.0821 5.10247 12.0044 5.00667 12.0044C4.91086 12.0044 4.83319 12.0821 4.83319 12.1779C4.83319 12.2737 4.91086 12.3514 5.00667 12.3514Z" fill="#111111"/>
</g>
</g>
</g>
<g opacity="0.3">
<g opacity="0.3">
<g opacity="0.3">
<path opacity="0.3" d="M10.5633 17.3227C10.6387 17.3227 10.6998 17.2615 10.6998 17.1861C10.6998 17.1107 10.6387 17.0496 10.5633 17.0496C10.4879 17.0496 10.4268 17.1107 10.4268 17.1861C10.4268 17.2615 10.4879 17.3227 10.5633 17.3227Z" fill="#111111"/>
</g>
</g>
</g>
<g opacity="0.3">
<g opacity="0.3">
<g opacity="0.3">
<path opacity="0.3" d="M7.42775 11.5442C7.48106 11.5442 7.52427 11.501 7.52427 11.4477C7.52427 11.3944 7.48106 11.3512 7.42775 11.3512C7.37445 11.3512 7.33124 11.3944 7.33124 11.4477C7.33124 11.501 7.37445 11.5442 7.42775 11.5442Z" fill="#111111"/>
</g>
</g>
</g>
<g opacity="0.3">
<g opacity="0.3">
<g opacity="0.3">
<path opacity="0.3" d="M6.37893 14.4737C6.43223 14.4737 6.47544 14.4305 6.47544 14.3772C6.47544 14.3239 6.43223 14.2806 6.37893 14.2806C6.32562 14.2806 6.28241 14.3239 6.28241 14.3772C6.28241 14.4305 6.32562 14.4737 6.37893 14.4737Z" fill="#111111"/>
</g>
</g>
</g>
<g opacity="0.3">
<g opacity="0.3">
<g opacity="0.3">
<path opacity="0.3" d="M7.88862 13.9671C7.99761 13.9671 8.08596 13.8787 8.08596 13.7697C8.08596 13.6607 7.99761 13.5723 7.88862 13.5723C7.77964 13.5723 7.69128 13.6607 7.69128 13.7697C7.69128 13.8787 7.77964 13.9671 7.88862 13.9671Z" fill="#111111"/>
</g>
</g>
</g>
<path d="M5.49755 26.731C7.29385 26.731 8.75003 25.2746 8.75003 23.4781C8.75003 21.6816 7.29385 20.2253 5.49755 20.2253C3.70125 20.2253 2.24506 21.6816 2.24506 23.4781C2.24506 25.2746 3.70125 26.731 5.49755 26.731Z" fill="white"/>
<g opacity="0.3">
<g opacity="0.3">
<g opacity="0.3">
<path opacity="0.3" d="M8.69338 24.0806C8.41125 25.5893 7.08774 26.731 5.49754 26.731C3.70151 26.731 2.24542 25.2748 2.24542 23.4778C2.24542 22.5966 2.59538 21.7972 3.16426 21.212C3.12802 21.4071 3.10877 21.6075 3.10877 21.8133C3.10877 23.6104 4.56564 25.0666 6.36164 25.0666C7.27661 25.0666 8.10293 24.6889 8.69338 24.0806Z" fill="#111111"/>
</g>
</g>
</g>
<path d="M5.49778 26.9167C3.60195 26.9167 2.05957 25.3742 2.05957 23.4781C2.05957 21.5821 3.60195 20.0395 5.49778 20.0395C7.3936 20.0395 8.93598 21.5821 8.93598 23.4781C8.93598 25.3742 7.3936 26.9167 5.49778 26.9167ZM5.49778 20.411C3.80678 20.411 2.43104 21.7869 2.43104 23.4781C2.43104 25.1693 3.80678 26.5452 5.49778 26.5452C7.18878 26.5452 8.56455 25.1693 8.56455 23.4781C8.56455 21.7869 7.18878 20.411 5.49778 20.411Z" fill="#111111"/>
<g opacity="0.3">
<g opacity="0.3">
<g opacity="0.3">
<path opacity="0.3" d="M4.5805 23.6389C4.66928 23.6389 4.74126 23.5669 4.74126 23.4781C4.74126 23.3894 4.66928 23.3174 4.5805 23.3174C4.49171 23.3174 4.41974 23.3894 4.41974 23.4781C4.41974 23.5669 4.49171 23.6389 4.5805 23.6389Z" fill="#111111"/>
</g>
</g>
</g>
<g opacity="0.3">
<g opacity="0.3">
<g opacity="0.3">
<path opacity="0.3" d="M7.10654 24.57C7.14283 24.57 7.17225 24.5405 7.17225 24.5042C7.17225 24.4679 7.14283 24.4385 7.10654 24.4385C7.07025 24.4385 7.04083 24.4679 7.04083 24.5042C7.04083 24.5405 7.07025 24.57 7.10654 24.57Z" fill="#111111"/>
</g>
</g>
</g>
<g opacity="0.3">
<g opacity="0.3">
<g opacity="0.3">
<path opacity="0.3" d="M3.74898 22.5503C3.77464 22.5503 3.79544 22.5295 3.79544 22.5038C3.79544 22.4781 3.77464 22.4573 3.74898 22.4573C3.72332 22.4573 3.70251 22.4781 3.70251 22.5038C3.70251 22.5295 3.72332 22.5503 3.74898 22.5503Z" fill="#111111"/>
</g>
</g>
</g>
<g opacity="0.3">
<g opacity="0.3">
<g opacity="0.3">
<path opacity="0.3" d="M7.44881 24.018C7.47447 24.018 7.49527 23.9972 7.49527 23.9715C7.49527 23.9459 7.47447 23.925 7.44881 23.925C7.42315 23.925 7.40234 23.9459 7.40234 23.9715C7.40234 23.9972 7.42315 24.018 7.44881 24.018Z" fill="#111111"/>
</g>
</g>
</g>
<g opacity="0.3">
<g opacity="0.3">
<g opacity="0.3">
<path opacity="0.3" d="M5.56314 24.5042C5.61416 24.5042 5.65552 24.4628 5.65552 24.4118C5.65552 24.3608 5.61416 24.3194 5.56314 24.3194C5.51212 24.3194 5.47076 24.3608 5.47076 24.4118C5.47076 24.4628 5.51212 24.5042 5.56314 24.5042Z" fill="#111111"/>
</g>
</g>
</g>
<g opacity="0.3">
<g opacity="0.3">
<g opacity="0.3">
<path opacity="0.3" d="M4.96928 22.4673C5.00557 22.4673 5.03499 22.4379 5.03499 22.4016C5.03499 22.3653 5.00557 22.3358 4.96928 22.3358C4.93298 22.3358 4.90356 22.3653 4.90356 22.4016C4.90356 22.4379 4.93298 22.4673 4.96928 22.4673Z" fill="#111111"/>
</g>
</g>
</g>
<g opacity="0.3">
<g opacity="0.3">
<g opacity="0.3">
<path opacity="0.3" d="M5.81881 23.5702C5.88267 23.5702 5.93444 23.5185 5.93444 23.4546C5.93444 23.3908 5.88267 23.339 5.81881 23.339C5.75496 23.339 5.70319 23.3908 5.70319 23.4546C5.70319 23.5185 5.75496 23.5702 5.81881 23.5702Z" fill="#111111"/>
</g>
</g>
</g>
<g opacity="0.2">
<g opacity="0.2">
<g opacity="0.2">
<path opacity="0.2" d="M17.7424 10.3436C18.3323 11.7274 18.3424 13.0488 19.2784 12.6497C20.2144 12.2505 20.495 10.8051 19.905 9.42131C19.315 8.03751 18.078 7.23931 17.142 7.63841C16.2059 8.03752 17.1524 8.95971 17.7424 10.3436Z" fill="white"/>
</g>
</g>
</g>
</svg>
