<svg width="35" height="35" viewBox="0 0 35 35" fill="none" xmlns="http://www.w3.org/2000/svg">
<path d="M32.0803 8.78572L32.0809 8.78667C33.0169 10.4121 33.6916 12.2253 34.0347 14.1787M32.0803 8.78572L14.9147 0.773651M32.0803 8.78572C31.7561 8.22538 31.4015 7.68526 31.0147 7.1709M32.0803 8.78572L19.7637 0.642888M34.0347 14.1787L33.5423 14.2652L34.0347 14.1786C34.0347 14.1787 34.0347 14.1787 34.0347 14.1787ZM34.0347 14.1787C35.613 23.1603 29.6115 31.7206 20.6297 33.2987C11.648 34.8769 3.08779 28.8755 1.50965 19.8937C-0.0686283 10.9121 5.93302 2.35179 14.9147 0.773651M14.9147 0.773651C16.5575 0.484904 18.1871 0.450383 19.7637 0.642888M14.9147 0.773651L19.7637 0.642888M19.7637 0.642888C20.4089 0.719472 21.0454 0.834223 21.6701 0.989108C25.4115 1.89797 28.7243 4.0975 31.0147 7.1709M31.0147 7.1709C31.015 7.17123 31.0152 7.17155 31.0154 7.17187L30.6145 7.47062M31.0147 7.1709C31.0145 7.17063 31.0143 7.17036 31.0141 7.17009L30.6145 7.47062M30.6145 7.47062C28.3933 4.48952 25.1796 2.35589 21.5509 1.4747L30.6145 7.47062Z" fill="#C0CA33" stroke="black"/>
<g opacity="0.3">
<g opacity="0.3">
<g opacity="0.3">
<path opacity="0.3" d="M32.7256 22.7657C32.7224 22.7721 32.7207 22.7795 32.7175 22.786C31.9092 24.8815 30.6693 26.785 29.0849 28.3702C27.024 30.0654 24.5107 31.2678 21.6947 31.7627C12.9849 33.2932 4.68394 27.4734 3.15359 18.7636C2.34694 14.1731 3.58112 9.6967 6.20469 6.26514C5.34017 8.75683 5.07826 11.4967 5.56714 14.2788C7.09762 22.9885 15.3986 28.8083 24.1082 27.2779C27.4695 26.6873 30.4016 25.0877 32.646 22.8454C32.6733 22.8187 32.6995 22.7921 32.7256 22.7657Z" fill="#181818"/>
</g>
</g>
</g>
<g opacity="0.55">
<g opacity="0.55">
<g opacity="0.55">
<path opacity="0.55" d="M31.281 25.6298C32.7519 22.6746 33.3249 19.2406 32.7095 15.7387C32.3765 13.8438 31.7225 12.0872 30.8149 10.5112C30.4996 9.96525 30.1562 9.44317 29.7819 8.94563C29.1402 8.08378 28.4161 7.29352 27.6227 6.58436C26.2841 7.26872 23.3544 5.41007 23.5457 3.92639C22.6406 3.51326 21.6947 3.18479 20.718 2.94822C20.1137 2.79833 19.4972 2.68713 18.8709 2.61272C17.3427 2.42629 15.7626 2.46095 14.1685 2.74112C9.5568 3.55138 5.75545 6.25923 3.42578 9.92283C5.61263 5.52179 9.78883 2.18197 15.0011 1.26611C16.5951 0.985933 18.1754 0.952605 19.7037 1.1393C20.3298 1.21358 20.9464 1.32481 21.5508 1.4747C25.1795 2.35589 28.3931 4.48952 30.6144 7.47062C30.9886 7.96815 31.3323 8.4917 31.6475 9.03617C32.5551 10.6121 33.2093 12.3702 33.5421 14.2652C34.2628 18.3659 33.3533 22.3756 31.281 25.6298Z" fill="white"/>
</g>
</g>
</g>
<path d="M31.6467 9.03604C29.7055 10.7966 28.3059 13.8739 26.912 19.132C26.9101 19.1382 26.9087 19.1459 26.9067 19.1519C26.8695 19.315 26.8264 19.4777 26.7799 19.6381C26.7716 19.6658 26.7651 19.6949 26.7569 19.7241C26.7457 19.7685 26.7312 19.8105 26.7149 19.8515C26.7138 19.8532 26.7125 19.8548 26.7129 19.8563C25.6905 23.0823 22.9513 25.6475 19.3943 26.2724C14.3013 27.1673 9.42989 23.752 8.53496 18.659C7.85806 14.8066 9.64832 11.0797 12.7652 9.10672C12.7953 9.08685 12.8257 9.06831 12.8561 9.04977C13.2468 8.80841 13.6569 8.5945 14.0859 8.41235C16.8768 6.77478 19.2888 3.9789 19.7028 1.13916C20.3289 1.21344 20.9455 1.32467 21.5499 1.47456C21.2026 3.72902 19.8969 5.89879 18.1158 7.66331C17.165 8.60585 16.0766 9.43222 14.9268 10.0922C14.5465 10.3098 14.1588 10.5096 13.7676 10.6895C11.272 12.2678 9.83821 15.2503 10.3802 18.3347C11.0963 22.41 14.9947 25.1432 19.0699 24.4271C21.9713 23.9174 24.1927 21.7945 24.9721 19.1436C25.0169 18.9908 25.0571 18.836 25.0927 18.6805C25.5598 16.917 26.0465 15.3068 26.594 13.8586C27.632 11.1141 28.8832 8.95829 30.6133 7.47048C30.9878 7.96802 31.3314 8.49156 31.6467 9.03604Z" fill="white"/>
<g opacity="0.19">
<g opacity="0.19">
<g opacity="0.19">
<path opacity="0.19" d="M30.4922 7.57706C28.8244 9.06128 27.6074 11.1788 26.5946 13.8589C26.0472 15.3071 25.5604 16.9175 25.0933 18.6808C25.0577 18.8363 25.0176 18.9911 24.9728 19.1439C24.1932 21.7948 21.9719 23.9177 19.0706 24.4273C19.0407 24.4327 19.0095 24.4381 18.9795 24.4419C21.8382 23.9058 24.0229 21.7998 24.7953 19.175C24.8401 19.0222 24.8802 18.8673 24.9158 18.7118C25.3829 16.9484 25.8697 15.3382 26.4171 13.89C27.4551 11.1454 28.7064 8.98963 30.4366 7.50195C30.4556 7.52636 30.4748 7.55226 30.4922 7.57706Z" fill="#181818"/>
</g>
</g>
</g>
<g opacity="0.19">
<g opacity="0.19">
<g opacity="0.19">
<path opacity="0.19" d="M19.2293 26.3003C19.1672 26.3127 19.1046 26.3238 19.0407 26.335C13.9477 27.2299 9.07637 23.8147 8.18144 18.7217C7.50455 14.8692 9.2948 11.1423 12.4117 9.16935C12.4418 9.14948 12.4722 9.13094 12.5026 9.1124C12.8933 8.87104 13.3035 8.657 13.7325 8.47485C16.5234 6.83728 18.9353 4.04154 19.3495 1.20166C19.4616 1.21553 19.5739 1.22966 19.6863 1.24486C19.2306 4.04807 16.8439 6.79553 14.0874 8.41256C13.6584 8.59472 13.2483 8.80876 12.8576 9.04999C12.8272 9.06853 12.7968 9.08693 12.7666 9.10694C9.64965 11.0799 7.85953 14.8068 8.53643 18.6593C9.42149 23.6968 14.1972 27.0923 19.2293 26.3003Z" fill="#181818"/>
</g>
</g>
</g>
</svg>
