<svg width="28" height="28" viewBox="0 0 28 28" fill="none" xmlns="http://www.w3.org/2000/svg">
<path d="M14.3377 27.018C21.6498 27.018 27.5774 21.0897 27.5774 13.7768C27.5774 6.46386 21.6498 0.535568 14.3377 0.535568C7.02563 0.535568 1.09802 6.46386 1.09802 13.7768C1.09802 21.0897 7.02563 27.018 14.3377 27.018Z" fill="#FFCA28"/>
<path d="M23.3009 12.3061C24.7268 11.3864 25.7264 10.0291 26.1967 8.12862C23.8011 3.3647 19.562 0.504471 13.5074 0.561318C19.3 2.00553 22.9128 6.46873 23.3009 12.3061Z" fill="white"/>
<g opacity="0.3">
<g opacity="0.3">
<g opacity="0.3">
<path opacity="0.3" d="M24.5098 11.3128C24.1507 11.6881 23.7467 12.0186 23.3007 12.3062C22.9129 6.46886 19.3001 2.00559 13.5074 0.561687C13.8235 0.559043 14.1343 0.563479 14.4397 0.576933C19.7981 2.20622 23.1198 6.53159 23.4906 12.1163C23.8596 11.878 24.1999 11.6111 24.5098 11.3128Z" fill="#111111"/>
</g>
</g>
</g>
<path d="M12.3324 15.0941C14.3877 15.6648 16.931 15.4225 18.5318 14.7246C18.2893 8.89876 12.2583 3.05927 6.21736 3.48348C4.88606 4.39516 3.87493 5.72351 3.16113 7.0564C8.32198 7.7436 10.6282 10.6939 12.3324 15.0941Z" fill="#22A7F0"/>
<g opacity="0.55">
<g opacity="0.55">
<g opacity="0.55">
<path opacity="0.55" d="M18.5317 14.7245C18.3982 14.7828 18.2586 14.8374 18.1135 14.8885C17.8277 9.11839 11.7475 3.35824 5.69666 3.88093C5.7996 3.80216 6.10977 3.55692 6.21723 3.48347C12.258 3.05891 18.2889 8.8989 18.5317 14.7245Z" fill="#FCE5E5"/>
</g>
</g>
</g>
<path d="M11.8373 24.6333C11.8373 24.6333 12.1172 26.156 12.8337 26.839C16.2356 27.3225 19.1986 26.535 21.7225 24.4765C18.0545 25.5433 14.6989 25.7603 11.8373 24.6333Z" fill="white"/>
<path d="M12.2031 15.262C10.9497 19.091 10.8466 24.2489 12.4494 26.6897C10.3547 26.5247 8.4967 25.7745 6.85559 24.4877C5.18006 20.1883 6.01469 13.1819 9.37446 10.4523C10.7226 11.8265 11.7306 13.3929 12.2031 15.262Z" fill="#22A7F0"/>
<path d="M2.98221 7.05681C4.11003 7.12582 5.05664 7.37355 5.75469 7.86638C2.86985 10.6257 1.96189 14.4055 2.04155 18.6952C0.507766 15.0604 0.923104 9.78807 2.98221 7.05681Z" fill="white"/>
<path d="M11.4641 19.8376C17.4083 21.2361 25.0697 19.1807 27.4953 13.3959C27.5635 11.728 27.2286 10.1044 26.3152 8.54422C23.8682 13.7768 17.7618 15.9022 12.2231 15.4577C11.641 17.0544 11.3437 18.5327 11.4641 19.8376Z" fill="#22A7F0"/>
<g opacity="0.55">
<g opacity="0.55">
<g opacity="0.55">
<path opacity="0.55" d="M27.0059 10.023C26.8706 9.71489 26.7148 9.40854 26.5375 9.10495C24.0907 14.3376 17.9845 16.4631 12.4461 16.0189C11.9392 17.4081 11.6482 18.7086 11.6615 19.882C11.5953 19.8677 11.529 19.8524 11.4636 19.8372C11.3436 18.5331 11.641 17.0543 12.2231 15.4573C17.7614 15.9024 23.8677 13.7769 26.3153 8.54422C26.6002 9.03056 26.8286 9.5241 27.0059 10.023Z" fill="#FCE5E5"/>
</g>
</g>
</g>
<g opacity="0.3">
<g opacity="0.3">
<g opacity="0.3">
<path opacity="0.3" d="M27.4952 13.3963C25.0699 19.1807 17.4081 21.2363 11.4639 19.8372C11.4496 19.685 11.4416 19.53 11.4398 19.3724C17.3624 20.7034 24.9186 18.6352 27.3251 12.8973C27.3671 11.8691 27.2561 10.8578 26.9498 9.86806C27.3842 11.0164 27.5445 12.1951 27.4952 13.3963Z" fill="#111111"/>
</g>
</g>
</g>
<g opacity="0.55">
<g opacity="0.55">
<g opacity="0.55">
<path opacity="0.55" d="M24.1211 22.6981C25.5755 20.5726 26.4272 18.0002 26.4272 15.2288C26.4272 7.91537 20.4992 1.98763 13.1876 1.98763C9.31146 1.98763 5.82399 3.65366 3.40411 6.30852C5.78819 2.82243 9.796 0.535675 14.3376 0.535675C21.6501 0.535675 27.5772 6.46346 27.5772 13.7769C27.5772 17.2137 26.2678 20.3442 24.1211 22.6981Z" fill="#FCE5E5"/>
</g>
</g>
</g>
<g opacity="0.55">
<g opacity="0.55">
<g opacity="0.55">
<path opacity="0.55" d="M9.23309 10.8842C10.3519 12.2725 11.2423 13.8848 11.9043 15.721C11.9043 15.721 12.0561 15.273 12.1142 15.1276C12.1723 14.9823 10.6466 11.957 10.6466 11.957L9.47146 10.5525L9.23309 10.8842Z" fill="#FCE5E5"/>
</g>
</g>
</g>
<g opacity="0.8">
<g opacity="0.8">
<g opacity="0.8">
<path opacity="0.8" d="M5.69701 8.12865C6.99791 8.78895 8.07025 9.68251 9.00514 10.7163L9.3332 10.2443C9.3332 10.2443 6.44425 7.82766 6.01744 7.83886C5.59064 7.85002 5.69701 8.12865 5.69701 8.12865Z" fill="#FCE5E5"/>
</g>
</g>
</g>
<path d="M14.3379 27.2783C12.5155 27.2783 10.7475 26.9213 9.08297 26.2172C7.47536 25.5372 6.03167 24.5637 4.79193 23.3238C3.55219 22.0839 2.57885 20.6401 1.89887 19.0323C1.19487 17.3676 0.837891 15.5994 0.837891 13.7768C0.837891 11.9542 1.19487 10.186 1.89887 8.52128C2.57885 6.91349 3.55219 5.46963 4.79193 4.22974C6.03167 2.98986 7.47536 2.0164 9.08297 1.33634C10.7475 0.632258 12.5155 0.275238 14.3379 0.275238C16.1602 0.275238 17.9282 0.632258 19.5928 1.33634C21.2004 2.0164 22.6441 2.98986 23.8838 4.22974C25.1236 5.46963 26.0969 6.91349 26.7769 8.52128C27.4809 10.186 27.8379 11.9542 27.8379 13.7768C27.8379 15.5994 27.4809 17.3676 26.7769 19.0323C26.0969 20.6401 25.1236 22.0839 23.8838 23.3238C22.6441 24.5637 21.2004 25.5372 19.5928 26.2172C17.9282 26.9213 16.1602 27.2783 14.3379 27.2783ZM14.3379 0.795955C7.18106 0.795955 1.35855 6.61914 1.35855 13.7768C1.35855 20.9344 7.18106 26.7576 14.3379 26.7576C21.4947 26.7576 27.3172 20.9344 27.3172 13.7768C27.3172 6.61914 21.4947 0.795955 14.3379 0.795955Z" fill="#111111"/>
<path d="M12.5612 27.0711C11.6578 26.0355 11.1273 23.9063 11.1057 21.2296C11.087 18.9136 11.4527 16.6059 12.041 15.3065C10.5551 10.7268 6.65116 7.28423 2.92883 7.28423V6.82857C4.80034 6.82857 6.79847 7.66377 8.55517 9.18038C10.3503 10.7302 11.7521 12.8867 12.5022 15.2528L12.5293 15.3385L12.4907 15.4196C11.9164 16.6257 11.5429 18.9591 11.5613 21.2259C11.582 23.7954 12.0716 25.8167 12.9045 26.7716L12.5612 27.0711Z" fill="#111111"/>
<g opacity="0.19">
<g opacity="0.19">
<g opacity="0.19">
<path opacity="0.19" d="M16.2531 16.5715C13.6083 15.1676 13.0323 11.0749 13.8321 9.56791C14.6318 8.06094 16.5043 9.71041 19.1491 11.1142C21.7938 12.518 24.2092 13.1446 23.4095 14.6516C22.6098 16.1585 18.8978 17.9752 16.2531 16.5715Z" fill="white"/>
</g>
</g>
</g>
<path d="M14.2822 15.6858C13.5972 15.6858 12.9176 15.6401 12.2533 15.5473L12.3164 15.096C17.7097 15.8497 24.5122 13.3758 26.0966 8.06351L26.5332 8.19377C26.1357 9.52631 25.4138 10.7393 24.3875 11.7991C23.439 12.7784 22.257 13.6025 20.8744 14.2483C18.8619 15.1883 16.543 15.6858 14.2822 15.6858Z" fill="#111111"/>
<path d="M18.8246 14.8609L18.3694 14.843C18.4735 12.1933 16.8682 9.06995 14.1798 6.69178C11.5837 4.39527 8.56292 3.26409 6.0993 3.6661L6.02594 3.21639C8.62299 2.79268 11.7841 3.96429 14.4816 6.35051C15.8031 7.51955 16.9039 8.89454 17.665 10.3269C18.48 11.8605 18.8809 13.4284 18.8246 14.8609Z" fill="#111111"/>
<path d="M22.8905 12.6386C22.7105 8.97553 21.2104 5.75354 18.6662 3.5662C16.5613 1.75646 13.9122 0.817827 11.5796 1.05571L11.5334 0.60242C13.9881 0.352211 16.7653 1.33101 18.9632 3.22069C20.2125 4.29474 21.2224 5.60364 21.9651 7.111C22.7832 8.77167 23.2476 10.624 23.3455 12.6164L22.8905 12.6386Z" fill="#111111"/>
<path d="M7.08663 25.1111C5.32309 22.7836 5.47491 18.784 6.205 15.8172C6.9013 12.9878 8.13533 10.8532 9.42553 10.2462L9.61945 10.6585C8.4682 11.2002 7.30159 13.2678 6.64743 15.9262C6.24295 17.5697 6.07546 19.3033 6.17576 20.8078C6.288 22.4912 6.72853 23.8842 7.44975 24.836L7.08663 25.1111Z" fill="#111111"/>
<path d="M2.27814 19.7655C1.75652 17.7617 1.82713 15.2766 2.47188 12.9474C3.14276 10.5239 4.31994 8.60997 5.78653 7.5584L6.05199 7.92867C3.23626 9.94764 1.64762 15.5347 2.71902 19.6507L2.27814 19.7655Z" fill="#111111"/>
<path d="M15.1126 20.6189C13.8008 20.6189 12.5147 20.475 11.3113 20.2059L11.4108 19.7613C16.9463 20.9987 24.3016 19.526 27.37 13.368L27.7778 13.5712C25.2706 18.603 20.0182 20.6189 15.1126 20.6189Z" fill="#111111"/>
<path d="M16.407 25.3871C14.7032 25.3871 12.9946 25.1379 11.5883 24.6668L11.7329 24.2348C13.6257 24.8687 16.0887 25.0874 18.3214 24.8198C20.8694 24.5145 22.9601 23.604 24.2083 22.2562L24.5426 22.5659C22.8487 24.3948 20.254 25.0471 18.3756 25.2722C17.7323 25.3493 17.0699 25.3871 16.407 25.3871Z" fill="#111111"/>
<g opacity="0.3">
<g opacity="0.3">
<g opacity="0.3">
<path opacity="0.3" d="M26.6922 18.5486C26.1019 20.0763 25.2362 21.4674 24.1564 22.6599C21.7665 25.0182 18.4829 26.4744 14.8589 26.4744C7.54718 26.4744 1.61914 20.5456 1.61914 13.233C1.61914 9.8124 2.91564 6.69574 5.04526 4.34588C5.24572 4.14867 5.45205 3.95728 5.66424 3.77306C5.09149 5.25265 4.7784 6.86177 4.7784 8.54441C4.7784 15.857 10.7065 21.785 18.0182 21.785C21.3363 21.785 24.3687 20.5645 26.6922 18.5486Z" fill="#111111"/>
</g>
</g>
</g>
<g opacity="0.3">
<g opacity="0.3">
<g opacity="0.3">
<path opacity="0.3" d="M10.5114 18.071C10.7091 18.071 10.8694 17.9107 10.8694 17.7129C10.8694 17.5152 10.7091 17.3549 10.5114 17.3549C10.3137 17.3549 10.1534 17.5152 10.1534 17.7129C10.1534 17.9107 10.3137 18.071 10.5114 18.071Z" fill="#111111"/>
</g>
</g>
</g>
<g opacity="0.3">
<g opacity="0.3">
<g opacity="0.3">
<path opacity="0.3" d="M8.16933 14.9292C8.36705 14.9292 8.52732 14.7689 8.52732 14.5711C8.52732 14.3734 8.36705 14.2131 8.16933 14.2131C7.97162 14.2131 7.81134 14.3734 7.81134 14.5711C7.81134 14.7689 7.97162 14.9292 8.16933 14.9292Z" fill="#111111"/>
</g>
</g>
</g>
<g opacity="0.3">
<g opacity="0.3">
<g opacity="0.3">
<path opacity="0.3" d="M9.69082 8.5548C9.88851 8.5548 10.0488 8.39452 10.0488 8.1968C10.0488 7.99909 9.88851 7.83882 9.69082 7.83882C9.49314 7.83882 9.33289 7.99909 9.33289 8.1968C9.33289 8.39452 9.49314 8.5548 9.69082 8.5548Z" fill="#111111"/>
</g>
</g>
</g>
<g opacity="0.3">
<g opacity="0.3">
<g opacity="0.3">
<path opacity="0.3" d="M15.8487 18.929C16.0464 18.929 16.2067 18.7687 16.2067 18.571C16.2067 18.3733 16.0464 18.213 15.8487 18.213C15.651 18.213 15.4907 18.3733 15.4907 18.571C15.4907 18.7687 15.651 18.929 15.8487 18.929Z" fill="#111111"/>
</g>
</g>
</g>
<g opacity="0.3">
<g opacity="0.3">
<g opacity="0.3">
<path opacity="0.3" d="M6.42073 12.333C6.61844 12.333 6.77871 12.1727 6.77871 11.9749C6.77871 11.7772 6.61844 11.6169 6.42073 11.6169C6.22302 11.6169 6.06274 11.7772 6.06274 11.9749C6.06274 12.1727 6.22302 12.333 6.42073 12.333Z" fill="#111111"/>
</g>
</g>
</g>
<g opacity="0.3">
<g opacity="0.3">
<g opacity="0.3">
<path opacity="0.3" d="M9.05068 16.3049C9.15145 16.3049 9.23313 16.2232 9.23313 16.1224C9.23313 16.0216 9.15145 15.9399 9.05068 15.9399C8.94992 15.9399 8.86823 16.0216 8.86823 16.1224C8.86823 16.2232 8.94992 16.3049 9.05068 16.3049Z" fill="#111111"/>
</g>
</g>
</g>
<g opacity="0.3">
<g opacity="0.3">
<g opacity="0.3">
<path opacity="0.3" d="M8.52712 7.23928C8.62789 7.23928 8.70957 7.15759 8.70957 7.05681C8.70957 6.95603 8.62789 6.87433 8.52712 6.87433C8.42636 6.87433 8.34467 6.95603 8.34467 7.05681C8.34467 7.15759 8.42636 7.23928 8.52712 7.23928Z" fill="#111111"/>
</g>
</g>
</g>
<g opacity="0.3">
<g opacity="0.3">
<g opacity="0.3">
<path opacity="0.3" d="M11.3609 10.6349C11.4617 10.6349 11.5434 10.5531 11.5434 10.4523C11.5434 10.3515 11.4617 10.2698 11.3609 10.2698C11.2601 10.2698 11.1784 10.3515 11.1784 10.4523C11.1784 10.5531 11.2601 10.6349 11.3609 10.6349Z" fill="#111111"/>
</g>
</g>
</g>
<g opacity="0.3">
<g opacity="0.3">
<g opacity="0.3">
<path opacity="0.3" d="M14.5205 17.2581C14.6213 17.2581 14.703 17.1764 14.703 17.0757C14.703 16.9749 14.6213 16.8932 14.5205 16.8932C14.4198 16.8932 14.3381 16.9749 14.3381 17.0757C14.3381 17.1764 14.4198 17.2581 14.5205 17.2581Z" fill="#111111"/>
</g>
</g>
</g>
<g opacity="0.3">
<g opacity="0.3">
<g opacity="0.3">
<path opacity="0.3" d="M6.85763 9.74836C6.92888 9.74836 6.98664 9.69061 6.98664 9.61936C6.98664 9.54811 6.92888 9.49034 6.85763 9.49034C6.78639 9.49034 6.72864 9.54811 6.72864 9.61936C6.72864 9.69061 6.78639 9.74836 6.85763 9.74836Z" fill="#111111"/>
</g>
</g>
</g>
<g opacity="0.3">
<g opacity="0.3">
<g opacity="0.3">
<path opacity="0.3" d="M9.89096 14.0804C9.9622 14.0804 10.02 14.0226 10.02 13.9514C10.02 13.8801 9.9622 13.8224 9.89096 13.8224C9.81971 13.8224 9.76196 13.8801 9.76196 13.9514C9.76196 14.0226 9.81971 14.0804 9.89096 14.0804Z" fill="#111111"/>
</g>
</g>
</g>
<g opacity="0.3">
<g opacity="0.3">
<g opacity="0.3">
<path opacity="0.3" d="M10.9981 7.00331C11.0694 7.00331 11.1271 6.94554 11.1271 6.87429C11.1271 6.80304 11.0694 6.74529 10.9981 6.74529C10.9269 6.74529 10.8691 6.80304 10.8691 6.87429C10.8691 6.94554 10.9269 7.00331 10.9981 7.00331Z" fill="#111111"/>
</g>
</g>
</g>
<g opacity="0.3">
<g opacity="0.3">
<g opacity="0.3">
<path opacity="0.3" d="M13.0597 18.7518C13.1309 18.7518 13.1887 18.694 13.1887 18.6227C13.1887 18.5515 13.1309 18.4937 13.0597 18.4937C12.9884 18.4937 12.9307 18.5515 12.9307 18.6227C12.9307 18.694 12.9884 18.7518 13.0597 18.7518Z" fill="#111111"/>
</g>
</g>
</g>
</svg>
