<?xml version="1.0" standalone="no"?>
<!DOCTYPE svg PUBLIC "-//W3C//DTD SVG 20010904//EN"
 "http://www.w3.org/TR/2001/REC-SVG-20010904/DTD/svg10.dtd">
<svg version="1.0" xmlns="http://www.w3.org/2000/svg"
 width="512.000000pt" height="512.000000pt" viewBox="0 0 512.000000 512.000000"
 preserveAspectRatio="xMidYMid meet">
<metadata>
Created by potrace 1.14, written by Peter Selinger 2001-2017
</metadata>
<g transform="translate(0.000000,512.000000) scale(0.100000,-0.100000)"
fill="#000000" stroke="none">
<path d="M2639 4423 c-9 -2 -22 -14 -28 -26 -10 -19 -11 -19 -6 -2 4 17 2 16
-16 -5 -11 -14 -18 -19 -14 -12 3 6 1 12 -4 12 -6 0 -11 -5 -11 -11 0 -5 -5
-7 -10 -4 -6 4 -10 3 -9 -2 3 -20 -2 -34 -11 -28 -5 3 -10 3 -10 -2 0 -4 -11
-9 -25 -9 -14 -1 -25 2 -25 7 0 5 -9 9 -20 9 -11 0 -20 4 -20 8 0 5 -6 9 -12
9 -7 0 -35 7 -63 15 -27 8 -62 13 -77 12 -16 -2 -28 2 -28 7 0 6 -8 6 -20 -1
-11 -6 -20 -7 -20 -1 0 10 -85 9 -96 -2 -4 -4 -15 -7 -25 -7 -10 0 -21 -5 -25
-12 -5 -7 -3 -8 7 -3 12 8 12 6 0 -8 -15 -18 -26 -23 -16 -7 8 13 5 13 -34 -1
-25 -9 -31 -16 -28 -30 3 -11 1 -17 -3 -14 -5 3 -11 1 -14 -3 -3 -5 -17 -8
-31 -7 -14 2 -25 0 -25 -3 0 -4 -22 -7 -50 -6 -27 0 -50 -4 -50 -9 0 -4 -4 -6
-9 -2 -5 3 -13 1 -16 -5 -4 -6 -16 -8 -27 -4 -12 3 -18 2 -15 -3 4 -6 -5 -8
-21 -6 -19 3 -23 2 -14 -5 10 -7 2 -11 -27 -16 -30 -4 -41 -11 -41 -24 0 -14
-2 -15 -10 -2 -8 13 -10 12 -10 -2 0 -10 -7 -18 -15 -18 -8 0 -15 -5 -15 -11
0 -5 -4 -8 -9 -5 -5 3 -11 -1 -15 -9 -3 -8 -12 -15 -21 -15 -8 0 -15 -4 -15
-10 0 -5 -6 -10 -12 -10 -20 -1 -60 -38 -53 -50 6 -9 -7 -14 -27 -11 -5 0 -8
-4 -8 -9 0 -6 -7 -10 -15 -10 -8 0 -15 -3 -15 -7 0 -5 -14 -16 -30 -25 -18
-10 -28 -22 -24 -31 3 -8 -2 -17 -11 -21 -10 -4 -15 -12 -11 -22 3 -9 2 -12
-5 -9 -11 8 -40 -25 -33 -37 3 -4 -1 -5 -9 -3 -7 3 -19 -5 -27 -20 -14 -26
-29 -31 -45 -17 -12 11 -84 39 -122 48 -41 10 -153 13 -153 4 0 -4 -19 -12
-42 -19 -41 -12 -59 -22 -154 -85 -49 -32 -134 -112 -134 -125 0 -5 -6 -16
-13 -23 -26 -27 -61 -142 -61 -203 -1 -83 9 -133 45 -239 40 -117 129 -280
162 -294 4 -2 7 -8 7 -13 0 -14 110 -118 140 -133 14 -7 24 -18 22 -24 -1 -7
4 -12 10 -12 9 0 8 -4 -2 -10 -12 -8 -12 -10 -1 -10 9 0 10 -4 4 -12 -5 -7
-10 -26 -11 -42 -2 -26 0 -27 16 -15 12 10 12 8 -3 -10 -11 -13 -20 -24 -19
-25 32 -57 35 -70 22 -98 -9 -19 7 -34 18 -17 5 8 3 9 -6 4 -9 -5 -11 -4 -6 4
4 6 12 9 17 5 5 -3 7 -10 3 -15 -10 -16 -6 -99 5 -113 7 -9 7 -16 0 -23 -7 -7
-12 -47 -13 -90 -1 -43 -5 -84 -9 -90 -6 -10 0 -11 22 -7 29 6 29 6 25 -32
-10 -83 -10 -94 -1 -94 5 0 4 -6 -2 -14 -8 -10 -9 -16 -1 -21 7 -4 7 -12 0
-25 -8 -16 -8 -18 5 -14 8 4 15 10 15 15 0 5 8 9 18 8 10 0 12 -3 5 -6 -7 -2
-13 -9 -13 -14 0 -6 4 -8 9 -4 5 3 12 1 16 -5 3 -5 2 -10 -3 -10 -6 0 -8 -8
-5 -19 3 -10 0 -22 -6 -25 -7 -5 -7 -15 -1 -31 6 -17 6 -25 -1 -25 -6 0 -7 -9
-3 -22 4 -13 7 -36 5 -51 -1 -21 2 -26 11 -21 9 5 9 3 -1 -9 -8 -10 -11 -20
-7 -24 3 -3 6 0 6 8 1 8 8 1 16 -16 8 -16 12 -22 10 -13 -3 10 -1 20 4 23 6 4
11 -6 12 -22 1 -15 2 -36 3 -45 1 -26 13 -32 32 -17 15 11 16 11 5 -1 -6 -8
-12 -23 -11 -34 0 -21 0 -21 9 -1 9 19 9 19 16 -3 3 -12 10 -22 15 -22 5 0 6
-7 3 -15 -4 -8 -1 -15 6 -15 6 0 9 -4 6 -9 -3 -5 1 -12 10 -15 12 -5 15 -2 10
9 -3 9 -2 13 4 10 6 -3 10 -13 10 -21 0 -9 5 -12 12 -8 6 4 8 3 4 -4 -3 -6 1
-17 9 -25 8 -9 15 -20 15 -26 0 -16 18 -23 26 -10 4 7 3 9 -3 6 -5 -3 -10 0
-10 8 0 20 17 7 28 -22 7 -19 12 -23 22 -14 14 11 37 -3 37 -24 0 -6 9 -17 20
-25 11 -8 20 -20 20 -26 0 -6 7 -17 15 -24 18 -15 19 -7 4 23 -9 19 -8 20 3 7
8 -8 20 -21 28 -29 12 -11 12 -12 1 -6 -9 5 -12 4 -7 -3 3 -5 0 -13 -6 -15 -9
-4 -10 -6 -1 -6 6 -1 15 4 18 9 5 8 12 7 23 -2 14 -11 14 -9 -1 15 -23 36 -14
34 22 -3 20 -21 31 -27 34 -18 3 8 6 6 6 -5 1 -10 5 -16 10 -13 5 3 14 -8 21
-24 16 -38 32 -49 27 -18 -2 12 -2 17 0 10 3 -7 9 -9 15 -6 6 4 8 3 5 -2 -3
-6 -2 -16 4 -24 6 -11 9 -11 9 -2 0 10 3 10 14 0 8 -7 12 -16 11 -19 -2 -3 10
-18 27 -34 27 -26 30 -27 19 -7 -7 13 -11 26 -8 28 2 2 10 -8 18 -24 7 -15 26
-39 40 -54 15 -14 24 -30 21 -34 -4 -4 0 -5 8 -2 10 4 26 -8 45 -33 21 -28 41
-42 70 -50 22 -6 53 -14 69 -19 16 -5 35 -6 44 -1 9 5 38 -4 81 -25 36 -19 78
-34 94 -34 15 0 35 -4 45 -10 24 -13 83 -37 110 -45 15 -4 22 -2 22 7 1 9 5 7
14 -4 7 -10 28 -18 47 -19 19 -2 40 -7 48 -13 12 -9 13 -8 6 4 -7 13 -6 13 7
2 12 -10 18 -9 28 3 7 8 22 15 34 15 17 0 18 -2 6 -10 -17 -11 -17 -11 25 -15
17 -1 50 -5 75 -9 74 -11 120 -9 138 6 15 12 36 16 45 8 11 -12 62 -2 111 21
33 16 66 29 73 29 8 0 12 4 8 9 -3 6 11 13 32 16 41 7 113 36 113 46 0 4 17
10 38 14 20 4 45 16 56 27 10 10 25 17 33 14 9 -4 11 -2 7 6 -5 7 -2 9 8 5 12
-4 15 0 11 16 -5 22 -5 22 11 2 10 -11 15 -15 12 -9 -3 7 1 17 10 24 8 7 12
20 9 28 -4 12 -3 13 10 2 12 -10 15 -10 15 1 0 11 2 11 10 -1 8 -13 11 -12 24
5 9 11 16 16 16 11 0 -5 8 -2 17 5 15 12 16 12 10 -4 -6 -15 -4 -16 13 -7 11
6 20 14 20 18 0 4 11 12 25 19 14 6 23 7 19 2 -3 -5 0 -9 5 -9 6 0 11 5 11 10
0 23 45 26 114 8 39 -10 80 -20 91 -23 11 -2 31 -7 45 -10 52 -13 70 -12 108
5 47 21 86 70 114 142 11 29 23 58 28 63 4 6 11 24 15 40 6 24 9 27 14 12 5
-14 11 -5 26 35 11 29 18 57 17 61 -1 5 2 5 8 2 6 -4 11 -1 9 6 -3 26 1 39 12
39 5 0 8 -4 4 -9 -3 -5 -1 -12 5 -16 5 -3 10 -1 10 5 0 6 3 9 8 7 4 -3 13 2
21 10 12 13 11 14 -10 9 l-24 -6 23 11 c13 8 22 21 22 36 0 12 6 23 13 23 8 0
7 4 -3 10 -10 6 -11 10 -2 10 6 0 12 9 12 21 0 11 4 18 8 15 8 -5 14 30 15 92
1 17 5 32 8 32 4 0 6 11 3 24 -2 14 1 28 7 32 8 5 9 3 4 -7 -5 -8 -4 -11 1 -6
5 5 9 12 9 15 0 4 4 13 9 21 6 10 5 12 -2 7 -7 -4 -12 -2 -12 3 0 6 4 11 10
11 5 0 7 7 4 15 -4 8 -1 15 5 15 6 0 11 5 11 11 0 5 -6 7 -12 3 -10 -6 -10 -5
-1 8 7 8 11 18 8 21 -3 4 -2 5 1 3 3 -3 12 0 19 7 10 9 9 14 -4 24 -14 12 -14
12 3 7 16 -6 17 -5 6 16 -7 12 -8 20 -2 16 5 -3 12 1 16 9 3 8 0 15 -7 15 -9
0 -9 2 0 8 16 10 22 61 11 97 -5 17 -10 35 -12 41 -1 7 -6 18 -12 25 -5 8 -16
28 -24 44 -8 17 -16 34 -18 39 -3 4 6 5 19 1 13 -3 19 -3 13 2 -6 4 -10 16 -8
26 2 15 0 16 -12 6 -12 -10 -13 -9 -8 5 3 9 11 16 18 16 6 0 4 5 -4 10 -8 5
-10 10 -5 10 6 0 3 5 -5 11 -13 9 -13 10 1 6 17 -6 39 10 39 27 0 6 -5 5 -12
-2 -15 -15 -28 -15 -28 -1 0 5 5 7 10 4 9 -6 15 8 11 29 -1 5 6 3 15 -5 16
-12 17 -12 12 2 -4 9 -2 21 4 27 8 8 7 16 -3 28 -9 12 -10 15 -1 10 7 -4 12
-1 12 8 0 9 -3 16 -7 16 -5 0 -8 11 -8 24 0 13 3 22 8 19 4 -2 7 1 7 7 0 6 5
8 12 4 7 -4 8 -3 4 5 -4 6 -12 9 -17 6 -5 -3 -6 1 -3 10 4 8 1 22 -5 29 -9 11
-9 16 0 22 8 4 9 3 5 -4 -4 -7 -2 -12 4 -12 13 0 3 43 -11 48 -5 2 -9 12 -9
22 0 10 -4 20 -9 22 -4 2 -11 12 -15 23 -5 16 16 43 100 130 137 142 214 258
259 390 22 68 32 319 15 409 -21 111 -84 186 -200 237 -38 17 -58 20 -128 15
-80 -6 -183 -38 -239 -74 -14 -9 -23 -10 -23 -3 0 5 -7 8 -15 4 -10 -3 -15 0
-13 8 2 8 -2 13 -9 12 -8 -2 -10 4 -6 14 4 10 2 14 -5 9 -6 -3 -14 -1 -18 5
-4 8 -3 9 5 5 15 -9 10 42 -5 52 -5 4 -25 27 -44 52 -18 25 -27 39 -20 33 8
-7 18 -13 24 -13 5 0 -16 18 -47 41 -32 22 -57 45 -57 50 0 6 -4 7 -10 4 -5
-3 -10 -1 -10 5 0 6 -4 9 -9 6 -5 -4 -11 -1 -13 5 -2 6 -15 12 -30 12 -14 1
-24 4 -22 6 2 3 -8 10 -23 17 -21 8 -32 8 -42 0 -11 -8 -13 -8 -7 2 5 8 1 12
-11 13 -24 0 -83 8 -108 13 -11 3 -24 5 -28 5 -5 1 -6 5 -3 9 3 5 0 9 -7 10
-7 0 -23 3 -37 7 -14 4 -31 7 -37 7 -7 1 -13 6 -13 11 0 5 -7 4 -15 -3 -13
-11 -14 -10 -8 6 6 17 5 18 -12 4 -10 -8 -16 -10 -12 -4 8 14 -57 46 -78 38
-8 -4 -15 -1 -15 5 0 6 -9 11 -20 11 -11 0 -20 6 -20 13 0 8 -4 7 -10 -3 -5
-8 -10 -10 -10 -4 0 8 -31 14 -97 17 -7 0 -13 4 -13 9 0 5 -10 4 -21 -3 -17
-8 -20 -8 -14 1 5 8 3 11 -6 8 -8 -3 -20 4 -27 16 -9 14 -12 16 -8 4 3 -10 1
-18 -4 -18 -9 0 -13 12 -12 30 1 8 -62 5 -77 -4 -9 -6 -12 -5 -7 2 4 8 -3 8
-26 1 -40 -11 -40 -11 -34 -1 6 9 -36 8 -51 -1 -7 -4 -14 -3 -17 2 -4 5 0 12
6 15 7 3 3 3 -9 0 -14 -3 -23 -1 -23 7 0 8 -3 9 -13 0 -8 -6 -17 -7 -21 -3
-15 14 -91 9 -98 -8 -6 -13 -7 -12 -7 3 -1 17 -3 18 -32 10z m401 -37 c0 -2
-7 -6 -15 -10 -8 -3 -15 -1 -15 4 0 6 7 10 15 10 8 0 15 -2 15 -4z m-1010 -40
c0 -2 -7 -7 -16 -10 -8 -3 -12 -2 -9 4 6 10 25 14 25 6z m1350 -62 c0 -2 -9 0
-20 6 -11 6 -20 13 -20 16 0 2 9 0 20 -6 11 -6 20 -13 20 -16z m-1990 -272 c0
-13 -12 -22 -22 -16 -10 6 -1 24 13 24 5 0 9 -4 9 -8z m-453 -1414 c-3 -8 -6
-5 -6 6 -1 11 2 17 5 13 3 -3 4 -12 1 -19z"/>
<path d="M4036 3927 c3 -10 9 -15 12 -12 3 3 0 11 -7 18 -10 9 -11 8 -5 -6z"/>
<path d="M994 1960 c0 -13 4 -16 10 -10 7 7 7 13 0 20 -6 6 -10 3 -10 -10z"/>
<path d="M1300 1437 c0 -7 7 -22 15 -33 13 -17 14 -16 4 14 -11 33 -19 41 -19
19z"/>
</g>
</svg>
