<svg width="216" height="58" viewBox="0 0 216 58" fill="none" xmlns="http://www.w3.org/2000/svg">
<path fill-rule="evenodd" clip-rule="evenodd" d="M210.243 24C210.243 15.5992 210.243 11.3988 208.608 8.19014C207.17 5.36771 204.875 3.073 202.053 1.6349C198.844 0 194.644 0 186.243 0H24.4001C15.9993 0 11.7989 0 8.59026 1.6349C5.76782 3.073 3.47311 5.36771 2.03502 8.19014C0.400116 11.3988 0.400116 15.5992 0.400116 24V34C0.400116 42.4008 0.400116 46.6012 2.03502 49.8099C3.47311 52.6323 5.76782 54.927 8.59026 56.3651C11.7989 58 15.9993 58 24.4001 58H197.243C204.423 58 210.243 52.1797 210.243 45V24Z" fill="#C56226"/>
<path fill-rule="evenodd" clip-rule="evenodd" d="M210.272 44H193.764C193.764 51.732 200.032 58 207.764 58H215.651C214.036 56.7449 212.708 55.1443 211.77 53.3032C210.647 51.1003 210.351 48.3966 210.272 44Z" fill="#C56226"/>
</svg>
