<svg width="216" height="58" viewBox="0 0 216 58" fill="none" xmlns="http://www.w3.org/2000/svg">
<path fill-rule="evenodd" clip-rule="evenodd" d="M5.89355 24C5.89355 15.5992 5.89355 11.3988 7.52846 8.19014C8.96656 5.36771 11.2613 3.073 14.0837 1.6349C17.2924 0 21.4928 0 29.8936 0H191.737C200.137 0 204.338 0 207.546 1.6349C210.369 3.073 212.664 5.36771 214.102 8.19014C215.737 11.3988 215.737 15.5992 215.737 24V34C215.737 42.4008 215.737 46.6012 214.102 49.8099C212.664 52.6323 210.369 54.927 207.546 56.3651C204.338 58 200.137 58 191.737 58H18.8935C11.7138 58 5.89355 52.1797 5.89355 45V24Z" fill="#3F3F3F"/>
<path fill-rule="evenodd" clip-rule="evenodd" d="M5.86469 44H22.373C22.373 51.732 16.105 58 8.37304 58H0.485901C2.10027 56.7449 3.4289 55.1443 4.36699 53.3032C5.48943 51.1003 5.78622 48.3966 5.86469 44Z" fill="#3F3F3F"/>
</svg>
