<svg width="8" height="14" viewBox="0 0 8 14" fill="none" xmlns="http://www.w3.org/2000/svg">
<path d="M0.314458 12.7273C0.941909 12.1842 1.58679 11.4036 2.2491 10.3855C2.94627 9.40121 3.36457 8.41697 3.504 7.43273C2.56282 7.36485 1.74365 7.00849 1.04648 6.36364C0.349316 5.68485 0.000732422 4.85333 0.000732422 3.86909C0.000732422 2.74909 0.384175 1.83273 1.15106 1.12C1.91794 0.373333 2.82426 0 3.87001 0C5.0552 0 6.03123 0.407272 6.79812 1.22182C7.59986 2.00242 8.00073 3.13939 8.00073 4.63273C8.00073 6.49939 7.46043 8.28121 6.37982 9.97818C5.33407 11.6752 3.99202 13.0158 2.35367 14L0.314458 12.7273Z" fill="#999999"/>
</svg>
