<svg width="48" height="48" viewBox="0 0 48 48" fill="none" xmlns="http://www.w3.org/2000/svg">
<path d="M42.1137 8.82178H37.8696V11.4335H41.7872V40.1622H5.22337V11.4335H9.14092V8.82178H4.8969C4.59164 8.82688 4.29038 8.89207 4.01032 9.01362C3.73026 9.13517 3.47688 9.3107 3.26467 9.53019C3.05246 9.74968 2.88556 10.0088 2.77352 10.2928C2.66147 10.5768 2.60648 10.8801 2.61166 11.1854V40.4103C2.60648 40.7156 2.66147 41.0189 2.77352 41.3029C2.88556 41.5869 3.05246 41.846 3.26467 42.0655C3.47688 42.285 3.73026 42.4605 4.01032 42.5821C4.29038 42.7036 4.59164 42.7688 4.8969 42.7739H42.1137C42.4189 42.7688 42.7202 42.7036 43.0002 42.5821C43.2803 42.4605 43.5337 42.285 43.7459 42.0655C43.9581 41.846 44.125 41.5869 44.237 41.3029C44.3491 41.0189 44.4041 40.7156 44.3989 40.4103V11.1854C44.4041 10.8801 44.3491 10.5768 44.237 10.2928C44.125 10.0088 43.9581 9.74968 43.7459 9.53019C43.5337 9.3107 43.2803 9.13517 43.0002 9.01362C42.7202 8.89207 42.4189 8.82688 42.1137 8.82178Z" />
<path d="M10.4468 19.2686H13.0585V21.8803H10.4468V19.2686Z"/>
<path d="M18.2817 19.2686H20.8934V21.8803H18.2817V19.2686Z"/>
<path d="M26.1172 19.2686H28.7289V21.8803H26.1172V19.2686Z"/>
<path d="M33.9521 19.2686H36.5639V21.8803H33.9521V19.2686Z"/>
<path d="M10.4468 25.7979H13.0585V28.4096H10.4468V25.7979Z"/>
<path d="M18.2817 25.7979H20.8934V28.4096H18.2817V25.7979Z"/>
<path d="M26.1172 25.7979H28.7289V28.4096H26.1172V25.7979Z"/>
<path d="M33.9521 25.7979H36.5639V28.4096H33.9521V25.7979Z"/>
<path d="M10.4468 32.3271H13.0585V34.9389H10.4468V32.3271Z"/>
<path d="M18.2817 32.3271H20.8934V34.9389H18.2817V32.3271Z"/>
<path d="M26.1172 32.3271H28.7289V34.9389H26.1172V32.3271Z"/>
<path d="M33.9521 32.3271H36.5639V34.9389H33.9521V32.3271Z"/>
<path d="M13.0583 14.0452C13.4046 14.0452 13.7368 13.9076 13.9817 13.6627C14.2266 13.4178 14.3641 13.0857 14.3641 12.7393V4.90424C14.3641 4.55791 14.2266 4.22576 13.9817 3.98086C13.7368 3.73597 13.4046 3.59839 13.0583 3.59839C12.712 3.59839 12.3798 3.73597 12.1349 3.98086C11.89 4.22576 11.7524 4.55791 11.7524 4.90424V12.7393C11.7524 13.0857 11.89 13.4178 12.1349 13.6627C12.3798 13.9076 12.712 14.0452 13.0583 14.0452Z"/>
<path d="M33.9523 14.0452C34.2987 14.0452 34.6308 13.9076 34.8757 13.6627C35.1206 13.4178 35.2582 13.0857 35.2582 12.7393V4.90424C35.2582 4.55791 35.1206 4.22576 34.8757 3.98086C34.6308 3.73597 34.2987 3.59839 33.9523 3.59839C33.606 3.59839 33.2739 3.73597 33.029 3.98086C32.7841 4.22576 32.6465 4.55791 32.6465 4.90424V12.7393C32.6465 13.0857 32.7841 13.4178 33.029 13.6627C33.2739 13.9076 33.606 14.0452 33.9523 14.0452Z"/>
<path d="M16.9761 8.82178H30.0346V11.4335H16.9761V8.82178Z"/>
</svg>
