<svg width="48" height="48" viewBox="0 0 48 48" fill="none" xmlns="http://www.w3.org/2000/svg">
<path d="M24.1143 12.9065C19.6641 12.8458 15.3847 15.7459 13.7468 19.8759C12.0688 23.8496 12.9964 28.7406 16.0138 31.8235C18.9475 34.9818 23.7814 36.1456 27.8303 34.6654C32.0733 33.2199 35.1904 29.023 35.3027 24.5351C35.5288 20.1752 32.9084 15.8642 28.9632 14.0127C27.4578 13.2837 25.7867 12.9043 24.1143 12.9065ZM24.1143 14.9469C28.1818 14.8698 32.0362 17.8555 32.983 21.8108C34.0211 25.6115 32.2722 29.9452 28.8675 31.9366C25.3912 34.1184 20.4899 33.537 17.6353 30.5821C14.6228 27.676 14.0864 22.6479 16.3975 19.1627C18.0344 16.5625 21.0407 14.9169 24.1143 14.9469ZM27.0071 17.5488L23.949 23.0968C23.0044 23.1973 22.7801 24.6302 23.6515 25.0124C24.2272 25.4119 24.6781 24.7473 25.202 24.7702H29.8769V23.495H25.1856L28.1239 18.1644L27.0071 17.5488ZM24.3049 0.605642L23.9794 0.606178H23.9709L23.9622 0.60633L23.6368 0.611278L23.6282 0.611432L23.6196 0.611686L23.2943 0.620996L23.2857 0.621251L23.2771 0.621608L22.9519 0.635304L22.9433 0.635687L22.9347 0.636146L22.6098 0.654229L22.6012 0.654739L22.5926 0.655325L22.2679 0.67777L22.2593 0.678382L22.2507 0.67907L21.9264 0.705927L21.9179 0.706616L21.9093 0.707432L21.5854 0.73865L21.5768 0.739492L21.5682 0.74041L21.2448 0.776015L21.2362 0.776958L21.2276 0.778004L20.9047 0.81797L20.8962 0.81899L20.8876 0.820215L20.5653 0.864491L20.5568 0.86569L20.5482 0.866965L20.2266 0.915654L20.218 0.916929L20.2095 0.918332L19.8886 0.971382L19.88 0.972785L19.8715 0.974315L19.5515 1.0317L19.5428 1.03326L19.5343 1.03491L19.2152 1.09664L19.2066 1.09832L19.198 1.10005L18.8798 1.16616L18.8712 1.16795L18.8627 1.16986L18.5455 1.24028L18.5369 1.24219L18.5283 1.24423L18.2122 1.31899L18.2036 1.32103L18.1951 1.32317L18.0245 1.36607L17.8003 1.44519L17.5948 1.56458L17.415 1.72L17.2671 1.90616L17.1564 2.11648L17.0866 2.34367L17.0602 2.5799L17.0781 2.81697L17.1397 3.04651L17.2428 3.2607L17.3838 3.45204L17.5579 3.61384L17.7591 3.74053L17.9802 3.8277L18.2137 3.87228L18.4514 3.87282L18.6459 3.83966L18.8075 3.79906L19.1058 3.72851L19.4061 3.66177L19.7115 3.59839L20.0105 3.54057L20.314 3.48617L20.6184 3.43584L20.9201 3.39019L21.2262 3.34808L21.5293 3.31059L21.8368 3.27675L22.1445 3.24706L22.4529 3.2216L22.7618 3.20018L23.0673 3.18319L23.3767 3.17019L23.6862 3.16134L23.992 3.15669L24.3016 3.15616L24.6111 3.15978L24.9169 3.16756L25.2222 3.17937L25.5346 3.19569L25.8391 3.21576L26.147 3.24027L26.4543 3.26891L26.7611 3.30182L27.0637 3.33837L27.368 3.37938L27.6728 3.4247L27.9791 3.47466L28.2816 3.52825L28.5791 3.58525L28.6562 3.60107L28.8925 3.62713L29.1294 3.60892L29.359 3.54699L29.573 3.44357L29.764 3.3022L29.9256 3.12785L30.052 2.92651L30.1389 2.70523L30.1831 2.47171L30.1833 2.234L30.1393 2.0004L30.0528 1.77902L29.9267 1.57758L29.7653 1.40298L29.5744 1.26142L29.3605 1.1577L29.1709 1.10306L29.0868 1.08577L29.0781 1.08399L29.0694 1.08228L28.7505 1.02122L28.7418 1.01956L28.7331 1.01803L28.4133 0.961333L28.4046 0.959803L28.3959 0.9584L28.0753 0.906115L28.0666 0.904738L28.0579 0.903463L27.7365 0.855615L27.7278 0.85434L27.7191 0.853141L27.397 0.809758L27.3884 0.808559L27.3797 0.807513L27.057 0.768491L27.0483 0.76747L27.0397 0.766552L26.7164 0.731942L26.7078 0.730998L26.6991 0.730182L26.3753 0.70001L26.3666 0.699219L26.358 0.698505L26.0338 0.67272L26.0251 0.672006L26.0165 0.67147L25.6919 0.650046L25.6833 0.649485L25.6747 0.649051L25.3498 0.632014L25.3412 0.631555L25.3325 0.631274L25.0073 0.618649L24.9988 0.618318L24.9902 0.618114L24.6648 0.609876L24.6562 0.609621L24.6476 0.609519L24.3222 0.605693L24.3136 0.605591L24.3049 0.605642ZM37.1567 4.71004L36.9243 4.76009L36.7053 4.85246L36.5072 4.98381L36.3369 5.1497L36.2004 5.34427L36.1024 5.56081L36.0462 5.79181L36.0339 6.02916L36.0658 6.2647L36.141 6.49024L36.2566 6.69787L36.4088 6.88049L36.5591 7.00842L36.6359 7.0641L36.6376 7.0653L36.7655 7.15974L36.767 7.16089L36.887 7.25097L36.8891 7.25255L37.0021 7.33889L37.0038 7.34024L37.1267 7.43568L37.2487 7.53201L37.2509 7.53379L37.3669 7.62707L37.3701 7.62964L37.4837 7.72256L37.6034 7.82203L37.6063 7.82442L37.7192 7.91996L37.8314 8.01637L37.8338 8.01844L37.9508 8.12082L38.067 8.22419L38.0695 8.22643L38.1795 8.32595L38.294 8.43136L38.2966 8.43368L38.4046 8.53476L38.5174 8.64216L38.6234 8.74479L38.6263 8.7476L38.7403 8.8599L38.7411 8.86071L38.8426 8.96232L38.8447 8.96452L38.954 9.07595L39.0584 9.18404L39.0597 9.18539L39.1701 9.30185L39.1726 9.30445L39.2741 9.41338L39.3759 9.52448L39.377 9.52563L39.4845 9.64506L39.5882 9.76229L39.5906 9.76499L39.6916 9.88114L39.693 9.88274L39.7913 9.9978L39.8923 10.1182L39.9877 10.2338L39.9902 10.2368L40.0893 10.3592L40.1882 10.4834L40.2816 10.6027L40.2833 10.605L40.3823 10.7339L40.3844 10.7367L40.4776 10.8602L40.4796 10.8629L40.5738 10.9901L40.5853 11.0058L40.5974 11.0211L40.7372 11.1982L40.8737 11.3753L41.0058 11.5504L41.1349 11.7256L41.2653 11.9066L41.3924 12.087L41.5154 12.2657L41.6357 12.4443L41.6373 12.4468L41.7601 12.6335L41.8795 12.8195L41.997 13.0068L42.1106 13.1922L42.2263 13.3855L42.3359 13.5734L42.4456 13.7659L42.5533 13.9597L42.6571 14.1512L42.7609 14.3474L42.8615 14.5427L42.9286 14.6764L43.0547 14.878L43.2159 15.0527L43.4067 15.1944L43.6206 15.2982L43.8499 15.3606L44.0868 15.3793L44.3232 15.3537L44.5506 15.2847L44.7614 15.1746L44.948 15.0274L45.104 14.8481L45.2241 14.6429L45.304 14.4191L45.341 14.1843L45.3338 13.9467L45.2826 13.7146L45.2079 13.5318L45.1376 13.3919L45.1346 13.386L45.1316 13.38L45.0244 13.1721L45.0214 13.1662L45.0182 13.1603L44.909 12.9535L44.9058 12.9476L44.9026 12.9418L44.7912 12.7362L44.788 12.7303L44.7847 12.7244L44.671 12.52L44.6678 12.5141L44.6645 12.5083L44.5487 12.305L44.5454 12.2992L44.542 12.2934L44.424 12.0914L44.4206 12.0856L44.4172 12.0798L44.2971 11.8791L44.2936 11.8733L44.2901 11.8675L44.1679 11.6681L44.1644 11.6623L44.1608 11.6566L44.0365 11.4584L44.0329 11.4526L44.0292 11.447L43.9028 11.2501L43.8991 11.2444L43.8954 11.2387L43.7669 11.0432L43.7632 11.0375L43.7593 11.0318L43.6287 10.8378L43.625 10.8321L43.6211 10.8265L43.4884 10.6337L43.4845 10.6281L43.4805 10.6225L43.3458 10.4312L43.3419 10.4256L43.3378 10.42L43.201 10.2302L43.197 10.2246L43.1929 10.219L43.054 10.0306L43.0499 10.0251L43.0458 10.0196L42.9048 9.83268L42.9006 9.82714L42.8964 9.82166L42.7535 9.63632L42.7492 9.63078L42.7449 9.62535L42.612 9.45692L42.5226 9.33612L42.5193 9.33163L42.516 9.32717L42.414 9.19207L42.4107 9.18763L42.4073 9.1832L42.3044 9.04924L42.301 9.04481L42.2976 9.04042L42.1937 8.90762L42.1903 8.90323L42.1868 8.89889L42.082 8.76719L42.0785 8.76282L42.075 8.75854L41.9692 8.62795L41.9657 8.62362L41.9622 8.61936L41.8554 8.48992L41.8519 8.48564L41.8483 8.4814L41.7406 8.35311L41.737 8.34885L41.7335 8.34462L41.6248 8.21745L41.6212 8.21327L41.6175 8.20909L41.5079 8.08304L41.5043 8.07886L41.5007 8.07478L41.3901 7.94986L41.3864 7.94572L41.3827 7.94164L41.2713 7.81784L41.2676 7.81376L41.2639 7.80968L41.1515 7.687L41.1478 7.683L41.1441 7.67897L41.0308 7.55741L41.0271 7.55343L41.0233 7.54943L40.9091 7.42905L40.9053 7.42504L40.9015 7.42111L40.7865 7.30185L40.7827 7.29793L40.7789 7.29405L40.6629 7.17588L40.6591 7.17201L40.6553 7.16818L40.5385 7.05111L40.5346 7.04726L40.5308 7.04349L40.413 6.92757L40.4092 6.92377L40.4052 6.91999L40.2867 6.80522L40.2828 6.80142L40.2789 6.7977L40.1595 6.68407L40.1556 6.68032L40.1517 6.67665L40.0314 6.56412L40.0275 6.56048L40.0235 6.55678L39.9025 6.4454L39.8985 6.44178L39.8946 6.43821L39.7726 6.3279L39.7687 6.32433L39.7647 6.32073L39.642 6.21157L39.638 6.20805L39.6339 6.2045L39.5104 6.09652L39.5064 6.09295L39.5024 6.08953L39.3781 5.98264L39.3741 5.97914L39.37 5.9757L39.2449 5.86996L39.2408 5.86651L39.2367 5.86312L39.1109 5.75847L39.1068 5.75508L39.1027 5.75174L38.976 5.64822L38.9719 5.6449L38.9678 5.64156L38.8404 5.53918L38.8363 5.53587L38.8322 5.5326L38.704 5.43135L38.6999 5.42803L38.6957 5.42487L38.5668 5.32469L38.5627 5.3215L38.5585 5.31831L38.4288 5.21928L38.4247 5.21609L38.4205 5.21295L38.2901 5.11506L38.2859 5.11193L38.2817 5.10884L38.1506 5.01205L38.1464 5.00896L38.1422 5.0059L38.057 4.94405L37.8524 4.82301L37.629 4.742L37.3943 4.7039L37.1567 4.71004ZM9.93573 5.33826L9.70433 5.39271L9.4871 5.48919L9.32295 5.59879L9.31224 5.6072L9.30816 5.61034L9.30418 5.61358L9.17711 5.71509L9.17306 5.71836L9.16908 5.72159L9.04276 5.8242L9.03878 5.82744L9.0348 5.83073L8.90926 5.93443L8.90526 5.93775L8.90128 5.94106L8.77656 6.04584L8.77256 6.04915L8.76858 6.05255L8.64462 6.15837L8.6407 6.16173L8.63677 6.16512L8.51363 6.27204L8.50965 6.27546L8.50575 6.2789L8.3834 6.38686L8.37947 6.39033L8.3756 6.39383L8.25404 6.50286L8.25016 6.50635L8.24629 6.5099L8.12557 6.61998L8.1217 6.62352L8.11779 6.6271L7.99795 6.7383L7.99407 6.74187L7.99024 6.74546L7.87121 6.85768L7.86739 6.86133L7.86356 6.86503L7.7454 6.9783L7.74157 6.982L7.73777 6.98567L7.62045 7.10006L7.61662 7.10373L7.6129 7.10751L7.49642 7.22294L7.49264 7.22666L7.48889 7.23046L7.37333 7.34692L7.36956 7.35075L7.36581 7.35455L7.25114 7.47212L7.24739 7.47595L7.24372 7.47983L7.12989 7.59842L7.12621 7.60233L7.12252 7.6062L7.00963 7.72592L7.00591 7.72985L7.00226 7.73378L6.89029 7.85454L6.8866 7.85847L6.88295 7.86245L6.77193 7.98424L6.76828 7.98829L6.76466 7.99232L6.65455 8.11515L6.65093 8.11921L6.64736 8.12329L6.53815 8.24722L6.53458 8.2513L6.53098 8.25538L6.42271 8.38035L6.41919 8.38451L6.41565 8.38864L6.30835 8.51471L6.3048 8.51885L6.30128 8.52303L6.19498 8.65017L6.19143 8.65435L6.18794 8.65859L6.0826 8.78675L6.07911 8.79098L6.07567 8.79527L5.97125 8.9245L5.96783 8.92879L5.96439 8.93307L5.86097 9.06337L5.85757 9.06771L5.85418 9.07205L5.75178 9.2034L5.74839 9.20773L5.745 9.21212L5.64359 9.34451L5.64025 9.3489L5.63691 9.35334L5.53647 9.48681L5.5332 9.49122L5.52989 9.49566L5.43047 9.63022L5.42718 9.63468L5.42394 9.63912L5.32557 9.77478L5.32233 9.77925L5.31909 9.78374L5.22176 9.92044L5.21852 9.92496L5.21534 9.9295L5.11903 10.0672L5.11584 10.0718L5.1127 10.0764L5.01742 10.2151L5.01428 10.2197L5.01119 10.2244L4.91698 10.3642L4.91384 10.3688L4.91081 10.3734L4.81766 10.5144L4.81458 10.519L4.81152 10.5237L4.71947 10.6656L4.71643 10.6703L4.71345 10.675L4.6453 10.7822L4.57024 10.8844L4.56692 10.8889L4.56366 10.8934L4.4647 11.0306L4.46144 11.0352L4.45825 11.0397L4.36067 11.1776L4.35743 11.1821L4.35429 11.1867L4.25803 11.3251L4.2549 11.3297L4.25176 11.3343L4.15693 11.4734L4.1538 11.478L4.15068 11.4826L4.05723 11.6222L4.05417 11.6269L4.05111 11.6315L3.95901 11.7717L3.95595 11.7764L3.95297 11.781L3.86222 11.9219L3.85924 11.9265L3.85628 11.9312L3.76694 12.0725L3.76393 12.0772L3.76105 12.0819L3.67303 12.2239L3.67015 12.2286L3.66724 12.2333L3.58057 12.3758L3.57774 12.3805L3.57489 12.3852L3.48962 12.5283L3.48677 12.533L3.48396 12.5378L3.40005 12.6814L3.39724 12.6861L3.39451 12.6909L3.31193 12.835L3.30918 12.8397L3.3065 12.8445L3.22524 12.9892L3.22256 12.9939L3.21991 12.9988L3.13998 13.1439L3.13732 13.1487L3.13472 13.1535L3.05617 13.2992L3.05359 13.304L3.05104 13.3087L2.97376 13.455L2.97124 13.4597L2.96868 13.4646L2.89278 13.6113L2.89028 13.6161L2.88786 13.6209L2.81323 13.768L2.81078 13.7729L2.80841 13.7777L2.73514 13.9254L2.73274 13.9302L2.73034 13.935L2.65842 14.0831L2.65607 14.088L2.65372 14.0929L2.58308 14.2414L2.58078 14.2463L2.57856 14.2512L2.50921 14.4002L2.50697 14.4051L2.50473 14.4099L2.4868 14.4494L2.40893 14.674L2.37417 14.9091L2.3836 15.1466L2.43693 15.3782L2.53237 15.596L2.66653 15.7922L2.83476 15.9601L3.03127 16.0939L3.24916 16.1889L3.4809 16.2418L3.7184 16.2507L3.95348 16.2155L4.17792 16.1372L4.38398 16.0186L4.5644 15.8638L4.71294 15.6783L4.80833 15.5055L4.82378 15.4716L4.88844 15.3326L4.95554 15.1914L4.9572 15.1879L5.01969 15.0593L5.02035 15.0579L5.09095 14.9157L5.16162 14.7763L5.16272 14.7742L5.23247 14.6396L5.2337 14.6371L5.3032 14.5057L5.37757 14.3679L5.37936 14.3646L5.45189 14.233L5.52877 14.0962L5.53004 14.0939L5.60554 13.9623L5.60727 13.9593L5.68251 13.8307L5.75974 13.701L5.7616 13.698L5.84339 13.5635L5.92644 13.4296L6.01086 13.2961L6.01221 13.294L6.09653 13.1631L6.09699 13.1624L6.1769 13.0407L6.17914 13.0374L6.26736 12.9056L6.35668 12.7745L6.44738 12.644L6.44888 12.6419L6.53674 12.5178L6.63002 12.3884L6.72625 12.2574L6.7515 12.2231L6.77437 12.1871L6.86293 12.0479L6.94982 11.914L6.9514 11.9115L7.03508 11.7849L7.12022 11.6585L7.12132 11.6569L7.21288 11.5235L7.3036 11.3938L7.30549 11.3911L7.39481 11.2659L7.39644 11.2635L7.48494 11.1416L7.57877 11.0147L7.67281 10.8896L7.67505 10.8866L7.76578 10.7682L7.86193 10.645L7.9553 10.5272L7.95683 10.5254L8.05533 10.4033L8.15416 10.2831L8.25685 10.1604L8.25754 10.1596L8.35782 10.0419L8.45181 9.93332L8.45211 9.93304L8.5603 9.81018L8.56099 9.80942L8.66148 9.69732L8.66393 9.69462L8.76623 9.5825L8.76774 9.58084L8.86935 9.4713L8.97606 9.35824L8.9779 9.35625L9.07685 9.25313L9.07777 9.25219L9.1891 9.138L9.1915 9.13555L9.29556 9.0307L9.40579 8.92141L9.40839 8.91886L9.51398 8.816L9.62595 8.7087L9.62868 8.70605L9.73598 8.60495L9.84437 8.50436L9.84667 8.50227L9.96437 8.39492L9.96506 8.39428L10.0769 8.29399L10.0788 8.29231L10.1854 8.1982L10.187 8.19682L10.3007 8.09812L10.3013 8.09763L10.4167 7.999L10.4194 7.99671L10.5384 7.89683L10.5414 7.89428L10.6546 7.80083L10.7752 7.70289L10.7773 7.70116L10.8883 7.6125L10.8907 7.61059L10.899 7.60406L11.0713 7.4404L11.2104 7.24758L11.3112 7.03234L11.3703 6.80211L11.3857 6.56491L11.3567 6.32899L11.2845 6.10246L11.1715 5.89334L11.0217 5.70884L10.8402 5.5553L10.6334 5.43816L10.4085 5.36139L10.1732 5.32772L9.93573 5.33826ZM46.2082 21.6889L45.9778 21.7475L45.7623 21.8478L45.5692 21.9864L45.4051 22.1584L45.2758 22.3578L45.1858 22.5778L45.1381 22.8106L45.1319 23.0079L45.1417 23.2167L45.1496 23.4415L45.155 23.6617L45.1582 23.8819L45.1588 24.1075L45.1604 24.1246L45.1595 24.1464L45.165 24.3079L45.169 24.4715V24.474L45.1714 24.6297V24.6317L45.1725 24.7818L45.1723 24.9447V24.9465L45.1707 25.1021V25.1035L45.1678 25.2536L45.1635 25.4109L45.1579 25.5672L45.1508 25.7235L45.1424 25.8798L45.1328 26.0358L45.1216 26.1914L45.1214 26.1944L45.1092 26.3467L45.109 26.3492L45.0959 26.4966L45.0809 26.6519L45.0646 26.8068L45.0469 26.9611L45.029 27.1072L45.0286 27.11L45.0077 27.2691L45.0075 27.2709L44.9868 27.4176L44.964 27.5716L44.9399 27.7242L44.9394 27.7274L44.9152 27.8729L44.8885 28.026L44.8606 28.1778L44.86 28.181L44.8324 28.3248L44.8018 28.4771L44.7699 28.6292L44.7695 28.6314L44.738 28.7753L44.7037 28.9269L44.703 28.9299L44.6694 29.0724L44.6324 29.2235L44.6316 29.227L44.5958 29.3686L44.5564 29.5189L44.5554 29.5226L44.5183 29.6598L44.5177 29.6618L44.4755 29.813L44.4745 29.8166L44.4324 29.9625L44.4322 29.9631L44.3897 30.106L44.3888 30.1092L44.3459 30.2493L44.3016 30.3903L44.3009 30.3923L44.253 30.5404L44.2068 30.6797L44.2057 30.6827L44.1555 30.8301L44.1543 30.8334L44.1052 30.9734L44.104 30.977L44.0531 31.1184L44.0525 31.1202L44.0034 31.2535L44.0025 31.2558L43.9482 31.4L43.895 31.5378L43.8941 31.5402L43.8385 31.681L43.7219 31.9661L43.6031 32.2443L43.4791 32.5225L43.3496 32.8015L43.2181 33.0738L43.0822 33.3446L42.9416 33.6147L42.8673 33.7521L42.7744 33.9709L42.7236 34.2031L42.7168 34.4407L42.7542 34.6754L42.8346 34.8992L42.9551 35.1041L43.1114 35.2831L43.2984 35.4299L43.5093 35.5396L43.7369 35.6081L43.9733 35.6333L44.2102 35.6141L44.4395 35.5513L44.6531 35.4471L44.8436 35.305L45.0045 35.13L45.1115 34.9641L45.1898 34.8192L45.1943 34.8107L45.1987 34.8023L45.3483 34.5151L45.3528 34.5066L45.357 34.4979L45.5022 34.2085L45.5066 34.1999L45.5108 34.1911L45.6516 33.8995L45.6559 33.8908L45.66 33.8819L45.7963 33.5881L45.8005 33.5792L45.8045 33.5703L45.9363 33.2744L45.9403 33.2653L45.9442 33.2563L46.0715 32.9583L46.0754 32.9491L46.0791 32.9399L46.2018 32.6399L46.2046 32.633L46.2074 32.626L46.267 32.4752L46.2688 32.4706L46.2706 32.4659L46.329 32.3146L46.3308 32.3099L46.3326 32.3052L46.3898 32.1535L46.3916 32.1488L46.3933 32.144L46.4494 31.9918L46.4512 31.987L46.4528 31.9823L46.5077 31.8295L46.5094 31.8248L46.511 31.82L46.5647 31.6667L46.5664 31.662L46.568 31.6571L46.6205 31.5035L46.6221 31.4986L46.6237 31.4938L46.6749 31.3396L46.6765 31.3348L46.6781 31.3299L46.7281 31.1753L46.7297 31.1704L46.7312 31.1655L46.78 31.0104L46.7815 31.0055L46.7831 31.0006L46.8306 30.8451L46.8322 30.8401L46.8337 30.8352L46.88 30.6792L46.8814 30.6742L46.8829 30.6693L46.928 30.5128L46.9294 30.5078L46.9308 30.5028L46.9746 30.346L46.976 30.3409L46.9774 30.3359L47.02 30.1786L47.0213 30.1736L47.0227 30.1685L47.064 30.0108L47.0652 30.0057L47.0666 30.0007L47.1066 29.8425L47.1079 29.8374L47.1091 29.8324L47.1479 29.6737L47.1491 29.6687L47.1503 29.6635L47.1878 29.5045L47.189 29.4994L47.1902 29.4943L47.2263 29.3349L47.2275 29.3297L47.2286 29.3245L47.2635 29.1647L47.2647 29.1595L47.2658 29.1543L47.2993 28.9941L47.3004 28.9889L47.3014 28.9837L47.3337 28.823L47.3347 28.8179L47.3357 28.8126L47.3667 28.6516L47.3677 28.6464L47.3686 28.6411L47.3982 28.4797L47.3992 28.4744L47.4001 28.4692L47.4284 28.3074L47.4293 28.3021L47.4302 28.2968L47.4571 28.1347L47.458 28.1294L47.4588 28.1241L47.4844 27.9616L47.4853 27.9562L47.486 27.9509L47.5103 27.788L47.511 27.7826L47.5118 27.7773L47.5346 27.6141L47.5354 27.6087L47.5361 27.6033L47.5576 27.4397L47.5583 27.4344L47.559 27.4289L47.5791 27.265L47.5797 27.2596L47.5804 27.2542L47.5991 27.0899L47.5997 27.0845L47.6003 27.079L47.6176 26.9144L47.6182 26.909L47.6187 26.9036L47.6347 26.7386L47.6352 26.7331L47.6358 26.7277L47.6503 26.5623L47.6508 26.5569L47.6512 26.5514L47.6644 26.3858L47.6648 26.3803L47.6652 26.3748L47.677 26.2088L47.6774 26.2034L47.6778 26.1979L47.6881 26.0316L47.6885 26.0261L47.6888 26.0206L47.6977 25.854L47.698 25.8485L47.6983 25.843L47.7057 25.6761L47.706 25.6706L47.7063 25.665L47.7123 25.4978L47.7126 25.4923L47.7128 25.4867L47.7174 25.3192L47.7177 25.3137V25.3082L47.7209 25.1403V25.1292L47.7225 24.9611V24.95L47.7228 24.7817V24.7705L47.7215 24.6019V24.5907L47.7188 24.4218V24.4106L47.7146 24.2414V24.2358L47.7143 24.2303L47.7093 24.0798L47.7086 23.8657V23.8518L47.7054 23.6177V23.6108L47.7052 23.6039L47.6993 23.3699L47.6991 23.363L47.6988 23.3561L47.6905 23.1222L47.6903 23.1154L47.69 23.1085L47.6798 22.8897L47.6466 22.6543L47.5705 22.4291L47.4538 22.222L47.3008 22.0402L47.1166 21.89L46.9077 21.7764L46.6814 21.7037L46.4455 21.6741L46.2082 21.6889ZM1.65301 22.6629L1.42077 22.7135L1.20199 22.8064L1.00417 22.9382L0.834307 23.1045L0.698264 23.2994L0.600733 23.5162L0.545132 23.7473L0.532227 23.9443L0.534241 24.1073L0.534318 24.1164L0.534573 24.1256L0.543143 24.4496L0.543398 24.4587L0.543755 24.4678L0.556941 24.7918L0.557298 24.8008L0.557808 24.8098L0.575585 25.1337L0.576095 25.1427L0.576682 25.1517L0.599049 25.4753L0.599636 25.4843L0.600401 25.4933L0.627283 25.8167L0.628048 25.8256L0.628865 25.8344L0.660312 26.1575L0.661205 26.1663L0.662149 26.1751L0.69811 26.4979L0.699054 26.5067L0.700151 26.5154L0.740602 26.8377L0.741698 26.8464L0.742897 26.8552L0.787786 27.177L0.789035 27.1856L0.790311 27.1944L0.839637 27.5155L0.840989 27.5242L0.842417 27.5328L0.896181 27.8533L0.897635 27.862L0.899166 27.8705L0.957342 28.1904L0.958873 28.199L0.96053 28.2075L1.02304 28.5266L1.02475 28.5351L1.02654 28.5436L1.09339 28.8619L1.09517 28.8704L1.09708 28.8788L1.16824 29.1962L1.17016 29.2046L1.1722 29.2131L1.24772 29.5295L1.2497 29.5379L1.2518 29.5463L1.3316 29.8617L1.33374 29.87L1.33599 29.8784L1.42003 30.1927L1.42227 30.201L1.42459 30.2094L1.51292 30.5226L1.51526 30.5309L1.51771 30.5391L1.61027 30.8511L1.61269 30.8593L1.61524 30.8675L1.71198 31.1783L1.71453 31.1865L1.71721 31.1947L1.81813 31.5041L1.82079 31.5123L1.82357 31.5204L1.92867 31.8285L1.93143 31.8367L1.93431 31.8447L2.04355 32.1514L2.04638 32.1594L2.04939 32.1674L2.16276 32.4726L2.16574 32.4807L2.16883 32.4887L2.2863 32.7922L2.28936 32.8003L2.29258 32.8082L2.41405 33.1101L2.41729 33.1181L2.42061 33.126L2.54617 33.4263L2.54949 33.4342L2.55295 33.4421L2.68252 33.7406L2.68596 33.7485L2.68948 33.7564L2.82308 34.0531L2.82665 34.0609L2.83027 34.0688L2.96784 34.3636L2.97154 34.3714L2.97526 34.3792L3.11684 34.6721L3.12064 34.6798L3.12452 34.6876L3.17017 34.779L3.29589 34.9808L3.45682 35.1557L3.64747 35.2977L3.86113 35.4019L4.09042 35.4646L4.32733 35.4837L4.56371 35.4584L4.79124 35.3897L5.00211 35.2801L5.18896 35.1331L5.34533 34.9541L5.46569 34.7491L5.54598 34.5254L5.58329 34.2906L5.57641 34.053L5.5256 33.8208L5.45123 33.638L5.41017 33.5558L5.27514 33.2766L5.14594 32.9997L5.01836 32.7164L4.89645 32.4358L4.77706 32.1503L4.66229 31.865L4.5505 31.5762L4.44338 31.2878L4.34019 30.998L4.24051 30.7059L4.14482 30.4125L4.05269 30.1166L3.96557 29.8229L3.88217 29.5273L3.80188 29.2271L3.72664 28.9296L3.65563 28.632L3.58769 28.3294L3.52403 28.0262L3.46529 27.7265L3.40995 27.4221L3.35929 27.1201L3.31252 26.8154L3.27038 26.5133L3.23202 26.2076L3.198 25.9017L3.16821 25.5957L3.14281 25.29L3.12169 24.9839L3.10488 24.6781L3.09249 24.3723L3.08443 24.067L3.08251 23.9133L3.05752 23.6769L2.98906 23.4493L2.87952 23.2383L2.73279 23.0514L2.55385 22.8948L2.34902 22.7743L2.12534 22.6938L1.89062 22.6563L1.65301 22.6629ZM37.9091 40.1076L37.6786 40.1657L37.4629 40.2656L37.3006 40.3778L37.2788 40.3955L37.0382 40.5856L36.7944 40.7729L36.5463 40.9583L36.2958 41.1403L36.0453 41.3172L35.7916 41.4912L35.5366 41.6613L35.2768 41.8294L35.015 41.9939L34.751 42.1548L34.4876 42.3104L34.2196 42.464L33.9513 42.613L33.6795 42.759L33.4074 42.9005L33.1294 43.0402L32.8555 43.1732L32.5772 43.3037L32.296 43.4307L32.016 43.5526L31.7322 43.6715L31.4452 43.7871L31.1631 43.896L30.8726 44.0036L30.5852 44.1054L30.2967 44.203L30.0041 44.2974L29.7127 44.3867L29.4184 44.4724L29.1234 44.5536L28.8266 44.6306L28.5332 44.7023L28.3094 44.7534L28.0837 44.8278L27.8756 44.9427L27.6925 45.0943L27.5406 45.2772L27.4254 45.485L27.3508 45.7108L27.3193 45.9463L27.3321 46.1837L27.3887 46.4146L27.4873 46.6309L27.6242 46.8252L27.7949 46.9907L27.9932 47.1216L28.2124 47.2136L28.4449 47.2632L28.6825 47.2688L28.8777 47.2398L29.1098 47.1867L29.119 47.1846L29.1281 47.1824L29.4428 47.1056L29.4519 47.1034L29.4609 47.101L29.7744 47.0196L29.7834 47.0173L29.7923 47.0148L30.1047 46.9288L30.1136 46.9263L30.1225 46.9238L30.4336 46.8332L30.4424 46.8306L30.4512 46.828L30.7611 46.7329L30.7698 46.7303L30.7785 46.7274L31.0871 46.6279L31.0957 46.6251L31.1043 46.6222L31.4114 46.5183L31.4201 46.5154L31.4286 46.5124L31.7343 46.4041L31.7428 46.4011L31.7512 46.3979L32.0554 46.2853L32.0639 46.2822L32.0723 46.279L32.3749 46.162L32.3833 46.1588L32.3916 46.1555L32.6927 46.0343L32.7009 46.0309L32.7091 46.0275L33.0085 45.9021L33.0168 45.8987L33.0249 45.8951L33.3226 45.7655L33.3307 45.7619L33.3388 45.7583L33.6348 45.6246L33.6428 45.621L33.6508 45.6172L33.945 45.4793L33.9529 45.4756L33.9608 45.4718L34.2531 45.3298L34.261 45.326L34.2688 45.3221L34.5592 45.1761L34.567 45.1722L34.5747 45.1682L34.8632 45.0182L34.8709 45.0142L34.8786 45.0101L35.165 44.8562L35.1726 44.8521L35.1803 44.8479L35.4646 44.69L35.4722 44.6858L35.4797 44.6815L35.7619 44.5198L35.7694 44.5155L35.7769 44.5111L36.0569 44.3456L36.0644 44.3412L36.0717 44.3367L36.3495 44.1674L36.3569 44.1629L36.3642 44.1583L36.6398 43.9852L36.647 43.9806L36.6543 43.9759L36.9275 43.7991L36.9346 43.7944L36.9418 43.7897L37.2127 43.6092L37.2198 43.6044L37.2269 43.5996L37.4953 43.4154L37.5024 43.4105L37.5094 43.4056L37.7752 43.2179L37.7822 43.2129L37.7892 43.2079L38.0525 43.0166L38.0595 43.0115L38.0663 43.0064L38.3271 42.8115L38.334 42.8064L38.3408 42.8012L38.5989 42.6029L38.6057 42.5976L38.6124 42.5923L38.8678 42.3905L38.8745 42.3852L38.8812 42.3798L38.9085 42.3576L39.0783 42.1912L39.2142 41.9961L39.3115 41.7793L39.3669 41.5482L39.3785 41.3108L39.3458 41.0753L39.27 40.85L39.1537 40.6428L39.0009 40.4607L38.817 40.31L38.6083 40.1962L38.3822 40.123L38.1464 40.0932L37.9091 40.1076ZM9.63824 40.188L9.41283 40.2634L9.20535 40.3794L9.02304 40.5319L8.87215 40.7155L8.75797 40.924L8.68444 41.1501L8.65416 41.3858L8.66816 41.6231L8.72598 41.8537L8.82555 42.0695L8.96346 42.2631L9.10363 42.4021L9.17224 42.4603L9.17979 42.4667L9.18744 42.473L9.4379 42.6789L9.44561 42.6852L9.45338 42.6914L9.70708 42.8934L9.713 42.8981L9.71894 42.9027L9.847 43.0022L9.85098 43.0053L9.85498 43.0084L9.98389 43.1069L9.98789 43.11L9.99192 43.113L10.1216 43.2105L10.1257 43.2136L10.1297 43.2166L10.2603 43.3131L10.2643 43.3161L10.2685 43.3191L10.3998 43.4147L10.4039 43.4177L10.4081 43.4207L10.5402 43.5151L10.5444 43.5181L10.5485 43.5211L10.6814 43.6145L10.6857 43.6175L10.6899 43.6204L10.8236 43.7129L10.8278 43.7157L10.8321 43.7186L10.9666 43.8101L10.9709 43.8129L10.9752 43.8158L11.1105 43.9061L11.1148 43.909L11.1191 43.9119L11.2552 44.0011L11.2595 44.004L11.2639 44.0068L11.4008 44.0951L11.4052 44.0978L11.4096 44.1006L11.5473 44.1878L11.5516 44.1906L11.5561 44.1933L11.6946 44.2794L11.699 44.2821L11.7035 44.2849L11.8427 44.3699L11.8472 44.3725L11.8517 44.3753L11.9917 44.4591L11.9962 44.4619L12.0008 44.4645L12.1416 44.5473L12.1461 44.5499L12.1507 44.5526L12.2922 44.6343L12.2968 44.6369L12.3014 44.6395L12.4438 44.72L12.4484 44.7226L12.453 44.7252L12.5961 44.8046L12.6007 44.8072L12.6054 44.8098L12.7493 44.888L12.754 44.8906L12.7586 44.8931L12.9033 44.9702L12.908 44.9727L12.9127 44.9752L13.0581 45.0512L13.0629 45.0537L13.0677 45.0561L13.2138 45.1309L13.2185 45.1334L13.2234 45.1358L13.3703 45.2094L13.375 45.2118L13.3799 45.2142L13.5275 45.2867L13.5324 45.2891L13.5372 45.2914L13.6857 45.3627L13.6905 45.365L13.6954 45.3673L13.8446 45.4374L13.8494 45.4398L13.8544 45.442L14.0042 45.5109L14.0091 45.5132L14.0141 45.5154L14.1647 45.5831L14.1697 45.5853L14.1747 45.5875L14.326 45.654L14.331 45.6562L14.336 45.6583L14.4881 45.7236L14.4931 45.7258L14.4982 45.7279L14.651 45.7919L14.656 45.794L14.6611 45.7961L14.8146 45.8589L14.8197 45.861L14.8248 45.863L14.9791 45.9246L14.9842 45.9266L14.9893 45.9286L15.1443 45.9889L15.1494 45.9909L15.1545 45.9928L15.3103 46.0519L15.3154 46.0539L15.3206 46.0558L15.4771 46.1135L15.4822 46.1154L15.4874 46.1173L15.6445 46.1738L15.6498 46.1757L15.655 46.1775L15.8129 46.2327L15.8181 46.2345L15.8233 46.2363L15.9819 46.2903L15.9871 46.292L15.9924 46.2938L16.1517 46.3464L16.1569 46.3482L16.1622 46.3499L16.3222 46.4012L16.3275 46.4029L16.3328 46.4045L16.4935 46.4545L16.4988 46.4562L16.5041 46.4578L16.6655 46.5065L16.6709 46.5081L16.6762 46.5097L16.8383 46.557L16.8436 46.5586L16.849 46.5601L17.0118 46.6061L17.0172 46.6076L17.0226 46.6091L17.1455 46.6427L17.2657 46.6843L17.271 46.686L17.2762 46.6879L17.4365 46.7417L17.4418 46.7435L17.4471 46.7452L17.6075 46.7975L17.6129 46.7993L17.6181 46.8009L17.7787 46.8517L17.7841 46.8534L17.7894 46.855L17.9501 46.9044L17.9555 46.906L17.9607 46.9076L18.1218 46.9555L18.127 46.9571L18.1324 46.9586L18.2935 47.005L18.2988 47.0065L18.3041 47.008L18.4654 47.053L18.4707 47.0544L18.4761 47.0559L18.6375 47.0993L18.6428 47.1008L18.6481 47.1022L18.8097 47.1442L18.815 47.1455L18.8203 47.1469L18.982 47.1874L18.9874 47.1888L18.9927 47.1901L19.1545 47.2292L19.1599 47.2305L19.1652 47.2317L19.1708 47.233L19.4063 47.265L19.6437 47.2528L19.8747 47.1967L20.0912 47.0987L20.2858 46.9623L20.4518 46.7921L20.5832 46.594L20.6756 46.375L20.7258 46.1427L20.732 45.9051L20.694 45.6704L20.613 45.4469L20.492 45.2423L20.3352 45.0637L20.1479 44.9174L19.9367 44.8083L19.7536 44.7504L19.7537 44.75L19.7485 44.7488L19.5956 44.7118L19.4443 44.6739L19.4409 44.673L19.3006 44.6365L19.2987 44.636L19.1499 44.596L19.1477 44.5954L18.9993 44.5541L18.997 44.5535L18.8453 44.5098L18.6915 44.4641L18.5484 44.4201L18.5451 44.4191L18.3935 44.3711L18.244 44.3224L18.0945 44.2722L17.9387 44.2184L17.899 44.2046L17.8584 44.1935L17.7006 44.1504L17.5472 44.107L17.3944 44.0624L17.3915 44.0615L17.2475 44.0181L17.0976 43.9714L16.9467 43.923L16.7966 43.8734L16.6452 43.8219L16.6445 43.8216L16.503 43.7721L16.3545 43.7187L16.207 43.6642L16.2043 43.6632L16.0646 43.6102L15.9243 43.5557L15.9229 43.5551L15.7802 43.4982L15.777 43.497L15.6319 43.4376L15.4872 43.3769L15.4839 43.3756L15.3481 43.3173L15.205 43.2544L15.0648 43.1914L14.9227 43.1261L14.9197 43.1247L14.7861 43.0618L14.6476 42.9953L14.5097 42.9276L14.3725 42.8588L14.2395 42.7907L14.2384 42.7902L14.0976 42.7167L13.9682 42.6476L13.9648 42.6458L13.8337 42.5745L13.8324 42.5738L13.6937 42.4968L13.6906 42.4951L13.5627 42.4226L13.4342 42.3486L13.432 42.3473L13.3024 42.2712L13.2995 42.2695L13.1662 42.1896L13.041 42.1132L13.0376 42.111L12.907 42.0299L12.7824 41.9511L12.7799 41.9495L12.6464 41.8634L12.6455 41.8629L12.5203 41.7807L12.5181 41.7793L12.395 41.6971L12.2739 41.6147L12.2717 41.6133L12.1448 41.5256L12.0239 41.4406L12.0216 41.4389L11.8949 41.3483L11.8918 41.3461L11.7729 41.2595L11.6545 41.1721L11.6526 41.1706L11.5281 41.077L11.5248 41.0745L11.4119 40.9882L11.4091 40.9861L11.2883 40.8921L11.0506 40.7029L10.8125 40.5072L10.7537 40.4572L10.5589 40.321L10.3422 40.2233L10.1111 40.1675L9.87376 40.1556L9.63824 40.188Z" />
</svg>
